<svg width="625" height="373" viewBox="0 0 625 373" fill="none" xmlns="http://www.w3.org/2000/svg">
    <rect width="625" height="373" fill="#FFF7FF" />
    <path
      d="M309.904 135.112C305.008 135.112 299.896 135.76 294.568 137.056C289.24 138.352 283.048 140.44 275.992 143.32L268 121.936C276.208 118.192 283.912 115.6 291.112 114.16C298.456 112.72 305.296 112 311.632 112C322.72 112 331.576 113.656 338.2 116.968C344.968 120.28 349.864 124.816 352.888 130.576C355.912 136.192 357.424 142.672 357.424 150.016V153.904C357.424 161.536 356.272 168.16 353.968 173.776C351.664 179.248 347.632 184.576 341.872 189.76L334.096 196.888C329.344 201.208 326.536 204.736 325.672 207.472C324.808 210.064 324.376 212.944 324.376 216.112V218.056H298.456V214.168C298.456 208.696 299.32 203.656 301.048 199.048C302.776 194.44 306.88 189.184 313.36 183.28L321.352 175.936C325.528 172.048 328.336 168.664 329.776 165.784C331.216 162.904 331.936 159.664 331.936 156.064V152.176C331.936 147.136 330.28 143.032 326.968 139.864C323.656 136.696 317.968 135.112 309.904 135.112ZM324.592 261.04H298.456V235.336H324.592V261.04Z"
      fill="#DA83D9" />
    <path
      d="M502.681 283.01C500.382 283.01 497.981 283.319 495.478 283.936C492.976 284.554 490.068 285.548 486.754 286.92L483 276.733C486.855 274.95 490.473 273.715 493.855 273.029C497.304 272.343 500.517 272 503.493 272C508.7 272 512.86 272.789 515.971 274.367C519.15 275.944 521.449 278.105 522.87 280.849C524.29 283.525 525 286.612 525 290.11V291.962C525 295.598 524.459 298.754 523.377 301.429C522.295 304.036 520.401 306.574 517.696 309.043L514.043 312.439C511.812 314.497 510.493 316.178 510.087 317.481C509.681 318.716 509.478 320.088 509.478 321.597V322.523H497.304V320.671C497.304 318.064 497.71 315.663 498.522 313.468C499.333 311.273 501.261 308.769 504.304 305.957L508.058 302.458C510.019 300.606 511.338 298.994 512.014 297.622C512.691 296.25 513.029 294.706 513.029 292.991V291.139C513.029 288.738 512.251 286.783 510.696 285.274C509.14 283.765 506.469 283.01 502.681 283.01ZM509.58 343H497.304V330.755H509.58V343Z"
      fill="#DA83D9" />
    <path
      d="M416.029 164.877C415.208 164.877 414.35 164.986 413.457 165.203C412.563 165.42 411.524 165.771 410.341 166.254L409 162.667C410.377 162.039 411.669 161.604 412.877 161.362C414.109 161.121 415.256 161 416.319 161C418.179 161 419.664 161.278 420.775 161.833C421.911 162.389 422.732 163.15 423.239 164.116C423.746 165.058 424 166.145 424 167.377V168.029C424 169.309 423.807 170.42 423.42 171.362C423.034 172.28 422.357 173.174 421.391 174.043L420.087 175.239C419.29 175.964 418.819 176.556 418.674 177.014C418.529 177.449 418.457 177.932 418.457 178.464V178.79H414.109V178.138C414.109 177.22 414.254 176.374 414.543 175.601C414.833 174.829 415.522 173.947 416.609 172.957L417.949 171.725C418.65 171.072 419.121 170.505 419.362 170.022C419.604 169.539 419.725 168.995 419.725 168.391V167.739C419.725 166.894 419.447 166.205 418.891 165.674C418.336 165.143 417.382 164.877 416.029 164.877ZM418.493 186H414.109V181.688H418.493V186Z"
      fill="#DA83D9" />
    <path
      d="M261.184 305.823C259.76 305.823 258.274 306.014 256.725 306.397C255.176 306.78 253.375 307.396 251.324 308.246L249 301.933C251.386 300.828 253.626 300.063 255.72 299.638C257.855 299.213 259.844 299 261.686 299C264.91 299 267.485 299.489 269.411 300.467C271.378 301.444 272.802 302.784 273.681 304.484C274.56 306.142 275 308.055 275 310.223V311.371C275 313.624 274.665 315.58 273.995 317.238C273.325 318.853 272.153 320.426 270.478 321.957L268.217 324.061C266.836 325.336 266.019 326.378 265.768 327.186C265.517 327.951 265.391 328.801 265.391 329.736V330.31H257.855V329.162C257.855 327.547 258.106 326.059 258.609 324.699C259.111 323.338 260.304 321.786 262.188 320.043L264.512 317.875C265.726 316.728 266.543 315.729 266.961 314.878C267.38 314.028 267.589 313.071 267.589 312.009V310.861C267.589 309.373 267.108 308.161 266.145 307.226C265.182 306.291 263.528 305.823 261.184 305.823ZM265.454 343H257.855V335.412H265.454V343Z"
      fill="#DA83D9" />
    <path
      d="M110.681 54.0101C108.382 54.0101 105.981 54.3188 103.478 54.9362C100.976 55.5536 98.0676 56.5483 94.7536 57.9203L91 47.7333C94.8551 45.9498 98.4734 44.715 101.855 44.029C105.304 43.343 108.517 43 111.493 43C116.7 43 120.86 43.7889 123.971 45.3667C127.15 46.9444 129.449 49.1053 130.87 51.8493C132.29 54.5246 133 57.6116 133 61.1102V62.9623C133 66.5981 132.459 69.7536 131.377 72.429C130.295 75.0358 128.401 77.5739 125.696 80.0435L122.043 83.4391C119.812 85.4971 118.493 87.1778 118.087 88.4812C117.681 89.7159 117.478 91.0879 117.478 92.5971V93.5232H105.304V91.671C105.304 89.0643 105.71 86.6633 106.522 84.4681C107.333 82.273 109.261 79.7691 112.304 76.9565L116.058 73.458C118.019 71.6058 119.338 69.9937 120.014 68.6217C120.691 67.2498 121.029 65.7063 121.029 63.9913V62.1391C121.029 59.7382 120.251 57.7831 118.696 56.2739C117.14 54.7647 114.469 54.0101 110.681 54.0101ZM117.58 114H105.304V101.755H117.58V114Z"
      fill="#DA83D9" />
    <path
      d="M165.058 204.909C163.415 204.909 161.7 205.13 159.913 205.574C158.126 206.017 156.048 206.732 153.681 207.717L151 200.4C153.754 199.119 156.338 198.232 158.754 197.739C161.217 197.246 163.512 197 165.638 197C169.357 197 172.329 197.567 174.551 198.7C176.821 199.833 178.464 201.386 179.478 203.357C180.493 205.278 181 207.496 181 210.009V211.339C181 213.951 180.614 216.217 179.841 218.139C179.068 220.012 177.715 221.835 175.783 223.609L173.174 226.048C171.58 227.526 170.638 228.733 170.348 229.67C170.058 230.557 169.913 231.542 169.913 232.626V233.291H161.217V231.961C161.217 230.088 161.507 228.364 162.087 226.787C162.667 225.21 164.043 223.412 166.217 221.391L168.899 218.878C170.3 217.548 171.242 216.39 171.725 215.404C172.208 214.419 172.449 213.31 172.449 212.078V210.748C172.449 209.023 171.894 207.619 170.783 206.535C169.671 205.451 167.763 204.909 165.058 204.909ZM169.986 248H161.217V239.204H169.986V248Z"
      fill="#DA83D9" />
    <path
      d="M69.8406 277.428C68.6908 277.428 67.4903 277.58 66.2391 277.884C64.9879 278.188 63.5338 278.679 61.8768 279.355L60 274.333C61.9275 273.454 63.7367 272.845 65.4275 272.507C67.1522 272.169 68.7585 272 70.2464 272C72.8502 272 74.93 272.389 76.4855 273.167C78.0749 273.944 79.2246 275.01 79.9348 276.362C80.6449 277.681 81 279.203 81 280.928V281.841C81 283.633 80.7295 285.188 80.1884 286.507C79.6473 287.792 78.7005 289.043 77.3478 290.261L75.5217 291.935C74.4058 292.949 73.7464 293.778 73.5435 294.42C73.3406 295.029 73.2391 295.705 73.2391 296.449V296.906H67.1522V295.993C67.1522 294.708 67.3551 293.524 67.7609 292.442C68.1667 291.36 69.1304 290.126 70.6522 288.739L72.529 287.014C73.5097 286.101 74.1691 285.307 74.5072 284.63C74.8454 283.954 75.0145 283.193 75.0145 282.348V281.435C75.0145 280.251 74.6256 279.287 73.8478 278.543C73.07 277.8 71.7343 277.428 69.8406 277.428ZM73.2899 307H67.1522V300.964H73.2899V307Z"
      fill="#DA83D9" />
    <path
      d="M474.841 66.4275C473.691 66.4275 472.49 66.5797 471.239 66.8841C469.988 67.1884 468.534 67.6787 466.877 68.3551L465 63.3333C466.928 62.4541 468.737 61.8454 470.428 61.5072C472.152 61.1691 473.758 61 475.246 61C477.85 61 479.93 61.3889 481.486 62.1667C483.075 62.9444 484.225 64.0097 484.935 65.3623C485.645 66.6812 486 68.2029 486 69.9275V70.8406C486 72.6329 485.729 74.1884 485.188 75.5072C484.647 76.7923 483.7 78.0435 482.348 79.2609L480.522 80.9348C479.406 81.9493 478.746 82.7778 478.543 83.4203C478.341 84.029 478.239 84.7053 478.239 85.4493V85.9058H472.152V84.9928C472.152 83.7077 472.355 82.5242 472.761 81.442C473.167 80.3599 474.13 79.1256 475.652 77.7391L477.529 76.0145C478.51 75.1014 479.169 74.3068 479.507 73.6304C479.845 72.9541 480.014 72.1932 480.014 71.3478V70.4348C480.014 69.2512 479.626 68.2874 478.848 67.5435C478.07 66.7995 476.734 66.4275 474.841 66.4275ZM478.29 96H472.152V89.9638H478.29V96Z"
      fill="#DA83D9" />
  </svg>
  