<svg width="958" height="526" viewBox="0 0 958 526" fill="none" xmlns="http://www.w3.org/2000/svg">
<path d="M190.18 358.309C176.246 341.703 178.412 316.946 195.018 303.012V303.012C211.623 289.078 236.381 291.244 250.314 307.85L340.305 415.096C354.238 431.702 352.072 456.459 335.467 470.393V470.393C318.861 484.326 294.104 482.16 280.17 465.555L190.18 358.309Z" fill="#D4E8D1"/>
<path d="M264.361 391.551L258.343 388.229C258.164 388.13 257.964 388.011 257.742 387.872C257.515 387.727 257.281 387.569 257.041 387.397C257.305 387.951 257.503 388.432 257.634 388.839L259.853 395.334L264.361 391.551ZM271.527 393.177L270.263 394.238C270.117 394.361 269.968 394.423 269.817 394.425C269.666 394.428 269.521 394.392 269.382 394.317L265.806 392.349L260.388 396.895L261.705 400.758C261.756 400.888 261.767 401.032 261.737 401.191C261.708 401.349 261.623 401.488 261.483 401.606L260.219 402.666L254.915 386.54L256.566 385.154L271.527 393.177ZM279.187 382.5C279.277 382.424 279.386 382.395 279.515 382.411L280.75 382.566C280.737 383.554 280.511 384.505 280.071 385.419C279.638 386.328 278.921 387.203 277.921 388.042C277.056 388.768 276.145 389.279 275.187 389.575C274.225 389.865 273.267 389.951 272.315 389.831C271.358 389.706 270.423 389.379 269.511 388.852C268.6 388.324 267.762 387.606 266.999 386.696C266.235 385.786 265.678 384.831 265.328 383.832C264.978 382.834 264.833 381.845 264.893 380.866C264.958 379.883 265.228 378.939 265.703 378.033C266.173 377.121 266.846 376.298 267.723 375.563C268.582 374.841 269.456 374.343 270.344 374.066C271.233 373.79 272.125 373.678 273.021 373.731L273.111 374.933C273.124 375.017 273.119 375.103 273.096 375.189C273.074 375.266 273.018 375.341 272.928 375.417C272.827 375.502 272.658 375.552 272.423 375.568C272.182 375.578 271.888 375.615 271.539 375.678C271.189 375.741 270.793 375.868 270.35 376.058C269.902 376.242 269.419 376.552 268.902 376.985C268.279 377.508 267.8 378.096 267.467 378.749C267.13 379.396 266.945 380.083 266.912 380.809C266.886 381.53 267.016 382.273 267.303 383.037C267.59 383.801 268.045 384.554 268.667 385.296C269.299 386.048 269.969 386.63 270.677 387.041C271.391 387.447 272.106 387.699 272.82 387.798C273.536 387.887 274.237 387.826 274.921 387.615C275.612 387.4 276.252 387.045 276.841 386.55C277.201 386.248 277.508 385.957 277.761 385.678C278.015 385.387 278.226 385.096 278.392 384.804C278.564 384.506 278.697 384.203 278.792 383.894C278.887 383.574 278.959 383.232 279.006 382.866C279.031 382.702 279.091 382.58 279.187 382.5Z" fill="#0F1F11"/>
<rect x="657.417" y="224.806" width="343" height="49" rx="15.5" transform="rotate(-40 657.417 224.806)" fill="#FCFCF7"/>
<path d="M786.082 140.073L792.614 147.857C793.328 148.708 793.79 149.61 794.002 150.563C794.218 151.513 794.142 152.469 793.773 153.433C793.4 154.392 792.692 155.309 791.649 156.183C790.163 157.431 788.691 157.978 787.236 157.825C785.786 157.668 784.494 156.914 783.362 155.565L776.857 147.813L778.265 146.632L784.804 154.425C785.66 155.446 786.589 156.007 787.592 156.11C788.6 156.209 789.641 155.807 790.717 154.904C791.452 154.288 791.942 153.652 792.187 152.997C792.434 152.333 792.469 151.667 792.293 151.001C792.119 150.325 791.767 149.672 791.237 149.041L784.691 141.24L786.082 140.073ZM795.729 136.83C796.799 135.932 797.829 135.516 798.82 135.583C799.806 135.644 800.784 136.253 801.755 137.41L806.686 143.286L805.336 144.418L800.482 138.633C799.851 137.882 799.207 137.464 798.548 137.381C797.895 137.294 797.214 137.547 796.507 138.141C795.508 138.978 795.043 139.85 795.111 140.756C795.179 141.662 795.665 142.652 796.567 143.727L800.53 148.451L799.164 149.597L791.596 140.578L792.699 139.653L793.996 140.78L794.07 140.718C793.995 140.239 794.016 139.768 794.132 139.305C794.245 138.837 794.438 138.394 794.714 137.976C794.985 137.553 795.323 137.17 795.729 136.83ZM803.298 130.759L810.866 139.778L809.5 140.924L801.932 131.905L803.298 130.759ZM799.8 127.945C800.025 127.756 800.28 127.669 800.563 127.683C800.847 127.688 801.118 127.844 801.376 128.151C801.629 128.453 801.736 128.747 801.695 129.033C801.661 129.315 801.531 129.55 801.306 129.738C801.07 129.936 800.81 130.028 800.527 130.013C800.249 129.994 799.983 129.834 799.73 129.532C799.472 129.225 799.361 128.935 799.394 128.664C799.429 128.382 799.565 128.142 799.8 127.945ZM815.875 133.949C816.1 133.76 816.314 133.547 816.517 133.311C816.721 133.075 816.874 132.867 816.976 132.688L817.867 133.749C817.768 133.954 817.596 134.201 817.352 134.49C817.114 134.774 816.86 135.029 816.591 135.254C816.114 135.655 815.612 135.936 815.084 136.098C814.552 136.255 814 136.232 813.428 136.03C812.861 135.823 812.281 135.365 811.688 134.657L807.199 129.309L805.916 130.386L805.356 129.719L806.199 128.1L805.099 125.686L805.922 124.996L807.676 127.086L810.317 124.869L811.215 125.939L808.574 128.155L813.027 133.463C813.501 134.028 813.985 134.342 814.477 134.406C814.975 134.465 815.441 134.312 815.875 133.949ZM821.882 128.908C822.107 128.719 822.321 128.507 822.525 128.27C822.728 128.034 822.881 127.826 822.983 127.647L823.874 128.709C823.775 128.914 823.603 129.16 823.359 129.449C823.121 129.733 822.867 129.988 822.599 130.214C822.121 130.614 821.619 130.895 821.091 131.058C820.559 131.215 820.007 131.192 819.435 130.989C818.869 130.782 818.289 130.325 817.695 129.617L813.206 124.268L811.923 125.345L811.363 124.679L812.207 123.06L811.106 120.645L811.929 119.955L813.683 122.045L816.325 119.829L817.222 120.898L814.581 123.115L819.034 128.423C819.509 128.988 819.992 129.302 820.485 129.365C820.983 129.424 821.448 129.272 821.882 128.908ZM829.756 116.215C830.377 116.956 830.836 117.697 831.132 118.44C831.428 119.183 831.562 119.906 831.536 120.61C831.51 121.315 831.329 121.99 830.993 122.637C830.658 123.274 830.167 123.863 829.519 124.407C828.916 124.913 828.274 125.274 827.595 125.489C826.916 125.694 826.225 125.75 825.521 125.658C824.823 125.561 824.128 125.307 823.437 124.896C822.752 124.48 822.099 123.902 821.477 123.162C820.649 122.174 820.112 121.194 819.866 120.222C819.616 119.245 819.649 118.315 819.965 117.433C820.282 116.54 820.872 115.733 821.733 115.01C822.556 114.32 823.429 113.9 824.351 113.752C825.28 113.6 826.206 113.729 827.131 114.14C828.057 114.542 828.932 115.233 829.756 116.215ZM822.893 121.974C823.5 122.698 824.123 123.246 824.762 123.617C825.4 123.988 826.042 124.151 826.686 124.105C827.331 124.06 827.968 123.773 828.599 123.243C829.225 122.719 829.616 122.143 829.772 121.516C829.934 120.885 829.888 120.222 829.633 119.529C829.379 118.836 828.948 118.127 828.34 117.403C827.737 116.684 827.121 116.145 826.492 115.785C825.858 115.419 825.221 115.262 824.581 115.313C823.941 115.363 823.303 115.656 822.667 116.19C821.728 116.977 821.3 117.865 821.381 118.853C821.468 119.836 821.972 120.877 822.893 121.974Z" fill="#1A1C19"/>
<path d="M916.877 33.854C917.72 33.1469 917.831 31.879 917.123 31.0363C916.416 30.1937 915.148 30.0828 914.306 30.7898C913.463 31.4969 913.352 32.7648 914.059 33.6075C914.766 34.4501 916.034 34.5611 916.877 33.854ZM918.162 35.3861C917.32 36.0932 917.209 37.3611 917.916 38.2037C918.623 39.0464 919.891 39.1573 920.734 38.4503C921.576 37.7432 921.687 36.4752 920.98 35.6326C920.273 34.7899 919.005 34.679 918.162 35.3861ZM922.019 39.9824C921.177 40.6894 921.066 41.9574 921.773 42.8C922.48 43.6427 923.748 43.7536 924.59 43.0465C925.433 42.3395 925.544 41.0715 924.837 40.2289C924.13 39.3862 922.862 39.2753 922.019 39.9824Z" fill="#1A1C19"/>
<rect x="657.417" y="224.806" width="343" height="49" rx="15.5" transform="rotate(-40 657.417 224.806)" stroke="#727970"/>
<path d="M459.063 292.406C453.383 285.637 454.266 275.545 461.035 269.865L712.298 59.0305C719.067 53.3505 729.159 54.2335 734.839 61.0027L742.553 70.1952C748.233 76.9644 747.35 87.0565 740.581 92.7365L489.318 303.571C482.549 309.251 472.457 308.368 466.777 301.599L459.063 292.406Z" fill="#FCFCF7"/>
<path d="M467.98 275.847L474.378 283.472L473.367 284.32L466.969 276.695L467.98 275.847ZM472.583 271.985L472.398 278.199L472.169 281.542L471.096 280.603L471.198 278.002L471.368 273.004L472.583 271.985ZM478.007 280.427L472.064 279.077L471.994 277.771L479.211 279.416L478.007 280.427ZM476.445 272.082L481.199 277.748L480.225 278.566L475.471 272.9L476.445 272.082ZM474.136 271.458C474.004 271.301 473.94 271.129 473.944 270.942C473.95 270.751 474.048 270.577 474.237 270.419C474.422 270.264 474.609 270.199 474.797 270.225C474.989 270.249 475.151 270.339 475.283 270.496C475.409 270.646 475.467 270.818 475.456 271.011C475.446 271.198 475.349 271.369 475.164 271.524C474.975 271.682 474.788 271.75 474.603 271.727C474.418 271.698 474.262 271.608 474.136 271.458ZM477.249 267.356L483.998 275.399L483.024 276.217L476.275 268.173L477.249 267.356ZM483.164 271.379L483.063 271.258C482.72 270.85 482.462 270.421 482.287 269.973C482.11 269.52 482.025 269.071 482.032 268.626C482.035 268.176 482.136 267.747 482.334 267.337C482.528 266.924 482.823 266.552 483.217 266.221C483.615 265.887 484.035 265.66 484.475 265.54C484.917 265.413 485.359 265.387 485.802 265.462C486.246 265.53 486.675 265.69 487.089 265.943C487.501 266.193 487.878 266.522 488.221 266.93L488.322 267.051C488.665 267.459 488.923 267.888 489.098 268.336C489.272 268.785 489.355 269.236 489.348 269.688C489.341 270.134 489.241 270.563 489.046 270.976C488.852 271.383 488.556 271.753 488.158 272.087C487.76 272.421 487.342 272.65 486.904 272.773C486.464 272.893 486.021 272.919 485.578 272.851C485.135 272.777 484.707 272.615 484.296 272.366C483.884 272.116 483.507 271.787 483.164 271.379ZM484.032 270.445L484.133 270.566C484.37 270.849 484.627 271.088 484.905 271.284C485.179 271.476 485.463 271.612 485.757 271.693C486.054 271.771 486.351 271.78 486.647 271.722C486.94 271.661 487.221 271.517 487.49 271.291C487.755 271.069 487.942 270.82 488.05 270.545C488.159 270.263 488.199 269.971 488.171 269.667C488.142 269.364 488.057 269.061 487.916 268.757C487.775 268.447 487.585 268.151 487.348 267.868L487.247 267.747C487.013 267.468 486.757 267.234 486.479 267.045C486.202 266.849 485.914 266.712 485.617 266.634C485.32 266.55 485.024 266.537 484.728 266.595C484.435 266.651 484.154 266.791 483.885 267.017C483.62 267.239 483.433 267.491 483.324 267.773C483.219 268.052 483.18 268.346 483.208 268.656C483.237 268.959 483.323 269.264 483.468 269.571C483.609 269.875 483.797 270.166 484.032 270.445ZM489.207 263.292L493.016 267.832L492.042 268.649L487.288 262.983L488.21 262.21L489.207 263.292ZM490.26 264.951L489.797 265.314C489.475 264.923 489.225 264.523 489.048 264.113C488.867 263.699 488.77 263.289 488.757 262.884C488.744 262.478 488.825 262.089 489 261.716C489.172 261.34 489.447 260.994 489.824 260.677C490.089 260.455 490.366 260.288 490.654 260.177C490.939 260.063 491.23 260.018 491.529 260.04C491.828 260.063 492.128 260.162 492.43 260.338C492.732 260.513 493.032 260.778 493.331 261.134L496.499 264.91L495.53 265.723L492.401 261.995C492.152 261.698 491.903 261.503 491.652 261.41C491.405 261.314 491.157 261.302 490.908 261.374C490.656 261.442 490.408 261.579 490.164 261.784C489.877 262.024 489.681 262.276 489.574 262.538C489.467 262.8 489.43 263.069 489.464 263.344C489.499 263.618 489.586 263.893 489.727 264.167C489.869 264.435 490.046 264.697 490.26 264.951ZM493.483 261.337L493 262.081C492.743 261.767 492.543 261.426 492.401 261.058C492.262 260.687 492.193 260.31 492.194 259.929C492.199 259.544 492.286 259.17 492.457 258.807C492.625 258.44 492.889 258.105 493.249 257.804C493.552 257.549 493.855 257.363 494.156 257.247C494.461 257.128 494.764 257.085 495.065 257.118C495.367 257.145 495.668 257.252 495.968 257.44C496.269 257.628 496.569 257.9 496.867 258.256L499.992 261.979L499.018 262.797L495.885 259.063C495.618 258.745 495.361 258.542 495.113 258.452C494.866 258.356 494.622 258.349 494.382 258.432C494.143 258.508 493.899 258.65 493.651 258.858C493.438 259.036 493.281 259.231 493.178 259.442C493.075 259.653 493.022 259.87 493.019 260.093C493.013 260.313 493.049 260.529 493.127 260.743C493.209 260.954 493.328 261.152 493.483 261.337ZM504.089 258.72C503.694 259.051 503.281 259.285 502.848 259.422C502.416 259.552 501.982 259.592 501.547 259.541C501.115 259.487 500.697 259.344 500.294 259.111C499.89 258.878 499.522 258.563 499.188 258.165L499.003 257.945C498.617 257.484 498.341 257.017 498.175 256.543C498.006 256.066 497.934 255.603 497.957 255.156C497.98 254.708 498.085 254.295 498.274 253.917C498.462 253.539 498.715 253.217 499.033 252.95C499.438 252.61 499.845 252.387 500.256 252.281C500.67 252.171 501.076 252.163 501.476 252.256C501.872 252.346 502.258 252.522 502.633 252.785C503.005 253.044 503.358 253.372 503.692 253.77L504.057 254.205L499.825 257.755L499.162 256.964L502.424 254.227L502.363 254.154C502.138 253.914 501.881 253.713 501.591 253.552C501.304 253.388 501 253.31 500.679 253.317C500.359 253.325 500.032 253.468 499.701 253.746C499.481 253.931 499.318 254.148 499.212 254.397C499.103 254.643 499.058 254.913 499.078 255.205C499.098 255.498 499.181 255.806 499.327 256.13C499.474 256.453 499.69 256.786 499.977 257.128L500.162 257.348C500.387 257.617 500.636 257.839 500.909 258.015C501.182 258.184 501.465 258.298 501.757 258.356C502.053 258.411 502.347 258.403 502.638 258.331C502.932 258.257 503.212 258.108 503.477 257.885C503.82 257.598 504.051 257.285 504.171 256.946C504.291 256.608 504.342 256.247 504.324 255.863L505.302 255.837C505.335 256.125 505.327 256.431 505.279 256.757C505.231 257.083 505.113 257.414 504.926 257.75C504.741 258.083 504.462 258.407 504.089 258.72ZM505.146 247.999L505.77 248.743L502.706 251.313L502.082 250.57L505.146 247.999ZM501.964 248.322L502.932 247.509L507.665 253.149C507.826 253.341 507.977 253.461 508.118 253.509C508.26 253.557 508.391 253.557 508.511 253.51C508.632 253.462 508.746 253.393 508.855 253.302C508.935 253.235 509.013 253.157 509.088 253.07C509.165 252.976 509.221 252.905 509.258 252.857L509.926 253.643C509.87 253.732 509.788 253.84 509.68 253.966C509.578 254.093 509.44 254.23 509.265 254.376C509.028 254.575 508.77 254.711 508.492 254.784C508.214 254.857 507.923 254.833 507.62 254.713C507.317 254.586 507.008 254.334 506.692 253.957L501.964 248.322ZM513.667 250.683C513.273 251.014 512.859 251.248 512.427 251.384C511.995 251.515 511.561 251.555 511.126 251.504C510.694 251.45 510.276 251.306 509.872 251.074C509.469 250.841 509.1 250.526 508.766 250.128L508.582 249.908C508.195 249.447 507.919 248.98 507.753 248.506C507.585 248.029 507.512 247.566 507.535 247.118C507.558 246.671 507.664 246.258 507.852 245.88C508.041 245.502 508.294 245.179 508.611 244.913C509.016 244.573 509.424 244.35 509.834 244.243C510.248 244.134 510.655 244.126 511.054 244.219C511.451 244.309 511.837 244.485 512.212 244.747C512.584 245.006 512.937 245.335 513.27 245.733L513.635 246.167L509.404 249.718L508.74 248.927L512.003 246.19L511.941 246.116C511.716 245.877 511.459 245.676 511.169 245.515C510.883 245.351 510.579 245.272 510.258 245.28C509.937 245.287 509.611 245.43 509.279 245.709C509.059 245.893 508.896 246.11 508.79 246.36C508.682 246.606 508.637 246.875 508.657 247.168C508.676 247.461 508.759 247.769 508.906 248.092C509.052 248.416 509.269 248.748 509.556 249.091L509.74 249.31C509.966 249.579 510.215 249.802 510.488 249.978C510.761 250.147 511.043 250.261 511.336 250.319C511.632 250.374 511.925 250.365 512.216 250.294C512.511 250.219 512.791 250.071 513.056 249.848C513.398 249.561 513.629 249.248 513.749 248.909C513.87 248.57 513.921 248.209 513.902 247.826L514.88 247.8C514.913 248.087 514.906 248.394 514.858 248.72C514.81 249.046 514.692 249.377 514.504 249.713C514.32 250.046 514.041 250.369 513.667 250.683ZM514.068 242.03L518.075 246.805L517.106 247.618L512.352 241.952L513.295 241.161L514.068 242.03ZM515.065 239.623L515.815 240.528C515.72 240.578 515.635 240.632 515.558 240.69C515.483 240.741 515.399 240.805 515.309 240.881C515.085 241.069 514.917 241.269 514.805 241.483C514.692 241.696 514.629 241.915 514.616 242.141C514.603 242.366 514.635 242.595 514.711 242.828C514.788 243.055 514.903 243.28 515.055 243.504L514.914 243.889C514.627 243.547 514.391 243.198 514.205 242.842C514.023 242.483 513.907 242.129 513.857 241.778C513.804 241.424 513.833 241.09 513.945 240.777C514.057 240.456 514.266 240.167 514.574 239.91C514.643 239.851 514.731 239.792 514.836 239.734C514.939 239.672 515.015 239.635 515.065 239.623Z" fill="#1A1C19"/>
<path d="M479.092 289.959L484.877 296.854L484.042 297.554L478.257 290.66L479.092 289.959ZM483.769 289.508L483.552 293.552L483.399 295.776L482.59 294.948L482.587 293.222L482.755 290.359L483.769 289.508ZM487.086 295.001L483.41 294.138L483.219 293.036L488.064 294.18L487.086 295.001ZM486.568 288.803L489.834 292.695L488.999 293.395L484.924 288.539L485.714 287.876L486.568 288.803ZM487.471 290.225L487.074 290.536C486.798 290.201 486.584 289.858 486.432 289.506C486.277 289.152 486.194 288.801 486.183 288.453C486.172 288.106 486.241 287.772 486.391 287.453C486.539 287.13 486.774 286.833 487.097 286.562C487.325 286.371 487.562 286.228 487.808 286.133C488.053 286.035 488.303 285.996 488.559 286.016C488.815 286.036 489.073 286.121 489.331 286.271C489.59 286.421 489.847 286.649 490.103 286.954L492.819 290.19L491.988 290.887L489.307 287.691C489.093 287.437 488.879 287.27 488.664 287.19C488.452 287.107 488.24 287.097 488.026 287.159C487.811 287.218 487.598 287.335 487.388 287.511C487.143 287.717 486.975 287.932 486.883 288.157C486.791 288.382 486.76 288.612 486.789 288.847C486.818 289.083 486.893 289.318 487.014 289.553C487.136 289.783 487.288 290.007 487.471 290.225ZM490.234 287.127L489.82 287.765C489.6 287.496 489.428 287.204 489.306 286.888C489.187 286.57 489.128 286.247 489.129 285.92C489.133 285.591 489.208 285.27 489.354 284.958C489.498 284.644 489.724 284.357 490.033 284.099C490.293 283.88 490.552 283.721 490.811 283.622C491.072 283.52 491.331 283.483 491.59 283.511C491.848 283.534 492.106 283.626 492.364 283.787C492.622 283.948 492.879 284.181 493.135 284.487L495.813 287.678L494.978 288.378L492.292 285.178C492.064 284.906 491.843 284.731 491.631 284.654C491.419 284.572 491.21 284.566 491.005 284.637C490.799 284.702 490.59 284.824 490.378 285.002C490.195 285.155 490.06 285.322 489.972 285.503C489.884 285.684 489.839 285.87 489.836 286.061C489.831 286.249 489.862 286.435 489.929 286.618C489.999 286.799 490.1 286.969 490.234 287.127Z" fill="#414940"/>
<path d="M715.675 73.1673C714.342 74.2857 713.583 75.9797 713.571 77.6608C711.913 77.3809 710.113 77.8339 708.78 78.9523C706.421 80.9321 706.123 84.3415 708.102 86.7009C710.532 89.5966 715.117 89.7705 722.07 90.0452L724.023 90.1167L724.285 88.1735C725.228 81.2857 725.853 76.7408 723.423 73.8452C721.444 71.4857 718.034 71.1875 715.675 73.1673ZM722.3 87.9075L722.287 88.0484L722.146 88.0361C715.73 87.7941 711.492 87.6292 709.635 85.4153C708.349 83.8833 708.534 81.77 710.066 80.4844C711.246 79.4945 713.031 79.2887 714.318 79.9975L715.75 78.7955C715.268 77.4118 715.781 75.6892 716.96 74.6993C718.492 73.4138 720.606 73.5987 721.891 75.1307C723.749 77.3446 723.175 81.5462 722.3 87.9075Z" fill="#1A1C19"/>
<path d="M461.678 270.631L712.941 59.7966L711.655 58.2645L460.392 269.099L461.678 270.631ZM734.073 61.6454L741.787 70.838L743.319 69.5524L735.605 60.3599L734.073 61.6454ZM739.938 91.9705L488.675 302.805L489.961 304.337L741.223 93.5025L739.938 91.9705ZM467.543 300.956L459.829 291.763L458.297 293.049L466.011 302.242L467.543 300.956ZM488.675 302.805C482.329 308.13 472.868 307.302 467.543 300.956L466.011 302.242C472.046 309.434 482.768 310.372 489.961 304.337L488.675 302.805ZM741.787 70.838C747.112 77.1841 746.284 86.6454 739.938 91.9705L741.223 93.5025C748.416 87.4675 749.354 76.7447 743.319 69.5524L741.787 70.838ZM712.941 59.7966C719.287 54.4716 728.748 55.2993 734.073 61.6454L735.605 60.3599C729.57 53.1676 718.847 52.2295 711.655 58.2645L712.941 59.7966ZM460.392 269.099C453.2 275.134 452.262 285.857 458.297 293.049L459.829 291.763C454.504 285.417 455.332 275.956 461.678 270.631L460.392 269.099Z" fill="#727970"/>
<path d="M375.842 388.489C361.908 371.884 364.074 347.126 380.68 333.193V333.193C397.285 319.259 422.042 321.425 435.976 338.03L525.966 445.277C539.9 461.882 537.734 486.64 521.129 500.573V500.573C504.523 514.507 479.766 512.341 465.832 495.736L375.842 388.489Z" fill="#E1E3DD"/>
<path d="M451.223 425.277L459.296 418.503L460.25 419.64L452.178 426.414L451.223 425.277ZM454.976 413.354L455.937 414.5L452.508 417.378L455.11 420.479L453.88 421.511L451.278 418.41L447.865 421.274L446.903 420.128L450.316 417.264L447.657 414.096L448.888 413.064L451.546 416.232L454.976 413.354Z" fill="#0F1F11"/>
<path d="M360.185 67.6001C357.345 64.2155 357.786 59.1694 361.171 56.3294L421.688 5.54919C425.073 2.70918 430.119 3.15065 432.959 6.53525L443.243 18.792C446.083 22.1766 445.642 27.2226 442.257 30.0626L381.74 80.8428C378.355 83.6828 373.309 83.2414 370.469 79.8568L360.185 67.6001Z" fill="#D4E8D1"/>
<path d="M377.839 66.8589L373.922 66.5163L373.801 67.8448L379.051 68.3042L380.037 57.0335L378.713 56.9177L377.839 66.8589Z" fill="#1A1C19"/>
<path d="M394.553 55.7315L388.129 48.0755L389.203 47.1748L394.845 53.8986L398.17 51.1084L398.952 52.0405L394.553 55.7315ZM397.55 43.205C398.052 42.7832 398.574 42.5296 399.115 42.4444C399.654 42.3556 400.183 42.4262 400.703 42.656C401.223 42.8859 401.706 43.2662 402.151 43.7968L402.652 44.3938L398.735 47.6806C399.264 48.2897 399.821 48.6312 400.407 48.7051C400.989 48.7754 401.558 48.5778 402.113 48.112C402.48 47.8044 402.777 47.4956 403.005 47.1856C403.232 46.8755 403.443 46.5235 403.635 46.1296L404.378 47.0146C404.2 47.3904 403.989 47.731 403.745 48.0364C403.508 48.3424 403.187 48.6653 402.782 49.0051C402.224 49.4738 401.639 49.7737 401.03 49.9047C400.423 50.0328 399.82 49.9768 399.22 49.7366C398.617 49.493 398.046 49.0501 397.507 48.4077C396.974 47.7723 396.625 47.1401 396.46 46.5111C396.292 45.8785 396.301 45.2792 396.486 44.7132C396.671 44.1472 397.026 43.6444 397.55 43.205ZM398.23 44.0263C397.804 44.3837 397.579 44.8104 397.555 45.3065C397.528 45.7991 397.709 46.3227 398.097 46.8775L400.935 44.4959C400.665 44.1812 400.38 43.9443 400.08 43.7855C399.78 43.6266 399.474 43.5626 399.16 43.5934C398.851 43.6213 398.54 43.7656 398.23 44.0263ZM404.339 37.5076C405.006 36.9481 405.658 36.6865 406.296 36.7228C406.936 36.7562 407.567 37.143 408.188 37.8831L411.343 41.643L410.301 42.5174L407.265 38.8989C406.878 38.4381 406.487 38.1774 406.091 38.1169C405.692 38.0529 405.284 38.1967 404.865 38.5482C404.268 39.0491 403.997 39.577 404.052 40.1317C404.11 40.6835 404.421 41.2945 404.983 41.9648L407.453 44.9078L406.4 45.791L401.558 40.0202L402.39 39.3216L403.223 40.0058L403.281 39.9575C403.233 39.6525 403.246 39.3528 403.321 39.0585C403.395 38.7641 403.519 38.4871 403.694 38.2275C403.87 37.9614 404.085 37.7214 404.339 37.5076ZM416.975 41.3078C416.204 41.9552 415.491 42.3118 414.839 42.3776C414.19 42.4405 413.653 42.2189 413.228 41.7126C412.926 41.3531 412.783 40.9524 412.799 40.5106C412.818 40.0723 412.995 39.6382 413.33 39.2082C413.118 39.2673 412.896 39.2721 412.664 39.2227C412.433 39.1669 412.241 39.0482 412.089 38.8667C411.91 38.6537 411.816 38.4206 411.806 38.1674C411.796 37.9078 411.85 37.6036 411.968 37.2549C411.559 37.384 411.14 37.3814 410.712 37.2469C410.281 37.1089 409.901 36.8444 409.573 36.4534C409.225 36.0379 409.015 35.6104 408.943 35.1706C408.875 34.728 408.942 34.2907 409.145 33.8588C409.348 33.4269 409.687 33.0118 410.162 32.6134C410.266 32.5255 410.379 32.4399 410.499 32.3567C410.617 32.2699 410.734 32.1928 410.85 32.1253C410.965 32.0578 411.062 32.0064 411.14 31.9711L413.13 30.3014L413.652 30.9245L412.758 31.9429C412.97 31.9906 413.184 32.0788 413.399 32.2076C413.615 32.3365 413.813 32.5091 413.995 32.7255C414.487 33.312 414.676 33.9448 414.561 34.6238C414.447 35.2964 414.038 35.9285 413.333 36.5203C413.166 36.6545 412.988 36.7796 412.8 36.8958C412.723 37.109 412.69 37.3003 412.701 37.4694C412.71 37.6351 412.769 37.7843 412.881 37.917C412.966 38.0182 413.068 38.0724 413.187 38.0796C413.309 38.0838 413.448 38.0475 413.604 37.9705C413.756 37.8901 413.925 37.7722 414.11 37.6169L415.116 36.7733C415.744 36.246 416.337 35.9744 416.895 35.9585C417.453 35.9426 417.945 36.1895 418.373 36.6992C418.915 37.3451 419.067 38.0652 418.829 38.8596C418.592 39.6539 417.974 40.47 416.975 41.3078ZM416.366 40.5073C416.816 40.1294 417.153 39.7691 417.378 39.4264C417.605 39.0808 417.725 38.7597 417.738 38.4633C417.751 38.1668 417.661 37.9034 417.468 37.673C417.292 37.4635 417.107 37.3454 416.912 37.3186C416.723 37.2924 416.515 37.3421 416.287 37.4678C416.06 37.5934 415.803 37.7763 415.516 38.0165L414.563 38.8163C414.319 39.0213 414.138 39.2384 414.021 39.4675C413.904 39.6967 413.855 39.9253 413.874 40.1534C413.895 40.3849 413.996 40.6072 414.174 40.8202C414.418 41.1099 414.728 41.2276 415.104 41.1732C415.485 41.1159 415.905 40.8939 416.366 40.5073ZM412.778 35.7633C413.165 35.4381 413.37 35.0938 413.392 34.7302C413.411 34.3631 413.261 33.9893 412.942 33.6087C412.599 33.2003 412.244 32.9751 411.875 32.9332C411.507 32.8912 411.131 33.0314 410.747 33.3536C410.373 33.667 410.176 34.0137 410.156 34.3937C410.136 34.7672 410.296 35.1564 410.636 35.5614C410.95 35.9349 411.292 36.1412 411.664 36.1802C412.033 36.2157 412.404 36.0767 412.778 35.7633ZM420.525 32.663C420.675 32.537 420.816 32.3974 420.949 32.244C421.08 32.0872 421.183 31.941 421.259 31.8054L421.936 32.6118C421.861 32.7638 421.739 32.9407 421.569 33.1426C421.406 33.345 421.222 33.5327 421.016 33.7055C420.701 33.9691 420.371 34.1538 420.026 34.2594C419.68 34.365 419.321 34.3514 418.947 34.2184C418.578 34.0825 418.198 33.7825 417.808 33.3181L415.075 30.061L414.274 30.7332L413.865 30.2462L414.378 29.1557L413.704 27.5974L414.353 27.0525L415.452 28.3617L417.122 26.96L417.803 27.7717L416.133 29.1734L418.853 32.4148C419.125 32.7395 419.406 32.9177 419.694 32.9494C419.986 32.9782 420.263 32.8827 420.525 32.663ZM417.466 22.62L419.347 24.8613C419.496 25.0394 419.638 25.2183 419.771 25.3982C419.904 25.578 420.012 25.7314 420.094 25.8583L420.157 25.8056C420.109 25.5006 420.119 25.207 420.186 24.925C420.253 24.6365 420.372 24.3639 420.543 24.1072C420.715 23.844 420.929 23.6055 421.183 23.3916C421.634 23.0138 422.076 22.7678 422.51 22.6537C422.943 22.5396 423.371 22.5705 423.792 22.7465C424.211 22.9189 424.626 23.2513 425.039 23.7435L428.194 27.5034L427.152 28.3779L424.116 24.7594C423.729 24.2985 423.338 24.0379 422.942 23.9774C422.543 23.9134 422.134 24.0571 421.716 24.4086C421.318 24.7426 421.067 25.0895 420.965 25.4492C420.859 25.8055 420.885 26.1798 421.041 26.5719C421.198 26.9641 421.463 27.3836 421.838 27.8305L424.303 30.7682L423.251 31.6514L416.414 23.5032L417.466 22.62Z" fill="#0F1F11"/>
<rect x="504.996" y="348.836" width="150" height="49" rx="16" transform="rotate(-40 504.996 348.836)" fill="#D4E8D1"/>
<path d="M557.367 336.698L557.759 336.369C557.895 336.255 557.99 336.148 558.046 336.046C558.098 335.942 558.123 335.82 558.122 335.681L558.25 330.639C558.244 330.486 558.265 330.358 558.314 330.257C558.362 330.155 558.444 330.056 558.558 329.96L559.438 329.222L559.286 334.987C559.286 335.133 559.277 335.263 559.257 335.377C559.237 335.485 559.205 335.588 559.16 335.687C559.284 335.638 559.412 335.613 559.544 335.611C559.674 335.606 559.818 335.622 559.977 335.659L566.089 336.735L565.188 337.491C565.12 337.548 565.058 337.594 565.002 337.629C564.947 337.657 564.894 337.677 564.843 337.69C564.789 337.698 564.738 337.702 564.688 337.701C564.639 337.693 564.587 337.682 564.532 337.667L559.323 336.839C559.176 336.81 559.047 336.811 558.935 336.845C558.819 336.874 558.678 336.96 558.51 337.101L558.038 337.497L560.99 341.014L559.955 341.883L553.507 334.199L554.542 333.33L557.367 336.698ZM563.28 329.835L567.838 335.267L566.884 336.068L562.326 330.636L563.28 329.835ZM562.053 327.959C562.131 328.052 562.185 328.156 562.215 328.271C562.245 328.38 562.255 328.494 562.245 328.612C562.235 328.724 562.202 328.833 562.146 328.941C562.094 329.046 562.021 329.137 561.929 329.215C561.836 329.293 561.733 329.349 561.621 329.382C561.512 329.412 561.402 329.423 561.29 329.413C561.175 329.4 561.067 329.369 560.965 329.32C560.861 329.268 560.769 329.195 560.691 329.102C560.613 329.009 560.558 328.907 560.524 328.794C560.488 328.679 560.475 328.565 560.485 328.453C560.492 328.338 560.519 328.229 560.568 328.127C560.62 328.023 560.693 327.931 560.786 327.853C560.879 327.775 560.981 327.72 561.093 327.686C561.209 327.65 561.324 327.639 561.439 327.652C561.555 327.659 561.666 327.69 561.774 327.746C561.882 327.795 561.975 327.866 562.053 327.959ZM563.766 325.225L570.393 333.124L569.439 333.925L562.811 326.026L563.766 325.225ZM569.601 324.386C569.998 324.053 570.411 323.819 570.84 323.684C571.269 323.549 571.698 323.509 572.127 323.563C572.557 323.617 572.976 323.768 573.385 324.016C573.794 324.257 574.177 324.591 574.534 325.016C574.894 325.445 575.158 325.882 575.324 326.327C575.494 326.769 575.568 327.207 575.547 327.639C575.526 328.071 575.412 328.486 575.204 328.886C574.994 329.281 574.691 329.646 574.294 329.979C573.894 330.315 573.479 330.553 573.049 330.694C572.62 330.829 572.19 330.869 571.761 330.815C571.332 330.761 570.913 330.614 570.503 330.372C570.097 330.128 569.714 329.792 569.354 329.363C568.997 328.937 568.734 328.503 568.564 328.061C568.395 327.612 568.32 327.172 568.342 326.74C568.363 326.308 568.477 325.892 568.684 325.493C568.895 325.091 569.201 324.722 569.601 324.386ZM573.669 329.233C574.205 328.783 574.455 328.269 574.42 327.689C574.381 327.106 574.092 326.493 573.552 325.849C573.009 325.202 572.454 324.809 571.887 324.67C571.319 324.531 570.767 324.686 570.231 325.136C569.959 325.364 569.76 325.61 569.635 325.874C569.513 326.135 569.457 326.41 569.468 326.699C569.483 326.986 569.564 327.286 569.712 327.6C569.861 327.908 570.07 328.223 570.34 328.545C570.88 329.188 571.434 329.579 572.001 329.718C572.569 329.851 573.125 329.689 573.669 329.233ZM578.026 326.719L573.468 321.287L574.042 320.805C574.178 320.691 574.317 320.687 574.461 320.792L574.998 321.292C574.991 320.877 575.047 320.486 575.165 320.119C575.284 319.751 575.507 319.43 575.836 319.154C576.201 318.848 576.581 318.702 576.977 318.717C577.377 318.729 577.773 318.866 578.164 319.129C578.077 318.866 578.035 318.612 578.036 318.367C578.042 318.119 578.082 317.885 578.158 317.663C578.233 317.441 578.339 317.236 578.475 317.049C578.614 316.859 578.773 316.69 578.952 316.54C579.238 316.3 579.53 316.133 579.83 316.04C580.13 315.94 580.431 315.914 580.731 315.96C581.036 316.003 581.337 316.119 581.635 316.307C581.93 316.492 582.216 316.749 582.492 317.078L585.394 320.537L584.434 321.342L581.532 317.883C581.175 317.458 580.812 317.214 580.443 317.152C580.071 317.086 579.71 317.201 579.36 317.494C579.203 317.626 579.076 317.781 578.981 317.958C578.887 318.129 578.831 318.313 578.814 318.51C578.797 318.707 578.825 318.915 578.899 319.134C578.973 319.345 579.1 319.559 579.28 319.773L582.182 323.232L581.222 324.037L578.32 320.578C577.954 320.142 577.593 319.891 577.238 319.823C576.883 319.756 576.538 319.863 576.202 320.145C575.966 320.343 575.802 320.59 575.709 320.887C575.614 321.18 575.574 321.506 575.589 321.865L578.986 325.913L578.026 326.719ZM587.704 312.96C587.518 312.738 587.317 312.563 587.099 312.435C586.882 312.3 586.658 312.218 586.425 312.187C586.193 312.151 585.962 312.168 585.73 312.241C585.495 312.31 585.269 312.436 585.051 312.619C584.593 313.003 584.343 313.441 584.3 313.934C584.257 314.421 584.402 314.927 584.733 315.453L587.704 312.96ZM590.614 314.859C590.616 315.101 590.579 315.345 590.505 315.59C590.428 315.832 590.323 316.066 590.19 316.293C590.061 316.517 589.91 316.729 589.737 316.929C589.567 317.133 589.383 317.317 589.187 317.482C588.811 317.797 588.412 318.025 587.989 318.167C587.566 318.303 587.137 318.346 586.701 318.298C586.265 318.243 585.831 318.089 585.399 317.836C584.968 317.583 584.555 317.223 584.162 316.754C583.844 316.375 583.605 315.973 583.443 315.549C583.285 315.121 583.215 314.696 583.232 314.273C583.246 313.847 583.353 313.434 583.554 313.034C583.751 312.631 584.047 312.264 584.44 311.934C584.765 311.661 585.112 311.465 585.48 311.344C585.849 311.218 586.221 311.174 586.595 311.213C586.97 311.246 587.342 311.367 587.711 311.574C588.077 311.779 588.423 312.074 588.747 312.46C588.873 312.61 588.941 312.724 588.95 312.801C588.96 312.878 588.92 312.954 588.831 313.029L585.201 316.075C585.499 316.409 585.796 316.669 586.092 316.854C586.39 317.035 586.687 317.149 586.981 317.195C587.272 317.237 587.557 317.214 587.837 317.125C588.113 317.034 588.38 316.88 588.637 316.664C588.877 316.463 589.06 316.264 589.186 316.066C589.314 315.862 589.413 315.675 589.484 315.506C589.555 315.336 589.609 315.19 589.646 315.068C589.684 314.939 589.733 314.848 589.794 314.797C589.873 314.732 589.959 314.711 590.053 314.736L590.614 314.859ZM594.209 313.287C593.78 313.646 593.348 313.804 592.915 313.76C592.485 313.712 592.081 313.463 591.703 313.013L588.914 309.688L588.26 310.237C588.202 310.285 588.141 310.309 588.074 310.31C588.005 310.307 587.94 310.27 587.88 310.199L587.561 309.818L588.356 308.959L587.168 307.096C587.134 307.033 587.121 306.971 587.13 306.909C587.139 306.84 587.174 306.78 587.235 306.729L587.717 306.324L589.288 308.195L590.859 306.877L591.439 307.569L589.868 308.887L592.604 312.147C592.796 312.376 592.994 312.5 593.198 312.517C593.401 312.535 593.591 312.471 593.766 312.324C593.866 312.24 593.941 312.155 593.992 312.07C594.043 311.979 594.082 311.894 594.109 311.817C594.135 311.74 594.156 311.674 594.171 311.619C594.186 311.557 594.208 311.514 594.236 311.49C594.287 311.448 594.357 311.441 594.447 311.469L595.108 311.691C595.073 311.983 594.976 312.271 594.819 312.555C594.659 312.836 594.455 313.08 594.209 313.287ZM597.141 305.042C596.955 304.82 596.753 304.645 596.536 304.517C596.319 304.382 596.094 304.3 595.862 304.269C595.63 304.232 595.398 304.25 595.166 304.323C594.932 304.392 594.705 304.518 594.487 304.701C594.03 305.085 593.779 305.523 593.736 306.016C593.694 306.503 593.838 307.009 594.17 307.535L597.141 305.042ZM600.05 306.941C600.052 307.183 600.016 307.427 599.941 307.672C599.864 307.914 599.759 308.148 599.626 308.375C599.498 308.599 599.347 308.811 599.173 309.011C599.003 309.215 598.82 309.399 598.623 309.564C598.248 309.879 597.848 310.107 597.425 310.249C597.003 310.384 596.573 310.428 596.137 310.38C595.701 310.325 595.267 310.171 594.836 309.918C594.404 309.665 593.992 309.305 593.599 308.836C593.281 308.457 593.041 308.055 592.88 307.631C592.722 307.203 592.651 306.777 592.668 306.355C592.682 305.929 592.79 305.516 592.99 305.116C593.188 304.713 593.483 304.346 593.876 304.016C594.202 303.743 594.549 303.547 594.917 303.426C595.286 303.3 595.657 303.256 596.031 303.295C596.406 303.328 596.778 303.448 597.148 303.656C597.514 303.861 597.859 304.156 598.183 304.542C598.309 304.692 598.377 304.806 598.387 304.883C598.397 304.96 598.357 305.036 598.267 305.111L594.637 308.157C594.936 308.491 595.233 308.751 595.528 308.935C595.827 309.117 596.123 309.231 596.417 309.277C596.708 309.319 596.994 309.296 597.273 309.207C597.549 309.116 597.816 308.962 598.074 308.746C598.313 308.545 598.496 308.345 598.623 308.148C598.75 307.944 598.849 307.757 598.92 307.588C598.991 307.418 599.046 307.272 599.083 307.15C599.121 307.02 599.17 306.93 599.231 306.879C599.309 306.813 599.396 306.793 599.489 306.818L600.05 306.941ZM599.209 301.543C599.068 301.027 599.036 300.561 599.113 300.143C599.186 299.722 599.403 299.36 599.764 299.058C599.879 298.962 599.998 298.883 600.123 298.821C600.251 298.756 600.379 298.715 600.506 298.7L601.035 299.472C601.088 299.579 601.072 299.669 600.986 299.741C600.936 299.783 600.854 299.834 600.739 299.893C600.625 299.953 600.507 300.033 600.385 300.135C600.214 300.279 600.081 300.433 599.987 300.597C599.897 300.758 599.84 300.934 599.817 301.124C599.794 301.308 599.801 301.509 599.839 301.727C599.876 301.939 599.939 302.167 600.027 302.41L602.907 305.841L601.947 306.647L597.389 301.215L597.936 300.756C598.04 300.669 598.128 300.629 598.2 300.635C598.272 300.641 598.356 300.687 598.452 300.771L599.209 301.543Z" fill="#0F1F11"/>
<path d="M570.104 428.013C567.264 424.629 567.705 419.583 571.09 416.743L610.158 383.961C613.543 381.121 618.589 381.562 621.429 384.947L631.713 397.203C634.553 400.588 634.112 405.634 630.727 408.474L591.659 441.256C588.274 444.096 583.228 443.655 580.388 440.27L570.104 428.013Z" fill="#FCFCF7"/>
<path d="M595.456 423.71L587.545 419.132L587.503 419.167C587.634 419.301 587.8 419.477 588 419.695C588.202 419.907 588.417 420.143 588.647 420.402C588.877 420.655 589.099 420.909 589.313 421.164L593.105 425.683L592.121 426.509L585.697 418.853L587.241 417.557L594.742 421.891L594.779 421.861L591.871 413.673L593.405 412.385L599.829 420.041L598.792 420.911L594.947 416.329C594.754 416.099 594.557 415.857 594.356 415.603C594.152 415.346 593.961 415.101 593.784 414.869C593.608 414.63 593.463 414.433 593.351 414.278L593.304 414.317L596.373 422.941L595.456 423.71ZM599.112 410.64C599.824 410.042 600.489 409.754 601.109 409.776C601.725 409.794 602.319 410.144 602.89 410.825L606.163 414.726L605.409 415.359L604.502 414.692L604.46 414.727C604.475 415.072 604.454 415.387 604.397 415.673C604.339 415.959 604.225 416.234 604.053 416.497C603.885 416.757 603.636 417.025 603.308 417.3C602.959 417.593 602.596 417.791 602.218 417.894C601.84 417.997 601.467 417.988 601.099 417.869C600.732 417.743 600.384 417.484 600.056 417.093C599.564 416.507 599.416 415.873 599.611 415.191C599.807 414.51 600.35 413.771 601.241 412.976L602.201 412.099L601.928 411.774C601.551 411.324 601.183 411.091 600.825 411.076C600.471 411.058 600.114 411.2 599.754 411.501C599.458 411.75 599.21 412.033 599.011 412.349C598.809 412.661 598.632 412.982 598.48 413.311L597.503 412.828C597.658 412.46 597.869 412.084 598.136 411.7C598.406 411.312 598.731 410.959 599.112 410.64ZM602.77 412.799L601.995 413.512C601.348 414.096 600.973 414.602 600.867 415.029C600.763 415.45 600.858 415.837 601.154 416.19C601.412 416.497 601.693 416.645 601.998 416.633C602.303 416.62 602.608 416.487 602.912 416.232C603.379 415.84 603.654 415.386 603.734 414.873C603.815 414.352 603.639 413.834 603.205 413.317L602.77 412.799ZM610.453 408.378C610.767 408.752 610.939 409.145 610.971 409.559C611.003 409.966 610.899 410.381 610.658 410.803C610.418 411.225 610.053 411.641 609.564 412.051C609.159 412.391 608.784 412.652 608.438 412.836C608.095 413.022 607.756 413.158 607.422 413.242L606.64 412.309C606.997 412.218 607.383 412.079 607.797 411.892C608.212 411.705 608.579 411.476 608.9 411.207C609.351 410.829 609.615 410.485 609.694 410.175C609.777 409.862 609.715 409.583 609.51 409.339C609.39 409.196 609.245 409.104 609.073 409.063C608.899 409.018 608.666 409.027 608.372 409.089C608.08 409.144 607.687 409.257 607.193 409.427C606.706 409.592 606.272 409.712 605.89 409.789C605.512 409.862 605.169 409.855 604.863 409.767C604.557 409.679 604.269 409.474 604 409.153C603.581 408.653 603.461 408.106 603.639 407.51C603.818 406.908 604.235 406.331 604.892 405.781C605.241 405.488 605.598 405.247 605.964 405.059C606.333 404.869 606.712 404.717 607.1 404.606L607.441 405.703C607.099 405.806 606.766 405.933 606.442 406.086C606.115 406.236 605.814 406.426 605.538 406.657C605.178 406.959 604.951 407.248 604.856 407.524C604.764 407.798 604.803 408.036 604.973 408.238C605.104 408.395 605.258 408.49 605.433 408.521C605.612 408.55 605.848 408.527 606.143 408.452C606.434 408.374 606.815 408.254 607.285 408.091C607.749 407.928 608.169 407.811 608.544 407.74C608.922 407.667 609.268 407.674 609.58 407.763C609.893 407.852 610.184 408.057 610.453 408.378ZM615.704 403.972C616.017 404.346 616.19 404.74 616.221 405.153C616.254 405.56 616.149 405.975 615.909 406.397C615.668 406.819 615.303 407.235 614.814 407.645C614.41 407.985 614.034 408.247 613.688 408.43C613.345 408.617 613.006 408.752 612.672 408.836L611.89 407.904C612.248 407.812 612.633 407.673 613.048 407.486C613.462 407.299 613.83 407.071 614.151 406.801C614.601 406.423 614.866 406.079 614.945 405.769C615.027 405.456 614.966 405.178 614.761 404.933C614.641 404.79 614.495 404.698 614.324 404.657C614.15 404.613 613.916 404.622 613.623 404.683C613.33 404.738 612.937 404.851 612.443 405.022C611.957 405.186 611.522 405.306 611.14 405.383C610.762 405.457 610.42 405.449 610.114 405.361C609.808 405.273 609.52 405.068 609.25 404.747C608.831 404.248 608.711 403.7 608.889 403.105C609.068 402.502 609.486 401.926 610.142 401.375C610.491 401.082 610.849 400.842 611.214 400.654C611.584 400.463 611.963 400.312 612.351 400.2L612.691 401.297C612.349 401.4 612.016 401.528 611.692 401.681C611.365 401.83 611.064 402.02 610.788 402.252C610.429 402.553 610.201 402.842 610.106 403.119C610.014 403.392 610.053 403.63 610.223 403.833C610.355 403.99 610.508 404.084 610.684 404.115C610.862 404.144 611.099 404.121 611.393 404.047C611.685 403.969 612.066 403.848 612.536 403.686C613 403.522 613.419 403.405 613.794 403.335C614.173 403.261 614.518 403.269 614.831 403.357C615.143 403.446 615.434 403.651 615.704 403.972Z" fill="#0F1F11"/>
<path d="M571.733 417.509L610.801 384.727L609.515 383.195L570.447 415.977L571.733 417.509ZM620.663 385.589L630.947 397.846L632.479 396.561L622.195 384.304L620.663 385.589ZM630.084 407.708L591.016 440.49L592.302 442.022L631.37 409.24L630.084 407.708ZM581.154 439.627L570.87 427.371L569.338 428.656L579.622 440.913L581.154 439.627ZM591.016 440.49C588.055 442.975 583.639 442.589 581.154 439.627L579.622 440.913C582.817 444.721 588.494 445.217 592.302 442.022L591.016 440.49ZM630.947 397.846C633.432 400.808 633.046 405.223 630.084 407.708L631.37 409.24C635.178 406.045 635.674 400.368 632.479 396.561L630.947 397.846ZM610.801 384.727C613.762 382.242 618.178 382.628 620.663 385.589L622.195 384.304C619 380.496 613.323 380 609.515 383.195L610.801 384.727ZM570.447 415.977C566.639 419.172 566.143 424.849 569.338 428.656L570.87 427.371C568.385 424.409 568.771 419.994 571.733 417.509L570.447 415.977Z" fill="#727970"/>
<rect x="263.529" y="250.15" width="343" height="94" rx="15.5" transform="rotate(-40 263.529 250.15)" fill="#FCFCF7"/>
<path d="M566.363 102.392L572.811 110.076L571.9 110.841L567.162 105.194C567.099 105.119 567.033 105.037 566.965 104.948C566.9 104.857 566.833 104.763 566.766 104.668L568.159 111.686C568.212 111.916 568.154 112.101 567.986 112.242L567.836 112.368C567.668 112.509 567.475 112.534 567.258 112.442L560.517 109.875C560.697 110.046 560.855 110.212 560.99 110.373L565.728 116.02L564.816 116.785L558.368 109.1L559.135 108.457C559.228 108.379 559.307 108.328 559.372 108.304C559.437 108.28 559.527 108.289 559.643 108.332L566.266 110.835C566.381 110.885 566.497 110.939 566.614 110.999C566.735 111.056 566.854 111.118 566.97 111.185C566.925 111.058 566.883 110.932 566.845 110.806C566.803 110.676 566.769 110.549 566.744 110.424L565.386 103.513C565.36 103.395 565.364 103.306 565.399 103.246C565.438 103.183 565.504 103.113 565.597 103.035L566.363 102.392ZM570.917 102.408L575.475 107.84L574.521 108.641L569.963 103.209L570.917 102.408ZM569.69 100.532C569.768 100.625 569.822 100.729 569.852 100.844C569.882 100.953 569.892 101.067 569.881 101.185C569.872 101.297 569.839 101.406 569.783 101.514C569.731 101.619 569.658 101.71 569.565 101.788C569.472 101.866 569.37 101.922 569.258 101.955C569.149 101.985 569.039 101.996 568.927 101.986C568.812 101.973 568.704 101.942 568.602 101.893C568.497 101.841 568.406 101.768 568.328 101.675C568.25 101.582 568.194 101.48 568.161 101.367C568.125 101.252 568.112 101.138 568.122 101.026C568.128 100.911 568.156 100.802 568.205 100.7C568.257 100.596 568.33 100.504 568.422 100.426C568.515 100.348 568.618 100.293 568.73 100.259C568.846 100.223 568.961 100.212 569.076 100.225C569.191 100.232 569.303 100.263 569.411 100.319C569.519 100.368 569.612 100.439 569.69 100.532Z" fill="#1A1C19"/>
<path d="M426.384 181.037C427.432 180.157 428.238 179.196 428.801 178.153C429.379 177.098 429.716 176.021 429.812 174.924C429.923 173.814 429.796 172.717 429.432 171.634C429.083 170.538 428.506 169.509 427.7 168.549C426.845 167.53 425.915 166.747 424.911 166.201C423.895 165.64 422.85 165.326 421.777 165.259C420.706 165.165 419.635 165.308 418.564 165.686C417.492 166.064 416.469 166.663 415.493 167.481C414.445 168.36 413.652 169.336 413.113 170.408C412.562 171.466 412.245 172.551 412.161 173.663C412.079 174.748 412.214 175.825 412.566 176.894C412.92 177.937 413.457 178.887 414.178 179.746C415.02 180.75 415.935 181.545 416.923 182.131C417.91 182.716 418.93 183.075 419.984 183.208C421.052 183.328 422.127 183.22 423.209 182.883C424.293 182.519 425.351 181.904 426.384 181.037ZM410.118 166.262C410.134 166.843 410.152 167.411 410.171 167.966C410.192 168.494 410.221 169.016 410.257 169.531C410.572 168.399 411.057 167.322 411.713 166.3C412.368 165.279 413.22 164.328 414.268 163.449C415.535 162.387 416.905 161.596 418.38 161.078C419.843 160.545 421.325 160.331 422.826 160.435C424.33 160.513 425.818 160.926 427.289 161.675C428.749 162.41 430.102 163.519 431.348 165.004C432.557 166.445 433.418 168.004 433.932 169.681C434.447 171.358 434.615 173.051 434.439 174.762C434.276 176.461 433.753 178.128 432.868 179.763C431.998 181.386 430.77 182.863 429.183 184.195C427.611 185.514 425.977 186.463 424.281 187.043C422.573 187.608 420.883 187.811 419.211 187.651C417.541 187.465 415.91 186.924 414.316 186.029C412.724 185.108 411.244 183.832 409.876 182.202C408.728 180.834 407.805 179.128 407.108 177.084C406.412 175.014 405.988 172.543 405.834 169.67L404.823 152.326C404.807 151.893 404.9 151.443 405.103 150.975C405.308 150.48 405.644 150.038 406.11 149.647L409.559 146.752L410.118 166.262ZM459.965 151.483C460.387 151.129 460.826 150.971 461.281 151.011C461.736 151.051 462.128 151.267 462.458 151.66L464.436 154.018L443.565 171.532L442.447 170.2C442.215 169.923 442.035 169.591 441.907 169.202C441.78 168.813 441.736 168.391 441.775 167.936L443.351 149.463C443.472 147.923 443.551 146.48 443.588 145.134C443.613 143.774 443.535 142.5 443.356 141.311C443.177 140.122 442.883 139.017 442.473 137.997C442.051 136.962 441.455 135.986 440.686 135.069C439.916 134.152 439.099 133.474 438.234 133.034C437.357 132.58 436.474 132.34 435.586 132.317C434.713 132.281 433.842 132.441 432.975 132.796C432.096 133.137 431.263 133.638 430.477 134.297C429.676 134.969 429.039 135.702 428.565 136.497C428.091 137.291 427.769 138.12 427.599 138.981C427.432 139.816 427.411 140.664 427.538 141.525C427.665 142.386 427.943 143.219 428.371 144.026C428.624 144.681 428.671 145.225 428.512 145.656C428.355 146.061 427.977 146.452 427.378 146.831L425.054 148.186C424.061 146.588 423.397 145 423.064 143.42C422.732 141.813 422.699 140.266 422.964 138.778C423.244 137.279 423.799 135.857 424.632 134.514C425.452 133.156 426.531 131.916 427.87 130.792C429.195 129.681 430.597 128.839 432.077 128.267C433.556 127.695 435.036 127.434 436.515 127.482C437.982 127.516 439.407 127.87 440.791 128.544C442.176 129.218 443.442 130.239 444.59 131.607C445.567 132.772 446.302 134.003 446.795 135.3C447.276 136.583 447.597 137.926 447.758 139.329C447.918 140.732 447.966 142.193 447.9 143.711C447.849 145.217 447.754 146.773 447.613 148.379L446.432 163.731C446.88 163.083 447.365 162.464 447.889 161.876C448.4 161.274 448.932 160.74 449.485 160.276L459.965 151.483ZM467.25 147.565C466.932 147.187 466.698 146.775 466.548 146.331C466.413 145.874 466.358 145.424 466.383 144.981C466.423 144.526 466.549 144.085 466.762 143.659C466.975 143.232 467.27 142.86 467.648 142.543C468.027 142.225 468.445 141.999 468.901 141.864C469.358 141.728 469.814 141.68 470.269 141.72C470.724 141.76 471.165 141.886 471.592 142.099C472.018 142.312 472.39 142.607 472.708 142.985C473.037 143.378 473.27 143.803 473.405 144.26C473.528 144.703 473.57 145.151 473.53 145.606C473.49 146.061 473.358 146.495 473.133 146.907C472.921 147.333 472.625 147.705 472.247 148.023C471.868 148.34 471.451 148.567 470.994 148.702C470.549 148.852 470.099 148.907 469.644 148.867C469.204 148.815 468.776 148.69 468.362 148.492C467.95 148.267 467.579 147.958 467.25 147.565ZM496.894 121.723L499.386 124.692L482.619 138.762L480.127 135.793L486.83 130.168L468.931 108.838C468.394 108.198 467.872 107.532 467.367 106.84L465.811 116.293C465.756 116.612 465.653 116.873 465.5 117.075C465.335 117.263 465.161 117.409 464.976 117.515C464.792 117.62 464.59 117.69 464.371 117.725C464.167 117.747 463.986 117.738 463.827 117.697L461.194 117.042L463.757 101.164L466.922 98.5073L490.738 126.889L496.894 121.723ZM486.184 96.8919C485.191 95.2945 484.527 93.7058 484.193 92.1257C483.847 90.531 483.807 88.99 484.072 87.5027C484.351 86.0032 484.907 84.5818 485.74 83.2386C486.574 81.8686 487.661 80.6217 489 79.4982C490.325 78.3868 491.706 77.5501 493.144 76.9881C494.582 76.4262 495.995 76.1586 497.382 76.1855C498.783 76.2003 500.125 76.5132 501.406 77.1243C502.688 77.7354 503.836 78.645 504.849 79.8531C505.68 80.8428 506.294 81.8406 506.691 82.8464C507.091 83.8254 507.295 84.8075 507.303 85.7927C507.326 86.7657 507.174 87.7369 506.846 88.7062C506.519 89.6756 506.05 90.6393 505.44 91.5974C507.917 90.4116 510.203 90.0316 512.296 90.4575C514.392 90.8567 516.24 92.0096 517.84 93.9163C519.049 95.3572 519.86 96.8847 520.271 98.4986C520.698 100.1 520.78 101.706 520.518 103.315C520.243 104.909 519.656 106.456 518.756 107.955C517.859 109.427 516.69 110.768 515.249 111.977C513.589 113.369 511.999 114.356 510.478 114.938C508.945 115.505 507.466 115.767 506.04 115.723C504.614 115.679 503.224 115.382 501.87 114.832C500.503 114.268 499.149 113.556 497.808 112.697L498.903 110.587C499.181 110.032 499.561 109.627 500.041 109.372C500.537 109.105 501.044 109.089 501.563 109.323C502.094 109.572 502.736 109.864 503.489 110.2C504.256 110.523 505.107 110.739 506.042 110.848C506.976 110.957 507.975 110.875 509.037 110.604C510.114 110.321 511.241 109.684 512.42 108.695C513.512 107.779 514.319 106.805 514.841 105.771C515.365 104.711 515.658 103.672 515.721 102.652C515.797 101.62 515.681 100.639 515.371 99.7085C515.062 98.7778 514.62 97.9704 514.046 97.2863C513.337 96.4421 512.581 95.7623 511.776 95.2469C510.972 94.7315 510.057 94.4694 509.033 94.4607C508.009 94.452 506.851 94.7418 505.559 95.33C504.281 95.9061 502.827 96.878 501.197 98.2458L498.834 95.4295C500.161 94.2913 501.174 93.1932 501.873 92.135C502.587 91.0646 503.034 90.045 503.213 89.0762C503.407 88.0951 503.354 87.1599 503.054 86.2706C502.769 85.369 502.284 84.5107 501.6 83.6956C500.843 82.7932 500.038 82.1294 499.185 81.7041C498.347 81.2666 497.497 81.0372 496.635 81.0158C495.774 80.9944 494.91 81.1615 494.043 81.5172C493.19 81.8607 492.371 82.3622 491.585 83.0217C490.799 83.6812 490.161 84.4144 489.673 85.2213C489.199 86.0159 488.877 86.8442 488.707 87.7059C488.539 88.5409 488.519 89.3888 488.646 90.2495C488.773 91.1103 489.051 91.9438 489.479 92.75C489.718 93.4181 489.764 93.9617 489.62 94.3806C489.478 94.7728 489.107 95.1584 488.507 95.5375L486.184 96.8919ZM525.167 49.7458L526.633 51.4923C527.048 51.9872 527.332 52.4436 527.484 52.8615C527.651 53.2672 527.775 53.622 527.856 53.9258L536.816 90.9407C536.944 91.4779 536.957 92.0253 536.854 92.5827C536.739 93.1256 536.405 93.6291 535.852 94.0932L533.058 96.4381L524.547 59.604C524.431 59.0814 524.347 58.5817 524.294 58.1051C524.241 57.6285 524.215 57.1542 524.216 56.6822L507.886 70.3852C507.638 70.5928 507.341 70.6814 506.993 70.6509C506.632 70.6059 506.349 70.4597 506.141 70.2123L503.924 67.5706L525.167 49.7458Z" fill="#002107"/>
<rect x="263.529" y="250.15" width="343" height="94" rx="15.5" transform="rotate(-40 263.529 250.15)" stroke="#727970"/>
<rect x="34.7044" y="313.617" width="359" height="49" rx="15.5" transform="rotate(-40 34.7044 313.617)" fill="#FCFCF7"/>
<path d="M72.4081 312.657L63.0853 320.48L63.7743 312.604L61.7802 312.437L60.7942 323.708L72.0648 324.694L72.2386 322.707L64.3709 322.012L73.6937 314.189L72.4081 312.657Z" fill="#1A1C19"/>
<path d="M91.7415 290.796C91.0777 291.353 90.5764 291.97 90.2376 292.647C89.8997 293.313 89.726 294.02 89.7166 294.767C89.7081 295.503 89.8606 296.258 90.1741 297.033C90.4876 297.808 90.9642 298.576 91.6041 299.339C92.4511 300.348 93.344 301.095 94.2827 301.579C95.2223 302.052 96.1752 302.23 97.1412 302.111C98.1128 301.987 99.0703 301.53 100.014 300.738C100.552 300.287 101.019 299.819 101.418 299.336C101.817 298.842 102.183 298.338 102.518 297.823L103.54 299.041C103.239 299.574 102.88 300.081 102.462 300.563C102.048 301.051 101.509 301.573 100.845 302.13C99.6219 303.156 98.387 303.762 97.1406 303.948C95.8951 304.124 94.6776 303.921 93.4882 303.339C92.3043 302.752 91.1829 301.828 90.1242 300.567C89.36 299.656 88.7888 298.719 88.4105 297.756C88.0331 296.782 87.8584 295.816 87.8863 294.858C87.9197 293.895 88.1687 292.966 88.6333 292.072C89.0988 291.167 89.7951 290.326 90.7222 289.548C91.3312 289.037 91.9688 288.604 92.6351 288.251C93.3015 287.897 93.9567 287.642 94.6007 287.485L95.0355 289.14C94.5042 289.286 93.9551 289.49 93.3884 289.75C92.8226 290.001 92.2737 290.349 91.7415 290.796ZM110.191 286.295C110.812 287.035 111.271 287.777 111.567 288.52C111.863 289.262 111.998 289.986 111.972 290.69C111.946 291.394 111.765 292.07 111.429 292.716C111.093 293.353 110.602 293.943 109.955 294.486C109.351 294.992 108.71 295.353 108.03 295.568C107.351 295.773 106.66 295.83 105.957 295.737C105.258 295.641 104.564 295.387 103.873 294.976C103.188 294.56 102.534 293.982 101.913 293.241C101.084 292.254 100.547 291.274 100.302 290.302C100.052 289.324 100.085 288.394 100.401 287.512C100.718 286.62 101.307 285.812 102.168 285.09C102.991 284.399 103.864 283.98 104.787 283.832C105.715 283.679 106.642 283.809 107.567 284.22C108.492 284.621 109.367 285.313 110.191 286.295ZM103.328 292.053C103.936 292.778 104.559 293.325 105.197 293.696C105.836 294.067 106.477 294.23 107.122 294.185C107.766 294.14 108.404 293.852 109.035 293.323C109.66 292.798 110.051 292.222 110.208 291.595C110.37 290.964 110.323 290.302 110.069 289.608C109.814 288.915 109.383 288.206 108.776 287.482C108.173 286.764 107.556 286.224 106.927 285.864C106.293 285.499 105.656 285.341 105.016 285.392C104.377 285.443 103.738 285.735 103.102 286.269C102.164 287.056 101.736 287.944 101.817 288.932C101.904 289.916 102.407 290.956 103.328 292.053ZM112.915 276.072C113.985 275.174 115.015 274.758 116.006 274.825C116.992 274.886 117.97 275.495 118.942 276.652L123.872 282.528L122.522 283.66L117.668 277.875C117.037 277.124 116.393 276.706 115.734 276.623C115.081 276.536 114.401 276.789 113.693 277.383C112.694 278.22 112.229 279.092 112.297 279.998C112.366 280.904 112.851 281.894 113.753 282.969L117.716 287.693L116.35 288.839L108.783 279.82L109.885 278.895L111.182 280.022L111.256 279.96C111.181 279.481 111.202 279.01 111.319 278.547C111.431 278.079 111.625 277.636 111.9 277.218C112.171 276.794 112.509 276.412 112.915 276.072ZM128.669 278.502L117.678 272.356L119.143 271.127L125.704 274.918C126.154 275.176 126.639 275.47 127.16 275.801C127.68 276.131 128.082 276.41 128.367 276.638L128.425 276.59C128.261 276.26 128.066 275.806 127.843 275.227C127.614 274.643 127.409 274.114 127.226 273.641L124.632 266.521L126.096 265.292L130.233 277.19L128.669 278.502ZM130.879 260.998C131.647 260.354 132.448 259.971 133.282 259.851C134.116 259.731 134.937 259.856 135.743 260.227C136.545 260.592 137.288 261.183 137.974 262L138.685 262.848L132.456 268.075C133.361 269.12 134.301 269.705 135.276 269.831C136.251 269.957 137.202 269.631 138.13 268.853C138.7 268.375 139.161 267.899 139.513 267.426C139.864 266.954 140.19 266.418 140.492 265.819L141.5 267.021C141.215 267.606 140.887 268.134 140.515 268.604C140.149 269.071 139.661 269.559 139.052 270.07C138.186 270.797 137.281 271.257 136.339 271.449C135.398 271.631 134.462 271.529 133.53 271.142C132.598 270.756 131.715 270.066 130.882 269.073C130.067 268.102 129.525 267.127 129.255 266.148C128.985 265.158 128.986 264.223 129.256 263.342C129.532 262.456 130.073 261.675 130.879 260.998ZM131.802 262.131C131.072 262.743 130.691 263.47 130.658 264.311C130.625 265.152 130.927 266.035 131.562 266.96L136.335 262.955C135.879 262.422 135.398 262.021 134.893 261.753C134.388 261.475 133.877 261.362 133.359 261.413C132.837 261.459 132.318 261.698 131.802 262.131ZM140.968 252.533C141.149 252.381 141.348 252.233 141.563 252.089C141.775 251.94 141.971 251.817 142.152 251.721L143.043 253.134C142.862 253.22 142.673 253.327 142.473 253.457C142.274 253.587 142.094 253.719 141.935 253.853C141.573 254.156 141.292 254.518 141.093 254.938C140.895 255.348 140.79 255.791 140.779 256.268C140.763 256.739 140.847 257.224 141.032 257.723C141.213 258.217 141.499 258.697 141.89 259.163L145.95 264.002L144.576 265.155L137.008 256.136L138.144 255.183L139.687 256.721L139.744 256.673C139.65 256.182 139.619 255.688 139.653 255.193C139.681 254.692 139.799 254.215 140.007 253.76C140.22 253.301 140.54 252.892 140.968 252.533ZM153.584 255.97C153.809 255.781 154.023 255.568 154.227 255.332C154.43 255.096 154.583 254.888 154.685 254.709L155.576 255.77C155.477 255.975 155.305 256.222 155.062 256.511C154.823 256.795 154.57 257.05 154.301 257.275C153.824 257.676 153.321 257.957 152.793 258.119C152.261 258.276 151.709 258.253 151.137 258.051C150.571 257.844 149.991 257.386 149.397 256.678L144.909 251.33L143.625 252.407L143.066 251.74L143.909 250.121L142.808 247.707L143.631 247.017L145.385 249.107L148.027 246.89L148.924 247.96L146.283 250.177L150.737 255.484C151.211 256.049 151.694 256.364 152.187 256.427C152.685 256.486 153.151 256.333 153.584 255.97ZM159.202 239.336L156.956 241.221L163.626 249.17L162.26 250.316L155.59 242.367L153.993 243.707L153.441 243.048L154.658 241.256L154.154 240.655C153.518 239.898 153.115 239.19 152.944 238.529C152.769 237.863 152.801 237.238 153.04 236.654C153.279 236.07 153.706 235.52 154.32 235.005C154.666 234.715 155.007 234.48 155.342 234.301C155.684 234.117 155.996 233.972 156.28 233.865L156.831 235.24C156.594 235.336 156.337 235.458 156.059 235.607C155.783 235.745 155.524 235.916 155.283 236.118C154.761 236.556 154.517 237.05 154.55 237.602C154.584 238.144 154.903 238.774 155.506 239.493L156.058 240.151L158.305 238.266L159.202 239.336ZM163.927 233.268C164.108 233.116 164.306 232.968 164.522 232.824C164.734 232.675 164.93 232.553 165.111 232.457L166.002 233.869C165.821 233.955 165.631 234.063 165.432 234.193C165.233 234.323 165.053 234.454 164.894 234.588C164.532 234.892 164.251 235.253 164.052 235.673C163.854 236.083 163.749 236.526 163.737 237.003C163.722 237.474 163.806 237.959 163.991 238.458C164.172 238.952 164.458 239.432 164.849 239.898L168.909 244.737L167.535 245.89L159.967 236.871L161.103 235.918L162.646 237.456L162.703 237.408C162.609 236.917 162.578 236.424 162.611 235.928C162.64 235.428 162.758 234.95 162.966 234.495C163.179 234.036 163.499 233.627 163.927 233.268ZM178.409 229.053C179.031 229.793 179.49 230.535 179.785 231.278C180.081 232.02 180.216 232.744 180.19 233.448C180.164 234.152 179.983 234.828 179.647 235.474C179.312 236.111 178.82 236.701 178.173 237.244C177.57 237.75 176.928 238.111 176.248 238.326C175.57 238.531 174.879 238.588 174.175 238.495C173.477 238.399 172.782 238.145 172.091 237.734C171.406 237.318 170.752 236.74 170.131 235.999C169.302 235.012 168.765 234.032 168.52 233.06C168.27 232.082 168.303 231.152 168.619 230.27C168.936 229.378 169.525 228.57 170.387 227.848C171.21 227.157 172.082 226.738 173.005 226.59C173.934 226.437 174.86 226.567 175.785 226.978C176.711 227.379 177.585 228.071 178.409 229.053ZM171.546 234.811C172.154 235.536 172.777 236.083 173.416 236.454C174.054 236.825 174.696 236.988 175.34 236.943C175.985 236.898 176.622 236.61 177.253 236.081C177.879 235.556 178.269 234.98 178.426 234.353C178.588 233.722 178.542 233.06 178.287 232.366C178.033 231.673 177.602 230.964 176.994 230.24C176.391 229.522 175.775 228.982 175.145 228.622C174.512 228.257 173.875 228.099 173.235 228.15C172.595 228.201 171.957 228.493 171.32 229.027C170.382 229.814 169.954 230.702 170.035 231.69C170.122 232.674 170.626 233.714 171.546 234.811ZM186.655 214.196C187.648 213.363 188.616 212.996 189.558 213.093C190.495 213.185 191.445 213.805 192.407 214.951L197.365 220.86L196.015 221.992L191.113 216.15C190.501 215.42 189.883 215.008 189.261 214.912C188.64 214.807 188.02 215.015 187.4 215.535C186.528 216.267 186.106 217.051 186.134 217.887C186.163 218.723 186.589 219.632 187.413 220.614L191.646 225.659L190.288 226.798L185.385 220.955C184.976 220.467 184.564 220.121 184.15 219.917C183.741 219.708 183.33 219.642 182.917 219.718C182.504 219.783 182.087 219.993 181.664 220.348C181.066 220.849 180.69 221.376 180.535 221.926C180.38 222.477 180.425 223.066 180.67 223.692C180.916 224.308 181.336 224.97 181.93 225.678L185.935 230.451L184.569 231.597L177.001 222.578L178.104 221.653L179.38 222.756L179.454 222.693C179.372 222.229 179.379 221.774 179.474 221.33C179.569 220.886 179.74 220.467 179.988 220.071C180.236 219.676 180.552 219.318 180.936 218.995C181.622 218.42 182.303 218.068 182.981 217.939C183.659 217.8 184.321 217.904 184.966 218.25L185.04 218.188C184.899 217.418 184.981 216.691 185.285 216.006C185.584 215.315 186.041 214.712 186.655 214.196Z" fill="#1A1C19"/>
<path d="M282.318 140.438L281.713 140.946L281.325 140.919C281.343 139.416 280.843 137.903 279.808 136.67C277.501 133.919 273.401 133.561 270.651 135.868C267.901 138.176 267.542 142.276 269.85 145.026C272.157 147.776 276.257 148.135 279.007 145.827C280.24 144.792 280.995 143.389 281.238 141.905L281.625 141.946L282.133 142.551L289.171 143.16L289.354 141.061L282.318 140.438V140.438ZM277.722 144.295C275.814 145.895 272.982 145.648 271.382 143.74C269.781 141.833 270.029 139.001 271.936 137.4C273.844 135.8 276.676 136.048 278.276 137.955C279.877 139.863 279.629 142.694 277.722 144.295Z" fill="#1A1C19"/>
<path d="M306.655 105.657C305.322 106.776 304.563 108.47 304.551 110.151C302.893 109.871 301.093 110.324 299.76 111.442C297.401 113.422 297.103 116.832 299.082 119.191C301.512 122.087 306.097 122.261 313.05 122.535L315.003 122.607L315.265 120.664C316.208 113.776 316.833 109.231 314.403 106.335C312.424 103.976 309.014 103.678 306.655 105.657ZM313.28 120.398L313.267 120.539L313.126 120.526C306.71 120.284 302.472 120.119 300.615 117.905C299.329 116.373 299.514 114.26 301.046 112.975C302.226 111.985 304.011 111.779 305.298 112.488L306.73 111.286C306.248 109.902 306.761 108.179 307.94 107.189C309.472 105.904 311.586 106.089 312.871 107.621C314.729 109.835 314.155 114.036 313.28 120.398Z" fill="#1A1C19"/>
<rect x="34.7044" y="313.617" width="359" height="49" rx="15.5" transform="rotate(-40 34.7044 313.617)" stroke="#727970"/>
<path d="M729.229 426.526C715.296 409.92 717.462 385.163 734.067 371.229V371.229C750.673 357.296 775.43 359.462 789.364 376.067L805.916 395.793C819.849 412.399 817.684 437.156 801.078 451.09V451.09C784.472 465.023 759.715 462.857 745.781 446.252L729.229 426.526Z" fill="#D4E8D1"/>
<path d="M772.557 416.916C772.951 416.586 773.257 416.238 773.476 415.872C773.697 415.496 773.831 415.12 773.88 414.744C773.929 414.358 773.894 413.98 773.776 413.611C773.658 413.231 773.458 412.872 773.175 412.535C772.826 412.12 772.459 411.825 772.073 411.65C771.689 411.466 771.301 411.38 770.909 411.392C770.523 411.4 770.143 411.489 769.769 411.66C769.39 411.824 769.035 412.046 768.704 412.324C768.372 412.602 768.093 412.913 767.865 413.257C767.632 413.596 767.476 413.957 767.395 414.341C767.32 414.719 767.338 415.117 767.447 415.532C767.557 415.937 767.787 416.348 768.136 416.764C768.419 417.101 768.734 417.362 769.082 417.549C769.431 417.725 769.797 417.825 770.18 417.848C770.564 417.861 770.958 417.794 771.361 417.647C771.765 417.49 772.164 417.246 772.557 416.916ZM764.179 406.931C763.819 407.232 763.546 407.552 763.361 407.89C763.181 408.223 763.076 408.56 763.046 408.901C763.022 409.237 763.066 409.569 763.177 409.896C763.295 410.219 763.472 410.52 763.707 410.801C763.938 411.077 764.201 411.31 764.497 411.503C764.792 411.695 765.112 411.819 765.456 411.876C765.795 411.926 766.154 411.898 766.533 411.79C766.913 411.673 767.3 411.449 767.693 411.119C768.086 410.789 768.371 410.449 768.547 410.1C768.724 409.741 768.817 409.39 768.827 409.047C768.831 408.699 768.764 408.363 768.626 408.038C768.488 407.714 768.303 407.414 768.072 407.139C767.837 406.858 767.567 406.634 767.264 406.467C766.967 406.295 766.648 406.194 766.307 406.164C765.972 406.13 765.622 406.175 765.257 406.299C764.898 406.418 764.538 406.629 764.179 406.931ZM769.894 410.234C770.826 409.816 771.704 409.687 772.528 409.847C773.352 410.008 774.091 410.479 774.747 411.26C775.19 411.788 775.489 412.35 775.645 412.947C775.802 413.533 775.826 414.126 775.716 414.725C775.612 415.32 775.378 415.908 775.015 416.491C774.647 417.068 774.163 417.608 773.561 418.113C772.96 418.617 772.344 419 771.712 419.263C771.075 419.519 770.452 419.649 769.843 419.653C769.233 419.657 768.654 419.531 768.104 419.275C767.549 419.013 767.05 418.618 766.607 418.09C765.951 417.309 765.616 416.499 765.601 415.659C765.586 414.82 765.865 413.978 766.439 413.133C765.606 413.429 764.831 413.481 764.114 413.289C763.398 413.085 762.767 412.658 762.22 412.006C761.847 411.562 761.586 411.074 761.435 410.54C761.284 410.006 761.248 409.462 761.328 408.907C761.407 408.351 761.601 407.806 761.908 407.271C762.221 406.731 762.652 406.23 763.203 405.768C763.748 405.311 764.313 404.975 764.899 404.761C765.486 404.547 766.059 404.448 766.62 404.466C767.18 404.484 767.71 404.614 768.21 404.855C768.709 405.097 769.145 405.439 769.517 405.883C770.064 406.535 770.372 407.233 770.443 407.978C770.514 408.713 770.331 409.465 769.894 410.234Z" fill="#0F1F11"/>
<path d="M667.568 368.508C659.758 359.201 660.972 345.324 670.28 337.514L912.35 134.393C921.657 126.583 935.534 127.797 943.344 137.105V137.105C951.154 146.413 949.94 160.289 940.632 168.099L698.562 371.22C689.255 379.03 675.378 377.816 667.568 368.508V368.508Z" fill="#D4E8D1"/>
<path d="M671.937 347.933L672.916 347.112L680.63 351.232L677.907 342.924L678.891 342.098L682.189 352.324L681.424 352.965L671.937 347.933ZM671.618 348.201L672.482 347.476L676.525 352.008L679.021 354.982L678.015 355.826L671.618 348.201ZM678.341 342.559L679.205 341.834L685.603 349.459L684.598 350.303L682.102 347.328L678.341 342.559ZM683.722 341.382L688.476 347.048L687.502 347.866L682.747 342.2L683.722 341.382ZM681.413 340.758C681.281 340.601 681.217 340.429 681.221 340.242C681.227 340.051 681.325 339.877 681.514 339.719C681.699 339.564 681.886 339.499 682.074 339.525C682.266 339.549 682.428 339.639 682.56 339.796C682.686 339.946 682.744 340.118 682.733 340.311C682.723 340.498 682.626 340.669 682.441 340.824C682.252 340.982 682.065 341.05 681.88 341.027C681.695 340.998 681.539 340.908 681.413 340.758ZM691.91 342.989C692.141 342.796 692.314 342.57 692.43 342.311C692.547 342.053 692.599 341.789 692.587 341.52C692.572 341.247 692.484 340.996 692.323 340.769L693.244 339.995C693.508 340.345 693.657 340.753 693.691 341.218C693.725 341.677 693.649 342.137 693.463 342.596C693.275 343.052 692.979 343.448 692.578 343.785C692.152 344.142 691.717 344.379 691.274 344.496C690.834 344.609 690.399 344.623 689.97 344.537C689.544 344.448 689.137 344.278 688.748 344.027C688.36 343.77 688.006 343.451 687.686 343.071L687.502 342.851C687.183 342.47 686.931 342.068 686.749 341.644C686.566 341.214 686.468 340.782 686.454 340.347C686.444 339.91 686.533 339.484 686.721 339.07C686.913 338.654 687.222 338.267 687.648 337.909C688.091 337.537 688.555 337.303 689.039 337.206C689.52 337.106 689.985 337.132 690.434 337.285C690.884 337.431 691.282 337.692 691.627 338.068L690.706 338.842C690.492 338.622 690.248 338.467 689.975 338.375C689.705 338.28 689.426 338.259 689.136 338.311C688.848 338.357 688.574 338.489 688.316 338.705C688.019 338.954 687.819 339.223 687.716 339.512C687.614 339.794 687.587 340.084 687.635 340.383C687.684 340.675 687.783 340.964 687.933 341.248C688.083 341.527 688.263 341.79 688.471 342.038L688.655 342.258C688.863 342.506 689.093 342.729 689.344 342.929C689.595 343.129 689.86 343.279 690.139 343.377C690.422 343.473 690.712 343.497 691.011 343.449C691.31 343.394 691.61 343.241 691.91 342.989ZM692.989 335.123L696.997 339.899L696.028 340.712L691.273 335.046L692.216 334.255L692.989 335.123ZM693.986 332.716L694.736 333.621C694.641 333.671 694.556 333.725 694.48 333.783C694.404 333.835 694.321 333.899 694.23 333.975C694.007 334.162 693.839 334.363 693.726 334.576C693.614 334.789 693.551 335.009 693.538 335.234C693.524 335.459 693.556 335.688 693.633 335.922C693.71 336.148 693.824 336.373 693.976 336.597L693.836 336.983C693.549 336.64 693.312 336.291 693.127 335.936C692.945 335.577 692.829 335.222 692.778 334.872C692.725 334.518 692.754 334.184 692.866 333.87C692.978 333.55 693.188 333.261 693.495 333.003C693.565 332.944 693.652 332.886 693.758 332.827C693.86 332.765 693.936 332.728 693.986 332.716ZM697.168 335.034L697.067 334.914C696.724 334.506 696.466 334.077 696.291 333.628C696.114 333.176 696.029 332.727 696.036 332.281C696.039 331.832 696.14 331.402 696.337 330.993C696.532 330.579 696.827 330.207 697.221 329.876C697.619 329.542 698.039 329.315 698.479 329.196C698.921 329.069 699.363 329.043 699.806 329.117C700.25 329.185 700.679 329.346 701.093 329.599C701.505 329.848 701.882 330.177 702.225 330.586L702.326 330.706C702.669 331.115 702.927 331.543 703.101 331.992C703.276 332.441 703.359 332.891 703.352 333.343C703.345 333.789 703.245 334.219 703.05 334.632C702.856 335.039 702.56 335.409 702.162 335.743C701.764 336.077 701.346 336.306 700.908 336.429C700.467 336.549 700.025 336.575 699.582 336.507C699.138 336.433 698.711 336.271 698.299 336.021C697.888 335.772 697.511 335.443 697.168 335.034ZM698.036 334.101L698.137 334.222C698.374 334.504 698.631 334.744 698.908 334.939C699.183 335.131 699.467 335.268 699.761 335.349C700.058 335.426 700.355 335.436 700.651 335.378C700.944 335.316 701.225 335.173 701.494 334.947C701.759 334.724 701.946 334.476 702.054 334.2C702.163 333.919 702.203 333.626 702.175 333.323C702.146 333.02 702.061 332.716 701.919 332.413C701.778 332.103 701.589 331.806 701.352 331.524L701.251 331.403C701.016 331.124 700.76 330.89 700.483 330.7C700.205 330.505 699.918 330.368 699.621 330.29C699.324 330.206 699.028 330.193 698.731 330.251C698.439 330.306 698.158 330.447 697.889 330.672C697.624 330.895 697.437 331.147 697.328 331.429C697.223 331.707 697.184 332.002 697.212 332.311C697.24 332.615 697.327 332.92 697.472 333.227C697.613 333.53 697.801 333.822 698.036 334.101ZM703.211 326.948L707.02 331.488L706.046 332.305L701.292 326.639L702.214 325.866L703.211 326.948ZM704.264 328.607L703.8 328.969C703.479 328.579 703.229 328.179 703.052 327.768C702.871 327.355 702.774 326.945 702.761 326.54C702.748 326.134 702.829 325.745 703.004 325.372C703.176 324.996 703.451 324.649 703.828 324.333C704.093 324.11 704.369 323.944 704.657 323.833C704.942 323.719 705.234 323.673 705.533 323.696C705.832 323.719 706.132 323.818 706.434 323.993C706.735 324.168 707.036 324.434 707.335 324.79L710.503 328.566L709.534 329.379L706.405 325.65C706.156 325.353 705.906 325.159 705.656 325.065C705.409 324.969 705.161 324.957 704.912 325.029C704.66 325.098 704.412 325.235 704.167 325.44C703.881 325.68 703.684 325.931 703.577 326.194C703.47 326.456 703.434 326.725 703.468 326.999C703.502 327.274 703.59 327.549 703.731 327.823C703.872 328.091 704.05 328.352 704.264 328.607ZM707.487 324.993L707.004 325.737C706.747 325.423 706.547 325.082 706.405 324.714C706.266 324.342 706.197 323.966 706.198 323.584C706.202 323.2 706.29 322.826 706.461 322.462C706.629 322.095 706.893 321.761 707.252 321.459C707.556 321.204 707.859 321.019 708.16 320.903C708.465 320.784 708.768 320.741 709.069 320.774C709.371 320.8 709.672 320.907 709.972 321.096C710.273 321.284 710.573 321.556 710.871 321.912L713.995 325.635L713.021 326.452L709.889 322.719C709.622 322.401 709.365 322.197 709.117 322.108C708.87 322.012 708.626 322.005 708.386 322.087C708.147 322.163 707.903 322.305 707.655 322.513C707.442 322.692 707.284 322.887 707.182 323.098C707.079 323.309 707.026 323.526 707.023 323.749C707.017 323.968 707.053 324.185 707.131 324.399C707.213 324.61 707.331 324.808 707.487 324.993ZM718.092 322.376C717.698 322.707 717.284 322.941 716.852 323.078C716.42 323.208 715.986 323.248 715.551 323.197C715.119 323.143 714.701 322.999 714.298 322.767C713.894 322.534 713.526 322.219 713.192 321.821L713.007 321.601C712.62 321.14 712.344 320.673 712.179 320.199C712.01 319.722 711.937 319.259 711.96 318.811C711.983 318.364 712.089 317.951 712.277 317.573C712.466 317.195 712.719 316.872 713.037 316.606C713.442 316.266 713.849 316.043 714.26 315.936C714.674 315.827 715.08 315.819 715.48 315.912C715.876 316.002 716.262 316.178 716.637 316.44C717.009 316.699 717.362 317.028 717.696 317.426L718.06 317.86L713.829 321.411L713.166 320.62L716.428 317.883L716.367 317.809C716.142 317.57 715.884 317.369 715.594 317.208C715.308 317.044 715.004 316.965 714.683 316.973C714.362 316.98 714.036 317.123 713.704 317.402C713.485 317.586 713.322 317.803 713.216 318.053C713.107 318.299 713.062 318.568 713.082 318.861C713.102 319.154 713.185 319.462 713.331 319.785C713.477 320.109 713.694 320.441 713.981 320.784L714.166 321.004C714.391 321.272 714.64 321.495 714.913 321.671C715.186 321.84 715.469 321.954 715.761 322.012C716.057 322.067 716.351 322.058 716.642 321.987C716.936 321.912 717.216 321.764 717.481 321.541C717.823 321.254 718.055 320.941 718.175 320.602C718.295 320.263 718.346 319.902 718.328 319.519L719.305 319.493C719.338 319.78 719.331 320.087 719.283 320.413C719.235 320.739 719.117 321.07 718.929 321.406C718.745 321.739 718.466 322.062 718.092 322.376ZM719.15 311.655L719.774 312.398L716.71 314.969L716.086 314.225L719.15 311.655ZM715.967 311.978L716.936 311.165L721.669 316.805C721.83 316.997 721.981 317.117 722.122 317.165C722.264 317.213 722.395 317.213 722.515 317.165C722.636 317.118 722.75 317.048 722.859 316.958C722.939 316.89 723.017 316.813 723.092 316.726C723.168 316.632 723.225 316.561 723.261 316.512L723.93 317.299C723.874 317.388 723.792 317.495 723.684 317.622C723.582 317.749 723.444 317.885 723.269 318.032C723.032 318.231 722.774 318.367 722.496 318.44C722.218 318.512 721.927 318.489 721.624 318.368C721.321 318.242 721.012 317.99 720.695 317.613L715.967 311.978ZM727.671 314.338C727.276 314.669 726.863 314.903 726.43 315.04C725.999 315.171 725.565 315.21 725.129 315.159C724.697 315.105 724.28 314.962 723.876 314.729C723.473 314.497 723.104 314.181 722.77 313.783L722.586 313.564C722.199 313.103 721.923 312.635 721.757 312.162C721.589 311.684 721.516 311.222 721.539 310.774C721.562 310.327 721.668 309.914 721.856 309.535C722.044 309.157 722.297 308.835 722.615 308.568C723.02 308.229 723.428 308.005 723.838 307.899C724.252 307.79 724.659 307.782 725.058 307.875C725.455 307.964 725.84 308.14 726.215 308.403C726.587 308.662 726.94 308.99 727.274 309.388L727.639 309.823L723.408 313.373L722.744 312.583L726.007 309.845L725.945 309.772C725.72 309.532 725.463 309.332 725.173 309.171C724.886 309.006 724.583 308.928 724.262 308.936C723.941 308.943 723.615 309.086 723.283 309.364C723.063 309.549 722.9 309.766 722.794 310.015C722.685 310.261 722.641 310.531 722.66 310.824C722.68 311.117 722.763 311.425 722.909 311.748C723.056 312.071 723.273 312.404 723.56 312.746L723.744 312.966C723.97 313.235 724.219 313.457 724.491 313.633C724.764 313.803 725.047 313.916 725.34 313.974C725.636 314.029 725.929 314.021 726.22 313.949C726.515 313.875 726.794 313.726 727.06 313.504C727.402 313.217 727.633 312.904 727.753 312.565C727.874 312.226 727.925 311.865 727.906 311.482L728.884 311.456C728.917 311.743 728.91 312.05 728.862 312.376C728.814 312.701 728.696 313.032 728.508 313.368C728.323 313.702 728.044 314.025 727.671 314.338ZM728.072 305.685L732.079 310.461L731.11 311.274L726.356 305.608L727.299 304.817L728.072 305.685ZM729.068 303.278L729.819 304.183C729.724 304.233 729.638 304.287 729.562 304.345C729.486 304.397 729.403 304.461 729.312 304.537C729.089 304.725 728.921 304.925 728.809 305.138C728.696 305.352 728.633 305.571 728.62 305.796C728.607 306.022 728.638 306.251 728.715 306.484C728.792 306.711 728.907 306.936 729.059 307.159L728.918 307.545C728.631 307.203 728.395 306.854 728.209 306.498C728.027 306.139 727.911 305.784 727.861 305.434C727.808 305.08 727.837 304.746 727.948 304.432C728.061 304.112 728.27 303.823 728.577 303.565C728.647 303.507 728.735 303.448 728.84 303.389C728.943 303.327 729.019 303.29 729.068 303.278Z" fill="#1A1C19"/>
<path d="M687.668 361.642L688.498 360.946L692.573 365.802L691.824 366.431L690.801 365.377L687.668 361.642ZM689.996 364.117L690.299 363.848C690.585 364.189 690.817 364.53 690.995 364.87C691.176 365.207 691.292 365.536 691.341 365.857C691.391 366.177 691.365 366.48 691.262 366.765C691.159 367.05 690.968 367.31 690.686 367.546C690.459 367.737 690.23 367.878 690.001 367.969C689.776 368.06 689.547 368.097 689.313 368.079C689.079 368.056 688.835 367.978 688.581 367.844L687.326 366.687L687.847 366.25C688.105 366.558 688.342 366.788 688.556 366.94C688.77 367.092 688.966 367.182 689.143 367.212C689.324 367.239 689.491 367.221 689.643 367.16C689.795 367.098 689.94 367.01 690.078 366.894C690.344 366.671 690.529 366.447 690.632 366.223C690.735 365.994 690.772 365.764 690.742 365.534C690.712 365.304 690.631 365.071 690.499 364.835C690.367 364.599 690.2 364.359 689.996 364.117ZM684.678 364.151L685.504 363.458L691.146 370.182L690.32 370.875L684.678 364.151ZM691.773 359.842L695.039 363.734L694.204 364.434L690.129 359.578L690.919 358.915L691.773 359.842ZM692.676 361.264L692.279 361.575C692.003 361.24 691.789 360.897 691.637 360.545C691.482 360.191 691.399 359.84 691.388 359.492C691.377 359.145 691.446 358.811 691.596 358.491C691.743 358.169 691.979 357.872 692.302 357.601C692.529 357.41 692.766 357.267 693.013 357.172C693.257 357.074 693.508 357.035 693.764 357.055C694.02 357.075 694.277 357.159 694.536 357.31C694.794 357.46 695.052 357.688 695.308 357.993L698.023 361.229L697.193 361.926L694.511 358.73C694.298 358.476 694.084 358.308 693.869 358.229C693.657 358.146 693.445 358.136 693.231 358.198C693.015 358.257 692.803 358.374 692.593 358.55C692.348 358.756 692.179 358.971 692.088 359.196C691.996 359.421 691.965 359.651 691.994 359.886C692.023 360.122 692.098 360.357 692.219 360.592C692.34 360.822 692.493 361.046 692.676 361.264ZM695.438 358.166L695.025 358.804C694.804 358.535 694.633 358.243 694.511 357.927C694.392 357.609 694.333 357.286 694.334 356.959C694.338 356.63 694.413 356.309 694.559 355.997C694.703 355.683 694.929 355.396 695.237 355.138C695.498 354.919 695.757 354.76 696.015 354.661C696.277 354.559 696.536 354.522 696.794 354.55C697.053 354.573 697.311 354.665 697.569 354.826C697.826 354.987 698.083 355.22 698.339 355.525L701.017 358.717L700.182 359.417L697.497 356.217C697.269 355.945 697.048 355.77 696.836 355.693C696.624 355.611 696.415 355.605 696.209 355.676C696.004 355.741 695.795 355.863 695.583 356.041C695.4 356.194 695.265 356.361 695.177 356.542C695.089 356.723 695.044 356.909 695.041 357.1C695.035 357.288 695.066 357.474 695.133 357.657C695.204 357.838 695.305 358.008 695.438 358.166Z" fill="#414940"/>
<path d="M920.323 144.673C918.99 145.792 918.231 147.486 918.219 149.167C916.561 148.887 914.761 149.34 913.429 150.458C911.069 152.438 910.771 155.847 912.751 158.207C915.18 161.103 919.765 161.276 926.718 161.551L928.671 161.623L928.933 159.679C929.877 152.792 930.501 148.247 928.072 145.351C926.092 142.992 922.682 142.693 920.323 144.673ZM926.948 159.413L926.935 159.554L926.795 159.542C920.378 159.3 916.14 159.135 914.283 156.921C912.997 155.389 913.182 153.276 914.714 151.99C915.894 151.001 917.679 150.795 918.966 151.504L920.398 150.302C919.916 148.918 920.429 147.195 921.609 146.205C923.141 144.92 925.254 145.105 926.539 146.637C928.397 148.851 927.824 153.052 926.948 159.413Z" fill="#1A1C19"/>
</svg>
