<svg width="1024" height="384" viewBox="0 0 1024 384" fill="none" xmlns="http://www.w3.org/2000/svg">
<g clip-path="url(#clip0_144_712)">
<path d="M147.692 130.764V185.27C147.692 191.146 146.444 196.409 143.947 201.057C141.489 205.704 137.763 209.392 132.77 212.119C127.776 214.808 121.496 216.152 113.929 216.152C103.135 216.152 94.915 213.329 89.2686 207.683C83.6605 201.998 80.8564 194.45 80.8564 185.039V130.764H94.6846V183.829C94.6846 190.858 96.3363 196.044 99.6396 199.386C102.943 202.728 107.879 204.398 114.447 204.398C118.98 204.398 122.667 203.611 125.51 202.036C128.391 200.423 130.503 198.08 131.848 195.007C133.23 191.896 133.922 188.15 133.922 183.771V130.764H147.692ZM201.104 150.008C208.286 150.008 213.875 151.871 217.87 155.597C221.903 159.284 223.92 165.219 223.92 173.4V215H210.38V175.936C210.38 170.98 209.362 167.274 207.326 164.815C205.29 162.319 202.141 161.07 197.877 161.07C191.693 161.07 187.391 162.972 184.971 166.774C182.589 170.577 181.398 176.089 181.398 183.311V215H167.858V151.218H178.402L180.304 159.86H181.053C182.436 157.632 184.145 155.808 186.181 154.387C188.255 152.927 190.56 151.832 193.095 151.103C195.668 150.373 198.338 150.008 201.104 150.008ZM256.416 151.218V215H242.876V151.218H256.416ZM249.732 126.788C251.807 126.788 253.593 127.345 255.091 128.459C256.627 129.573 257.396 131.493 257.396 134.221C257.396 136.91 256.627 138.83 255.091 139.982C253.593 141.096 251.807 141.653 249.732 141.653C247.581 141.653 245.757 141.096 244.259 139.982C242.799 138.83 242.069 136.91 242.069 134.221C242.069 131.493 242.799 129.573 244.259 128.459C245.757 127.345 247.581 126.788 249.732 126.788ZM299.571 205.205C301.338 205.205 303.086 205.051 304.814 204.744C306.543 204.398 308.118 203.995 309.539 203.534V213.79C308.041 214.443 306.101 215 303.72 215.461C301.338 215.922 298.861 216.152 296.287 216.152C292.676 216.152 289.431 215.557 286.55 214.366C283.669 213.137 281.383 211.044 279.693 208.086C278.003 205.128 277.158 201.037 277.158 195.813V161.531H268.458V155.481L277.792 150.699L282.229 137.044H290.756V151.218H309.021V161.531H290.756V195.641C290.756 198.867 291.562 201.268 293.176 202.843C294.789 204.418 296.921 205.205 299.571 205.205ZM346.241 205.205C348.008 205.205 349.756 205.051 351.484 204.744C353.213 204.398 354.788 203.995 356.209 203.534V213.79C354.711 214.443 352.771 215 350.39 215.461C348.008 215.922 345.531 216.152 342.957 216.152C339.346 216.152 336.101 215.557 333.22 214.366C330.339 213.137 328.053 211.044 326.363 208.086C324.673 205.128 323.828 201.037 323.828 195.813V161.531H315.128V155.481L324.462 150.699L328.898 137.044H337.426V151.218H355.69V161.531H337.426V195.641C337.426 198.867 338.232 201.268 339.846 202.843C341.459 204.418 343.591 205.205 346.241 205.205ZM425.638 182.965C425.638 188.266 424.946 192.971 423.563 197.081C422.181 201.191 420.164 204.667 417.514 207.51C414.863 210.314 411.675 212.465 407.949 213.963C404.223 215.423 400.017 216.152 395.331 216.152C390.952 216.152 386.938 215.423 383.289 213.963C379.64 212.465 376.471 210.314 373.782 207.51C371.132 204.667 369.077 201.191 367.617 197.081C366.158 192.971 365.428 188.266 365.428 182.965C365.428 175.936 366.638 169.982 369.058 165.104C371.516 160.187 375.011 156.442 379.544 153.868C384.076 151.295 389.473 150.008 395.734 150.008C401.611 150.008 406.797 151.295 411.291 153.868C415.785 156.442 419.3 160.187 421.835 165.104C424.37 170.02 425.638 175.974 425.638 182.965ZM379.371 182.965C379.371 187.613 379.928 191.588 381.042 194.892C382.194 198.195 383.961 200.73 386.343 202.497C388.724 204.226 391.797 205.09 395.562 205.09C399.326 205.09 402.399 204.226 404.78 202.497C407.162 200.73 408.91 198.195 410.023 194.892C411.137 191.588 411.694 187.613 411.694 182.965C411.694 178.317 411.137 174.38 410.023 171.153C408.91 167.888 407.162 165.411 404.78 163.721C402.399 161.992 399.307 161.128 395.504 161.128C389.896 161.128 385.805 163.01 383.231 166.774C380.658 170.539 379.371 175.936 379.371 182.965ZM112.086 254.055V280H107.75L107 276.508H106.695C106.148 277.398 105.453 278.141 104.609 278.734C103.766 279.312 102.828 279.742 101.797 280.023C100.766 280.32 99.6797 280.469 98.5391 280.469C96.5859 280.469 94.9141 280.141 93.5234 279.484C92.1484 278.812 91.0938 277.781 90.3594 276.391C89.625 275 89.2578 273.203 89.2578 271V254.055H94.7891V269.969C94.7891 271.984 95.1953 273.492 96.0078 274.492C96.8359 275.492 98.1172 275.992 99.8516 275.992C101.523 275.992 102.852 275.648 103.836 274.961C104.82 274.273 105.516 273.258 105.922 271.914C106.344 270.57 106.555 268.922 106.555 266.969V254.055H112.086ZM133.508 253.562C136.43 253.562 138.703 254.32 140.328 255.836C141.969 257.336 142.789 259.75 142.789 263.078V280H137.281V264.109C137.281 262.094 136.867 260.586 136.039 259.586C135.211 258.57 133.93 258.062 132.195 258.062C129.68 258.062 127.93 258.836 126.945 260.383C125.977 261.93 125.492 264.172 125.492 267.109V280H119.984V254.055H124.273L125.047 257.57H125.352C125.914 256.664 126.609 255.922 127.438 255.344C128.281 254.75 129.219 254.305 130.25 254.008C131.297 253.711 132.383 253.562 133.508 253.562ZM156.008 254.055V280H150.5V254.055H156.008ZM153.289 244.117C154.133 244.117 154.859 244.344 155.469 244.797C156.094 245.25 156.406 246.031 156.406 247.141C156.406 248.234 156.094 249.016 155.469 249.484C154.859 249.938 154.133 250.164 153.289 250.164C152.414 250.164 151.672 249.938 151.062 249.484C150.469 249.016 150.172 248.234 150.172 247.141C150.172 246.031 150.469 245.25 151.062 244.797C151.672 244.344 152.414 244.117 153.289 244.117ZM173.562 276.016C174.281 276.016 174.992 275.953 175.695 275.828C176.398 275.688 177.039 275.523 177.617 275.336V279.508C177.008 279.773 176.219 280 175.25 280.188C174.281 280.375 173.273 280.469 172.227 280.469C170.758 280.469 169.438 280.227 168.266 279.742C167.094 279.242 166.164 278.391 165.477 277.188C164.789 275.984 164.445 274.32 164.445 272.195V258.25H160.906V255.789L164.703 253.844L166.508 248.289H169.977V254.055H177.406V258.25H169.977V272.125C169.977 273.438 170.305 274.414 170.961 275.055C171.617 275.695 172.484 276.016 173.562 276.016ZM205.812 280.469C203.359 280.469 201.234 279.992 199.438 279.039C197.641 278.086 196.258 276.625 195.289 274.656C194.32 272.688 193.836 270.188 193.836 267.156C193.836 264 194.367 261.422 195.43 259.422C196.492 257.422 197.961 255.945 199.836 254.992C201.727 254.039 203.891 253.562 206.328 253.562C207.875 253.562 209.273 253.719 210.523 254.031C211.789 254.328 212.859 254.695 213.734 255.133L212.094 259.539C211.141 259.148 210.164 258.82 209.164 258.555C208.164 258.289 207.203 258.156 206.281 258.156C204.766 258.156 203.5 258.492 202.484 259.164C201.484 259.836 200.734 260.836 200.234 262.164C199.75 263.492 199.508 265.141 199.508 267.109C199.508 269.016 199.758 270.625 200.258 271.938C200.758 273.234 201.5 274.219 202.484 274.891C203.469 275.547 204.68 275.875 206.117 275.875C207.539 275.875 208.812 275.703 209.938 275.359C211.062 275.016 212.125 274.57 213.125 274.023V278.805C212.141 279.367 211.086 279.781 209.961 280.047C208.836 280.328 207.453 280.469 205.812 280.469ZM242.188 266.969C242.188 269.125 241.906 271.039 241.344 272.711C240.781 274.383 239.961 275.797 238.883 276.953C237.805 278.094 236.508 278.969 234.992 279.578C233.477 280.172 231.766 280.469 229.859 280.469C228.078 280.469 226.445 280.172 224.961 279.578C223.477 278.969 222.188 278.094 221.094 276.953C220.016 275.797 219.18 274.383 218.586 272.711C217.992 271.039 217.695 269.125 217.695 266.969C217.695 264.109 218.188 261.688 219.172 259.703C220.172 257.703 221.594 256.18 223.438 255.133C225.281 254.086 227.477 253.562 230.023 253.562C232.414 253.562 234.523 254.086 236.352 255.133C238.18 256.18 239.609 257.703 240.641 259.703C241.672 261.703 242.188 264.125 242.188 266.969ZM223.367 266.969C223.367 268.859 223.594 270.477 224.047 271.82C224.516 273.164 225.234 274.195 226.203 274.914C227.172 275.617 228.422 275.969 229.953 275.969C231.484 275.969 232.734 275.617 233.703 274.914C234.672 274.195 235.383 273.164 235.836 271.82C236.289 270.477 236.516 268.859 236.516 266.969C236.516 265.078 236.289 263.477 235.836 262.164C235.383 260.836 234.672 259.828 233.703 259.141C232.734 258.438 231.477 258.086 229.93 258.086C227.648 258.086 225.984 258.852 224.938 260.383C223.891 261.914 223.367 264.109 223.367 266.969ZM262.039 253.562C264.961 253.562 267.234 254.32 268.859 255.836C270.5 257.336 271.32 259.75 271.32 263.078V280H265.812V264.109C265.812 262.094 265.398 260.586 264.57 259.586C263.742 258.57 262.461 258.062 260.727 258.062C258.211 258.062 256.461 258.836 255.477 260.383C254.508 261.93 254.023 264.172 254.023 267.109V280H248.516V254.055H252.805L253.578 257.57H253.883C254.445 256.664 255.141 255.922 255.969 255.344C256.812 254.75 257.75 254.305 258.781 254.008C259.828 253.711 260.914 253.562 262.039 253.562ZM284.961 280L275.094 254.055H280.93L286.273 269.289C286.617 270.258 286.93 271.305 287.211 272.43C287.492 273.555 287.688 274.5 287.797 275.266H287.984C288.094 274.469 288.305 273.516 288.617 272.406C288.93 271.281 289.25 270.242 289.578 269.289L294.922 254.055H300.734L290.867 280H284.961ZM315.008 253.562C317.32 253.562 319.305 254.039 320.961 254.992C322.617 255.945 323.891 257.297 324.781 259.047C325.672 260.797 326.117 262.891 326.117 265.328V268.281H308.797C308.859 270.797 309.531 272.734 310.812 274.094C312.109 275.453 313.922 276.133 316.25 276.133C317.906 276.133 319.391 275.977 320.703 275.664C322.031 275.336 323.398 274.859 324.805 274.234V278.711C323.508 279.32 322.188 279.766 320.844 280.047C319.5 280.328 317.891 280.469 316.016 280.469C313.469 280.469 311.227 279.977 309.289 278.992C307.367 277.992 305.859 276.508 304.766 274.539C303.688 272.57 303.148 270.125 303.148 267.203C303.148 264.297 303.641 261.828 304.625 259.797C305.609 257.766 306.992 256.219 308.773 255.156C310.555 254.094 312.633 253.562 315.008 253.562ZM315.008 257.711C313.273 257.711 311.867 258.273 310.789 259.398C309.727 260.523 309.102 262.172 308.914 264.344H320.727C320.711 263.047 320.492 261.898 320.07 260.898C319.664 259.898 319.039 259.117 318.195 258.555C317.367 257.992 316.305 257.711 315.008 257.711ZM345.477 253.562C345.914 253.562 346.391 253.586 346.906 253.633C347.422 253.68 347.867 253.742 348.242 253.82L347.727 258.977C347.398 258.883 346.992 258.812 346.508 258.766C346.039 258.719 345.617 258.695 345.242 258.695C344.258 258.695 343.32 258.859 342.43 259.188C341.539 259.5 340.75 259.984 340.062 260.641C339.375 261.281 338.836 262.086 338.445 263.055C338.055 264.023 337.859 265.148 337.859 266.43V280H332.328V254.055H336.641L337.391 258.625H337.648C338.164 257.703 338.805 256.859 339.57 256.094C340.336 255.328 341.211 254.719 342.195 254.266C343.195 253.797 344.289 253.562 345.477 253.562ZM362.703 276.016C363.422 276.016 364.133 275.953 364.836 275.828C365.539 275.688 366.18 275.523 366.758 275.336V279.508C366.148 279.773 365.359 280 364.391 280.188C363.422 280.375 362.414 280.469 361.367 280.469C359.898 280.469 358.578 280.227 357.406 279.742C356.234 279.242 355.305 278.391 354.617 277.188C353.93 275.984 353.586 274.32 353.586 272.195V258.25H350.047V255.789L353.844 253.844L355.648 248.289H359.117V254.055H366.547V258.25H359.117V272.125C359.117 273.438 359.445 274.414 360.102 275.055C360.758 275.695 361.625 276.016 362.703 276.016ZM382.367 253.562C384.68 253.562 386.664 254.039 388.32 254.992C389.977 255.945 391.25 257.297 392.141 259.047C393.031 260.797 393.477 262.891 393.477 265.328V268.281H376.156C376.219 270.797 376.891 272.734 378.172 274.094C379.469 275.453 381.281 276.133 383.609 276.133C385.266 276.133 386.75 275.977 388.062 275.664C389.391 275.336 390.758 274.859 392.164 274.234V278.711C390.867 279.32 389.547 279.766 388.203 280.047C386.859 280.328 385.25 280.469 383.375 280.469C380.828 280.469 378.586 279.977 376.648 278.992C374.727 277.992 373.219 276.508 372.125 274.539C371.047 272.57 370.508 270.125 370.508 267.203C370.508 264.297 371 261.828 371.984 259.797C372.969 257.766 374.352 256.219 376.133 255.156C377.914 254.094 379.992 253.562 382.367 253.562ZM382.367 257.711C380.633 257.711 379.227 258.273 378.148 259.398C377.086 260.523 376.461 262.172 376.273 264.344H388.086C388.07 263.047 387.852 261.898 387.43 260.898C387.023 259.898 386.398 259.117 385.555 258.555C384.727 257.992 383.664 257.711 382.367 257.711ZM412.836 253.562C413.273 253.562 413.75 253.586 414.266 253.633C414.781 253.68 415.227 253.742 415.602 253.82L415.086 258.977C414.758 258.883 414.352 258.812 413.867 258.766C413.398 258.719 412.977 258.695 412.602 258.695C411.617 258.695 410.68 258.859 409.789 259.188C408.898 259.5 408.109 259.984 407.422 260.641C406.734 261.281 406.195 262.086 405.805 263.055C405.414 264.023 405.219 265.148 405.219 266.43V280H399.688V254.055H404L404.75 258.625H405.008C405.523 257.703 406.164 256.859 406.93 256.094C407.695 255.328 408.57 254.719 409.555 254.266C410.555 253.797 411.648 253.562 412.836 253.562Z" fill="#186C31"/>
<g clip-path="url(#clip1_144_712)">
<rect x="544" y="64" width="360" height="609.056" rx="46" fill="#FCFCF7"/>
<path d="M825.82 124.124V128H803.932V124.124H812.681V96.2795C812.681 95.4435 812.71 94.598 812.767 93.743L805.499 99.9845C805.252 100.193 805.005 100.326 804.758 100.383C804.511 100.421 804.283 100.421 804.074 100.383C803.865 100.345 803.666 100.269 803.476 100.155C803.305 100.041 803.172 99.918 803.077 99.785L801.481 97.5905L813.65 87.074H817.783V124.124H825.82ZM861.221 107.594C861.221 111.166 860.832 114.263 860.053 116.885C859.293 119.488 858.248 121.644 856.918 123.354C855.588 125.064 854.011 126.337 852.187 127.173C850.382 128.01 848.444 128.428 846.373 128.428C844.283 128.428 842.335 128.01 840.53 127.173C838.744 126.337 837.186 125.064 835.856 123.354C834.526 121.644 833.481 119.488 832.721 116.885C831.961 114.263 831.581 111.166 831.581 107.594C831.581 104.022 831.961 100.925 832.721 98.303C833.481 95.681 834.526 93.515 835.856 91.805C837.186 90.076 838.744 88.7935 840.53 87.9575C842.335 87.1215 844.283 86.7035 846.373 86.7035C848.444 86.7035 850.382 87.1215 852.187 87.9575C854.011 88.7935 855.588 90.076 856.918 91.805C858.248 93.515 859.293 95.681 860.053 98.303C860.832 100.925 861.221 104.022 861.221 107.594ZM855.949 107.594C855.949 104.478 855.683 101.865 855.151 99.7565C854.638 97.6285 853.935 95.9185 853.042 94.6265C852.168 93.3345 851.151 92.413 849.992 91.862C848.833 91.292 847.627 91.007 846.373 91.007C845.119 91.007 843.912 91.292 842.753 91.862C841.594 92.413 840.578 93.3345 839.704 94.6265C838.83 95.9185 838.127 97.6285 837.595 99.7565C837.082 101.865 836.825 104.478 836.825 107.594C836.825 110.71 837.082 113.322 837.595 115.431C838.127 117.54 838.83 119.241 839.704 120.533C840.578 121.825 841.594 122.756 842.753 123.326C843.912 123.877 845.119 124.152 846.373 124.152C847.627 124.152 848.833 123.877 849.992 123.326C851.151 122.756 852.168 121.825 853.042 120.533C853.935 119.241 854.638 117.54 855.151 115.431C855.683 113.322 855.949 110.71 855.949 107.594ZM894.286 107.594C894.286 111.166 893.896 114.263 893.117 116.885C892.357 119.488 891.312 121.644 889.982 123.354C888.652 125.064 887.075 126.337 885.251 127.173C883.446 128.01 881.508 128.428 879.437 128.428C877.347 128.428 875.4 128.01 873.595 127.173C871.809 126.337 870.251 125.064 868.921 123.354C867.591 121.644 866.546 119.488 865.786 116.885C865.026 114.263 864.646 111.166 864.646 107.594C864.646 104.022 865.026 100.925 865.786 98.303C866.546 95.681 867.591 93.515 868.921 91.805C870.251 90.076 871.809 88.7935 873.595 87.9575C875.4 87.1215 877.347 86.7035 879.437 86.7035C881.508 86.7035 883.446 87.1215 885.251 87.9575C887.075 88.7935 888.652 90.076 889.982 91.805C891.312 93.515 892.357 95.681 893.117 98.303C893.896 100.925 894.286 104.022 894.286 107.594ZM889.013 107.594C889.013 104.478 888.747 101.865 888.215 99.7565C887.702 97.6285 886.999 95.9185 886.106 94.6265C885.232 93.3345 884.216 92.413 883.057 91.862C881.898 91.292 880.691 91.007 879.437 91.007C878.183 91.007 876.977 91.292 875.818 91.862C874.659 92.413 873.642 93.3345 872.768 94.6265C871.894 95.9185 871.191 97.6285 870.659 99.7565C870.146 101.865 869.89 104.478 869.89 107.594C869.89 110.71 870.146 113.322 870.659 115.431C871.191 117.54 871.894 119.241 872.768 120.533C873.642 121.825 874.659 122.756 875.818 123.326C876.977 123.877 878.183 124.152 879.437 124.152C880.691 124.152 881.898 123.877 883.057 123.326C884.216 122.756 885.232 121.825 886.106 120.533C886.999 119.241 887.702 117.54 888.215 115.431C888.747 113.322 889.013 110.71 889.013 107.594Z" fill="#002107"/>
<path d="M879.619 153.689V159.758H879.941C880.034 159.758 880.111 159.746 880.172 159.723C880.237 159.695 880.305 159.641 880.375 159.562L882.615 157.161C882.68 157.082 882.748 157.021 882.818 156.979C882.893 156.932 882.991 156.909 883.112 156.909H884.239L881.628 159.688C881.502 159.847 881.367 159.97 881.222 160.059C881.306 160.115 881.381 160.18 881.446 160.255C881.516 160.325 881.581 160.407 881.642 160.5L884.414 164H883.301C883.194 164 883.1 163.984 883.021 163.951C882.946 163.914 882.881 163.848 882.825 163.755L880.494 160.85C880.424 160.752 880.354 160.689 880.284 160.661C880.219 160.628 880.116 160.612 879.976 160.612H879.619V164H878.366V153.689H879.619ZM885.475 164V156.909H886.224C886.402 156.909 886.511 156.995 886.553 157.168L886.644 157.896C886.906 157.574 887.2 157.31 887.526 157.105C887.853 156.9 888.231 156.797 888.66 156.797C889.136 156.797 889.521 156.93 889.815 157.196C890.114 157.462 890.329 157.821 890.459 158.274C890.562 158.017 890.693 157.796 890.851 157.609C891.015 157.422 891.197 157.268 891.397 157.147C891.598 157.026 891.81 156.937 892.034 156.881C892.263 156.825 892.494 156.797 892.727 156.797C893.101 156.797 893.432 156.858 893.721 156.979C894.015 157.096 894.263 157.268 894.463 157.497C894.669 157.726 894.825 158.008 894.932 158.344C895.04 158.675 895.093 159.056 895.093 159.485V164H893.84V159.485C893.84 158.93 893.719 158.51 893.476 158.225C893.234 157.936 892.884 157.791 892.426 157.791C892.221 157.791 892.025 157.828 891.838 157.903C891.656 157.973 891.495 158.078 891.355 158.218C891.215 158.358 891.103 158.535 891.019 158.75C890.94 158.96 890.9 159.205 890.9 159.485V164H889.647V159.485C889.647 158.916 889.533 158.491 889.304 158.211C889.076 157.931 888.742 157.791 888.303 157.791C887.995 157.791 887.711 157.875 887.449 158.043C887.188 158.206 886.948 158.43 886.728 158.715V164H885.475Z" fill="#1A1C19"/>
<path d="M733.68 229.238C735.048 229.238 736.283 229.02 737.385 228.582C738.506 228.145 739.456 227.537 740.235 226.758C741.033 225.979 741.641 225.058 742.059 223.994C742.496 222.93 742.715 221.771 742.715 220.517C742.715 219.187 742.506 217.99 742.088 216.926C741.67 215.843 741.071 214.931 740.292 214.19C739.532 213.43 738.62 212.85 737.556 212.451C736.492 212.052 735.324 211.853 734.051 211.853C732.683 211.853 731.448 212.09 730.346 212.565C729.244 213.021 728.303 213.648 727.524 214.446C726.764 215.225 726.175 216.137 725.757 217.182C725.358 218.208 725.159 219.282 725.159 220.403C725.159 221.714 725.349 222.911 725.729 223.994C726.109 225.077 726.66 226.008 727.382 226.787C728.123 227.566 729.016 228.174 730.061 228.611C731.125 229.029 732.331 229.238 733.68 229.238ZM730.716 207.464C730.355 207.92 730.004 208.366 729.662 208.803C729.339 209.221 729.025 209.639 728.721 210.057C729.69 209.392 730.754 208.879 731.913 208.518C733.072 208.157 734.336 207.977 735.704 207.977C737.357 207.977 738.915 208.252 740.378 208.803C741.841 209.335 743.114 210.124 744.197 211.169C745.299 212.195 746.173 213.468 746.819 214.988C747.465 216.489 747.788 218.208 747.788 220.146C747.788 222.027 747.446 223.775 746.762 225.39C746.078 227.005 745.118 228.411 743.883 229.608C742.667 230.805 741.195 231.746 739.466 232.43C737.756 233.114 735.865 233.456 733.794 233.456C731.742 233.456 729.88 233.133 728.208 232.487C726.536 231.822 725.111 230.891 723.933 229.694C722.774 228.478 721.872 227.015 721.226 225.305C720.599 223.576 720.285 221.647 720.285 219.519C720.285 217.733 720.675 215.833 721.454 213.819C722.252 211.786 723.515 209.62 725.244 207.321L735.618 193.385C735.884 193.043 736.245 192.758 736.701 192.53C737.176 192.283 737.718 192.159 738.326 192.159H742.829L730.716 207.464ZM778.401 228.183C778.952 228.183 779.389 228.345 779.712 228.668C780.035 228.991 780.196 229.409 780.196 229.922V233H752.95V231.261C752.95 230.9 753.026 230.53 753.178 230.15C753.33 229.77 753.568 229.418 753.891 229.095L766.972 215.957C768.055 214.855 769.043 213.8 769.936 212.793C770.829 211.767 771.589 210.741 772.216 209.715C772.843 208.689 773.328 207.654 773.67 206.609C774.012 205.545 774.183 204.414 774.183 203.217C774.183 202.02 773.993 200.975 773.613 200.082C773.233 199.17 772.71 198.42 772.045 197.831C771.399 197.242 770.63 196.805 769.737 196.52C768.844 196.216 767.884 196.064 766.858 196.064C765.813 196.064 764.854 196.216 763.98 196.52C763.106 196.824 762.327 197.251 761.643 197.802C760.978 198.334 760.417 198.971 759.961 199.712C759.505 200.453 759.182 201.27 758.992 202.163C758.764 202.828 758.451 203.274 758.052 203.502C757.672 203.711 757.13 203.768 756.427 203.673L753.777 203.217C754.043 201.355 754.556 199.712 755.316 198.287C756.095 196.843 757.064 195.636 758.223 194.667C759.401 193.698 760.74 192.967 762.241 192.473C763.742 191.96 765.367 191.703 767.115 191.703C768.844 191.703 770.459 191.96 771.96 192.473C773.461 192.986 774.762 193.736 775.864 194.724C776.966 195.693 777.831 196.881 778.458 198.287C779.085 199.693 779.398 201.289 779.398 203.075C779.398 204.595 779.17 206.01 778.714 207.321C778.258 208.613 777.641 209.848 776.862 211.026C776.083 212.204 775.18 213.354 774.154 214.475C773.147 215.596 772.074 216.726 770.934 217.866L760.161 228.867C760.921 228.658 761.69 228.497 762.469 228.383C763.248 228.25 763.999 228.183 764.721 228.183H778.401ZM786.499 229.865C786.499 229.371 786.585 228.905 786.756 228.468C786.946 228.031 787.193 227.651 787.497 227.328C787.82 227.005 788.2 226.749 788.637 226.559C789.074 226.369 789.539 226.274 790.033 226.274C790.527 226.274 790.993 226.369 791.43 226.559C791.867 226.749 792.247 227.005 792.57 227.328C792.893 227.651 793.149 228.031 793.339 228.468C793.529 228.905 793.624 229.371 793.624 229.865C793.624 230.378 793.529 230.853 793.339 231.29C793.149 231.708 792.893 232.078 792.57 232.401C792.247 232.724 791.867 232.971 791.43 233.143C790.993 233.333 790.527 233.428 790.033 233.428C789.539 233.428 789.074 233.333 788.637 233.143C788.2 232.971 787.82 232.724 787.497 232.401C787.193 232.078 786.946 231.708 786.756 231.29C786.585 230.853 786.499 230.378 786.499 229.865ZM825.82 229.124V233H803.932V229.124H812.681V201.279C812.681 200.443 812.71 199.598 812.767 198.743L805.499 204.984C805.252 205.193 805.005 205.326 804.758 205.383C804.511 205.421 804.283 205.421 804.074 205.383C803.865 205.345 803.666 205.269 803.476 205.155C803.305 205.041 803.172 204.918 803.077 204.785L801.481 202.59L813.65 192.074H817.783V229.124H825.82ZM833.576 203.217C833.842 201.355 834.355 199.712 835.115 198.287C835.875 196.843 836.835 195.636 837.994 194.667C839.172 193.698 840.511 192.967 842.012 192.473C843.532 191.96 845.166 191.703 846.914 191.703C848.643 191.703 850.239 191.95 851.702 192.444C853.165 192.938 854.419 193.641 855.464 194.553C856.528 195.465 857.355 196.567 857.944 197.859C858.533 199.151 858.827 200.586 858.827 202.163C858.827 203.455 858.656 204.614 858.314 205.64C857.991 206.647 857.516 207.53 856.889 208.29C856.281 209.05 855.54 209.696 854.666 210.228C853.792 210.76 852.814 211.197 851.731 211.539C854.391 212.223 856.386 213.401 857.716 215.073C859.065 216.726 859.739 218.797 859.739 221.286C859.739 223.167 859.378 224.858 858.656 226.359C857.953 227.86 856.984 229.143 855.749 230.207C854.514 231.252 853.07 232.059 851.417 232.629C849.783 233.181 848.026 233.456 846.145 233.456C843.979 233.456 842.126 233.19 840.587 232.658C839.048 232.107 837.747 231.356 836.683 230.406C835.619 229.456 834.745 228.335 834.061 227.043C833.377 225.732 832.797 224.317 832.322 222.797L834.517 221.885C835.087 221.638 835.638 221.571 836.17 221.685C836.721 221.799 837.12 222.113 837.367 222.626C837.614 223.158 837.918 223.794 838.279 224.535C838.659 225.276 839.172 225.989 839.818 226.673C840.464 227.357 841.281 227.936 842.269 228.411C843.276 228.886 844.549 229.124 846.088 229.124C847.513 229.124 848.757 228.896 849.821 228.44C850.904 227.965 851.797 227.357 852.5 226.616C853.222 225.875 853.764 225.048 854.125 224.136C854.486 223.224 854.666 222.322 854.666 221.429C854.666 220.327 854.524 219.32 854.239 218.408C853.954 217.496 853.422 216.707 852.643 216.042C851.864 215.377 850.79 214.855 849.422 214.475C848.073 214.095 846.335 213.905 844.207 213.905V210.228C845.955 210.209 847.437 210.019 848.653 209.658C849.888 209.297 850.885 208.803 851.645 208.176C852.424 207.549 852.985 206.799 853.327 205.925C853.688 205.051 853.868 204.082 853.868 203.018C853.868 201.84 853.678 200.814 853.298 199.94C852.937 199.066 852.434 198.344 851.788 197.774C851.142 197.204 850.372 196.776 849.479 196.491C848.605 196.206 847.655 196.064 846.629 196.064C845.603 196.064 844.644 196.216 843.751 196.52C842.877 196.824 842.098 197.251 841.414 197.802C840.749 198.334 840.188 198.971 839.732 199.712C839.276 200.453 838.953 201.27 838.763 202.163C838.516 202.828 838.203 203.274 837.823 203.502C837.462 203.711 836.93 203.768 836.227 203.673L833.576 203.217ZM893.744 192.159V194.439C893.744 195.085 893.668 195.617 893.516 196.035C893.383 196.453 893.25 196.805 893.117 197.09L876.188 231.204C875.941 231.698 875.599 232.126 875.162 232.487C874.725 232.829 874.146 233 873.424 233L869.776 233L886.933 199.313C887.18 198.838 887.436 198.401 887.702 198.002C887.968 197.603 888.253 197.223 888.557 196.862H867.239C866.916 196.862 866.631 196.738 866.384 196.491C866.137 196.225 866.014 195.931 866.014 195.608V192.159H893.744Z" fill="#002107"/>
<path d="M891.462 258.969V269H890.272V261.629C890.272 261.531 890.274 261.426 890.279 261.314C890.288 261.202 890.298 261.088 890.307 260.971L886.863 267.243C886.756 267.453 886.592 267.558 886.373 267.558H886.177C885.958 267.558 885.794 267.453 885.687 267.243L882.173 260.943C882.201 261.19 882.215 261.419 882.215 261.629V269H881.025V258.969H882.026C882.147 258.969 882.241 258.981 882.306 259.004C882.371 259.027 882.434 259.093 882.495 259.2L885.96 265.374C886.016 265.486 886.07 265.603 886.121 265.724C886.177 265.845 886.228 265.969 886.275 266.095C886.322 265.969 886.371 265.845 886.422 265.724C886.473 265.598 886.529 265.479 886.59 265.367L889.992 259.2C890.048 259.093 890.109 259.027 890.174 259.004C890.244 258.981 890.34 258.969 890.461 258.969H891.462ZM894.94 261.909V269H893.694V261.909H894.94ZM895.206 259.683C895.206 259.804 895.18 259.919 895.129 260.026C895.082 260.129 895.017 260.222 894.933 260.306C894.853 260.385 894.758 260.448 894.646 260.495C894.538 260.542 894.424 260.565 894.303 260.565C894.181 260.565 894.067 260.542 893.96 260.495C893.857 260.448 893.766 260.385 893.687 260.306C893.607 260.222 893.544 260.129 893.498 260.026C893.451 259.919 893.428 259.804 893.428 259.683C893.428 259.562 893.451 259.447 893.498 259.34C893.544 259.228 893.607 259.132 893.687 259.053C893.766 258.969 893.857 258.904 893.96 258.857C894.067 258.81 894.181 258.787 894.303 258.787C894.424 258.787 894.538 258.81 894.646 258.857C894.758 258.904 894.853 258.969 894.933 259.053C895.017 259.132 895.082 259.228 895.129 259.34C895.18 259.447 895.206 259.562 895.206 259.683Z" fill="#1A1C19"/>
<rect x="552" y="282" width="150" height="49" rx="16" fill="#D4E8D1"/>
<path d="M599.921 306.365H600.432C600.609 306.365 600.752 306.344 600.859 306.302C600.966 306.255 601.064 306.178 601.153 306.071L604.492 302.291C604.585 302.17 604.683 302.086 604.786 302.039C604.889 301.992 605.015 301.969 605.164 301.969H606.312L602.49 306.288C602.397 306.4 602.306 306.493 602.217 306.568C602.133 306.638 602.042 306.696 601.944 306.743C602.07 306.785 602.184 306.848 602.287 306.932C602.39 307.011 602.49 307.116 602.588 307.247L606.578 312H605.402C605.313 312 605.236 311.995 605.171 311.986C605.11 311.972 605.057 311.953 605.01 311.93C604.963 311.902 604.921 311.872 604.884 311.839C604.851 311.802 604.819 311.76 604.786 311.713L601.328 307.73C601.235 307.613 601.134 307.532 601.027 307.485C600.92 307.434 600.756 307.408 600.537 307.408H599.921V312H598.57V301.969H599.921V306.365ZM608.862 304.909V312H607.616V304.909H608.862ZM609.128 302.683C609.128 302.804 609.102 302.919 609.051 303.026C609.004 303.129 608.939 303.222 608.855 303.306C608.775 303.385 608.68 303.448 608.568 303.495C608.46 303.542 608.346 303.565 608.225 303.565C608.103 303.565 607.989 303.542 607.882 303.495C607.779 303.448 607.688 303.385 607.609 303.306C607.529 303.222 607.466 303.129 607.42 303.026C607.373 302.919 607.35 302.804 607.35 302.683C607.35 302.562 607.373 302.447 607.42 302.34C607.466 302.228 607.529 302.132 607.609 302.053C607.688 301.969 607.779 301.904 607.882 301.857C607.989 301.81 608.103 301.787 608.225 301.787C608.346 301.787 608.46 301.81 608.568 301.857C608.68 301.904 608.775 301.969 608.855 302.053C608.939 302.132 609.004 302.228 609.051 302.34C609.102 302.447 609.128 302.562 609.128 302.683ZM612.197 301.689V312H610.951V301.689H612.197ZM617.206 304.797C617.724 304.797 618.191 304.883 618.606 305.056C619.022 305.229 619.376 305.474 619.67 305.791C619.964 306.108 620.188 306.493 620.342 306.946C620.501 307.394 620.58 307.896 620.58 308.451C620.58 309.011 620.501 309.515 620.342 309.963C620.188 310.411 619.964 310.794 619.67 311.111C619.376 311.428 619.022 311.673 618.606 311.846C618.191 312.014 617.724 312.098 617.206 312.098C616.684 312.098 616.212 312.014 615.792 311.846C615.377 311.673 615.022 311.428 614.728 311.111C614.434 310.794 614.208 310.411 614.049 309.963C613.895 309.515 613.818 309.011 613.818 308.451C613.818 307.896 613.895 307.394 614.049 306.946C614.208 306.493 614.434 306.108 614.728 305.791C615.022 305.474 615.377 305.229 615.792 305.056C616.212 304.883 616.684 304.797 617.206 304.797ZM617.206 311.125C617.906 311.125 618.429 310.892 618.774 310.425C619.12 309.954 619.292 309.298 619.292 308.458C619.292 307.613 619.12 306.955 618.774 306.484C618.429 306.013 617.906 305.777 617.206 305.777C616.852 305.777 616.541 305.838 616.275 305.959C616.014 306.08 615.795 306.255 615.617 306.484C615.445 306.713 615.314 306.995 615.225 307.331C615.141 307.662 615.099 308.038 615.099 308.458C615.099 309.298 615.272 309.954 615.617 310.425C615.967 310.892 616.497 311.125 617.206 311.125ZM622.161 312V304.909H622.91C623.087 304.909 623.197 304.995 623.239 305.168L623.33 305.896C623.591 305.574 623.885 305.31 624.212 305.105C624.538 304.9 624.916 304.797 625.346 304.797C625.822 304.797 626.207 304.93 626.501 305.196C626.799 305.462 627.014 305.821 627.145 306.274C627.247 306.017 627.378 305.796 627.537 305.609C627.7 305.422 627.882 305.268 628.083 305.147C628.283 305.026 628.496 304.937 628.72 304.881C628.948 304.825 629.179 304.797 629.413 304.797C629.786 304.797 630.117 304.858 630.407 304.979C630.701 305.096 630.948 305.268 631.149 305.497C631.354 305.726 631.51 306.008 631.618 306.344C631.725 306.675 631.779 307.056 631.779 307.485V312H630.526V307.485C630.526 306.93 630.404 306.51 630.162 306.225C629.919 305.936 629.569 305.791 629.112 305.791C628.906 305.791 628.71 305.828 628.524 305.903C628.342 305.973 628.181 306.078 628.041 306.218C627.901 306.358 627.789 306.535 627.705 306.75C627.625 306.96 627.586 307.205 627.586 307.485V312H626.333V307.485C626.333 306.916 626.218 306.491 625.99 306.211C625.761 305.931 625.427 305.791 624.989 305.791C624.681 305.791 624.396 305.875 624.135 306.043C623.873 306.206 623.633 306.43 623.414 306.715V312H622.161ZM638.419 307.681C638.419 307.392 638.377 307.128 638.293 306.89C638.213 306.647 638.094 306.44 637.936 306.267C637.782 306.09 637.593 305.954 637.369 305.861C637.145 305.763 636.89 305.714 636.606 305.714C636.008 305.714 635.535 305.889 635.185 306.239C634.839 306.584 634.625 307.065 634.541 307.681H638.419ZM639.427 311.006C639.273 311.193 639.088 311.356 638.874 311.496C638.659 311.631 638.428 311.743 638.181 311.832C637.938 311.921 637.686 311.986 637.425 312.028C637.163 312.075 636.904 312.098 636.648 312.098C636.158 312.098 635.705 312.016 635.29 311.853C634.879 311.685 634.522 311.442 634.219 311.125C633.92 310.803 633.687 310.406 633.519 309.935C633.351 309.464 633.267 308.922 633.267 308.311C633.267 307.816 633.341 307.354 633.491 306.925C633.645 306.496 633.864 306.125 634.149 305.812C634.433 305.495 634.781 305.247 635.192 305.07C635.602 304.888 636.064 304.797 636.578 304.797C637.002 304.797 637.394 304.869 637.754 305.014C638.118 305.154 638.43 305.359 638.692 305.63C638.958 305.896 639.165 306.227 639.315 306.624C639.464 307.016 639.539 307.464 639.539 307.968C639.539 308.164 639.518 308.295 639.476 308.36C639.434 308.425 639.354 308.458 639.238 308.458H634.499C634.513 308.906 634.573 309.296 634.681 309.627C634.793 309.958 634.947 310.236 635.143 310.46C635.339 310.679 635.572 310.845 635.843 310.957C636.113 311.064 636.417 311.118 636.753 311.118C637.065 311.118 637.334 311.083 637.558 311.013C637.786 310.938 637.982 310.859 638.146 310.775C638.309 310.691 638.444 310.614 638.552 310.544C638.664 310.469 638.759 310.432 638.839 310.432C638.941 310.432 639.021 310.472 639.077 310.551L639.427 311.006ZM643.191 312.112C642.631 312.112 642.2 311.956 641.896 311.643C641.598 311.33 641.448 310.88 641.448 310.292V305.952H640.594C640.52 305.952 640.457 305.931 640.405 305.889C640.354 305.842 640.328 305.772 640.328 305.679V305.182L641.49 305.035L641.777 302.844C641.791 302.774 641.822 302.718 641.868 302.676C641.92 302.629 641.985 302.606 642.064 302.606H642.694V305.049H644.745V305.952H642.694V310.208C642.694 310.507 642.767 310.728 642.911 310.873C643.056 311.018 643.243 311.09 643.471 311.09C643.602 311.09 643.714 311.074 643.807 311.041C643.905 311.004 643.989 310.964 644.059 310.922C644.129 310.88 644.188 310.843 644.234 310.81C644.286 310.773 644.33 310.754 644.367 310.754C644.433 310.754 644.491 310.794 644.542 310.873L644.906 311.468C644.692 311.669 644.433 311.827 644.129 311.944C643.826 312.056 643.513 312.112 643.191 312.112ZM650.737 307.681C650.737 307.392 650.695 307.128 650.611 306.89C650.532 306.647 650.413 306.44 650.254 306.267C650.1 306.09 649.911 305.954 649.687 305.861C649.463 305.763 649.209 305.714 648.924 305.714C648.327 305.714 647.853 305.889 647.503 306.239C647.158 306.584 646.943 307.065 646.859 307.681H650.737ZM651.745 311.006C651.591 311.193 651.407 311.356 651.192 311.496C650.977 311.631 650.746 311.743 650.499 311.832C650.256 311.921 650.004 311.986 649.743 312.028C649.482 312.075 649.223 312.098 648.966 312.098C648.476 312.098 648.023 312.016 647.608 311.853C647.197 311.685 646.84 311.442 646.537 311.125C646.238 310.803 646.005 310.406 645.837 309.935C645.669 309.464 645.585 308.922 645.585 308.311C645.585 307.816 645.66 307.354 645.809 306.925C645.963 306.496 646.182 306.125 646.467 305.812C646.752 305.495 647.099 305.247 647.51 305.07C647.921 304.888 648.383 304.797 648.896 304.797C649.321 304.797 649.713 304.869 650.072 305.014C650.436 305.154 650.749 305.359 651.01 305.63C651.276 305.896 651.484 306.227 651.633 306.624C651.782 307.016 651.857 307.464 651.857 307.968C651.857 308.164 651.836 308.295 651.794 308.36C651.752 308.425 651.673 308.458 651.556 308.458H646.817C646.831 308.906 646.892 309.296 646.999 309.627C647.111 309.958 647.265 310.236 647.461 310.46C647.657 310.679 647.89 310.845 648.161 310.957C648.432 311.064 648.735 311.118 649.071 311.118C649.384 311.118 649.652 311.083 649.876 311.013C650.105 310.938 650.301 310.859 650.464 310.775C650.627 310.691 650.763 310.614 650.87 310.544C650.982 310.469 651.078 310.432 651.157 310.432C651.26 310.432 651.339 310.472 651.395 310.551L651.745 311.006ZM654.57 306.33C654.794 305.845 655.07 305.467 655.396 305.196C655.723 304.921 656.122 304.783 656.593 304.783C656.743 304.783 656.885 304.799 657.02 304.832C657.16 304.865 657.284 304.916 657.391 304.986L657.3 305.917C657.272 306.034 657.202 306.092 657.09 306.092C657.025 306.092 656.929 306.078 656.803 306.05C656.677 306.022 656.535 306.008 656.376 306.008C656.152 306.008 655.952 306.041 655.774 306.106C655.602 306.171 655.445 306.269 655.305 306.4C655.17 306.526 655.046 306.685 654.934 306.876C654.827 307.063 654.729 307.277 654.64 307.52V312H653.387V304.909H654.101C654.237 304.909 654.33 304.935 654.381 304.986C654.433 305.037 654.468 305.126 654.486 305.252L654.57 306.33Z" fill="#0F1F11"/>
<path d="M718.99 305.5L715 309.5L718.99 313.5V310.5H726V308.5H718.99V305.5ZM733 303.5L729.01 299.5V302.5H722V304.5H729.01V307.5L733 303.5Z" fill="#1A1C19"/>
<rect x="746" y="282" width="150" height="49" rx="16" fill="#D4E8D1"/>
<path d="M819.257 301.969V312H818.067V304.629C818.067 304.531 818.069 304.426 818.074 304.314C818.083 304.202 818.093 304.088 818.102 303.971L814.658 310.243C814.551 310.453 814.387 310.558 814.168 310.558H813.972C813.753 310.558 813.589 310.453 813.482 310.243L809.968 303.943C809.996 304.19 810.01 304.419 810.01 304.629V312H808.82V301.969H809.821C809.942 301.969 810.036 301.981 810.101 302.004C810.166 302.027 810.229 302.093 810.29 302.2L813.755 308.374C813.811 308.486 813.865 308.603 813.916 308.724C813.972 308.845 814.023 308.969 814.07 309.095C814.117 308.969 814.166 308.845 814.217 308.724C814.268 308.598 814.324 308.479 814.385 308.367L817.787 302.2C817.843 302.093 817.904 302.027 817.969 302.004C818.039 301.981 818.135 301.969 818.256 301.969H819.257ZM822.735 304.909V312H821.489V304.909H822.735ZM823.001 302.683C823.001 302.804 822.975 302.919 822.924 303.026C822.877 303.129 822.812 303.222 822.728 303.306C822.648 303.385 822.553 303.448 822.441 303.495C822.333 303.542 822.219 303.565 822.098 303.565C821.976 303.565 821.862 303.542 821.755 303.495C821.652 303.448 821.561 303.385 821.482 303.306C821.402 303.222 821.339 303.129 821.293 303.026C821.246 302.919 821.223 302.804 821.223 302.683C821.223 302.562 821.246 302.447 821.293 302.34C821.339 302.228 821.402 302.132 821.482 302.053C821.561 301.969 821.652 301.904 821.755 301.857C821.862 301.81 821.976 301.787 822.098 301.787C822.219 301.787 822.333 301.81 822.441 301.857C822.553 301.904 822.648 301.969 822.728 302.053C822.812 302.132 822.877 302.228 822.924 302.34C822.975 302.447 823.001 302.562 823.001 302.683ZM826.07 301.689V312H824.824V301.689H826.07ZM832.837 307.681C832.837 307.392 832.795 307.128 832.711 306.89C832.631 306.647 832.512 306.44 832.354 306.267C832.2 306.09 832.011 305.954 831.787 305.861C831.563 305.763 831.308 305.714 831.024 305.714C830.426 305.714 829.953 305.889 829.603 306.239C829.257 306.584 829.043 307.065 828.959 307.681H832.837ZM833.845 311.006C833.691 311.193 833.506 311.356 833.292 311.496C833.077 311.631 832.846 311.743 832.599 311.832C832.356 311.921 832.104 311.986 831.843 312.028C831.581 312.075 831.322 312.098 831.066 312.098C830.576 312.098 830.123 312.016 829.708 311.853C829.297 311.685 828.94 311.442 828.637 311.125C828.338 310.803 828.105 310.406 827.937 309.935C827.769 309.464 827.685 308.922 827.685 308.311C827.685 307.816 827.759 307.354 827.909 306.925C828.063 306.496 828.282 306.125 828.567 305.812C828.851 305.495 829.199 305.247 829.61 305.07C830.02 304.888 830.482 304.797 830.996 304.797C831.42 304.797 831.812 304.869 832.172 305.014C832.536 305.154 832.848 305.359 833.11 305.63C833.376 305.896 833.583 306.227 833.733 306.624C833.882 307.016 833.957 307.464 833.957 307.968C833.957 308.164 833.936 308.295 833.894 308.36C833.852 308.425 833.772 308.458 833.656 308.458H828.917C828.931 308.906 828.991 309.296 829.099 309.627C829.211 309.958 829.365 310.236 829.561 310.46C829.757 310.679 829.99 310.845 830.261 310.957C830.531 311.064 830.835 311.118 831.171 311.118C831.483 311.118 831.752 311.083 831.976 311.013C832.204 310.938 832.4 310.859 832.564 310.775C832.727 310.691 832.862 310.614 832.97 310.544C833.082 310.469 833.177 310.432 833.257 310.432C833.359 310.432 833.439 310.472 833.495 310.551L833.845 311.006Z" fill="#0F1F11"/>
<path d="M552 383.451C552 364.424 567.424 349 586.451 349H596.049C615.076 349 630.5 364.424 630.5 383.451V383.451C630.5 402.478 615.076 417.902 596.049 417.902H586.451C567.424 417.902 552 402.478 552 383.451V383.451Z" fill="#D4E8D1"/>
<path d="M596.879 376.688V377.568C596.879 377.817 596.85 378.023 596.791 378.184C596.74 378.345 596.689 378.481 596.637 378.591L590.103 391.758C590.008 391.949 589.876 392.114 589.707 392.253C589.539 392.385 589.315 392.451 589.036 392.451H587.628L594.25 379.449C594.346 379.266 594.445 379.097 594.547 378.943C594.65 378.789 594.76 378.642 594.877 378.503H586.649C586.525 378.503 586.415 378.455 586.319 378.36C586.224 378.257 586.176 378.144 586.176 378.019V376.688H596.879Z" fill="#0F1F11"/>
<path d="M640.5 383.451C640.5 364.424 655.924 349 674.951 349H684.549C703.576 349 719 364.424 719 383.451V383.451C719 402.478 703.576 417.902 684.549 417.902H674.951C655.924 417.902 640.5 402.478 640.5 383.451V383.451Z" fill="#D4E8D1"/>
<path d="M679.868 391.065C680.382 391.065 680.84 390.995 681.243 390.856C681.654 390.709 681.999 390.508 682.277 390.251C682.563 389.987 682.78 389.675 682.926 389.316C683.08 388.949 683.157 388.546 683.157 388.106C683.157 387.563 683.066 387.101 682.882 386.72C682.706 386.331 682.464 386.016 682.156 385.774C681.856 385.532 681.507 385.356 681.111 385.246C680.715 385.129 680.301 385.07 679.868 385.07C679.436 385.07 679.021 385.129 678.625 385.246C678.229 385.356 677.877 385.532 677.569 385.774C677.269 386.016 677.027 386.331 676.843 386.72C676.667 387.101 676.579 387.563 676.579 388.106C676.579 388.546 676.653 388.949 676.799 389.316C676.953 389.675 677.17 389.987 677.448 390.251C677.734 390.508 678.079 390.709 678.482 390.856C678.893 390.995 679.355 391.065 679.868 391.065ZM679.868 378.03C679.399 378.03 678.985 378.1 678.625 378.239C678.273 378.378 677.976 378.569 677.734 378.811C677.5 379.053 677.32 379.335 677.195 379.658C677.078 379.981 677.019 380.325 677.019 380.692C677.019 381.051 677.071 381.4 677.173 381.737C677.276 382.074 677.441 382.375 677.668 382.639C677.896 382.896 678.189 383.105 678.548 383.266C678.915 383.42 679.355 383.497 679.868 383.497C680.382 383.497 680.818 383.42 681.177 383.266C681.544 383.105 681.841 382.896 682.068 382.639C682.296 382.375 682.461 382.074 682.563 381.737C682.666 381.4 682.717 381.051 682.717 380.692C682.717 380.325 682.655 379.981 682.53 379.658C682.413 379.335 682.233 379.053 681.991 378.811C681.757 378.569 681.46 378.378 681.1 378.239C680.748 378.1 680.338 378.03 679.868 378.03ZM682.123 384.234C683.106 384.513 683.861 384.978 684.389 385.631C684.917 386.284 685.181 387.12 685.181 388.139C685.181 388.828 685.049 389.452 684.785 390.009C684.529 390.559 684.166 391.028 683.696 391.417C683.234 391.806 682.677 392.106 682.024 392.319C681.372 392.524 680.653 392.627 679.868 392.627C679.084 392.627 678.365 392.524 677.712 392.319C677.06 392.106 676.499 391.806 676.029 391.417C675.56 391.028 675.197 390.559 674.94 390.009C674.684 389.452 674.555 388.828 674.555 388.139C674.555 387.12 674.819 386.284 675.347 385.631C675.875 384.978 676.631 384.513 677.613 384.234C676.785 383.926 676.158 383.468 675.732 382.859C675.314 382.243 675.105 381.51 675.105 380.659C675.105 380.08 675.219 379.537 675.446 379.031C675.674 378.525 675.996 378.085 676.414 377.711C676.832 377.337 677.331 377.044 677.91 376.831C678.497 376.618 679.15 376.512 679.868 376.512C680.58 376.512 681.229 376.618 681.815 376.831C682.402 377.044 682.904 377.337 683.322 377.711C683.74 378.085 684.063 378.525 684.29 379.031C684.518 379.537 684.631 380.08 684.631 380.659C684.631 381.51 684.419 382.243 683.993 382.859C683.575 383.468 682.952 383.926 682.123 384.234Z" fill="#0F1F11"/>
<path d="M729 383.451C729 364.424 744.424 349 763.451 349H773.049C792.076 349 807.5 364.424 807.5 383.451V383.451C807.5 402.478 792.076 417.902 773.049 417.902H763.451C744.424 417.902 729 402.478 729 383.451V383.451Z" fill="#D4E8D1"/>
<path d="M765.101 381.319C765.101 381.818 765.171 382.265 765.31 382.661C765.457 383.05 765.662 383.38 765.926 383.651C766.198 383.922 766.524 384.128 766.905 384.267C767.294 384.406 767.727 384.476 768.203 384.476C768.731 384.476 769.197 384.392 769.6 384.223C770.011 384.047 770.356 383.816 770.634 383.53C770.913 383.244 771.126 382.914 771.272 382.54C771.419 382.166 771.492 381.777 771.492 381.374C771.492 380.883 771.412 380.439 771.25 380.043C771.096 379.64 770.88 379.299 770.601 379.02C770.323 378.741 769.989 378.529 769.6 378.382C769.219 378.228 768.797 378.151 768.335 378.151C767.851 378.151 767.411 378.232 767.015 378.393C766.619 378.547 766.278 378.763 765.992 379.042C765.706 379.321 765.486 379.654 765.332 380.043C765.178 380.432 765.101 380.857 765.101 381.319ZM769.677 386.17C769.839 385.957 769.989 385.756 770.128 385.565C770.268 385.374 770.4 385.184 770.524 384.993C770.121 385.316 769.666 385.561 769.16 385.73C768.654 385.899 768.119 385.983 767.554 385.983C766.96 385.983 766.396 385.884 765.86 385.686C765.332 385.488 764.867 385.198 764.463 384.817C764.06 384.428 763.737 383.955 763.495 383.398C763.261 382.833 763.143 382.188 763.143 381.462C763.143 380.773 763.272 380.127 763.528 379.526C763.785 378.925 764.144 378.4 764.606 377.953C765.068 377.506 765.618 377.154 766.256 376.897C766.894 376.64 767.595 376.512 768.357 376.512C769.113 376.512 769.798 376.637 770.414 376.886C771.03 377.135 771.558 377.484 771.998 377.931C772.438 378.378 772.776 378.914 773.01 379.537C773.252 380.16 773.373 380.85 773.373 381.605C773.373 382.06 773.329 382.492 773.241 382.903C773.161 383.306 773.04 383.706 772.878 384.102C772.724 384.491 772.534 384.879 772.306 385.268C772.079 385.649 771.822 386.042 771.536 386.445L767.697 391.989C767.602 392.128 767.466 392.242 767.29 392.33C767.114 392.411 766.913 392.451 766.685 392.451H764.881L769.677 386.17Z" fill="#0F1F11"/>
<path d="M817.5 388.25C817.5 366.573 835.073 349 856.75 349V349C878.427 349 896 366.573 896 388.25V457.554C896 479.231 878.427 496.804 856.75 496.804V496.804C835.073 496.804 817.5 479.231 817.5 457.554V388.25Z" fill="#D4E8D1"/>
</g>
<rect x="544.5" y="64.5" width="359" height="608.056" rx="45.5" stroke="#727970"/>
</g>
<defs>
<clipPath id="clip0_144_712">
<rect width="1024" height="384" fill="white"/>
</clipPath>
<clipPath id="clip1_144_712">
<rect x="544" y="64" width="360" height="609.056" rx="46" fill="white"/>
</clipPath>
</defs>
</svg>
