<svg width="1024" height="211" viewBox="0 0 1024 211" fill="none" xmlns="http://www.w3.org/2000/svg">
<path d="M301.457 78.1875L289.469 98.5605C289.281 98.8652 288.982 99.0176 288.572 99.0176C288.186 99.0176 287.822 98.8887 287.482 98.6309C287.154 98.3613 286.99 98.0215 286.99 97.6113C286.99 97.248 287.107 96.8613 287.342 96.4512L299.33 76.0957C299.529 75.7793 299.84 75.6211 300.262 75.6211C300.637 75.6211 300.988 75.75 301.316 76.0078C301.656 76.2539 301.826 76.582 301.826 76.9922C301.826 77.3789 301.703 77.7773 301.457 78.1875ZM323.219 78.1875L311.23 98.5605C311.043 98.8652 310.744 99.0176 310.334 99.0176C309.947 99.0176 309.584 98.8887 309.244 98.6309C308.916 98.3613 308.752 98.0215 308.752 97.6113C308.752 97.248 308.869 96.8613 309.104 96.4512L321.092 76.0957C321.291 75.7793 321.602 75.6211 322.023 75.6211C322.398 75.6211 322.75 75.75 323.078 76.0078C323.418 76.2539 323.588 76.582 323.588 76.9922C323.588 77.3789 323.465 77.7773 323.219 78.1875ZM351.889 94.5703V77.1504C351.889 76.7402 352.035 76.3887 352.328 76.0957C352.621 75.791 352.967 75.6387 353.365 75.6387C353.764 75.6387 354.109 75.7852 354.402 76.0781C354.695 76.3711 354.842 76.7168 354.842 77.1152V94.5703C354.842 94.957 354.988 95.2969 355.281 95.5898C355.574 95.8711 355.92 96.0117 356.318 96.0117H362.365C362.775 96.0117 363.121 95.8711 363.402 95.5898C363.695 95.3086 363.842 94.9688 363.842 94.5703V77.1504C363.842 76.7285 363.982 76.3711 364.264 76.0781C364.557 75.7852 364.908 75.6387 365.318 75.6387C365.729 75.6387 366.074 75.7852 366.355 76.0781C366.648 76.3711 366.795 76.7285 366.795 77.1504V94.5352C366.795 95.7539 366.355 96.8027 365.477 97.6816C364.609 98.5605 363.572 99 362.365 99H356.318C355.1 99 354.057 98.5664 353.189 97.6992C352.322 96.832 351.889 95.7891 351.889 94.5703ZM380.664 85.4648L376.639 88.084V97.5234C376.639 97.9219 376.492 98.2676 376.199 98.5605C375.906 98.8535 375.561 99 375.162 99C374.764 99 374.418 98.8535 374.125 98.5605C373.832 98.2676 373.686 97.9219 373.686 97.5234V83.5137C373.686 83.1035 373.826 82.752 374.107 82.459C374.4 82.1543 374.752 82.002 375.162 82.002C375.561 82.002 375.906 82.1543 376.199 82.459C376.492 82.752 376.639 83.1035 376.639 83.5137V84.498L379.328 82.8633C380.23 82.2891 381.25 82.002 382.387 82.002H383.758C384.93 82.002 385.943 82.418 386.799 83.25C387.654 84.082 388.105 85.1074 388.152 86.3262L388.557 97.5234C388.568 97.9219 388.428 98.2676 388.135 98.5605C387.842 98.8535 387.49 99 387.08 99C386.693 99 386.354 98.8711 386.061 98.6133C385.768 98.3438 385.615 97.9805 385.604 97.5234L385.164 86.502C385.129 85.4707 384.59 84.9551 383.547 84.9551H382.105C381.66 84.9551 381.18 85.125 380.664 85.4648ZM401.354 74.3379H402.9C403.311 74.3379 403.656 74.4844 403.938 74.7773C404.23 75.0586 404.377 75.4043 404.377 75.8145V77.0801C404.377 77.4902 404.23 77.8477 403.938 78.1523C403.656 78.4453 403.311 78.5918 402.9 78.5918H401.318C400.896 78.5918 400.539 78.4395 400.246 78.1348C399.965 77.8301 399.83 77.4902 399.842 77.1152L399.877 75.8145C399.877 75.4043 400.018 75.0586 400.299 74.7773C400.592 74.4844 400.943 74.3379 401.354 74.3379ZM407.365 98.9648H398.365C397.955 98.9648 397.604 98.8242 397.311 98.543C397.029 98.25 396.889 97.8984 396.889 97.4883C396.889 97.0898 397.029 96.7441 397.311 96.4512C397.604 96.1582 397.955 96.0117 398.365 96.0117H401.389V84.9902H398.4C397.99 84.9902 397.639 84.8438 397.346 84.5508C397.064 84.2578 396.924 83.9121 396.924 83.5137C396.924 83.1035 397.064 82.752 397.346 82.459C397.639 82.1543 397.99 82.002 398.4 82.002H402.9C403.311 82.002 403.656 82.1543 403.938 82.459C404.23 82.752 404.377 83.1035 404.377 83.5137V96.0117H407.33C407.74 96.0117 408.092 96.1582 408.385 96.4512C408.689 96.7324 408.842 97.0781 408.842 97.4883C408.842 97.8984 408.695 98.25 408.402 98.543C408.109 98.8242 407.764 98.9648 407.365 98.9648ZM427.58 99H424.627C423.408 99 422.359 98.5664 421.48 97.6992C420.602 96.832 420.162 95.7891 420.162 94.5703V84.9902H418.65C418.24 84.9902 417.889 84.8496 417.596 84.5684C417.314 84.2871 417.174 83.9355 417.174 83.5137C417.174 83.1035 417.314 82.7578 417.596 82.4766C417.889 82.1836 418.24 82.0371 418.65 82.0371H420.197V78.416C420.197 78.0059 420.338 77.6602 420.619 77.3789C420.912 77.0859 421.264 76.9395 421.674 76.9395C422.061 76.9395 422.4 77.0859 422.693 77.3789C422.998 77.6719 423.15 78.0176 423.15 78.416V82.0371L429.092 82.0371C429.49 82.0371 429.836 82.1836 430.129 82.4766C430.422 82.7695 430.568 83.1152 430.568 83.5137C430.568 83.9238 430.422 84.2754 430.129 84.5684C429.836 84.8496 429.49 84.9902 429.092 84.9902H423.115V94.5703C423.115 94.9688 423.262 95.3145 423.555 95.6074C423.859 95.9004 424.217 96.0469 424.627 96.0469H427.51C428.295 96.0469 428.816 95.625 429.074 94.7812C429.332 93.9258 429.83 93.498 430.568 93.498C431.002 93.498 431.354 93.6445 431.623 93.9375C431.904 94.2188 432.045 94.5762 432.045 95.0098C432.045 95.9004 431.623 96.791 430.779 97.6816C429.947 98.5605 428.881 99 427.58 99ZM471.104 99H468.15C466.932 99 465.883 98.5664 465.004 97.6992C464.125 96.832 463.686 95.7891 463.686 94.5703V84.9902H462.174C461.764 84.9902 461.412 84.8496 461.119 84.5684C460.838 84.2871 460.697 83.9355 460.697 83.5137C460.697 83.1035 460.838 82.7578 461.119 82.4766C461.412 82.1836 461.764 82.0371 462.174 82.0371H463.721V78.416C463.721 78.0059 463.861 77.6602 464.143 77.3789C464.436 77.0859 464.787 76.9395 465.197 76.9395C465.584 76.9395 465.924 77.0859 466.217 77.3789C466.521 77.6719 466.674 78.0176 466.674 78.416V82.0371H472.615C473.014 82.0371 473.359 82.1836 473.652 82.4766C473.945 82.7695 474.092 83.1152 474.092 83.5137C474.092 83.9238 473.945 84.2754 473.652 84.5684C473.359 84.8496 473.014 84.9902 472.615 84.9902H466.639V94.5703C466.639 94.9687 466.785 95.3145 467.078 95.6074C467.383 95.9004 467.74 96.0469 468.15 96.0469H471.033C471.818 96.0469 472.34 95.625 472.598 94.7812C472.855 93.9258 473.354 93.498 474.092 93.498C474.525 93.498 474.877 93.6445 475.146 93.9375C475.428 94.2187 475.568 94.5762 475.568 95.0098C475.568 95.9004 475.146 96.791 474.303 97.6816C473.471 98.5605 472.404 99 471.104 99ZM497.365 87.3633V93.6035C497.365 94.9277 496.738 96.1523 495.484 97.2773C494.242 98.4023 492.959 98.9648 491.635 98.9648H488.172C486.824 98.9648 485.535 98.3965 484.305 97.2598C483.074 96.1113 482.459 94.8926 482.459 93.6035V87.3633C482.459 86.0742 483.057 84.8613 484.252 83.7246C485.459 82.5762 486.766 82.002 488.172 82.002H491.635C492.959 81.9785 494.242 82.5293 495.484 83.6543C496.738 84.7793 497.365 86.0156 497.365 87.3633ZM485.447 87.4863V93.4629C485.447 94.002 485.641 94.4297 486.027 94.7461L487.135 95.6953C487.381 95.9062 487.727 96.0117 488.172 96.0117H491.6C492.104 96.0117 492.561 95.8301 492.971 95.4668L493.867 94.6758C494.23 94.3945 494.412 94.002 494.412 93.498V87.5215C494.412 86.9355 494.23 86.502 493.867 86.2207L492.83 85.3945C492.479 85.1016 492.068 84.9551 491.6 84.9551H488.541C487.873 84.9551 487.357 85.1133 486.994 85.4297L485.992 86.291C485.629 86.5957 485.447 86.9941 485.447 87.4863ZM539.447 99H533.137C532.023 99 531.074 98.666 530.289 97.998L527.424 95.502C526.51 94.7402 526.053 93.709 526.053 92.4082V88.5586C526.006 87.3047 526.521 86.2148 527.6 85.2891L530.184 83.0566C531.016 82.377 531.906 82.0371 532.855 82.0371H539.482C539.893 82.0371 540.238 82.1836 540.52 82.4766C540.812 82.7578 540.959 83.1035 540.959 83.5137C540.959 83.9355 540.812 84.2871 540.52 84.5684C540.238 84.8496 539.893 84.9902 539.482 84.9902H533.137C532.738 84.9902 532.357 85.1484 531.994 85.4648L529.621 87.4863C529.234 87.8145 529.041 88.2539 529.041 88.8047V92.4082C529.041 92.7949 529.193 93.123 529.498 93.3926L532.1 95.6074C532.428 95.9004 532.861 96.0469 533.4 96.0469H539.447C539.846 96.0469 540.191 96.1934 540.484 96.4863C540.777 96.7676 540.924 97.1133 540.924 97.5234C540.924 97.9336 540.777 98.2852 540.484 98.5781C540.203 98.8594 539.857 99 539.447 99ZM562.65 87.3633V93.6035C562.65 94.9277 562.023 96.1523 560.77 97.2773C559.527 98.4023 558.244 98.9648 556.92 98.9648H553.457C552.109 98.9648 550.82 98.3965 549.59 97.2598C548.359 96.1113 547.744 94.8926 547.744 93.6035V87.3633C547.744 86.0742 548.342 84.8613 549.537 83.7246C550.744 82.5762 552.051 82.002 553.457 82.002H556.92C558.244 81.9785 559.527 82.5293 560.77 83.6543C562.023 84.7793 562.65 86.0156 562.65 87.3633ZM550.732 87.4863V93.4629C550.732 94.002 550.926 94.4297 551.312 94.7461L552.42 95.6953C552.666 95.9062 553.012 96.0117 553.457 96.0117H556.885C557.389 96.0117 557.846 95.8301 558.256 95.4668L559.152 94.6758C559.516 94.3945 559.697 94.002 559.697 93.498V87.5215C559.697 86.9355 559.516 86.502 559.152 86.2207L558.115 85.3945C557.764 85.1016 557.354 84.9551 556.885 84.9551H553.826C553.158 84.9551 552.643 85.1133 552.279 85.4297L551.277 86.291C550.914 86.5957 550.732 86.9941 550.732 87.4863ZM576.52 85.4648L572.494 88.084V97.5234C572.494 97.9219 572.348 98.2676 572.055 98.5605C571.762 98.8535 571.416 99 571.018 99C570.619 99 570.273 98.8535 569.98 98.5605C569.688 98.2676 569.541 97.9219 569.541 97.5234V83.5137C569.541 83.1035 569.682 82.752 569.963 82.459C570.256 82.1543 570.607 82.002 571.018 82.002C571.416 82.002 571.762 82.1543 572.055 82.459C572.348 82.752 572.494 83.1035 572.494 83.5137V84.498L575.184 82.8633C576.086 82.2891 577.105 82.002 578.242 82.002H579.613C580.785 82.002 581.799 82.418 582.654 83.25C583.51 84.082 583.961 85.1074 584.008 86.3262L584.412 97.5234C584.424 97.9219 584.283 98.2676 583.99 98.5605C583.697 98.8535 583.346 99 582.936 99C582.549 99 582.209 98.8711 581.916 98.6133C581.623 98.3437 581.471 97.9805 581.459 97.5234L581.02 86.502C580.984 85.4707 580.445 84.9551 579.402 84.9551H577.961C577.516 84.9551 577.035 85.125 576.52 85.4648ZM606.174 83.5137V86.3262L601.059 97.9629C600.73 98.6543 600.297 99 599.758 99H597.859C597.168 99 596.664 98.6426 596.348 97.9277L591.268 86.3613V83.5137C591.268 83.1035 591.408 82.7578 591.689 82.4766C591.982 82.1836 592.334 82.0371 592.744 82.0371C593.154 82.0371 593.5 82.1836 593.781 82.4766C594.074 82.7578 594.221 83.1035 594.221 83.5137V85.7812L598.721 95.9062L603.186 85.7461V83.5137C603.186 83.1035 603.332 82.7578 603.625 82.4766C603.918 82.1836 604.275 82.0371 604.697 82.0371C605.107 82.0371 605.453 82.1836 605.734 82.4766C606.027 82.7578 606.174 83.1035 606.174 83.5137ZM627.936 87.5918V91.1602C627.936 91.5586 627.789 91.9043 627.496 92.1973C627.203 92.4902 626.857 92.6367 626.459 92.6367H616.018V93.498C616.018 94.002 616.234 94.4297 616.668 94.7812L617.529 95.502C617.998 95.8652 618.443 96.0469 618.865 96.0469H626.459C626.857 96.0469 627.203 96.1934 627.496 96.4863C627.789 96.7676 627.936 97.1133 627.936 97.5234C627.936 97.9219 627.783 98.2676 627.479 98.5605C627.186 98.8535 626.846 99 626.459 99H618.672C618.156 99 617.611 98.8945 617.037 98.6836C616.475 98.4609 616.059 98.2324 615.789 97.998L614.471 96.8379C614.061 96.5098 613.715 96.0527 613.434 95.4668C613.164 94.8809 613.029 94.3418 613.029 93.8496V87.082C613.029 86.6953 613.176 86.1738 613.469 85.5176C613.773 84.8613 614.154 84.3516 614.611 83.9883L615.842 83.0215C616.65 82.3652 617.547 82.0371 618.531 82.0371H622.68C623.723 82.0371 624.707 82.4707 625.633 83.3379L626.74 84.3926C627.537 85.1074 627.936 86.1738 627.936 87.5918ZM616.053 87.3633V89.6484H625.018V87.5918C625.018 87.041 624.848 86.6191 624.508 86.3262L623.646 85.5703C623.201 85.207 622.803 85.0254 622.451 85.0254H618.742C618.285 85.0254 617.869 85.1836 617.494 85.5L616.633 86.2207C616.246 86.5137 616.053 86.8945 616.053 87.3633ZM634.826 97.5234V83.5137C634.826 83.1035 634.967 82.752 635.248 82.459C635.541 82.1543 635.893 82.002 636.303 82.002C636.713 82.002 637.059 82.1484 637.34 82.4414C637.633 82.7344 637.779 83.0918 637.779 83.5137V85.3594L640.188 83.3027C641.184 82.459 642.156 82.0371 643.105 82.0371H645.268C646.486 82.0371 647.529 82.4707 648.396 83.3379C649.264 84.2051 649.697 85.248 649.697 86.4668V87.2578C649.697 87.6797 649.551 88.0371 649.258 88.3301C648.977 88.623 648.631 88.7695 648.221 88.7695C647.811 88.7695 647.459 88.6289 647.166 88.3477C646.885 88.0547 646.744 87.7031 646.744 87.293V86.4668C646.744 86.0566 646.598 85.7109 646.305 85.4297C646.023 85.1367 645.678 84.9902 645.268 84.9902H643.352C642.941 84.9902 642.484 85.207 641.98 85.6406L637.779 89.2793V97.5234C637.779 97.9336 637.633 98.2852 637.34 98.5781C637.047 98.8594 636.701 99 636.303 99C635.893 99 635.541 98.8594 635.248 98.5781C634.967 98.2852 634.826 97.9336 634.826 97.5234ZM666.959 99H664.006C662.787 99 661.738 98.5664 660.859 97.6992C659.98 96.832 659.541 95.7891 659.541 94.5703V84.9902H658.029C657.619 84.9902 657.268 84.8496 656.975 84.5684C656.693 84.2871 656.553 83.9355 656.553 83.5137C656.553 83.1035 656.693 82.7578 656.975 82.4766C657.268 82.1836 657.619 82.0371 658.029 82.0371H659.576V78.416C659.576 78.0059 659.717 77.6602 659.998 77.3789C660.291 77.0859 660.643 76.9395 661.053 76.9395C661.439 76.9395 661.779 77.0859 662.072 77.3789C662.377 77.6719 662.529 78.0176 662.529 78.416V82.0371H668.471C668.869 82.0371 669.215 82.1836 669.508 82.4766C669.801 82.7695 669.947 83.1152 669.947 83.5137C669.947 83.9238 669.801 84.2754 669.508 84.5684C669.215 84.8496 668.869 84.9902 668.471 84.9902H662.494V94.5703C662.494 94.9687 662.641 95.3145 662.934 95.6074C663.238 95.9004 663.596 96.0469 664.006 96.0469H666.889C667.674 96.0469 668.195 95.625 668.453 94.7812C668.711 93.9258 669.209 93.498 669.947 93.498C670.381 93.498 670.732 93.6445 671.002 93.9375C671.283 94.2187 671.424 94.5762 671.424 95.0098C671.424 95.9004 671.002 96.791 670.158 97.6816C669.326 98.5605 668.26 99 666.959 99ZM710.482 99H707.529C706.311 99 705.262 98.5664 704.383 97.6992C703.504 96.832 703.064 95.7891 703.064 94.5703V84.9902H701.553C701.143 84.9902 700.791 84.8496 700.498 84.5684C700.217 84.2871 700.076 83.9355 700.076 83.5137C700.076 83.1035 700.217 82.7578 700.498 82.4766C700.791 82.1836 701.143 82.0371 701.553 82.0371H703.1V78.416C703.1 78.0059 703.24 77.6602 703.521 77.3789C703.814 77.0859 704.166 76.9395 704.576 76.9395C704.963 76.9395 705.303 77.0859 705.596 77.3789C705.9 77.6719 706.053 78.0176 706.053 78.416V82.0371H711.994C712.393 82.0371 712.738 82.1836 713.031 82.4766C713.324 82.7695 713.471 83.1152 713.471 83.5137C713.471 83.9238 713.324 84.2754 713.031 84.5684C712.738 84.8496 712.393 84.9902 711.994 84.9902H706.018V94.5703C706.018 94.9687 706.164 95.3145 706.457 95.6074C706.762 95.9004 707.119 96.0469 707.529 96.0469H710.412C711.197 96.0469 711.719 95.625 711.977 94.7812C712.234 93.9258 712.732 93.498 713.471 93.498C713.904 93.498 714.256 93.6445 714.525 93.9375C714.807 94.2187 714.947 94.5762 714.947 95.0098C714.947 95.9004 714.525 96.791 713.682 97.6816C712.85 98.5605 711.783 99 710.482 99ZM736.744 87.3633V93.6035C736.744 94.9277 736.117 96.1523 734.863 97.2773C733.621 98.4023 732.338 98.9648 731.014 98.9648H727.551C726.203 98.9648 724.914 98.3965 723.684 97.2598C722.453 96.1113 721.838 94.8926 721.838 93.6035V87.3633C721.838 86.0742 722.436 84.8613 723.631 83.7246C724.838 82.5762 726.145 82.002 727.551 82.002H731.014C732.338 81.9785 733.621 82.5293 734.863 83.6543C736.117 84.7793 736.744 86.0156 736.744 87.3633ZM724.826 87.4863V93.4629C724.826 94.002 725.02 94.4297 725.406 94.7461L726.514 95.6953C726.76 95.9062 727.105 96.0117 727.551 96.0117H730.979C731.482 96.0117 731.939 95.8301 732.35 95.4668L733.246 94.6758C733.609 94.3945 733.791 94.002 733.791 93.498V87.5215C733.791 86.9355 733.609 86.502 733.246 86.2207L732.209 85.3945C731.857 85.1016 731.447 84.9551 730.979 84.9551H727.92C727.252 84.9551 726.736 85.1133 726.373 85.4297L725.371 86.291C725.008 86.5957 724.826 86.9941 724.826 87.4863ZM301.51 120.514V123.326L296.395 134.963C296.066 135.654 295.633 136 295.094 136H293.195C292.504 136 292 135.643 291.684 134.928L286.604 123.361V120.514C286.604 120.104 286.744 119.758 287.025 119.477C287.318 119.184 287.67 119.037 288.08 119.037C288.49 119.037 288.836 119.184 289.117 119.477C289.41 119.758 289.557 120.104 289.557 120.514V122.781L294.057 132.906L298.521 122.746V120.514C298.521 120.104 298.668 119.758 298.961 119.477C299.254 119.184 299.611 119.037 300.033 119.037C300.443 119.037 300.789 119.184 301.07 119.477C301.363 119.758 301.51 120.104 301.51 120.514ZM312.795 125.348H318.578C318.895 125.348 319.352 125.418 319.949 125.559L319.914 123.467C319.914 123.057 319.768 122.711 319.475 122.43C319.193 122.137 318.848 121.99 318.438 121.99H312.83C312.432 121.99 312.086 121.844 311.793 121.551C311.5 121.258 311.354 120.912 311.354 120.514C311.354 120.104 311.494 119.758 311.775 119.477C312.068 119.184 312.42 119.037 312.83 119.037H318.438C319.656 119.037 320.693 119.465 321.549 120.32C322.416 121.176 322.867 122.225 322.902 123.467L323.271 134.523C323.271 134.934 323.125 135.285 322.832 135.578C322.539 135.859 322.193 136 321.795 136C321.373 136 321.016 135.859 320.723 135.578C320.43 135.285 320.283 134.934 320.283 134.523L317.787 136H312.795C311.553 136 310.498 135.566 309.631 134.699C308.764 133.832 308.33 132.777 308.33 131.535V129.812C308.33 128.582 308.764 127.533 309.631 126.666C310.51 125.787 311.564 125.348 312.795 125.348ZM320.178 131.096L320.09 129.848C320.078 129.426 319.932 129.074 319.65 128.793C319.369 128.512 319.023 128.371 318.613 128.371H312.795C312.385 128.371 312.033 128.518 311.74 128.811C311.459 129.092 311.318 129.438 311.318 129.848V131.5C311.318 131.898 311.465 132.244 311.758 132.537C312.051 132.83 312.396 132.977 312.795 132.977H316.961L320.178 131.096ZM342.08 136H333.15C332.74 136 332.389 135.854 332.096 135.561C331.814 135.256 331.674 134.898 331.674 134.488C331.674 134.09 331.814 133.744 332.096 133.451C332.389 133.158 332.74 133.012 333.15 133.012H336.104V115.592H333.115C332.705 115.592 332.354 115.451 332.061 115.17C331.779 114.877 331.639 114.525 331.639 114.115C331.639 113.705 331.779 113.359 332.061 113.078C332.354 112.785 332.705 112.639 333.115 112.639H337.615C338.014 112.639 338.359 112.785 338.652 113.078C338.945 113.371 339.092 113.717 339.092 114.115V133.012H342.08C342.479 133.012 342.824 133.158 343.117 133.451C343.41 133.744 343.557 134.09 343.557 134.488C343.557 134.898 343.41 135.256 343.117 135.561C342.836 135.854 342.49 136 342.08 136ZM380.699 133.012L385.674 129.848V120.514C385.674 120.104 385.814 119.752 386.096 119.459C386.389 119.154 386.74 119.002 387.15 119.002C387.561 119.002 387.906 119.154 388.188 119.459C388.48 119.752 388.627 120.104 388.627 120.514V134.523C388.627 134.922 388.48 135.268 388.188 135.561C387.895 135.854 387.549 136 387.15 136C386.752 136 386.406 135.854 386.113 135.561C385.82 135.268 385.674 134.922 385.674 134.523V133.363L383.107 135.033C382.1 135.678 381.08 136 380.049 136H378.678C377.471 136 376.434 135.578 375.566 134.734C374.699 133.891 374.236 132.859 374.178 131.641L373.756 120.514C373.732 120.127 373.867 119.787 374.16 119.494C374.465 119.189 374.822 119.037 375.232 119.037C375.631 119.037 375.971 119.184 376.252 119.477C376.545 119.77 376.697 120.115 376.709 120.514L377.096 131.43C377.131 132.484 377.734 133.012 378.906 133.012H380.699ZM402.426 122.465L398.4 125.084V134.523C398.4 134.922 398.254 135.268 397.961 135.561C397.668 135.854 397.322 136 396.924 136C396.525 136 396.18 135.854 395.887 135.561C395.594 135.268 395.447 134.922 395.447 134.523V120.514C395.447 120.104 395.588 119.752 395.869 119.459C396.162 119.154 396.514 119.002 396.924 119.002C397.322 119.002 397.668 119.154 397.961 119.459C398.254 119.752 398.4 120.104 398.4 120.514V121.498L401.09 119.863C401.992 119.289 403.012 119.002 404.148 119.002H405.52C406.691 119.002 407.705 119.418 408.561 120.25C409.416 121.082 409.867 122.107 409.914 123.326L410.318 134.523C410.33 134.922 410.189 135.268 409.896 135.561C409.604 135.854 409.252 136 408.842 136C408.455 136 408.115 135.871 407.822 135.613C407.529 135.344 407.377 134.98 407.365 134.523L406.926 123.502C406.891 122.471 406.352 121.955 405.309 121.955H403.867C403.422 121.955 402.941 122.125 402.426 122.465ZM423.115 111.338H424.662C425.072 111.338 425.418 111.484 425.699 111.777C425.992 112.059 426.139 112.404 426.139 112.814V114.08C426.139 114.49 425.992 114.848 425.699 115.152C425.418 115.445 425.072 115.592 424.662 115.592H423.08C422.658 115.592 422.301 115.439 422.008 115.135C421.727 114.83 421.592 114.49 421.604 114.115L421.639 112.814C421.639 112.404 421.779 112.059 422.061 111.777C422.354 111.484 422.705 111.338 423.115 111.338ZM429.127 135.965H420.127C419.717 135.965 419.365 135.824 419.072 135.543C418.791 135.25 418.65 134.898 418.65 134.488C418.65 134.09 418.791 133.744 419.072 133.451C419.365 133.158 419.717 133.012 420.127 133.012H423.15V121.99H420.162C419.752 121.99 419.4 121.844 419.107 121.551C418.826 121.258 418.686 120.912 418.686 120.514C418.686 120.104 418.826 119.752 419.107 119.459C419.4 119.154 419.752 119.002 420.162 119.002H424.662C425.072 119.002 425.418 119.154 425.699 119.459C425.992 119.752 426.139 120.104 426.139 120.514V133.012H429.092C429.502 133.012 429.854 133.158 430.146 133.451C430.451 133.732 430.604 134.078 430.604 134.488C430.604 134.898 430.457 135.25 430.164 135.543C429.871 135.824 429.525 135.965 429.127 135.965ZM449.342 136H446.389C445.17 136 444.121 135.566 443.242 134.699C442.363 133.832 441.924 132.789 441.924 131.57V121.99H440.412C440.002 121.99 439.65 121.85 439.357 121.568C439.076 121.287 438.936 120.936 438.936 120.514C438.936 120.104 439.076 119.758 439.357 119.477C439.65 119.184 440.002 119.037 440.412 119.037H441.959V115.416C441.959 115.006 442.1 114.66 442.381 114.379C442.674 114.086 443.025 113.939 443.436 113.939C443.822 113.939 444.162 114.086 444.455 114.379C444.76 114.672 444.912 115.018 444.912 115.416V119.037H450.854C451.252 119.037 451.598 119.184 451.891 119.477C452.184 119.77 452.33 120.115 452.33 120.514C452.33 120.924 452.184 121.275 451.891 121.568C451.598 121.85 451.252 121.99 450.854 121.99H444.877V131.57C444.877 131.969 445.023 132.314 445.316 132.607C445.621 132.9 445.979 133.047 446.389 133.047H449.271C450.057 133.047 450.578 132.625 450.836 131.781C451.094 130.926 451.592 130.498 452.33 130.498C452.764 130.498 453.115 130.645 453.385 130.938C453.666 131.219 453.807 131.576 453.807 132.01C453.807 132.9 453.385 133.791 452.541 134.682C451.709 135.561 450.643 136 449.342 136ZM460.697 116.664V112.674L475.604 112.674V116.699C475.604 117.109 475.457 117.461 475.164 117.754C474.871 118.035 474.525 118.176 474.127 118.176C473.717 118.176 473.359 118.029 473.055 117.736C472.762 117.443 472.615 117.098 472.615 116.699V115.627H469.627V134.523C469.627 134.934 469.48 135.285 469.188 135.578C468.895 135.859 468.549 136 468.15 136C467.729 136 467.371 135.859 467.078 135.578C466.785 135.285 466.639 134.934 466.639 134.523V115.627H463.65V116.664C463.65 117.074 463.504 117.426 463.211 117.719C462.93 118 462.584 118.141 462.174 118.141C461.764 118.141 461.412 118 461.119 117.719C460.838 117.426 460.697 117.074 460.697 116.664ZM497.365 124.363V130.604C497.365 131.928 496.738 133.152 495.484 134.277C494.242 135.402 492.959 135.965 491.635 135.965H488.172C486.824 135.965 485.535 135.396 484.305 134.26C483.074 133.111 482.459 131.893 482.459 130.604V124.363C482.459 123.074 483.057 121.861 484.252 120.725C485.459 119.576 486.766 119.002 488.172 119.002H491.635C492.959 118.979 494.242 119.529 495.484 120.654C496.738 121.779 497.365 123.016 497.365 124.363ZM485.447 124.486V130.463C485.447 131.002 485.641 131.43 486.027 131.746L487.135 132.695C487.381 132.906 487.727 133.012 488.172 133.012H491.6C492.104 133.012 492.561 132.83 492.971 132.467L493.867 131.676C494.23 131.395 494.412 131.002 494.412 130.498V124.521C494.412 123.936 494.23 123.502 493.867 123.221L492.83 122.395C492.479 122.102 492.068 121.955 491.6 121.955H488.541C487.873 121.955 487.357 122.113 486.994 122.43L485.992 123.291C485.629 123.596 485.447 123.994 485.447 124.486ZM539.377 121.955H527.424C527.025 121.955 526.68 121.809 526.387 121.516C526.094 121.223 525.947 120.877 525.947 120.479C525.947 120.08 526.094 119.734 526.387 119.441C526.68 119.148 527.025 119.002 527.424 119.002H539.377C539.787 119.002 540.133 119.148 540.414 119.441C540.707 119.723 540.854 120.068 540.854 120.479C540.854 120.889 540.707 121.24 540.414 121.533C540.133 121.814 539.787 121.955 539.377 121.955ZM539.377 128.336H527.424C527.025 128.336 526.68 128.189 526.387 127.896C526.094 127.592 525.947 127.234 525.947 126.824C525.947 126.414 526.094 126.068 526.387 125.787C526.68 125.494 527.025 125.348 527.424 125.348H539.377C539.775 125.348 540.121 125.494 540.414 125.787C540.707 126.08 540.854 126.426 540.854 126.824C540.854 127.234 540.707 127.592 540.414 127.896C540.133 128.189 539.787 128.336 539.377 128.336ZM575.447 126.684H578.436C578.834 126.684 579.18 126.83 579.473 127.123C579.766 127.404 579.912 127.75 579.912 128.16V130.674C579.912 131.084 579.766 131.441 579.473 131.746C579.191 132.039 578.846 132.186 578.436 132.186H575.412C575.002 132.186 574.65 132.039 574.357 131.746C574.076 131.453 573.936 131.107 573.936 130.709V128.16C573.936 127.75 574.082 127.404 574.375 127.123C574.668 126.83 575.025 126.684 575.447 126.684ZM597.209 126.684H600.197C600.596 126.684 600.941 126.83 601.234 127.123C601.527 127.404 601.674 127.75 601.674 128.16V130.674C601.674 131.084 601.527 131.441 601.234 131.746C600.953 132.039 600.607 132.186 600.197 132.186H597.174C596.764 132.186 596.412 132.039 596.119 131.746C595.838 131.453 595.697 131.107 595.697 130.709V128.16C595.697 127.75 595.844 127.404 596.137 127.123C596.43 126.83 596.787 126.684 597.209 126.684ZM618.971 126.684H621.959C622.357 126.684 622.703 126.83 622.996 127.123C623.289 127.404 623.436 127.75 623.436 128.16V130.674C623.436 131.084 623.289 131.441 622.996 131.746C622.715 132.039 622.369 132.186 621.959 132.186H618.936C618.525 132.186 618.174 132.039 617.881 131.746C617.6 131.453 617.459 131.107 617.459 130.709V128.16C617.459 127.75 617.605 127.404 617.898 127.123C618.191 126.83 618.549 126.684 618.971 126.684Z" fill="#186C31"/>
</svg>
