<svg width="1024" height="211" viewBox="0 0 1024 211" fill="none" xmlns="http://www.w3.org/2000/svg">
<g clip-path="url(#clip0_144_900)">
<mask id="mask0_144_900" style="mask-type:alpha" maskUnits="userSpaceOnUse" x="40" y="31" width="996" height="149">
<rect x="1036" y="31" width="149" height="996" transform="rotate(90 1036 31)" fill="url(#paint0_linear_144_900)"/>
</mask>
<g mask="url(#mask0_144_900)">
<rect x="40" y="52" width="207" height="106" rx="24" fill="#0048BA"/>
<path d="M76.8672 102L75.1914 97.2422H68.6406L66.9648 102H64L70.375 84.7969H73.4922L79.8555 102H76.8672ZM74.4648 94.8281L72.8359 90.1406C72.7734 89.9375 72.6836 89.6523 72.5664 89.2852C72.4492 88.9102 72.332 88.5312 72.2148 88.1484C72.0977 87.7578 72 87.4297 71.9219 87.1641C71.8438 87.4844 71.7461 87.8438 71.6289 88.2422C71.5195 88.6328 71.4102 89 71.3008 89.3438C71.1992 89.6875 71.1211 89.9531 71.0664 90.1406L69.4258 94.8281H74.4648ZM84.5898 83.7656V88.1602C84.5898 88.668 84.5742 89.168 84.543 89.6602C84.5195 90.1445 84.4961 90.5234 84.4727 90.7969H84.5898C84.9414 90.2344 85.4297 89.7617 86.0547 89.3789C86.6875 88.9883 87.4961 88.793 88.4805 88.793C90.0195 88.793 91.2578 89.3594 92.1953 90.4922C93.1328 91.6172 93.6016 93.2852 93.6016 95.4961C93.6016 96.9648 93.3867 98.1992 92.957 99.1992C92.5273 100.199 91.9219 100.957 91.1406 101.473C90.3672 101.98 89.457 102.234 88.4102 102.234C87.4258 102.234 86.6289 102.055 86.0195 101.695C85.418 101.328 84.9453 100.902 84.6016 100.418H84.4023L83.8984 102H81.8359V83.7656H84.5898ZM87.7539 91.0312C86.9727 91.0312 86.3516 91.1875 85.8906 91.5C85.4375 91.8125 85.1094 92.2812 84.9062 92.9062C84.7031 93.5234 84.5977 94.3086 84.5898 95.2617V95.5078C84.5898 96.9531 84.8164 98.0586 85.2695 98.8242C85.7305 99.5898 86.5664 99.9727 87.7773 99.9727C88.7383 99.9727 89.4766 99.5859 89.9922 98.8125C90.5078 98.0312 90.7656 96.9141 90.7656 95.4609C90.7656 93.9922 90.5078 92.8867 89.9922 92.1445C89.4844 91.4023 88.7383 91.0312 87.7539 91.0312ZM105.508 98.2969C105.508 99.1484 105.301 99.8672 104.887 100.453C104.473 101.039 103.867 101.484 103.07 101.789C102.281 102.086 101.312 102.234 100.164 102.234C99.2578 102.234 98.4766 102.168 97.8203 102.035C97.1719 101.91 96.5586 101.715 95.9805 101.449V99.0703C96.5977 99.3594 97.2891 99.6094 98.0547 99.8203C98.8281 100.031 99.5586 100.137 100.246 100.137C101.152 100.137 101.805 99.9961 102.203 99.7148C102.602 99.4258 102.801 99.043 102.801 98.5664C102.801 98.2852 102.719 98.0352 102.555 97.8164C102.398 97.5898 102.102 97.3594 101.664 97.125C101.234 96.8828 100.602 96.5938 99.7656 96.2578C98.9453 95.9297 98.2539 95.6016 97.6914 95.2734C97.1289 94.9453 96.7031 94.5508 96.4141 94.0898C96.125 93.6211 95.9805 93.0234 95.9805 92.2969C95.9805 91.1484 96.4336 90.2773 97.3398 89.6836C98.2539 89.082 99.4609 88.7812 100.961 88.7812C101.758 88.7812 102.508 88.8633 103.211 89.0273C103.922 89.1836 104.617 89.4141 105.297 89.7188L104.43 91.793C103.844 91.5352 103.254 91.3242 102.66 91.1602C102.074 90.9883 101.477 90.9023 100.867 90.9023C100.156 90.9023 99.6133 91.0117 99.2383 91.2305C98.8711 91.4492 98.6875 91.7617 98.6875 92.168C98.6875 92.4727 98.7773 92.7305 98.957 92.9414C99.1367 93.1523 99.4453 93.3633 99.8828 93.5742C100.328 93.7852 100.945 94.0469 101.734 94.3594C102.508 94.6562 103.176 94.9688 103.738 95.2969C104.309 95.6172 104.746 96.0117 105.051 96.4805C105.355 96.9492 105.508 97.5547 105.508 98.2969ZM119.969 95.4844C119.969 96.5625 119.828 97.5195 119.547 98.3555C119.266 99.1914 118.855 99.8984 118.316 100.477C117.777 101.047 117.129 101.484 116.371 101.789C115.613 102.086 114.758 102.234 113.805 102.234C112.914 102.234 112.098 102.086 111.355 101.789C110.613 101.484 109.969 101.047 109.422 100.477C108.883 99.8984 108.465 99.1914 108.168 98.3555C107.871 97.5195 107.723 96.5625 107.723 95.4844C107.723 94.0547 107.969 92.8438 108.461 91.8516C108.961 90.8516 109.672 90.0898 110.594 89.5664C111.516 89.043 112.613 88.7812 113.887 88.7812C115.082 88.7812 116.137 89.043 117.051 89.5664C117.965 90.0898 118.68 90.8516 119.195 91.8516C119.711 92.8516 119.969 94.0625 119.969 95.4844ZM110.559 95.4844C110.559 96.4297 110.672 97.2383 110.898 97.9102C111.133 98.582 111.492 99.0977 111.977 99.457C112.461 99.8086 113.086 99.9844 113.852 99.9844C114.617 99.9844 115.242 99.8086 115.727 99.457C116.211 99.0977 116.566 98.582 116.793 97.9102C117.02 97.2383 117.133 96.4297 117.133 95.4844C117.133 94.5391 117.02 93.7383 116.793 93.082C116.566 92.418 116.211 91.9141 115.727 91.5703C115.242 91.2188 114.613 91.043 113.84 91.043C112.699 91.043 111.867 91.4258 111.344 92.1914C110.82 92.957 110.559 94.0547 110.559 95.4844ZM125.898 102H123.133V83.7656H125.898V102ZM141.145 89.0273V102H138.977L138.602 100.254H138.449C138.176 100.699 137.828 101.07 137.406 101.367C136.984 101.656 136.516 101.871 136 102.012C135.484 102.16 134.941 102.234 134.371 102.234C133.395 102.234 132.559 102.07 131.863 101.742C131.176 101.406 130.648 100.891 130.281 100.195C129.914 99.5 129.73 98.6016 129.73 97.5V89.0273H132.496V96.9844C132.496 97.9922 132.699 98.7461 133.105 99.2461C133.52 99.7461 134.16 99.9961 135.027 99.9961C135.863 99.9961 136.527 99.8242 137.02 99.4805C137.512 99.1367 137.859 98.6289 138.062 97.957C138.273 97.2852 138.379 96.4609 138.379 95.4844V89.0273H141.145ZM149.922 100.008C150.281 100.008 150.637 99.9766 150.988 99.9141C151.34 99.8438 151.66 99.7617 151.949 99.668V101.754C151.645 101.887 151.25 102 150.766 102.094C150.281 102.188 149.777 102.234 149.254 102.234C148.52 102.234 147.859 102.113 147.273 101.871C146.688 101.621 146.223 101.195 145.879 100.594C145.535 99.9922 145.363 99.1602 145.363 98.0977V91.125H143.594V89.8945L145.492 88.9219L146.395 86.1445H148.129V89.0273H151.844V91.125H148.129V98.0625C148.129 98.7188 148.293 99.207 148.621 99.5273C148.949 99.8477 149.383 100.008 149.922 100.008ZM159.754 88.7812C160.91 88.7812 161.902 89.0195 162.73 89.4961C163.559 89.9727 164.195 90.6484 164.641 91.5234C165.086 92.3984 165.309 93.4453 165.309 94.6641V96.1406H156.648C156.68 97.3984 157.016 98.3672 157.656 99.0469C158.305 99.7266 159.211 100.066 160.375 100.066C161.203 100.066 161.945 99.9883 162.602 99.832C163.266 99.668 163.949 99.4297 164.652 99.1172V101.355C164.004 101.66 163.344 101.883 162.672 102.023C162 102.164 161.195 102.234 160.258 102.234C158.984 102.234 157.863 101.988 156.895 101.496C155.934 100.996 155.18 100.254 154.633 99.2695C154.094 98.2852 153.824 97.0625 153.824 95.6016C153.824 94.1484 154.07 92.9141 154.562 91.8984C155.055 90.8828 155.746 90.1094 156.637 89.5781C157.527 89.0469 158.566 88.7812 159.754 88.7812ZM159.754 90.8555C158.887 90.8555 158.184 91.1367 157.645 91.6992C157.113 92.2617 156.801 93.0859 156.707 94.1719H162.613C162.605 93.5234 162.496 92.9492 162.285 92.4492C162.082 91.9492 161.77 91.5586 161.348 91.2773C160.934 90.9961 160.402 90.8555 159.754 90.8555ZM183.332 102H173.477V100.301L180.027 91.1484H173.875V89.0273H183.145V90.9023L176.723 99.8789H183.332V102ZM191.301 88.7812C192.457 88.7812 193.449 89.0195 194.277 89.4961C195.105 89.9727 195.742 90.6484 196.188 91.5234C196.633 92.3984 196.855 93.4453 196.855 94.6641V96.1406H188.195C188.227 97.3984 188.562 98.3672 189.203 99.0469C189.852 99.7266 190.758 100.066 191.922 100.066C192.75 100.066 193.492 99.9883 194.148 99.832C194.812 99.668 195.496 99.4297 196.199 99.1172V101.355C195.551 101.66 194.891 101.883 194.219 102.023C193.547 102.164 192.742 102.234 191.805 102.234C190.531 102.234 189.41 101.988 188.441 101.496C187.48 100.996 186.727 100.254 186.18 99.2695C185.641 98.2852 185.371 97.0625 185.371 95.6016C185.371 94.1484 185.617 92.9141 186.109 91.8984C186.602 90.8828 187.293 90.1094 188.184 89.5781C189.074 89.0469 190.113 88.7812 191.301 88.7812ZM191.301 90.8555C190.434 90.8555 189.73 91.1367 189.191 91.6992C188.66 92.2617 188.348 93.0859 188.254 94.1719H194.16C194.152 93.5234 194.043 92.9492 193.832 92.4492C193.629 91.9492 193.316 91.5586 192.895 91.2773C192.48 90.9961 191.949 90.8555 191.301 90.8555ZM206.535 88.7812C206.754 88.7812 206.992 88.793 207.25 88.8164C207.508 88.8398 207.73 88.8711 207.918 88.9102L207.66 91.4883C207.496 91.4414 207.293 91.4062 207.051 91.3828C206.816 91.3594 206.605 91.3477 206.418 91.3477C205.926 91.3477 205.457 91.4297 205.012 91.5938C204.566 91.75 204.172 91.9922 203.828 92.3203C203.484 92.6406 203.215 93.043 203.02 93.5273C202.824 94.0117 202.727 94.5742 202.727 95.2148V102H199.961V89.0273H202.117L202.492 91.3125H202.621C202.879 90.8516 203.199 90.4297 203.582 90.0469C203.965 89.6641 204.402 89.3594 204.895 89.1328C205.395 88.8984 205.941 88.7812 206.535 88.7812ZM221.805 95.4844C221.805 96.5625 221.664 97.5195 221.383 98.3555C221.102 99.1914 220.691 99.8984 220.152 100.477C219.613 101.047 218.965 101.484 218.207 101.789C217.449 102.086 216.594 102.234 215.641 102.234C214.75 102.234 213.934 102.086 213.191 101.789C212.449 101.484 211.805 101.047 211.258 100.477C210.719 99.8984 210.301 99.1914 210.004 98.3555C209.707 97.5195 209.559 96.5625 209.559 95.4844C209.559 94.0547 209.805 92.8438 210.297 91.8516C210.797 90.8516 211.508 90.0898 212.43 89.5664C213.352 89.043 214.449 88.7812 215.723 88.7812C216.918 88.7812 217.973 89.043 218.887 89.5664C219.801 90.0898 220.516 90.8516 221.031 91.8516C221.547 92.8516 221.805 94.0625 221.805 95.4844ZM212.395 95.4844C212.395 96.4297 212.508 97.2383 212.734 97.9102C212.969 98.582 213.328 99.0977 213.812 99.457C214.297 99.8086 214.922 99.9844 215.688 99.9844C216.453 99.9844 217.078 99.8086 217.562 99.457C218.047 99.0977 218.402 98.582 218.629 97.9102C218.855 97.2383 218.969 96.4297 218.969 95.4844C218.969 94.5391 218.855 93.7383 218.629 93.082C218.402 92.418 218.047 91.9141 217.562 91.5703C217.078 91.2187 216.449 91.043 215.676 91.043C214.535 91.043 213.703 91.4258 213.18 92.1914C212.656 92.957 212.395 94.0547 212.395 95.4844Z" fill="white"/>
<path d="M68.2197 128H66.1279V115.15H73.3877V116.926H68.2197V120.934H73.0537V122.7H68.2197V128ZM79.3906 118.086C80.2578 118.086 81.002 118.265 81.623 118.622C82.2441 118.979 82.7217 119.486 83.0557 120.143C83.3896 120.799 83.5566 121.584 83.5566 122.498V123.605H77.0615C77.085 124.549 77.3369 125.275 77.8174 125.785C78.3037 126.295 78.9834 126.55 79.8564 126.55C80.4775 126.55 81.0342 126.491 81.5264 126.374C82.0244 126.251 82.5371 126.072 83.0645 125.838V127.517C82.5781 127.745 82.083 127.912 81.5791 128.018C81.0752 128.123 80.4717 128.176 79.7686 128.176C78.8135 128.176 77.9727 127.991 77.2461 127.622C76.5254 127.247 75.96 126.69 75.5498 125.952C75.1455 125.214 74.9434 124.297 74.9434 123.201C74.9434 122.111 75.1279 121.186 75.4971 120.424C75.8662 119.662 76.3848 119.082 77.0527 118.684C77.7207 118.285 78.5 118.086 79.3906 118.086ZM79.3906 119.642C78.7402 119.642 78.2129 119.853 77.8086 120.274C77.4102 120.696 77.1758 121.314 77.1055 122.129H81.5352C81.5293 121.643 81.4473 121.212 81.2891 120.837C81.1367 120.462 80.9023 120.169 80.5859 119.958C80.2754 119.747 79.877 119.642 79.3906 119.642ZM87.9512 114.324V117.62C87.9512 118.001 87.9395 118.376 87.916 118.745C87.8984 119.108 87.8809 119.393 87.8633 119.598H87.9512C88.2148 119.176 88.5811 118.821 89.0498 118.534C89.5244 118.241 90.1309 118.095 90.8691 118.095C92.0234 118.095 92.9521 118.52 93.6553 119.369C94.3584 120.213 94.71 121.464 94.71 123.122C94.71 124.224 94.5488 125.149 94.2266 125.899C93.9043 126.649 93.4502 127.218 92.8643 127.604C92.2842 127.985 91.6016 128.176 90.8164 128.176C90.0781 128.176 89.4805 128.041 89.0234 127.771C88.5723 127.496 88.2178 127.177 87.96 126.813H87.8105L87.4326 128H85.8857V114.324H87.9512ZM90.3242 119.773C89.7383 119.773 89.2725 119.891 88.9268 120.125C88.5869 120.359 88.3408 120.711 88.1885 121.18C88.0361 121.643 87.957 122.231 87.9512 122.946V123.131C87.9512 124.215 88.1211 125.044 88.4609 125.618C88.8066 126.192 89.4336 126.479 90.3418 126.479C91.0625 126.479 91.6162 126.189 92.0029 125.609C92.3896 125.023 92.583 124.186 92.583 123.096C92.583 121.994 92.3896 121.165 92.0029 120.608C91.6221 120.052 91.0625 119.773 90.3242 119.773ZM102.031 118.086C102.195 118.086 102.374 118.095 102.567 118.112C102.761 118.13 102.928 118.153 103.068 118.183L102.875 120.116C102.752 120.081 102.6 120.055 102.418 120.037C102.242 120.02 102.084 120.011 101.943 120.011C101.574 120.011 101.223 120.072 100.889 120.195C100.555 120.312 100.259 120.494 100.001 120.74C99.7432 120.98 99.541 121.282 99.3945 121.646C99.248 122.009 99.1748 122.431 99.1748 122.911V128H97.1006V118.271H98.7178L98.999 119.984H99.0957C99.2891 119.639 99.5293 119.322 99.8164 119.035C100.104 118.748 100.432 118.52 100.801 118.35C101.176 118.174 101.586 118.086 102.031 118.086ZM113.352 118.271V128H111.726L111.444 126.69H111.33C111.125 127.024 110.864 127.303 110.548 127.525C110.231 127.742 109.88 127.903 109.493 128.009C109.106 128.12 108.699 128.176 108.271 128.176C107.539 128.176 106.912 128.053 106.391 127.807C105.875 127.555 105.479 127.168 105.204 126.646C104.929 126.125 104.791 125.451 104.791 124.625V118.271H106.865V124.238C106.865 124.994 107.018 125.56 107.322 125.935C107.633 126.31 108.113 126.497 108.764 126.497C109.391 126.497 109.889 126.368 110.258 126.11C110.627 125.853 110.888 125.472 111.04 124.968C111.198 124.464 111.277 123.846 111.277 123.113V118.271H113.352ZM120.128 118.086C121.358 118.086 122.287 118.358 122.914 118.903C123.547 119.448 123.863 120.298 123.863 121.452V128H122.396L122 126.62H121.93C121.654 126.972 121.37 127.262 121.077 127.49C120.784 127.719 120.444 127.889 120.058 128C119.677 128.117 119.211 128.176 118.66 128.176C118.08 128.176 117.562 128.07 117.104 127.859C116.647 127.643 116.287 127.314 116.023 126.875C115.76 126.436 115.628 125.879 115.628 125.205C115.628 124.203 116 123.45 116.744 122.946C117.494 122.442 118.625 122.164 120.137 122.111L121.824 122.05V121.54C121.824 120.866 121.666 120.386 121.35 120.099C121.039 119.812 120.6 119.668 120.031 119.668C119.545 119.668 119.073 119.738 118.616 119.879C118.159 120.02 117.714 120.192 117.28 120.397L116.612 118.938C117.087 118.687 117.626 118.481 118.229 118.323C118.839 118.165 119.472 118.086 120.128 118.086ZM121.815 123.351L120.559 123.395C119.527 123.43 118.804 123.605 118.388 123.922C117.972 124.238 117.764 124.672 117.764 125.223C117.764 125.703 117.907 126.055 118.194 126.277C118.481 126.494 118.859 126.603 119.328 126.603C120.043 126.603 120.635 126.4 121.104 125.996C121.578 125.586 121.815 124.985 121.815 124.194V123.351ZM131.686 118.086C131.85 118.086 132.028 118.095 132.222 118.112C132.415 118.13 132.582 118.153 132.723 118.183L132.529 120.116C132.406 120.081 132.254 120.055 132.072 120.037C131.896 120.02 131.738 120.011 131.598 120.011C131.229 120.011 130.877 120.072 130.543 120.195C130.209 120.312 129.913 120.494 129.655 120.74C129.397 120.98 129.195 121.282 129.049 121.646C128.902 122.009 128.829 122.431 128.829 122.911V128H126.755V118.271H128.372L128.653 119.984H128.75C128.943 119.639 129.184 119.322 129.471 119.035C129.758 118.748 130.086 118.52 130.455 118.35C130.83 118.174 131.24 118.086 131.686 118.086ZM133.057 118.271H135.307L137.302 123.825C137.39 124.077 137.469 124.326 137.539 124.572C137.615 124.812 137.68 125.05 137.732 125.284C137.791 125.519 137.838 125.753 137.873 125.987H137.926C137.984 125.683 138.066 125.343 138.172 124.968C138.283 124.587 138.406 124.206 138.541 123.825L140.457 118.271H142.681L138.506 129.336C138.266 129.969 137.97 130.508 137.618 130.953C137.272 131.404 136.862 131.744 136.388 131.973C135.913 132.207 135.371 132.324 134.762 132.324C134.469 132.324 134.214 132.307 133.997 132.271C133.78 132.242 133.596 132.21 133.443 132.175V130.522C133.566 130.552 133.722 130.578 133.909 130.602C134.097 130.625 134.29 130.637 134.489 130.637C134.858 130.637 135.178 130.563 135.447 130.417C135.717 130.271 135.945 130.062 136.133 129.793C136.32 129.529 136.476 129.228 136.599 128.888L136.941 127.974L133.057 118.271ZM156.866 128H148.165V126.444L151.496 123.069C152.141 122.413 152.671 121.848 153.087 121.373C153.503 120.893 153.811 120.438 154.01 120.011C154.215 119.583 154.317 119.117 154.317 118.613C154.317 117.992 154.139 117.523 153.781 117.207C153.424 116.885 152.952 116.724 152.366 116.724C151.81 116.724 151.294 116.835 150.819 117.058C150.351 117.274 149.864 117.585 149.36 117.989L148.227 116.627C148.584 116.322 148.965 116.044 149.369 115.792C149.779 115.54 150.236 115.341 150.74 115.194C151.244 115.042 151.818 114.966 152.463 114.966C153.277 114.966 153.98 115.112 154.572 115.405C155.164 115.692 155.618 116.094 155.935 116.609C156.257 117.125 156.418 117.726 156.418 118.411C156.418 119.103 156.28 119.741 156.005 120.327C155.729 120.913 155.337 121.493 154.827 122.067C154.317 122.636 153.711 123.254 153.008 123.922L150.784 126.093V126.189H156.866V128ZM167.167 121.566C167.167 122.604 167.085 123.532 166.921 124.353C166.763 125.167 166.511 125.858 166.165 126.427C165.819 126.995 165.368 127.429 164.812 127.728C164.255 128.026 163.581 128.176 162.79 128.176C161.8 128.176 160.982 127.915 160.338 127.394C159.693 126.866 159.216 126.11 158.905 125.126C158.595 124.136 158.439 122.949 158.439 121.566C158.439 120.184 158.58 119 158.861 118.016C159.148 117.025 159.611 116.267 160.25 115.739C160.889 115.212 161.735 114.948 162.79 114.948C163.786 114.948 164.606 115.212 165.251 115.739C165.901 116.261 166.382 117.017 166.692 118.007C167.009 118.991 167.167 120.178 167.167 121.566ZM160.522 121.566C160.522 122.65 160.593 123.556 160.733 124.282C160.88 125.009 161.12 125.554 161.454 125.917C161.788 126.274 162.233 126.453 162.79 126.453C163.347 126.453 163.792 126.274 164.126 125.917C164.46 125.56 164.7 125.018 164.847 124.291C164.999 123.564 165.075 122.656 165.075 121.566C165.075 120.488 165.002 119.586 164.855 118.859C164.709 118.133 164.469 117.588 164.135 117.225C163.801 116.855 163.353 116.671 162.79 116.671C162.228 116.671 161.779 116.855 161.445 117.225C161.117 117.588 160.88 118.133 160.733 118.859C160.593 119.586 160.522 120.488 160.522 121.566ZM177.468 128H168.767V126.444L172.098 123.069C172.742 122.413 173.272 121.848 173.688 121.373C174.104 120.893 174.412 120.438 174.611 120.011C174.816 119.583 174.919 119.117 174.919 118.613C174.919 117.992 174.74 117.523 174.383 117.207C174.025 116.885 173.554 116.724 172.968 116.724C172.411 116.724 171.896 116.835 171.421 117.058C170.952 117.274 170.466 117.585 169.962 117.989L168.828 116.627C169.186 116.322 169.566 116.044 169.971 115.792C170.381 115.54 170.838 115.341 171.342 115.194C171.846 115.042 172.42 114.966 173.064 114.966C173.879 114.966 174.582 115.112 175.174 115.405C175.766 115.692 176.22 116.094 176.536 116.609C176.858 117.125 177.02 117.726 177.02 118.411C177.02 119.103 176.882 119.741 176.606 120.327C176.331 120.913 175.938 121.493 175.429 122.067C174.919 122.636 174.312 123.254 173.609 123.922L171.386 126.093V126.189H177.468V128ZM187.769 128H179.067V126.444L182.398 123.069C183.043 122.413 183.573 121.848 183.989 121.373C184.405 120.893 184.713 120.438 184.912 120.011C185.117 119.583 185.22 119.117 185.22 118.613C185.22 117.992 185.041 117.523 184.684 117.207C184.326 116.885 183.854 116.724 183.269 116.724C182.712 116.724 182.196 116.835 181.722 117.058C181.253 117.274 180.767 117.585 180.263 117.989L179.129 116.627C179.486 116.322 179.867 116.044 180.271 115.792C180.682 115.54 181.139 115.341 181.643 115.194C182.146 115.042 182.721 114.966 183.365 114.966C184.18 114.966 184.883 115.112 185.475 115.405C186.066 115.692 186.521 116.094 186.837 116.609C187.159 117.125 187.32 117.726 187.32 118.411C187.32 119.103 187.183 119.741 186.907 120.327C186.632 120.913 186.239 121.493 185.729 122.067C185.22 122.636 184.613 123.254 183.91 123.922L181.687 126.093V126.189H187.769V128Z" fill="white"/>
<rect x="271" y="52" width="160" height="106" rx="24" fill="#C0E8D5"/>
<path d="M308.027 102L306.352 97.2422H299.801L298.125 102H295.16L301.535 84.7969H304.652L311.016 102H308.027ZM305.625 94.8281L303.996 90.1406C303.934 89.9375 303.844 89.6523 303.727 89.2852C303.609 88.9102 303.492 88.5312 303.375 88.1484C303.258 87.7578 303.16 87.4297 303.082 87.1641C303.004 87.4844 302.906 87.8438 302.789 88.2422C302.68 88.6328 302.57 89 302.461 89.3438C302.359 89.6875 302.281 89.9531 302.227 90.1406L300.586 94.8281H305.625ZM318.164 88.7812C319.32 88.7812 320.312 89.0195 321.141 89.4961C321.969 89.9727 322.605 90.6484 323.051 91.5234C323.496 92.3984 323.719 93.4453 323.719 94.6641V96.1406H315.059C315.09 97.3984 315.426 98.3672 316.066 99.0469C316.715 99.7266 317.621 100.066 318.785 100.066C319.613 100.066 320.355 99.9883 321.012 99.832C321.676 99.668 322.359 99.4297 323.062 99.1172V101.355C322.414 101.66 321.754 101.883 321.082 102.023C320.41 102.164 319.605 102.234 318.668 102.234C317.395 102.234 316.273 101.988 315.305 101.496C314.344 100.996 313.59 100.254 313.043 99.2695C312.504 98.2852 312.234 97.0625 312.234 95.6016C312.234 94.1484 312.48 92.9141 312.973 91.8984C313.465 90.8828 314.156 90.1094 315.047 89.5781C315.938 89.0469 316.977 88.7812 318.164 88.7812ZM318.164 90.8555C317.297 90.8555 316.594 91.1367 316.055 91.6992C315.523 92.2617 315.211 93.0859 315.117 94.1719H321.023C321.016 93.5234 320.906 92.9492 320.695 92.4492C320.492 91.9492 320.18 91.5586 319.758 91.2773C319.344 90.9961 318.812 90.8555 318.164 90.8555ZM333.398 88.7812C333.617 88.7812 333.855 88.793 334.113 88.8164C334.371 88.8398 334.594 88.8711 334.781 88.9102L334.523 91.4883C334.359 91.4414 334.156 91.4062 333.914 91.3828C333.68 91.3594 333.469 91.3477 333.281 91.3477C332.789 91.3477 332.32 91.4297 331.875 91.5938C331.43 91.75 331.035 91.9922 330.691 92.3203C330.348 92.6406 330.078 93.043 329.883 93.5273C329.688 94.0117 329.59 94.5742 329.59 95.2148V102H326.824V89.0273H328.98L329.355 91.3125H329.484C329.742 90.8516 330.062 90.4297 330.445 90.0469C330.828 89.6641 331.266 89.3594 331.758 89.1328C332.258 88.8984 332.805 88.7812 333.398 88.7812ZM348.668 95.4844C348.668 96.5625 348.527 97.5195 348.246 98.3555C347.965 99.1914 347.555 99.8984 347.016 100.477C346.477 101.047 345.828 101.484 345.07 101.789C344.312 102.086 343.457 102.234 342.504 102.234C341.613 102.234 340.797 102.086 340.055 101.789C339.312 101.484 338.668 101.047 338.121 100.477C337.582 99.8984 337.164 99.1914 336.867 98.3555C336.57 97.5195 336.422 96.5625 336.422 95.4844C336.422 94.0547 336.668 92.8438 337.16 91.8516C337.66 90.8516 338.371 90.0898 339.293 89.5664C340.215 89.043 341.312 88.7812 342.586 88.7812C343.781 88.7812 344.836 89.043 345.75 89.5664C346.664 90.0898 347.379 90.8516 347.895 91.8516C348.41 92.8516 348.668 94.0625 348.668 95.4844ZM339.258 95.4844C339.258 96.4297 339.371 97.2383 339.598 97.9102C339.832 98.582 340.191 99.0977 340.676 99.457C341.16 99.8086 341.785 99.9844 342.551 99.9844C343.316 99.9844 343.941 99.8086 344.426 99.457C344.91 99.0977 345.266 98.582 345.492 97.9102C345.719 97.2383 345.832 96.4297 345.832 95.4844C345.832 94.5391 345.719 93.7383 345.492 93.082C345.266 92.418 344.91 91.9141 344.426 91.5703C343.941 91.2188 343.312 91.043 342.539 91.043C341.398 91.043 340.566 91.4258 340.043 92.1914C339.52 92.957 339.258 94.0547 339.258 95.4844ZM360.82 83.7656V88.1602C360.82 88.668 360.805 89.168 360.773 89.6602C360.75 90.1445 360.727 90.5234 360.703 90.7969H360.82C361.172 90.2344 361.66 89.7617 362.285 89.3789C362.918 88.9883 363.727 88.793 364.711 88.793C366.25 88.793 367.488 89.3594 368.426 90.4922C369.363 91.6172 369.832 93.2852 369.832 95.4961C369.832 96.9648 369.617 98.1992 369.188 99.1992C368.758 100.199 368.152 100.957 367.371 101.473C366.598 101.98 365.688 102.234 364.641 102.234C363.656 102.234 362.859 102.055 362.25 101.695C361.648 101.328 361.176 100.902 360.832 100.418H360.633L360.129 102H358.066V83.7656H360.82ZM363.984 91.0312C363.203 91.0312 362.582 91.1875 362.121 91.5C361.668 91.8125 361.34 92.2812 361.137 92.9062C360.934 93.5234 360.828 94.3086 360.82 95.2617V95.5078C360.82 96.9531 361.047 98.0586 361.5 98.8242C361.961 99.5898 362.797 99.9727 364.008 99.9727C364.969 99.9727 365.707 99.5859 366.223 98.8125C366.738 98.0312 366.996 96.9141 366.996 95.4609C366.996 93.9922 366.738 92.8867 366.223 92.1445C365.715 91.4023 364.969 91.0312 363.984 91.0312ZM375.785 102H373.02V83.7656H375.785V102ZM391.031 89.0273V102H388.863L388.488 100.254H388.336C388.062 100.699 387.715 101.07 387.293 101.367C386.871 101.656 386.402 101.871 385.887 102.012C385.371 102.16 384.828 102.234 384.258 102.234C383.281 102.234 382.445 102.07 381.75 101.742C381.062 101.406 380.535 100.891 380.168 100.195C379.801 99.5 379.617 98.6016 379.617 97.5V89.0273H382.383V96.9844C382.383 97.9922 382.586 98.7461 382.992 99.2461C383.406 99.7461 384.047 99.9961 384.914 99.9961C385.75 99.9961 386.414 99.8242 386.906 99.4805C387.398 99.1367 387.746 98.6289 387.949 97.957C388.16 97.2852 388.266 96.4609 388.266 95.4844V89.0273H391.031ZM400.148 88.7812C401.305 88.7812 402.297 89.0195 403.125 89.4961C403.953 89.9727 404.59 90.6484 405.035 91.5234C405.48 92.3984 405.703 93.4453 405.703 94.6641V96.1406H397.043C397.074 97.3984 397.41 98.3672 398.051 99.0469C398.699 99.7266 399.605 100.066 400.77 100.066C401.598 100.066 402.34 99.9883 402.996 99.832C403.66 99.668 404.344 99.4297 405.047 99.1172V101.355C404.398 101.66 403.738 101.883 403.066 102.023C402.395 102.164 401.59 102.234 400.652 102.234C399.379 102.234 398.258 101.988 397.289 101.496C396.328 100.996 395.574 100.254 395.027 99.2695C394.488 98.2852 394.219 97.0625 394.219 95.6016C394.219 94.1484 394.465 92.9141 394.957 91.8984C395.449 90.8828 396.141 90.1094 397.031 89.5781C397.922 89.0469 398.961 88.7812 400.148 88.7812ZM400.148 90.8555C399.281 90.8555 398.578 91.1367 398.039 91.6992C397.508 92.2617 397.195 93.0859 397.102 94.1719H403.008C403 93.5234 402.891 92.9492 402.68 92.4492C402.477 91.9492 402.164 91.5586 401.742 91.2773C401.328 90.9961 400.797 90.8555 400.148 90.8555Z" fill="#38443E"/>
<path d="M302.696 128L298.996 117.269H298.917C298.935 117.509 298.955 117.837 298.979 118.253C299.002 118.669 299.022 119.114 299.04 119.589C299.058 120.063 299.066 120.518 299.066 120.951V128H297.15V115.15H300.112L303.672 125.407H303.725L307.407 115.15H310.36V128H308.348V120.846C308.348 120.453 308.354 120.028 308.365 119.571C308.383 119.114 308.4 118.681 308.418 118.271C308.441 117.86 308.459 117.532 308.471 117.286H308.4L304.56 128H302.696ZM317.348 118.086C318.578 118.086 319.507 118.358 320.134 118.903C320.767 119.448 321.083 120.298 321.083 121.452V128H319.615L319.22 126.62H319.149C318.874 126.972 318.59 127.262 318.297 127.49C318.004 127.719 317.664 127.889 317.277 128C316.896 128.117 316.431 128.176 315.88 128.176C315.3 128.176 314.781 128.07 314.324 127.859C313.867 127.643 313.507 127.314 313.243 126.875C312.979 126.436 312.848 125.879 312.848 125.205C312.848 124.203 313.22 123.45 313.964 122.946C314.714 122.442 315.845 122.164 317.356 122.111L319.044 122.05V121.54C319.044 120.866 318.886 120.386 318.569 120.099C318.259 119.812 317.819 119.668 317.251 119.668C316.765 119.668 316.293 119.738 315.836 119.879C315.379 120.02 314.934 120.192 314.5 120.397L313.832 118.938C314.307 118.687 314.846 118.481 315.449 118.323C316.059 118.165 316.691 118.086 317.348 118.086ZM319.035 123.351L317.778 123.395C316.747 123.43 316.023 123.605 315.607 123.922C315.191 124.238 314.983 124.672 314.983 125.223C314.983 125.703 315.127 126.055 315.414 126.277C315.701 126.494 316.079 126.603 316.548 126.603C317.263 126.603 317.854 126.4 318.323 125.996C318.798 125.586 319.035 124.985 319.035 124.194V123.351ZM328.905 118.086C329.069 118.086 329.248 118.095 329.441 118.112C329.635 118.13 329.802 118.153 329.942 118.183L329.749 120.116C329.626 120.081 329.474 120.055 329.292 120.037C329.116 120.02 328.958 120.011 328.817 120.011C328.448 120.011 328.097 120.072 327.763 120.195C327.429 120.312 327.133 120.494 326.875 120.74C326.617 120.98 326.415 121.282 326.269 121.646C326.122 122.009 326.049 122.431 326.049 122.911V128H323.975V118.271H325.592L325.873 119.984H325.97C326.163 119.639 326.403 119.322 326.69 119.035C326.978 118.748 327.306 118.52 327.675 118.35C328.05 118.174 328.46 118.086 328.905 118.086ZM335.664 128.176C334.744 128.176 333.947 127.997 333.273 127.64C332.6 127.282 332.081 126.734 331.718 125.996C331.354 125.258 331.173 124.32 331.173 123.184C331.173 122 331.372 121.033 331.771 120.283C332.169 119.533 332.72 118.979 333.423 118.622C334.132 118.265 334.943 118.086 335.857 118.086C336.438 118.086 336.962 118.145 337.431 118.262C337.905 118.373 338.307 118.511 338.635 118.675L338.02 120.327C337.662 120.181 337.296 120.058 336.921 119.958C336.546 119.858 336.186 119.809 335.84 119.809C335.271 119.809 334.797 119.935 334.416 120.187C334.041 120.438 333.76 120.813 333.572 121.312C333.391 121.81 333.3 122.428 333.3 123.166C333.3 123.881 333.394 124.484 333.581 124.977C333.769 125.463 334.047 125.832 334.416 126.084C334.785 126.33 335.239 126.453 335.778 126.453C336.312 126.453 336.789 126.389 337.211 126.26C337.633 126.131 338.031 125.964 338.406 125.759V127.552C338.037 127.763 337.642 127.918 337.22 128.018C336.798 128.123 336.279 128.176 335.664 128.176ZM342.757 114.324V117.761C342.757 118.118 342.745 118.467 342.722 118.807C342.704 119.146 342.684 119.41 342.66 119.598H342.774C342.979 119.258 343.231 118.979 343.53 118.763C343.829 118.54 344.163 118.373 344.532 118.262C344.907 118.15 345.306 118.095 345.728 118.095C346.472 118.095 347.104 118.221 347.626 118.473C348.147 118.719 348.546 119.103 348.821 119.624C349.103 120.146 349.243 120.822 349.243 121.654V128H347.178V122.041C347.178 121.285 347.022 120.72 346.712 120.345C346.401 119.964 345.921 119.773 345.271 119.773C344.644 119.773 344.146 119.905 343.776 120.169C343.413 120.427 343.152 120.811 342.994 121.32C342.836 121.824 342.757 122.439 342.757 123.166V128H340.691V114.324H342.757ZM364.844 128H356.143V126.444L359.474 123.069C360.118 122.413 360.648 121.848 361.064 121.373C361.48 120.893 361.788 120.438 361.987 120.011C362.192 119.583 362.295 119.117 362.295 118.613C362.295 117.992 362.116 117.523 361.759 117.207C361.401 116.885 360.93 116.724 360.344 116.724C359.787 116.724 359.271 116.835 358.797 117.058C358.328 117.274 357.842 117.585 357.338 117.989L356.204 116.627C356.562 116.322 356.942 116.044 357.347 115.792C357.757 115.54 358.214 115.341 358.718 115.194C359.222 115.042 359.796 114.966 360.44 114.966C361.255 114.966 361.958 115.112 362.55 115.405C363.142 115.692 363.596 116.094 363.912 116.609C364.234 117.125 364.396 117.726 364.396 118.411C364.396 119.103 364.258 119.741 363.982 120.327C363.707 120.913 363.314 121.493 362.805 122.067C362.295 122.636 361.688 123.254 360.985 123.922L358.762 126.093V126.189H364.844V128ZM375.145 121.566C375.145 122.604 375.062 123.532 374.898 124.353C374.74 125.167 374.488 125.858 374.143 126.427C373.797 126.995 373.346 127.429 372.789 127.728C372.232 128.026 371.559 128.176 370.768 128.176C369.777 128.176 368.96 127.915 368.315 127.394C367.671 126.866 367.193 126.11 366.883 125.126C366.572 124.136 366.417 122.949 366.417 121.566C366.417 120.184 366.558 119 366.839 118.016C367.126 117.025 367.589 116.267 368.228 115.739C368.866 115.212 369.713 114.948 370.768 114.948C371.764 114.948 372.584 115.212 373.229 115.739C373.879 116.261 374.359 117.017 374.67 118.007C374.986 118.991 375.145 120.178 375.145 121.566ZM368.5 121.566C368.5 122.65 368.57 123.556 368.711 124.282C368.857 125.009 369.098 125.554 369.432 125.917C369.766 126.274 370.211 126.453 370.768 126.453C371.324 126.453 371.77 126.274 372.104 125.917C372.438 125.56 372.678 125.018 372.824 124.291C372.977 123.564 373.053 122.656 373.053 121.566C373.053 120.488 372.979 119.586 372.833 118.859C372.687 118.133 372.446 117.588 372.112 117.225C371.778 116.855 371.33 116.671 370.768 116.671C370.205 116.671 369.757 116.855 369.423 117.225C369.095 117.588 368.857 118.133 368.711 118.859C368.57 119.586 368.5 120.488 368.5 121.566ZM385.445 128H376.744V126.444L380.075 123.069C380.72 122.413 381.25 121.848 381.666 121.373C382.082 120.893 382.39 120.438 382.589 120.011C382.794 119.583 382.896 119.117 382.896 118.613C382.896 117.992 382.718 117.523 382.36 117.207C382.003 116.885 381.531 116.724 380.945 116.724C380.389 116.724 379.873 116.835 379.398 117.058C378.93 117.274 378.443 117.585 377.939 117.989L376.806 116.627C377.163 116.322 377.544 116.044 377.948 115.792C378.358 115.54 378.815 115.341 379.319 115.194C379.823 115.042 380.397 114.966 381.042 114.966C381.856 114.966 382.56 115.112 383.151 115.405C383.743 115.692 384.197 116.094 384.514 116.609C384.836 117.125 384.997 117.726 384.997 118.411C384.997 119.103 384.859 119.741 384.584 120.327C384.309 120.913 383.916 121.493 383.406 122.067C382.896 122.636 382.29 123.254 381.587 123.922L379.363 126.093V126.189H385.445V128ZM395.746 128H387.045V126.444L390.376 123.069C391.021 122.413 391.551 121.848 391.967 121.373C392.383 120.893 392.69 120.438 392.89 120.011C393.095 119.583 393.197 119.117 393.197 118.613C393.197 117.992 393.019 117.523 392.661 117.207C392.304 116.885 391.832 116.724 391.246 116.724C390.689 116.724 390.174 116.835 389.699 117.058C389.23 117.274 388.744 117.585 388.24 117.989L387.106 116.627C387.464 116.322 387.845 116.044 388.249 115.792C388.659 115.54 389.116 115.341 389.62 115.194C390.124 115.042 390.698 114.966 391.343 114.966C392.157 114.966 392.86 115.112 393.452 115.405C394.044 115.692 394.498 116.094 394.814 116.609C395.137 117.125 395.298 117.726 395.298 118.411C395.298 119.103 395.16 119.741 394.885 120.327C394.609 120.913 394.217 121.493 393.707 122.067C393.197 122.636 392.591 123.254 391.888 123.922L389.664 126.093V126.189H395.746V128Z" fill="#38443E"/>
<rect x="455" y="52" width="227" height="106" rx="24" fill="#665D1E"/>
<path d="M492.305 102L490.629 97.2422H484.078L482.402 102H479.438L485.812 84.7969H488.93L495.293 102H492.305ZM489.902 94.8281L488.273 90.1406C488.211 89.9375 488.121 89.6523 488.004 89.2852C487.887 88.9102 487.77 88.5312 487.652 88.1484C487.535 87.7578 487.438 87.4297 487.359 87.1641C487.281 87.4844 487.184 87.8438 487.066 88.2422C486.957 88.6328 486.848 89 486.738 89.3438C486.637 89.6875 486.559 89.9531 486.504 90.1406L484.863 94.8281H489.902ZM504.035 88.7812C505.496 88.7812 506.633 89.1602 507.445 89.918C508.266 90.668 508.676 91.875 508.676 93.5391V102H505.922V94.0547C505.922 93.0469 505.715 92.293 505.301 91.793C504.887 91.2852 504.246 91.0312 503.379 91.0312C502.121 91.0312 501.246 91.418 500.754 92.1914C500.27 92.9648 500.027 94.0859 500.027 95.5547V102H497.273V89.0273H499.418L499.805 90.7852H499.957C500.238 90.332 500.586 89.9609 501 89.6719C501.422 89.375 501.891 89.1523 502.406 89.0039C502.93 88.8555 503.473 88.7812 504.035 88.7812ZM517.359 100.008C517.719 100.008 518.074 99.9766 518.426 99.9141C518.777 99.8438 519.098 99.7617 519.387 99.668V101.754C519.082 101.887 518.688 102 518.203 102.094C517.719 102.188 517.215 102.234 516.691 102.234C515.957 102.234 515.297 102.113 514.711 101.871C514.125 101.621 513.66 101.195 513.316 100.594C512.973 99.9922 512.801 99.1602 512.801 98.0977V91.125H511.031V89.8945L512.93 88.9219L513.832 86.1445H515.566V89.0273H519.281V91.125H515.566V98.0625C515.566 98.7188 515.73 99.207 516.059 99.5273C516.387 99.8477 516.82 100.008 517.359 100.008ZM524.777 89.0273V102H522.023V89.0273H524.777ZM523.418 84.0586C523.84 84.0586 524.203 84.1719 524.508 84.3984C524.82 84.625 524.977 85.0156 524.977 85.5703C524.977 86.1172 524.82 86.5078 524.508 86.7422C524.203 86.9688 523.84 87.082 523.418 87.082C522.98 87.082 522.609 86.9688 522.305 86.7422C522.008 86.5078 521.859 86.1172 521.859 85.5703C521.859 85.0156 522.008 84.625 522.305 84.3984C522.609 84.1719 522.98 84.0586 523.418 84.0586ZM536.965 107.754V102.246C536.965 101.934 536.973 101.594 536.988 101.227C537.012 100.859 537.047 100.523 537.094 100.219H536.953C536.602 100.789 536.113 101.27 535.488 101.66C534.863 102.043 534.047 102.234 533.039 102.234C531.516 102.234 530.289 101.672 529.359 100.547C528.43 99.4141 527.965 97.7422 527.965 95.5312C527.965 94.0625 528.18 92.8281 528.609 91.8281C529.039 90.8281 529.641 90.0703 530.414 89.5547C531.195 89.0391 532.102 88.7812 533.133 88.7812C534.125 88.7812 534.93 88.9766 535.547 89.3672C536.172 89.75 536.672 90.2227 537.047 90.7852H537.141L537.445 89.0273H539.73V107.754H536.965ZM533.859 100.02C534.641 100.02 535.266 99.8711 535.734 99.5742C536.203 99.2773 536.543 98.8281 536.754 98.2266C536.965 97.6172 537.078 96.8633 537.094 95.9648V95.543C537.094 94.0742 536.855 92.957 536.379 92.1914C535.902 91.4258 535.055 91.043 533.836 91.043C532.805 91.043 532.039 91.4453 531.539 92.25C531.039 93.0469 530.789 94.1562 530.789 95.5781C530.789 97.0156 531.039 98.1172 531.539 98.8828C532.047 99.6406 532.82 100.02 533.859 100.02ZM554.988 89.0273V102H552.82L552.445 100.254H552.293C552.02 100.699 551.672 101.07 551.25 101.367C550.828 101.656 550.359 101.871 549.844 102.012C549.328 102.16 548.785 102.234 548.215 102.234C547.238 102.234 546.402 102.07 545.707 101.742C545.02 101.406 544.492 100.891 544.125 100.195C543.758 99.5 543.574 98.6016 543.574 97.5V89.0273H546.34V96.9844C546.34 97.9922 546.543 98.7461 546.949 99.2461C547.363 99.7461 548.004 99.9961 548.871 99.9961C549.707 99.9961 550.371 99.8242 550.863 99.4805C551.355 99.1367 551.703 98.6289 551.906 97.957C552.117 97.2852 552.223 96.4609 552.223 95.4844V89.0273H554.988ZM564.105 88.7812C565.262 88.7812 566.254 89.0195 567.082 89.4961C567.91 89.9727 568.547 90.6484 568.992 91.5234C569.438 92.3984 569.66 93.4453 569.66 94.6641V96.1406H561C561.031 97.3984 561.367 98.3672 562.008 99.0469C562.656 99.7266 563.562 100.066 564.727 100.066C565.555 100.066 566.297 99.9883 566.953 99.832C567.617 99.668 568.301 99.4297 569.004 99.1172V101.355C568.355 101.66 567.695 101.883 567.023 102.023C566.352 102.164 565.547 102.234 564.609 102.234C563.336 102.234 562.215 101.988 561.246 101.496C560.285 100.996 559.531 100.254 558.984 99.2695C558.445 98.2852 558.176 97.0625 558.176 95.6016C558.176 94.1484 558.422 92.9141 558.914 91.8984C559.406 90.8828 560.098 90.1094 560.988 89.5781C561.879 89.0469 562.918 88.7812 564.105 88.7812ZM564.105 90.8555C563.238 90.8555 562.535 91.1367 561.996 91.6992C561.465 92.2617 561.152 93.0859 561.059 94.1719H566.965C566.957 93.5234 566.848 92.9492 566.637 92.4492C566.434 91.9492 566.121 91.5586 565.699 91.2773C565.285 90.9961 564.754 90.8555 564.105 90.8555ZM581.754 83.7656V88.1602C581.754 88.668 581.738 89.168 581.707 89.6602C581.684 90.1445 581.66 90.5234 581.637 90.7969H581.754C582.105 90.2344 582.594 89.7617 583.219 89.3789C583.852 88.9883 584.66 88.793 585.645 88.793C587.184 88.793 588.422 89.3594 589.359 90.4922C590.297 91.6172 590.766 93.2852 590.766 95.4961C590.766 96.9648 590.551 98.1992 590.121 99.1992C589.691 100.199 589.086 100.957 588.305 101.473C587.531 101.98 586.621 102.234 585.574 102.234C584.59 102.234 583.793 102.055 583.184 101.695C582.582 101.328 582.109 100.902 581.766 100.418H581.566L581.062 102H579V83.7656H581.754ZM584.918 91.0312C584.137 91.0312 583.516 91.1875 583.055 91.5C582.602 91.8125 582.273 92.2812 582.07 92.9062C581.867 93.5234 581.762 94.3086 581.754 95.2617V95.5078C581.754 96.9531 581.98 98.0586 582.434 98.8242C582.895 99.5898 583.73 99.9727 584.941 99.9727C585.902 99.9727 586.641 99.5859 587.156 98.8125C587.672 98.0312 587.93 96.9141 587.93 95.4609C587.93 93.9922 587.672 92.8867 587.156 92.1445C586.648 91.4023 585.902 91.0312 584.918 91.0312ZM600.527 88.7812C600.746 88.7812 600.984 88.793 601.242 88.8164C601.5 88.8398 601.723 88.8711 601.91 88.9102L601.652 91.4883C601.488 91.4414 601.285 91.4062 601.043 91.3828C600.809 91.3594 600.598 91.3477 600.41 91.3477C599.918 91.3477 599.449 91.4297 599.004 91.5938C598.559 91.75 598.164 91.9922 597.82 92.3203C597.477 92.6406 597.207 93.043 597.012 93.5273C596.816 94.0117 596.719 94.5742 596.719 95.2148V102H593.953V89.0273H596.109L596.484 91.3125H596.613C596.871 90.8516 597.191 90.4297 597.574 90.0469C597.957 89.6641 598.395 89.3594 598.887 89.1328C599.387 88.8984 599.934 88.7812 600.527 88.7812ZM615.797 95.4844C615.797 96.5625 615.656 97.5195 615.375 98.3555C615.094 99.1914 614.684 99.8984 614.145 100.477C613.605 101.047 612.957 101.484 612.199 101.789C611.441 102.086 610.586 102.234 609.633 102.234C608.742 102.234 607.926 102.086 607.184 101.789C606.441 101.484 605.797 101.047 605.25 100.477C604.711 99.8984 604.293 99.1914 603.996 98.3555C603.699 97.5195 603.551 96.5625 603.551 95.4844C603.551 94.0547 603.797 92.8438 604.289 91.8516C604.789 90.8516 605.5 90.0898 606.422 89.5664C607.344 89.043 608.441 88.7812 609.715 88.7812C610.91 88.7812 611.965 89.043 612.879 89.5664C613.793 90.0898 614.508 90.8516 615.023 91.8516C615.539 92.8516 615.797 94.0625 615.797 95.4844ZM606.387 95.4844C606.387 96.4297 606.5 97.2383 606.727 97.9102C606.961 98.582 607.32 99.0977 607.805 99.457C608.289 99.8086 608.914 99.9844 609.68 99.9844C610.445 99.9844 611.07 99.8086 611.555 99.457C612.039 99.0977 612.395 98.582 612.621 97.9102C612.848 97.2383 612.961 96.4297 612.961 95.4844C612.961 94.5391 612.848 93.7383 612.621 93.082C612.395 92.418 612.039 91.9141 611.555 91.5703C611.07 91.2188 610.441 91.043 609.668 91.043C608.527 91.043 607.695 91.4258 607.172 92.1914C606.648 92.957 606.387 94.0547 606.387 95.4844ZM625.723 88.7812C627.184 88.7812 628.32 89.1602 629.133 89.918C629.953 90.668 630.363 91.875 630.363 93.5391V102H627.609V94.0547C627.609 93.0469 627.402 92.293 626.988 91.793C626.574 91.2852 625.934 91.0312 625.066 91.0312C623.809 91.0312 622.934 91.418 622.441 92.1914C621.957 92.9648 621.715 94.0859 621.715 95.5547V102H618.961V89.0273H621.105L621.492 90.7852H621.645C621.926 90.332 622.273 89.9609 622.688 89.6719C623.109 89.375 623.578 89.1523 624.094 89.0039C624.617 88.8555 625.16 88.7812 625.723 88.7812ZM642.902 102L633.047 102V100.301L639.598 91.1484H633.445V89.0273H642.715V90.9023L636.293 99.8789L642.902 99.8789V102ZM650.871 88.7812C652.027 88.7812 653.02 89.0195 653.848 89.4961C654.676 89.9727 655.312 90.6484 655.758 91.5234C656.203 92.3984 656.426 93.4453 656.426 94.6641V96.1406H647.766C647.797 97.3984 648.133 98.3672 648.773 99.0469C649.422 99.7266 650.328 100.066 651.492 100.066C652.32 100.066 653.062 99.9883 653.719 99.832C654.383 99.668 655.066 99.4297 655.77 99.1172V101.355C655.121 101.66 654.461 101.883 653.789 102.023C653.117 102.164 652.312 102.234 651.375 102.234C650.102 102.234 648.98 101.988 648.012 101.496C647.051 100.996 646.297 100.254 645.75 99.2695C645.211 98.2852 644.941 97.0625 644.941 95.6016C644.941 94.1484 645.188 92.9141 645.68 91.8984C646.172 90.8828 646.863 90.1094 647.754 89.5781C648.645 89.0469 649.684 88.7812 650.871 88.7812ZM650.871 90.8555C650.004 90.8555 649.301 91.1367 648.762 91.6992C648.23 92.2617 647.918 93.0859 647.824 94.1719H653.73C653.723 93.5234 653.613 92.9492 653.402 92.4492C653.199 91.9492 652.887 91.5586 652.465 91.2773C652.051 90.9961 651.52 90.8555 650.871 90.8555Z" fill="#FFE73E"/>
<path d="M488.741 128L487.484 124.432H482.571L481.314 128H479.091L483.872 115.098H486.21L490.982 128H488.741ZM486.939 122.621L485.718 119.105C485.671 118.953 485.604 118.739 485.516 118.464C485.428 118.183 485.34 117.898 485.252 117.611C485.164 117.318 485.091 117.072 485.032 116.873C484.974 117.113 484.9 117.383 484.812 117.682C484.73 117.975 484.648 118.25 484.566 118.508C484.49 118.766 484.432 118.965 484.391 119.105L483.16 122.621H486.939ZM497.46 118.086C498.614 118.086 499.54 118.508 500.237 119.352C500.94 120.195 501.292 121.449 501.292 123.113C501.292 124.215 501.128 125.144 500.8 125.899C500.478 126.649 500.023 127.218 499.438 127.604C498.857 127.985 498.181 128.176 497.407 128.176C496.915 128.176 496.487 128.111 496.124 127.982C495.761 127.854 495.45 127.687 495.192 127.481C494.935 127.271 494.718 127.042 494.542 126.796H494.419C494.448 127.03 494.475 127.291 494.498 127.578C494.527 127.859 494.542 128.117 494.542 128.352V132.315H492.468V118.271H494.155L494.445 119.615H494.542C494.724 119.34 494.943 119.085 495.201 118.851C495.465 118.616 495.781 118.432 496.15 118.297C496.525 118.156 496.962 118.086 497.46 118.086ZM496.906 119.773C496.338 119.773 495.881 119.888 495.535 120.116C495.195 120.339 494.946 120.676 494.788 121.127C494.636 121.578 494.554 122.144 494.542 122.823V123.113C494.542 123.834 494.615 124.446 494.762 124.95C494.914 125.448 495.163 125.829 495.509 126.093C495.86 126.351 496.335 126.479 496.933 126.479C497.437 126.479 497.853 126.342 498.181 126.066C498.515 125.791 498.764 125.398 498.928 124.889C499.092 124.379 499.174 123.778 499.174 123.087C499.174 122.038 498.986 121.224 498.611 120.644C498.242 120.063 497.674 119.773 496.906 119.773ZM508.613 118.086C508.777 118.086 508.956 118.095 509.149 118.112C509.343 118.13 509.51 118.153 509.65 118.183L509.457 120.116C509.334 120.081 509.182 120.055 509 120.037C508.824 120.02 508.666 120.011 508.525 120.011C508.156 120.011 507.805 120.072 507.471 120.195C507.137 120.312 506.841 120.494 506.583 120.74C506.325 120.98 506.123 121.282 505.977 121.646C505.83 122.009 505.757 122.431 505.757 122.911V128H503.683V118.271H505.3L505.581 119.984H505.678C505.871 119.639 506.111 119.322 506.398 119.035C506.686 118.748 507.014 118.52 507.383 118.35C507.758 118.174 508.168 118.086 508.613 118.086ZM513.518 118.271V128H511.452V118.271H513.518ZM512.498 114.544C512.814 114.544 513.087 114.629 513.315 114.799C513.55 114.969 513.667 115.262 513.667 115.678C513.667 116.088 513.55 116.381 513.315 116.557C513.087 116.727 512.814 116.812 512.498 116.812C512.17 116.812 511.892 116.727 511.663 116.557C511.44 116.381 511.329 116.088 511.329 115.678C511.329 115.262 511.44 114.969 511.663 114.799C511.892 114.629 512.17 114.544 512.498 114.544ZM518.554 128H516.479V114.324H518.554V128ZM534.216 128H525.515V126.444L528.846 123.069C529.49 122.413 530.021 121.848 530.437 121.373C530.853 120.893 531.16 120.438 531.359 120.011C531.564 119.583 531.667 119.117 531.667 118.613C531.667 117.992 531.488 117.523 531.131 117.207C530.773 116.885 530.302 116.724 529.716 116.724C529.159 116.724 528.644 116.835 528.169 117.058C527.7 117.274 527.214 117.585 526.71 117.989L525.576 116.627C525.934 116.322 526.314 116.044 526.719 115.792C527.129 115.54 527.586 115.341 528.09 115.194C528.594 115.042 529.168 114.966 529.812 114.966C530.627 114.966 531.33 115.112 531.922 115.405C532.514 115.692 532.968 116.094 533.284 116.609C533.606 117.125 533.768 117.726 533.768 118.411C533.768 119.103 533.63 119.741 533.354 120.327C533.079 120.913 532.687 121.493 532.177 122.067C531.667 122.636 531.061 123.254 530.357 123.922L528.134 126.093V126.189H534.216V128ZM544.517 121.566C544.517 122.604 544.435 123.532 544.271 124.353C544.112 125.167 543.86 125.858 543.515 126.427C543.169 126.995 542.718 127.429 542.161 127.728C541.604 128.026 540.931 128.176 540.14 128.176C539.149 128.176 538.332 127.915 537.688 127.394C537.043 126.866 536.565 126.11 536.255 125.126C535.944 124.136 535.789 122.949 535.789 121.566C535.789 120.184 535.93 119 536.211 118.016C536.498 117.025 536.961 116.267 537.6 115.739C538.238 115.212 539.085 114.948 540.14 114.948C541.136 114.948 541.956 115.212 542.601 115.739C543.251 116.261 543.731 117.017 544.042 118.007C544.358 118.991 544.517 120.178 544.517 121.566ZM537.872 121.566C537.872 122.65 537.942 123.556 538.083 124.282C538.229 125.009 538.47 125.554 538.804 125.917C539.138 126.274 539.583 126.453 540.14 126.453C540.696 126.453 541.142 126.274 541.476 125.917C541.81 125.56 542.05 125.018 542.196 124.291C542.349 123.564 542.425 122.656 542.425 121.566C542.425 120.488 542.352 119.586 542.205 118.859C542.059 118.133 541.818 117.588 541.484 117.225C541.15 116.855 540.702 116.671 540.14 116.671C539.577 116.671 539.129 116.855 538.795 117.225C538.467 117.588 538.229 118.133 538.083 118.859C537.942 119.586 537.872 120.488 537.872 121.566ZM554.817 128H546.116V126.444L549.447 123.069C550.092 122.413 550.622 121.848 551.038 121.373C551.454 120.893 551.762 120.438 551.961 120.011C552.166 119.583 552.269 119.117 552.269 118.613C552.269 117.992 552.09 117.523 551.732 117.207C551.375 116.885 550.903 116.724 550.317 116.724C549.761 116.724 549.245 116.835 548.771 117.058C548.302 117.274 547.815 117.585 547.312 117.989L546.178 116.627C546.535 116.322 546.916 116.044 547.32 115.792C547.73 115.54 548.188 115.341 548.691 115.194C549.195 115.042 549.77 114.966 550.414 114.966C551.229 114.966 551.932 115.112 552.523 115.405C553.115 115.692 553.569 116.094 553.886 116.609C554.208 117.125 554.369 117.726 554.369 118.411C554.369 119.103 554.231 119.741 553.956 120.327C553.681 120.913 553.288 121.493 552.778 122.067C552.269 122.636 551.662 123.254 550.959 123.922L548.735 126.093V126.189H554.817V128ZM565.118 128H556.417V126.444L559.748 123.069C560.393 122.413 560.923 121.848 561.339 121.373C561.755 120.893 562.062 120.438 562.262 120.011C562.467 119.583 562.569 119.117 562.569 118.613C562.569 117.992 562.391 117.523 562.033 117.207C561.676 116.885 561.204 116.724 560.618 116.724C560.062 116.724 559.546 116.835 559.071 117.058C558.603 117.274 558.116 117.585 557.612 117.989L556.479 116.627C556.836 116.322 557.217 116.044 557.621 115.792C558.031 115.54 558.488 115.341 558.992 115.194C559.496 115.042 560.07 114.966 560.715 114.966C561.529 114.966 562.232 115.112 562.824 115.405C563.416 115.692 563.87 116.094 564.187 116.609C564.509 117.125 564.67 117.726 564.67 118.411C564.67 119.103 564.532 119.741 564.257 120.327C563.981 120.913 563.589 121.493 563.079 122.067C562.569 122.636 561.963 123.254 561.26 123.922L559.036 126.093V126.189H565.118V128Z" fill="#FFE73E"/>
<rect x="706" y="52" width="163" height="106" rx="24" fill="#F4C2C2"/>
<path d="M732.527 84.8672H737.625C739.836 84.8672 741.504 85.1875 742.629 85.8281C743.754 86.4688 744.316 87.5742 744.316 89.1445C744.316 89.8008 744.199 90.3945 743.965 90.9258C743.738 91.4492 743.406 91.8828 742.969 92.2266C742.531 92.5625 741.992 92.7891 741.352 92.9062V93.0234C742.016 93.1406 742.605 93.3477 743.121 93.6445C743.645 93.9414 744.055 94.3672 744.352 94.9219C744.656 95.4766 744.809 96.1953 744.809 97.0781C744.809 98.125 744.559 99.0156 744.059 99.75C743.566 100.484 742.859 101.043 741.938 101.426C741.023 101.809 739.938 102 738.68 102H732.527V84.8672ZM735.34 91.9336H738.035C739.309 91.9336 740.191 91.7266 740.684 91.3125C741.176 90.8984 741.422 90.293 741.422 89.4961C741.422 88.6836 741.129 88.0977 740.543 87.7383C739.965 87.3789 739.043 87.1992 737.777 87.1992H735.34V91.9336ZM735.34 94.207V99.6445H738.305C739.617 99.6445 740.539 99.3906 741.07 98.8828C741.602 98.375 741.867 97.6875 741.867 96.8203C741.867 96.2891 741.746 95.8281 741.504 95.4375C741.27 95.0469 740.883 94.7461 740.344 94.5352C739.805 94.3164 739.078 94.207 738.164 94.207H735.34ZM753.152 88.7812C754.793 88.7812 756.031 89.1445 756.867 89.8711C757.711 90.5977 758.133 91.7305 758.133 93.2695V102H756.176L755.648 100.16H755.555C755.188 100.629 754.809 101.016 754.418 101.32C754.027 101.625 753.574 101.852 753.059 102C752.551 102.156 751.93 102.234 751.195 102.234C750.422 102.234 749.73 102.094 749.121 101.812C748.512 101.523 748.031 101.086 747.68 100.5C747.328 99.9141 747.152 99.1719 747.152 98.2734C747.152 96.9375 747.648 95.9336 748.641 95.2617C749.641 94.5898 751.148 94.2188 753.164 94.1484L755.414 94.0664V93.3867C755.414 92.4883 755.203 91.8477 754.781 91.4648C754.367 91.082 753.781 90.8906 753.023 90.8906C752.375 90.8906 751.746 90.9844 751.137 91.1719C750.527 91.3594 749.934 91.5898 749.355 91.8633L748.465 89.918C749.098 89.582 749.816 89.3086 750.621 89.0977C751.434 88.8867 752.277 88.7812 753.152 88.7812ZM755.402 95.8008L753.727 95.8594C752.352 95.9062 751.387 96.1406 750.832 96.5625C750.277 96.9844 750 97.5625 750 98.2969C750 98.9375 750.191 99.4062 750.574 99.7031C750.957 99.9922 751.461 100.137 752.086 100.137C753.039 100.137 753.828 99.8672 754.453 99.3281C755.086 98.7812 755.402 97.9805 755.402 96.9258V95.8008ZM764.742 83.7656V88.1602C764.742 88.668 764.727 89.168 764.695 89.6602C764.672 90.1445 764.648 90.5234 764.625 90.7969H764.742C765.094 90.2344 765.582 89.7617 766.207 89.3789C766.84 88.9883 767.648 88.793 768.633 88.793C770.172 88.793 771.41 89.3594 772.348 90.4922C773.285 91.6172 773.754 93.2852 773.754 95.4961C773.754 96.9648 773.539 98.1992 773.109 99.1992C772.68 100.199 772.074 100.957 771.293 101.473C770.52 101.98 769.609 102.234 768.562 102.234C767.578 102.234 766.781 102.055 766.172 101.695C765.57 101.328 765.098 100.902 764.754 100.418H764.555L764.051 102H761.988V83.7656H764.742ZM767.906 91.0312C767.125 91.0312 766.504 91.1875 766.043 91.5C765.59 91.8125 765.262 92.2812 765.059 92.9062C764.855 93.5234 764.75 94.3086 764.742 95.2617V95.5078C764.742 96.9531 764.969 98.0586 765.422 98.8242C765.883 99.5898 766.719 99.9727 767.93 99.9727C768.891 99.9727 769.629 99.5859 770.145 98.8125C770.66 98.0312 770.918 96.9141 770.918 95.4609C770.918 93.9922 770.66 92.8867 770.145 92.1445C769.637 91.4023 768.891 91.0312 767.906 91.0312ZM774.984 89.0273H777.984L780.645 96.4336C780.762 96.7695 780.867 97.1016 780.961 97.4297C781.062 97.75 781.148 98.0664 781.219 98.3789C781.297 98.6914 781.359 99.0039 781.406 99.3164H781.477C781.555 98.9102 781.664 98.457 781.805 97.957C781.953 97.4492 782.117 96.9414 782.297 96.4336L784.852 89.0273H787.816L782.25 103.781C781.93 104.625 781.535 105.344 781.066 105.938C780.605 106.539 780.059 106.992 779.426 107.297C778.793 107.609 778.07 107.766 777.258 107.766C776.867 107.766 776.527 107.742 776.238 107.695C775.949 107.656 775.703 107.613 775.5 107.566V105.363C775.664 105.402 775.871 105.438 776.121 105.469C776.371 105.5 776.629 105.516 776.895 105.516C777.387 105.516 777.812 105.418 778.172 105.223C778.531 105.027 778.836 104.75 779.086 104.391C779.336 104.039 779.543 103.637 779.707 103.184L780.164 101.965L774.984 89.0273ZM802.676 88.7812C804.215 88.7812 805.449 89.3438 806.379 90.4688C807.316 91.5938 807.785 93.2656 807.785 95.4844C807.785 96.9531 807.566 98.1914 807.129 99.1992C806.699 100.199 806.094 100.957 805.312 101.473C804.539 101.98 803.637 102.234 802.605 102.234C801.949 102.234 801.379 102.148 800.895 101.977C800.41 101.805 799.996 101.582 799.652 101.309C799.309 101.027 799.02 100.723 798.785 100.395H798.621C798.66 100.707 798.695 101.055 798.727 101.438C798.766 101.812 798.785 102.156 798.785 102.469V107.754H796.02V89.0273H798.27L798.656 90.8203H798.785C799.027 90.4531 799.32 90.1133 799.664 89.8008C800.016 89.4883 800.438 89.2422 800.93 89.0625C801.43 88.875 802.012 88.7812 802.676 88.7812ZM801.938 91.0312C801.18 91.0312 800.57 91.1836 800.109 91.4883C799.656 91.7852 799.324 92.2344 799.113 92.8359C798.91 93.4375 798.801 94.1914 798.785 95.0977V95.4844C798.785 96.4453 798.883 97.2617 799.078 97.9336C799.281 98.5977 799.613 99.1055 800.074 99.457C800.543 99.8008 801.176 99.9727 801.973 99.9727C802.645 99.9727 803.199 99.7891 803.637 99.4219C804.082 99.0547 804.414 98.5312 804.633 97.8516C804.852 97.1719 804.961 96.3711 804.961 95.4492C804.961 94.0508 804.711 92.9648 804.211 92.1914C803.719 91.418 802.961 91.0312 801.938 91.0312ZM813.727 89.0273V102H810.973V89.0273H813.727ZM812.367 84.0586C812.789 84.0586 813.152 84.1719 813.457 84.3984C813.77 84.625 813.926 85.0156 813.926 85.5703C813.926 86.1172 813.77 86.5078 813.457 86.7422C813.152 86.9688 812.789 87.082 812.367 87.082C811.93 87.082 811.559 86.9688 811.254 86.7422C810.957 86.5078 810.809 86.1172 810.809 85.5703C810.809 85.0156 810.957 84.625 811.254 84.3984C811.559 84.1719 811.93 84.0586 812.367 84.0586ZM824.438 88.7812C825.898 88.7812 827.035 89.1602 827.848 89.918C828.668 90.668 829.078 91.875 829.078 93.5391V102H826.324V94.0547C826.324 93.0469 826.117 92.293 825.703 91.793C825.289 91.2852 824.648 91.0312 823.781 91.0312C822.523 91.0312 821.648 91.418 821.156 92.1914C820.672 92.9648 820.43 94.0859 820.43 95.5547V102H817.676V89.0273H819.82L820.207 90.7852H820.359C820.641 90.332 820.988 89.9609 821.402 89.6719C821.824 89.375 822.293 89.1523 822.809 89.0039C823.332 88.8555 823.875 88.7812 824.438 88.7812ZM835.688 83.7656V92.5781C835.688 92.9766 835.672 93.4141 835.641 93.8906C835.609 94.3594 835.578 94.8008 835.547 95.2148H835.605C835.809 94.9414 836.051 94.6211 836.332 94.2539C836.621 93.8867 836.895 93.5664 837.152 93.293L841.113 89.0273H844.277L839.086 94.6055L844.617 102H841.383L837.234 96.3047L835.688 97.6289V102H832.934V83.7656H835.688Z" fill="#403333"/>
<path d="M730.321 131.577C729.999 131.577 729.718 131.557 729.478 131.516C729.231 131.48 729.021 131.431 728.845 131.366V129.6C729.032 129.646 729.234 129.688 729.451 129.723C729.668 129.758 729.899 129.775 730.146 129.775C730.468 129.775 730.761 129.714 731.024 129.591C731.288 129.468 731.496 129.245 731.648 128.923C731.807 128.601 731.886 128.146 731.886 127.561V115.15H733.995V127.49C733.995 128.445 733.843 129.222 733.538 129.819C733.233 130.423 732.806 130.865 732.255 131.146C731.704 131.434 731.06 131.577 730.321 131.577ZM745.588 118.271V128H743.962L743.681 126.69H743.566C743.361 127.024 743.101 127.303 742.784 127.525C742.468 127.742 742.116 127.903 741.729 128.009C741.343 128.12 740.936 128.176 740.508 128.176C739.775 128.176 739.148 128.053 738.627 127.807C738.111 127.555 737.716 127.168 737.44 126.646C737.165 126.125 737.027 125.451 737.027 124.625V118.271H739.102V124.238C739.102 124.994 739.254 125.56 739.559 125.935C739.869 126.31 740.35 126.497 741 126.497C741.627 126.497 742.125 126.368 742.494 126.11C742.863 125.853 743.124 125.472 743.276 124.968C743.435 124.464 743.514 123.846 743.514 123.113V118.271H745.588ZM753.621 118.086C754.717 118.086 755.569 118.37 756.179 118.938C756.794 119.501 757.102 120.406 757.102 121.654V128H755.036V122.041C755.036 121.285 754.881 120.72 754.57 120.345C754.26 119.964 753.779 119.773 753.129 119.773C752.186 119.773 751.529 120.063 751.16 120.644C750.797 121.224 750.615 122.064 750.615 123.166V128H748.55V118.271H750.158L750.448 119.589H750.562C750.773 119.249 751.034 118.971 751.345 118.754C751.661 118.531 752.013 118.364 752.399 118.253C752.792 118.142 753.199 118.086 753.621 118.086ZM763.869 118.086C764.736 118.086 765.48 118.265 766.102 118.622C766.723 118.979 767.2 119.486 767.534 120.143C767.868 120.799 768.035 121.584 768.035 122.498V123.605H761.54C761.563 124.549 761.815 125.275 762.296 125.785C762.782 126.295 763.462 126.55 764.335 126.55C764.956 126.55 765.513 126.491 766.005 126.374C766.503 126.251 767.016 126.072 767.543 125.838V127.517C767.057 127.745 766.562 127.912 766.058 128.018C765.554 128.123 764.95 128.176 764.247 128.176C763.292 128.176 762.451 127.991 761.725 127.622C761.004 127.247 760.438 126.69 760.028 125.952C759.624 125.214 759.422 124.297 759.422 123.201C759.422 122.111 759.606 121.186 759.976 120.424C760.345 119.662 760.863 119.082 761.531 118.684C762.199 118.285 762.979 118.086 763.869 118.086ZM763.869 119.642C763.219 119.642 762.691 119.853 762.287 120.274C761.889 120.696 761.654 121.314 761.584 122.129H766.014C766.008 121.643 765.926 121.212 765.768 120.837C765.615 120.462 765.381 120.169 765.064 119.958C764.754 119.747 764.355 119.642 763.869 119.642ZM783.073 128H774.372V126.444L777.703 123.069C778.348 122.413 778.878 121.848 779.294 121.373C779.71 120.893 780.018 120.438 780.217 120.011C780.422 119.583 780.524 119.117 780.524 118.613C780.524 117.992 780.346 117.523 779.988 117.207C779.631 116.885 779.159 116.724 778.573 116.724C778.017 116.724 777.501 116.835 777.026 117.058C776.558 117.274 776.071 117.585 775.567 117.989L774.434 116.627C774.791 116.322 775.172 116.044 775.576 115.792C775.986 115.54 776.443 115.341 776.947 115.194C777.451 115.042 778.025 114.966 778.67 114.966C779.484 114.966 780.188 115.112 780.779 115.405C781.371 115.692 781.825 116.094 782.142 116.609C782.464 117.125 782.625 117.726 782.625 118.411C782.625 119.103 782.487 119.741 782.212 120.327C781.937 120.913 781.544 121.493 781.034 122.067C780.524 122.636 779.918 123.254 779.215 123.922L776.991 126.093V126.189H783.073V128ZM793.374 121.566C793.374 122.604 793.292 123.532 793.128 124.353C792.97 125.167 792.718 125.858 792.372 126.427C792.026 126.995 791.575 127.429 791.019 127.728C790.462 128.026 789.788 128.176 788.997 128.176C788.007 128.176 787.189 127.915 786.545 127.394C785.9 126.866 785.423 126.11 785.112 125.126C784.802 124.136 784.646 122.949 784.646 121.566C784.646 120.184 784.787 119 785.068 118.016C785.355 117.025 785.818 116.267 786.457 115.739C787.096 115.212 787.942 114.948 788.997 114.948C789.993 114.948 790.813 115.212 791.458 115.739C792.108 116.261 792.589 117.017 792.899 118.007C793.216 118.991 793.374 120.178 793.374 121.566ZM786.729 121.566C786.729 122.65 786.8 123.556 786.94 124.282C787.087 125.009 787.327 125.554 787.661 125.917C787.995 126.274 788.44 126.453 788.997 126.453C789.554 126.453 789.999 126.274 790.333 125.917C790.667 125.56 790.907 125.018 791.054 124.291C791.206 123.564 791.282 122.656 791.282 121.566C791.282 120.488 791.209 119.586 791.062 118.859C790.916 118.133 790.676 117.588 790.342 117.225C790.008 116.855 789.56 116.671 788.997 116.671C788.435 116.671 787.986 116.855 787.652 117.225C787.324 117.588 787.087 118.133 786.94 118.859C786.8 119.586 786.729 120.488 786.729 121.566ZM803.675 128H794.974V126.444L798.305 123.069C798.949 122.413 799.479 121.848 799.896 121.373C800.312 120.893 800.619 120.438 800.818 120.011C801.023 119.583 801.126 119.117 801.126 118.613C801.126 117.992 800.947 117.523 800.59 117.207C800.232 116.885 799.761 116.724 799.175 116.724C798.618 116.724 798.103 116.835 797.628 117.058C797.159 117.274 796.673 117.585 796.169 117.989L795.035 116.627C795.393 116.322 795.773 116.044 796.178 115.792C796.588 115.54 797.045 115.341 797.549 115.194C798.053 115.042 798.627 114.966 799.271 114.966C800.086 114.966 800.789 115.112 801.381 115.405C801.973 115.692 802.427 116.094 802.743 116.609C803.065 117.125 803.227 117.726 803.227 118.411C803.227 119.103 803.089 119.741 802.813 120.327C802.538 120.913 802.146 121.493 801.636 122.067C801.126 122.636 800.52 123.254 799.816 123.922L797.593 126.093V126.189H803.675V128ZM813.976 128H805.274V126.444L808.605 123.069C809.25 122.413 809.78 121.848 810.196 121.373C810.612 120.893 810.92 120.438 811.119 120.011C811.324 119.583 811.427 119.117 811.427 118.613C811.427 117.992 811.248 117.523 810.891 117.207C810.533 116.885 810.062 116.724 809.476 116.724C808.919 116.724 808.403 116.835 807.929 117.058C807.46 117.274 806.974 117.585 806.47 117.989L805.336 116.627C805.693 116.322 806.074 116.044 806.479 115.792C806.889 115.54 807.346 115.341 807.85 115.194C808.354 115.042 808.928 114.966 809.572 114.966C810.387 114.966 811.09 115.112 811.682 115.405C812.273 115.692 812.728 116.094 813.044 116.609C813.366 117.125 813.527 117.726 813.527 118.411C813.527 119.103 813.39 119.741 813.114 120.327C812.839 120.913 812.446 121.493 811.937 122.067C811.427 122.636 810.82 123.254 810.117 123.922L807.894 126.093V126.189H813.976V128Z" fill="#403333"/>
<rect x="893" y="52" width="143" height="106" rx="24" fill="#FFF8DC"/>
<path d="M926.883 87.0117C926.062 87.0117 925.328 87.1602 924.68 87.457C924.039 87.7539 923.496 88.1836 923.051 88.7461C922.605 89.3008 922.266 89.9766 922.031 90.7734C921.797 91.5625 921.68 92.4531 921.68 93.4453C921.68 94.7734 921.867 95.918 922.242 96.8789C922.617 97.832 923.188 98.5664 923.953 99.082C924.719 99.5898 925.688 99.8438 926.859 99.8438C927.586 99.8438 928.293 99.7734 928.98 99.6328C929.668 99.4922 930.379 99.3008 931.113 99.0586V101.449C930.418 101.723 929.715 101.922 929.004 102.047C928.293 102.172 927.473 102.234 926.543 102.234C924.793 102.234 923.34 101.871 922.184 101.145C921.035 100.418 920.176 99.3945 919.605 98.0742C919.043 96.7539 918.762 95.207 918.762 93.4336C918.762 92.1367 918.941 90.9492 919.301 89.8711C919.66 88.793 920.184 87.8633 920.871 87.082C921.559 86.293 922.406 85.6875 923.414 85.2656C924.43 84.8359 925.59 84.6211 926.895 84.6211C927.754 84.6211 928.598 84.7188 929.426 84.9141C930.262 85.1016 931.035 85.3711 931.746 85.7227L930.762 88.043C930.168 87.7617 929.547 87.5195 928.898 87.3164C928.25 87.1133 927.578 87.0117 926.883 87.0117ZM945.996 95.4844C945.996 96.5625 945.855 97.5195 945.574 98.3555C945.293 99.1914 944.883 99.8984 944.344 100.477C943.805 101.047 943.156 101.484 942.398 101.789C941.641 102.086 940.785 102.234 939.832 102.234C938.941 102.234 938.125 102.086 937.383 101.789C936.641 101.484 935.996 101.047 935.449 100.477C934.91 99.8984 934.492 99.1914 934.195 98.3555C933.898 97.5195 933.75 96.5625 933.75 95.4844C933.75 94.0547 933.996 92.8438 934.488 91.8516C934.988 90.8516 935.699 90.0898 936.621 89.5664C937.543 89.043 938.641 88.7812 939.914 88.7812C941.109 88.7812 942.164 89.043 943.078 89.5664C943.992 90.0898 944.707 90.8516 945.223 91.8516C945.738 92.8516 945.996 94.0625 945.996 95.4844ZM936.586 95.4844C936.586 96.4297 936.699 97.2383 936.926 97.9102C937.16 98.582 937.52 99.0977 938.004 99.457C938.488 99.8086 939.113 99.9844 939.879 99.9844C940.645 99.9844 941.27 99.8086 941.754 99.457C942.238 99.0977 942.594 98.582 942.82 97.9102C943.047 97.2383 943.16 96.4297 943.16 95.4844C943.16 94.5391 943.047 93.7383 942.82 93.082C942.594 92.418 942.238 91.9141 941.754 91.5703C941.27 91.2188 940.641 91.043 939.867 91.043C938.727 91.043 937.895 91.4258 937.371 92.1914C936.848 92.957 936.586 94.0547 936.586 95.4844ZM955.734 88.7812C955.953 88.7812 956.191 88.793 956.449 88.8164C956.707 88.8398 956.93 88.8711 957.117 88.9102L956.859 91.4883C956.695 91.4414 956.492 91.4062 956.25 91.3828C956.016 91.3594 955.805 91.3477 955.617 91.3477C955.125 91.3477 954.656 91.4297 954.211 91.5938C953.766 91.75 953.371 91.9922 953.027 92.3203C952.684 92.6406 952.414 93.043 952.219 93.5273C952.023 94.0117 951.926 94.5742 951.926 95.2148V102H949.16V89.0273H951.316L951.691 91.3125H951.82C952.078 90.8516 952.398 90.4297 952.781 90.0469C953.164 89.6641 953.602 89.3594 954.094 89.1328C954.594 88.8984 955.141 88.7812 955.734 88.7812ZM966.281 88.7812C967.742 88.7812 968.879 89.1602 969.691 89.918C970.512 90.668 970.922 91.875 970.922 93.5391V102H968.168V94.0547C968.168 93.0469 967.961 92.293 967.547 91.793C967.133 91.2852 966.492 91.0312 965.625 91.0312C964.367 91.0312 963.492 91.418 963 92.1914C962.516 92.9648 962.273 94.0859 962.273 95.5547V102H959.52V89.0273H961.664L962.051 90.7852H962.203C962.484 90.332 962.832 89.9609 963.246 89.6719C963.668 89.375 964.137 89.1523 964.652 89.0039C965.176 88.8555 965.719 88.7812 966.281 88.7812ZM983.496 98.2969C983.496 99.1484 983.289 99.8672 982.875 100.453C982.461 101.039 981.855 101.484 981.059 101.789C980.27 102.086 979.301 102.234 978.152 102.234C977.246 102.234 976.465 102.168 975.809 102.035C975.16 101.91 974.547 101.715 973.969 101.449V99.0703C974.586 99.3594 975.277 99.6094 976.043 99.8203C976.816 100.031 977.547 100.137 978.234 100.137C979.141 100.137 979.793 99.9961 980.191 99.7148C980.59 99.4258 980.789 99.043 980.789 98.5664C980.789 98.2852 980.707 98.0352 980.543 97.8164C980.387 97.5898 980.09 97.3594 979.652 97.125C979.223 96.8828 978.59 96.5938 977.754 96.2578C976.934 95.9297 976.242 95.6016 975.68 95.2734C975.117 94.9453 974.691 94.5508 974.402 94.0898C974.113 93.6211 973.969 93.0234 973.969 92.2969C973.969 91.1484 974.422 90.2773 975.328 89.6836C976.242 89.082 977.449 88.7812 978.949 88.7812C979.746 88.7812 980.496 88.8633 981.199 89.0273C981.91 89.1836 982.605 89.4141 983.285 89.7188L982.418 91.793C981.832 91.5352 981.242 91.3242 980.648 91.1602C980.062 90.9883 979.465 90.9023 978.855 90.9023C978.145 90.9023 977.602 91.0117 977.227 91.2305C976.859 91.4492 976.676 91.7617 976.676 92.168C976.676 92.4727 976.766 92.7305 976.945 92.9414C977.125 93.1523 977.434 93.3633 977.871 93.5742C978.316 93.7852 978.934 94.0469 979.723 94.3594C980.496 94.6562 981.164 94.9688 981.727 95.2969C982.297 95.6172 982.734 96.0117 983.039 96.4805C983.344 96.9492 983.496 97.5547 983.496 98.2969ZM989.227 89.0273V102H986.473V89.0273H989.227ZM987.867 84.0586C988.289 84.0586 988.652 84.1719 988.957 84.3984C989.27 84.625 989.426 85.0156 989.426 85.5703C989.426 86.1172 989.27 86.5078 988.957 86.7422C988.652 86.9688 988.289 87.082 987.867 87.082C987.43 87.082 987.059 86.9688 986.754 86.7422C986.457 86.5078 986.309 86.1172 986.309 85.5703C986.309 85.0156 986.457 84.625 986.754 84.3984C987.059 84.1719 987.43 84.0586 987.867 84.0586ZM995.941 102H993.176V83.7656H995.941V102ZM1002.63 83.7656V92.5781C1002.63 92.9766 1002.62 93.4141 1002.59 93.8906C1002.55 94.3594 1002.52 94.8008 1002.49 95.2148H1002.55C1002.75 94.9414 1003 94.6211 1003.28 94.2539C1003.57 93.8867 1003.84 93.5664 1004.1 93.293L1008.06 89.0273H1011.22L1006.03 94.6055L1011.56 102H1008.33L1004.18 96.3047L1002.63 97.6289V102H999.879V83.7656H1002.63Z" fill="#423F35"/>
<path d="M917.398 131.577C917.076 131.577 916.795 131.557 916.555 131.516C916.309 131.48 916.098 131.431 915.922 131.366V129.6C916.109 129.646 916.312 129.688 916.528 129.723C916.745 129.758 916.977 129.775 917.223 129.775C917.545 129.775 917.838 129.714 918.102 129.591C918.365 129.468 918.573 129.245 918.726 128.923C918.884 128.601 918.963 128.146 918.963 127.561V115.15H921.072V127.49C921.072 128.445 920.92 129.222 920.615 129.819C920.311 130.423 919.883 130.865 919.332 131.146C918.781 131.434 918.137 131.577 917.398 131.577ZM932.665 118.271V128H931.039L930.758 126.69H930.644C930.438 127.024 930.178 127.303 929.861 127.525C929.545 127.742 929.193 127.903 928.807 128.009C928.42 128.12 928.013 128.176 927.585 128.176C926.853 128.176 926.226 128.053 925.704 127.807C925.188 127.555 924.793 127.168 924.518 126.646C924.242 126.125 924.104 125.451 924.104 124.625V118.271H926.179V124.238C926.179 124.994 926.331 125.56 926.636 125.935C926.946 126.31 927.427 126.497 928.077 126.497C928.704 126.497 929.202 126.368 929.571 126.11C929.94 125.853 930.201 125.472 930.354 124.968C930.512 124.464 930.591 123.846 930.591 123.113V118.271H932.665ZM937.701 128H935.627V114.324H937.701V128ZM939.187 118.271H941.437L943.432 123.825C943.52 124.077 943.599 124.326 943.669 124.572C943.745 124.812 943.81 125.05 943.862 125.284C943.921 125.519 943.968 125.753 944.003 125.987H944.056C944.114 125.683 944.196 125.343 944.302 124.968C944.413 124.587 944.536 124.206 944.671 123.825L946.587 118.271H948.811L944.636 129.336C944.396 129.969 944.1 130.508 943.748 130.953C943.402 131.404 942.992 131.744 942.518 131.973C942.043 132.207 941.501 132.324 940.892 132.324C940.599 132.324 940.344 132.307 940.127 132.271C939.91 132.242 939.726 132.21 939.573 132.175V130.522C939.696 130.552 939.852 130.578 940.039 130.602C940.227 130.625 940.42 130.637 940.619 130.637C940.988 130.637 941.308 130.563 941.577 130.417C941.847 130.271 942.075 130.062 942.263 129.793C942.45 129.529 942.605 129.228 942.729 128.888L943.071 127.974L939.187 118.271ZM962.996 128H954.295V126.444L957.626 123.069C958.271 122.413 958.801 121.848 959.217 121.373C959.633 120.893 959.94 120.438 960.14 120.011C960.345 119.583 960.447 119.117 960.447 118.613C960.447 117.992 960.269 117.523 959.911 117.207C959.554 116.885 959.082 116.724 958.496 116.724C957.939 116.724 957.424 116.835 956.949 117.058C956.48 117.274 955.994 117.585 955.49 117.989L954.356 116.627C954.714 116.322 955.095 116.044 955.499 115.792C955.909 115.54 956.366 115.341 956.87 115.194C957.374 115.042 957.948 114.966 958.593 114.966C959.407 114.966 960.11 115.112 960.702 115.405C961.294 115.692 961.748 116.094 962.064 116.609C962.387 117.125 962.548 117.726 962.548 118.411C962.548 119.103 962.41 119.741 962.135 120.327C961.859 120.913 961.467 121.493 960.957 122.067C960.447 122.636 959.841 123.254 959.138 123.922L956.914 126.093V126.189H962.996V128ZM973.297 121.566C973.297 122.604 973.215 123.532 973.051 124.353C972.893 125.167 972.641 125.858 972.295 126.427C971.949 126.995 971.498 127.429 970.941 127.728C970.385 128.026 969.711 128.176 968.92 128.176C967.93 128.176 967.112 127.915 966.468 127.394C965.823 126.866 965.346 126.11 965.035 125.126C964.725 124.136 964.569 122.949 964.569 121.566C964.569 120.184 964.71 119 964.991 118.016C965.278 117.025 965.741 116.267 966.38 115.739C967.019 115.212 967.865 114.948 968.92 114.948C969.916 114.948 970.736 115.212 971.381 115.739C972.031 116.261 972.512 117.017 972.822 118.007C973.139 118.991 973.297 120.178 973.297 121.566ZM966.652 121.566C966.652 122.65 966.723 123.556 966.863 124.282C967.01 125.009 967.25 125.554 967.584 125.917C967.918 126.274 968.363 126.453 968.92 126.453C969.477 126.453 969.922 126.274 970.256 125.917C970.59 125.56 970.83 125.018 970.977 124.291C971.129 123.564 971.205 122.656 971.205 121.566C971.205 120.488 971.132 119.586 970.985 118.859C970.839 118.133 970.599 117.588 970.265 117.225C969.931 116.855 969.482 116.671 968.92 116.671C968.357 116.671 967.909 116.855 967.575 117.225C967.247 117.588 967.01 118.133 966.863 118.859C966.723 119.586 966.652 120.488 966.652 121.566ZM983.598 128H974.896V126.444L978.228 123.069C978.872 122.413 979.402 121.848 979.818 121.373C980.234 120.893 980.542 120.438 980.741 120.011C980.946 119.583 981.049 119.117 981.049 118.613C981.049 117.992 980.87 117.523 980.513 117.207C980.155 116.885 979.684 116.724 979.098 116.724C978.541 116.724 978.025 116.835 977.551 117.058C977.082 117.274 976.596 117.585 976.092 117.989L974.958 116.627C975.315 116.322 975.696 116.044 976.101 115.792C976.511 115.54 976.968 115.341 977.472 115.194C977.976 115.042 978.55 114.966 979.194 114.966C980.009 114.966 980.712 115.112 981.304 115.405C981.896 115.692 982.35 116.094 982.666 116.609C982.988 117.125 983.149 117.726 983.149 118.411C983.149 119.103 983.012 119.741 982.736 120.327C982.461 120.913 982.068 121.493 981.559 122.067C981.049 122.636 980.442 123.254 979.739 123.922L977.516 126.093V126.189H983.598V128ZM993.898 128H985.197V126.444L988.528 123.069C989.173 122.413 989.703 121.848 990.119 121.373C990.535 120.893 990.843 120.438 991.042 120.011C991.247 119.583 991.35 119.117 991.35 118.613C991.35 117.992 991.171 117.523 990.813 117.207C990.456 116.885 989.984 116.724 989.398 116.724C988.842 116.724 988.326 116.835 987.852 117.058C987.383 117.274 986.896 117.585 986.393 117.989L985.259 116.627C985.616 116.322 985.997 116.044 986.401 115.792C986.812 115.54 987.269 115.341 987.772 115.194C988.276 115.042 988.851 114.966 989.495 114.966C990.31 114.966 991.013 115.112 991.604 115.405C992.196 115.692 992.65 116.094 992.967 116.609C993.289 117.125 993.45 117.726 993.45 118.411C993.45 119.103 993.312 119.741 993.037 120.327C992.762 120.913 992.369 121.493 991.859 122.067C991.35 122.636 990.743 123.254 990.04 123.922L987.816 126.093V126.189H993.898V128Z" fill="#423F35"/>
</g>
</g>
<defs>
<linearGradient id="paint0_linear_144_900" x1="1110.5" y1="31" x2="1110.5" y2="1027" gradientUnits="userSpaceOnUse">
<stop offset="0.0104167" stop-color="#FCFCF7" stop-opacity="0"/>
<stop offset="0.140625" stop-color="#FCFCF7"/>
</linearGradient>
<clipPath id="clip0_144_900">
<rect width="1024" height="211" fill="white"/>
</clipPath>
</defs>
</svg>
