<svg width="1024" height="211" viewBox="0 0 1024 211" fill="none" xmlns="http://www.w3.org/2000/svg">
<path d="M371.195 58.6484V72.8516C371.195 73.3203 371.178 73.8945 371.143 74.5742C371.107 75.2422 371.078 75.834 371.055 76.3496H371.178C371.424 76.0449 371.781 75.5937 372.25 74.9961C372.73 74.3984 373.135 73.918 373.463 73.5547L379.861 66.7344H383.289L375.537 74.9609L383.852 86H380.336L373.533 76.877L371.195 79.0215V86H368.295V58.6484H371.195ZM390.127 66.7344V86H387.209V66.7344H390.127ZM388.703 59.5273C389.184 59.5273 389.594 59.6855 389.934 60.002C390.285 60.3066 390.461 60.7871 390.461 61.4434C390.461 62.0879 390.285 62.5684 389.934 62.8848C389.594 63.2012 389.184 63.3594 388.703 63.3594C388.199 63.3594 387.777 63.2012 387.438 62.8848C387.109 62.5684 386.945 62.0879 386.945 61.4434C386.945 60.7871 387.109 60.3066 387.438 60.002C387.777 59.6855 388.199 59.5273 388.703 59.5273ZM399.25 86H396.314V58.6484H399.25V86ZM422.031 76.332C422.031 77.9141 421.826 79.3262 421.416 80.5684C421.006 81.8105 420.414 82.8594 419.641 83.7148C418.867 84.5703 417.93 85.2266 416.828 85.6836C415.738 86.1289 414.502 86.3516 413.119 86.3516C411.83 86.3516 410.646 86.1289 409.568 85.6836C408.502 85.2266 407.576 84.5703 406.791 83.7148C406.018 82.8594 405.414 81.8105 404.98 80.5684C404.559 79.3262 404.348 77.9141 404.348 76.332C404.348 74.2227 404.705 72.4297 405.42 70.9531C406.135 69.4648 407.154 68.334 408.479 67.5605C409.814 66.7754 411.402 66.3828 413.242 66.3828C415 66.3828 416.535 66.7754 417.848 67.5605C419.172 68.3457 420.197 69.4824 420.924 70.9707C421.662 72.4473 422.031 74.2344 422.031 76.332ZM407.371 76.332C407.371 77.8789 407.576 79.2207 407.986 80.3574C408.396 81.4941 409.029 82.373 409.885 82.9941C410.74 83.6152 411.842 83.9258 413.189 83.9258C414.525 83.9258 415.621 83.6152 416.477 82.9941C417.344 82.373 417.982 81.4941 418.393 80.3574C418.803 79.2207 419.008 77.8789 419.008 76.332C419.008 74.7969 418.803 73.4727 418.393 72.3594C417.982 71.2344 417.35 70.3672 416.494 69.7578C415.639 69.1484 414.531 68.8437 413.172 68.8437C411.168 68.8437 409.697 69.5059 408.76 70.8301C407.834 72.1543 407.371 73.9883 407.371 76.332ZM370.809 107.648V121.852C370.809 122.32 370.791 122.895 370.756 123.574C370.721 124.242 370.691 124.834 370.668 125.35H370.791C371.037 125.045 371.395 124.594 371.863 123.996C372.344 123.398 372.748 122.918 373.076 122.555L379.475 115.734H382.902L375.15 123.961L383.465 135H379.949L373.146 125.877L370.809 128.021V135H367.908V107.648H370.809ZM389.74 115.734V135H386.822V115.734H389.74ZM388.316 108.527C388.797 108.527 389.207 108.686 389.547 109.002C389.898 109.307 390.074 109.787 390.074 110.443C390.074 111.088 389.898 111.568 389.547 111.885C389.207 112.201 388.797 112.359 388.316 112.359C387.812 112.359 387.391 112.201 387.051 111.885C386.723 111.568 386.559 111.088 386.559 110.443C386.559 109.787 386.723 109.307 387.051 109.002C387.391 108.686 387.812 108.527 388.316 108.527ZM398.846 107.648V114.486C398.846 115.271 398.822 116.033 398.775 116.771C398.74 117.51 398.711 118.084 398.688 118.494H398.846C399.373 117.627 400.135 116.895 401.131 116.297C402.127 115.699 403.398 115.4 404.945 115.4C407.359 115.4 409.281 116.238 410.711 117.914C412.152 119.578 412.873 122.057 412.873 125.35C412.873 127.518 412.545 129.346 411.889 130.834C411.232 132.322 410.307 133.447 409.111 134.209C407.916 134.971 406.504 135.352 404.875 135.352C403.352 135.352 402.098 135.07 401.113 134.508C400.141 133.934 399.391 133.236 398.863 132.416H398.635L398.037 135H395.928V107.648H398.846ZM404.471 117.844C403.076 117.844 401.969 118.119 401.148 118.67C400.328 119.209 399.736 120.029 399.373 121.131C399.021 122.221 398.846 123.604 398.846 125.279V125.437C398.846 127.863 399.25 129.721 400.059 131.01C400.867 132.287 402.338 132.926 404.471 132.926C406.264 132.926 407.605 132.27 408.496 130.957C409.398 129.645 409.85 127.77 409.85 125.332C409.85 122.848 409.404 120.979 408.514 119.725C407.635 118.471 406.287 117.844 404.471 117.844ZM420.889 115.734V135H417.971V115.734H420.889ZM419.465 108.527C419.945 108.527 420.355 108.686 420.695 109.002C421.047 109.307 421.223 109.787 421.223 110.443C421.223 111.088 421.047 111.568 420.695 111.885C420.355 112.201 419.945 112.359 419.465 112.359C418.961 112.359 418.539 112.201 418.199 111.885C417.871 111.568 417.707 111.088 417.707 110.443C417.707 109.787 417.871 109.307 418.199 109.002C418.539 108.686 418.961 108.527 419.465 108.527ZM354.9 164.383C357.021 164.383 358.621 164.939 359.699 166.053C360.777 167.154 361.316 168.93 361.316 171.379V184H358.434V171.52C358.434 169.961 358.094 168.795 357.414 168.021C356.746 167.236 355.75 166.844 354.426 166.844C352.562 166.844 351.209 167.383 350.365 168.461C349.521 169.539 349.1 171.127 349.1 173.225V184H346.199V171.52C346.199 170.477 346.047 169.609 345.742 168.918C345.449 168.227 345.004 167.711 344.406 167.371C343.82 167.02 343.076 166.844 342.174 166.844C340.896 166.844 339.871 167.107 339.098 167.635C338.324 168.162 337.762 168.947 337.41 169.99C337.07 171.021 336.9 172.293 336.9 173.805V184H333.982V164.734H336.338L336.777 167.459H336.936C337.322 166.791 337.809 166.229 338.395 165.771C338.98 165.314 339.637 164.969 340.363 164.734C341.09 164.5 341.863 164.383 342.684 164.383C344.148 164.383 345.373 164.658 346.357 165.209C347.354 165.748 348.074 166.574 348.52 167.688H348.678C349.311 166.574 350.178 165.748 351.279 165.209C352.381 164.658 353.588 164.383 354.9 164.383ZM374.729 164.383C376.369 164.383 377.775 164.746 378.947 165.473C380.119 166.199 381.016 167.219 381.637 168.531C382.258 169.832 382.568 171.355 382.568 173.102V174.912H369.262C369.297 177.174 369.859 178.896 370.949 180.08C372.039 181.264 373.574 181.855 375.555 181.855C376.773 181.855 377.852 181.744 378.789 181.521C379.727 181.299 380.699 180.971 381.707 180.537V183.104C380.734 183.537 379.768 183.854 378.807 184.053C377.857 184.252 376.732 184.352 375.432 184.352C373.58 184.352 371.963 183.977 370.58 183.227C369.209 182.465 368.143 181.352 367.381 179.887C366.619 178.422 366.238 176.629 366.238 174.508C366.238 172.434 366.584 170.641 367.275 169.129C367.979 167.605 368.963 166.434 370.229 165.613C371.506 164.793 373.006 164.383 374.729 164.383ZM374.693 166.773C373.135 166.773 371.893 167.283 370.967 168.303C370.041 169.322 369.49 170.746 369.314 172.574H379.51C379.498 171.426 379.316 170.418 378.965 169.551C378.625 168.672 378.104 167.992 377.4 167.512C376.697 167.02 375.795 166.773 374.693 166.773ZM392.904 192.648C390.373 192.648 388.422 192.174 387.051 191.225C385.68 190.287 384.994 188.969 384.994 187.27C384.994 186.062 385.375 185.031 386.137 184.176C386.91 183.32 387.977 182.752 389.336 182.471C388.832 182.236 388.398 181.885 388.035 181.416C387.684 180.947 387.508 180.408 387.508 179.799C387.508 179.096 387.701 178.48 388.088 177.953C388.486 177.414 389.09 176.898 389.898 176.406C388.891 175.996 388.07 175.305 387.438 174.332C386.816 173.348 386.506 172.205 386.506 170.904C386.506 169.521 386.793 168.344 387.367 167.371C387.941 166.387 388.773 165.637 389.863 165.121C390.953 164.605 392.271 164.348 393.818 164.348C394.158 164.348 394.498 164.365 394.838 164.4C395.189 164.424 395.523 164.465 395.84 164.523C396.156 164.57 396.432 164.629 396.666 164.699H403.275V166.58L399.725 167.02C400.076 167.477 400.369 168.027 400.604 168.672C400.838 169.316 400.955 170.031 400.955 170.816C400.955 172.738 400.305 174.268 399.004 175.404C397.703 176.529 395.916 177.092 393.643 177.092C393.104 177.092 392.553 177.045 391.99 176.951C391.416 177.268 390.977 177.619 390.672 178.006C390.379 178.393 390.232 178.838 390.232 179.342C390.232 179.717 390.344 180.016 390.566 180.238C390.801 180.461 391.135 180.625 391.568 180.73C392.002 180.824 392.523 180.871 393.133 180.871H396.525C398.623 180.871 400.229 181.311 401.342 182.189C402.467 183.068 403.029 184.352 403.029 186.039C403.029 188.172 402.162 189.807 400.428 190.943C398.693 192.08 396.186 192.648 392.904 192.648ZM392.992 190.363C394.586 190.363 395.904 190.199 396.947 189.871C398.002 189.555 398.787 189.092 399.303 188.482C399.83 187.885 400.094 187.17 400.094 186.338C400.094 185.564 399.918 184.979 399.566 184.58C399.215 184.193 398.699 183.936 398.02 183.807C397.34 183.666 396.508 183.596 395.523 183.596H392.184C391.316 183.596 390.561 183.73 389.916 184C389.271 184.27 388.773 184.668 388.422 185.195C388.082 185.723 387.912 186.379 387.912 187.164C387.912 188.207 388.352 188.998 389.23 189.537C390.109 190.088 391.363 190.363 392.992 190.363ZM393.748 174.965C395.143 174.965 396.191 174.613 396.895 173.91C397.598 173.207 397.949 172.182 397.949 170.834C397.949 169.393 397.592 168.314 396.877 167.6C396.162 166.873 395.107 166.51 393.713 166.51C392.377 166.51 391.346 166.885 390.619 167.635C389.904 168.373 389.547 169.457 389.547 170.887C389.547 172.199 389.91 173.207 390.637 173.91C391.363 174.613 392.4 174.965 393.748 174.965ZM414.279 164.418C416.576 164.418 418.281 164.934 419.395 165.965C420.508 166.996 421.064 168.643 421.064 170.904V184H418.938L418.375 181.152H418.234C417.695 181.855 417.133 182.447 416.547 182.928C415.961 183.396 415.281 183.754 414.508 184C413.746 184.234 412.809 184.352 411.695 184.352C410.523 184.352 409.48 184.146 408.566 183.736C407.664 183.326 406.949 182.705 406.422 181.873C405.906 181.041 405.648 179.986 405.648 178.709C405.648 176.787 406.41 175.311 407.934 174.279C409.457 173.248 411.777 172.686 414.895 172.592L418.217 172.451V171.273C418.217 169.609 417.859 168.443 417.145 167.775C416.43 167.107 415.422 166.773 414.121 166.773C413.113 166.773 412.152 166.92 411.238 167.213C410.324 167.506 409.457 167.852 408.637 168.25L407.74 166.035C408.607 165.59 409.604 165.209 410.729 164.893C411.854 164.576 413.037 164.418 414.279 164.418ZM418.182 174.508L415.246 174.631C412.844 174.725 411.15 175.117 410.166 175.809C409.182 176.5 408.689 177.479 408.689 178.744C408.689 179.846 409.023 180.66 409.691 181.187C410.359 181.715 411.244 181.979 412.346 181.979C414.057 181.979 415.457 181.504 416.547 180.555C417.637 179.605 418.182 178.182 418.182 176.283V174.508Z" fill="#186C31"/>
<line x1="512.5" y1="70.5" x2="512.5" y2="172.5" stroke="#186C31"/>
<path d="M612.639 86H609.791V67.7891C609.791 67.0977 609.791 66.5059 609.791 66.0137C609.803 65.5098 609.814 65.0527 609.826 64.6426C609.85 64.2207 609.879 63.793 609.914 63.3594C609.551 63.7344 609.211 64.0566 608.895 64.3262C608.578 64.584 608.186 64.9062 607.717 65.293L604.781 67.6484L603.252 65.6621L610.213 60.3008H612.639V86ZM648.709 73.1152C648.709 75.2012 648.551 77.0645 648.234 78.7051C647.918 80.3457 647.42 81.7344 646.74 82.8711C646.061 84.0078 645.182 84.875 644.104 85.4727C643.025 86.0586 641.73 86.3516 640.219 86.3516C638.309 86.3516 636.727 85.8301 635.473 84.7871C634.23 83.7441 633.299 82.2383 632.678 80.2695C632.068 78.2891 631.764 75.9043 631.764 73.1152C631.764 70.373 632.039 68.0176 632.59 66.0488C633.152 64.0684 634.055 62.5508 635.297 61.4961C636.539 60.4297 638.18 59.8965 640.219 59.8965C642.152 59.8965 643.746 60.4238 645 61.4785C646.254 62.5215 647.186 64.0332 647.795 66.0137C648.404 67.9824 648.709 70.3496 648.709 73.1152ZM634.699 73.1152C634.699 75.5059 634.881 77.498 635.244 79.0918C635.607 80.6855 636.193 81.8809 637.002 82.6777C637.822 83.4629 638.895 83.8555 640.219 83.8555C641.543 83.8555 642.609 83.4629 643.418 82.6777C644.238 81.8926 644.83 80.7031 645.193 79.1094C645.568 77.5156 645.756 75.5176 645.756 73.1152C645.756 70.7598 645.574 68.791 645.211 67.209C644.848 65.6152 644.262 64.4199 643.453 63.623C642.645 62.8145 641.566 62.4102 640.219 62.4102C638.871 62.4102 637.793 62.8145 636.984 63.623C636.176 64.4199 635.59 65.6152 635.227 67.209C634.875 68.791 634.699 70.7598 634.699 73.1152ZM669.311 73.1152C669.311 75.2012 669.152 77.0645 668.836 78.7051C668.52 80.3457 668.021 81.7344 667.342 82.8711C666.662 84.0078 665.783 84.875 664.705 85.4727C663.627 86.0586 662.332 86.3516 660.82 86.3516C658.91 86.3516 657.328 85.8301 656.074 84.7871C654.832 83.7441 653.9 82.2383 653.279 80.2695C652.67 78.2891 652.365 75.9043 652.365 73.1152C652.365 70.373 652.641 68.0176 653.191 66.0488C653.754 64.0684 654.656 62.5508 655.898 61.4961C657.141 60.4297 658.781 59.8965 660.82 59.8965C662.754 59.8965 664.348 60.4238 665.602 61.4785C666.855 62.5215 667.787 64.0332 668.396 66.0137C669.006 67.9824 669.311 70.3496 669.311 73.1152ZM655.301 73.1152C655.301 75.5059 655.482 77.498 655.846 79.0918C656.209 80.6855 656.795 81.8809 657.604 82.6777C658.424 83.4629 659.496 83.8555 660.82 83.8555C662.145 83.8555 663.211 83.4629 664.02 82.6777C664.84 81.8926 665.432 80.7031 665.795 79.1094C666.17 77.5156 666.357 75.5176 666.357 73.1152C666.357 70.7598 666.176 68.791 665.812 67.209C665.449 65.6152 664.863 64.4199 664.055 63.623C663.246 62.8145 662.168 62.4102 660.82 62.4102C659.473 62.4102 658.395 62.8145 657.586 63.623C656.777 64.4199 656.191 65.6152 655.828 67.209C655.477 68.791 655.301 70.7598 655.301 73.1152ZM689.912 73.1152C689.912 75.2012 689.754 77.0645 689.438 78.7051C689.121 80.3457 688.623 81.7344 687.943 82.8711C687.264 84.0078 686.385 84.875 685.307 85.4727C684.229 86.0586 682.934 86.3516 681.422 86.3516C679.512 86.3516 677.93 85.8301 676.676 84.7871C675.434 83.7441 674.502 82.2383 673.881 80.2695C673.271 78.2891 672.967 75.9043 672.967 73.1152C672.967 70.373 673.242 68.0176 673.793 66.0488C674.355 64.0684 675.258 62.5508 676.5 61.4961C677.742 60.4297 679.383 59.8965 681.422 59.8965C683.355 59.8965 684.949 60.4238 686.203 61.4785C687.457 62.5215 688.389 64.0332 688.998 66.0137C689.607 67.9824 689.912 70.3496 689.912 73.1152ZM675.902 73.1152C675.902 75.5059 676.084 77.498 676.447 79.0918C676.811 80.6855 677.396 81.8809 678.205 82.6777C679.025 83.4629 680.098 83.8555 681.422 83.8555C682.746 83.8555 683.812 83.4629 684.621 82.6777C685.441 81.8926 686.033 80.7031 686.396 79.1094C686.771 77.5156 686.959 75.5176 686.959 73.1152C686.959 70.7598 686.777 68.791 686.414 67.209C686.051 65.6152 685.465 64.4199 684.656 63.623C683.848 62.8145 682.77 62.4102 681.422 62.4102C680.074 62.4102 678.996 62.8145 678.188 63.623C677.379 64.4199 676.793 65.6152 676.43 67.209C676.078 68.791 675.902 70.7598 675.902 73.1152ZM612.639 135H609.791V116.789C609.791 116.098 609.791 115.506 609.791 115.014C609.803 114.51 609.814 114.053 609.826 113.643C609.85 113.221 609.879 112.793 609.914 112.359C609.551 112.734 609.211 113.057 608.895 113.326C608.578 113.584 608.186 113.906 607.717 114.293L604.781 116.648L603.252 114.662L610.213 109.301H612.639V135ZM648.709 122.115C648.709 124.201 648.551 126.064 648.234 127.705C647.918 129.346 647.42 130.734 646.74 131.871C646.061 133.008 645.182 133.875 644.104 134.473C643.025 135.059 641.73 135.352 640.219 135.352C638.309 135.352 636.727 134.83 635.473 133.787C634.23 132.744 633.299 131.238 632.678 129.27C632.068 127.289 631.764 124.904 631.764 122.115C631.764 119.373 632.039 117.018 632.59 115.049C633.152 113.068 634.055 111.551 635.297 110.496C636.539 109.43 638.18 108.896 640.219 108.896C642.152 108.896 643.746 109.424 645 110.479C646.254 111.521 647.186 113.033 647.795 115.014C648.404 116.982 648.709 119.35 648.709 122.115ZM634.699 122.115C634.699 124.506 634.881 126.498 635.244 128.092C635.607 129.686 636.193 130.881 637.002 131.678C637.822 132.463 638.895 132.855 640.219 132.855C641.543 132.855 642.609 132.463 643.418 131.678C644.238 130.893 644.83 129.703 645.193 128.109C645.568 126.516 645.756 124.518 645.756 122.115C645.756 119.76 645.574 117.791 645.211 116.209C644.848 114.615 644.262 113.42 643.453 112.623C642.645 111.814 641.566 111.41 640.219 111.41C638.871 111.41 637.793 111.814 636.984 112.623C636.176 113.42 635.59 114.615 635.227 116.209C634.875 117.791 634.699 119.76 634.699 122.115ZM669.17 135H652.33V132.557L659.203 125.578C660.48 124.289 661.553 123.141 662.42 122.133C663.299 121.125 663.967 120.135 664.424 119.162C664.881 118.178 665.109 117.1 665.109 115.928C665.109 114.475 664.676 113.367 663.809 112.605C662.953 111.832 661.822 111.445 660.416 111.445C659.186 111.445 658.096 111.656 657.146 112.078C656.197 112.5 655.225 113.098 654.229 113.871L652.664 111.902C653.344 111.328 654.082 110.818 654.879 110.373C655.688 109.928 656.549 109.576 657.463 109.318C658.389 109.061 659.373 108.932 660.416 108.932C661.998 108.932 663.363 109.207 664.512 109.758C665.66 110.309 666.545 111.094 667.166 112.113C667.799 113.133 668.115 114.346 668.115 115.752C668.115 117.111 667.846 118.377 667.307 119.549C666.768 120.709 666.012 121.863 665.039 123.012C664.066 124.148 662.93 125.355 661.629 126.633L656.039 132.205V132.328H669.17V135ZM691.055 129.041H687.205V135H684.357V129.041H671.93V126.58L684.164 109.16H687.205V126.404H691.055V129.041ZM684.357 126.404V118.002C684.357 117.357 684.363 116.777 684.375 116.262C684.387 115.734 684.404 115.248 684.428 114.803C684.451 114.346 684.469 113.912 684.48 113.502C684.504 113.092 684.521 112.688 684.533 112.289H684.393C684.17 112.758 683.912 113.256 683.619 113.783C683.338 114.299 683.051 114.762 682.758 115.172L674.83 126.404H684.357ZM612.639 184H609.791V165.789C609.791 165.098 609.791 164.506 609.791 164.014C609.803 163.51 609.814 163.053 609.826 162.643C609.85 162.221 609.879 161.793 609.914 161.359C609.551 161.734 609.211 162.057 608.895 162.326C608.578 162.584 608.186 162.906 607.717 163.293L604.781 165.648L603.252 163.662L610.213 158.301H612.639V184ZM648.709 171.115C648.709 173.201 648.551 175.064 648.234 176.705C647.918 178.346 647.42 179.734 646.74 180.871C646.061 182.008 645.182 182.875 644.104 183.473C643.025 184.059 641.73 184.352 640.219 184.352C638.309 184.352 636.727 183.83 635.473 182.787C634.23 181.744 633.299 180.238 632.678 178.27C632.068 176.289 631.764 173.904 631.764 171.115C631.764 168.373 632.039 166.018 632.59 164.049C633.152 162.068 634.055 160.551 635.297 159.496C636.539 158.43 638.18 157.896 640.219 157.896C642.152 157.896 643.746 158.424 645 159.479C646.254 160.521 647.186 162.033 647.795 164.014C648.404 165.982 648.709 168.35 648.709 171.115ZM634.699 171.115C634.699 173.506 634.881 175.498 635.244 177.092C635.607 178.686 636.193 179.881 637.002 180.678C637.822 181.463 638.895 181.855 640.219 181.855C641.543 181.855 642.609 181.463 643.418 180.678C644.238 179.893 644.83 178.703 645.193 177.109C645.568 175.516 645.756 173.518 645.756 171.115C645.756 168.76 645.574 166.791 645.211 165.209C644.848 163.615 644.262 162.42 643.453 161.623C642.645 160.814 641.566 160.41 640.219 160.41C638.871 160.41 637.793 160.814 636.984 161.623C636.176 162.42 635.59 163.615 635.227 165.209C634.875 166.791 634.699 168.76 634.699 171.115ZM669.311 171.115C669.311 173.201 669.152 175.064 668.836 176.705C668.52 178.346 668.021 179.734 667.342 180.871C666.662 182.008 665.783 182.875 664.705 183.473C663.627 184.059 662.332 184.352 660.82 184.352C658.91 184.352 657.328 183.83 656.074 182.787C654.832 181.744 653.9 180.238 653.279 178.27C652.67 176.289 652.365 173.904 652.365 171.115C652.365 168.373 652.641 166.018 653.191 164.049C653.754 162.068 654.656 160.551 655.898 159.496C657.141 158.43 658.781 157.896 660.82 157.896C662.754 157.896 664.348 158.424 665.602 159.479C666.855 160.521 667.787 162.033 668.396 164.014C669.006 165.982 669.311 168.35 669.311 171.115ZM655.301 171.115C655.301 173.506 655.482 175.498 655.846 177.092C656.209 178.686 656.795 179.881 657.604 180.678C658.424 181.463 659.496 181.855 660.82 181.855C662.145 181.855 663.211 181.463 664.02 180.678C664.84 179.893 665.432 178.703 665.795 177.109C666.17 175.516 666.357 173.518 666.357 171.115C666.357 168.76 666.176 166.791 665.812 165.209C665.449 163.615 664.863 162.42 664.055 161.623C663.246 160.814 662.168 160.41 660.82 160.41C659.473 160.41 658.395 160.814 657.586 161.623C656.777 162.42 656.191 163.615 655.828 165.209C655.477 166.791 655.301 168.76 655.301 171.115ZM689.912 171.115C689.912 173.201 689.754 175.064 689.438 176.705C689.121 178.346 688.623 179.734 687.943 180.871C687.264 182.008 686.385 182.875 685.307 183.473C684.229 184.059 682.934 184.352 681.422 184.352C679.512 184.352 677.93 183.83 676.676 182.787C675.434 181.744 674.502 180.238 673.881 178.27C673.271 176.289 672.967 173.904 672.967 171.115C672.967 168.373 673.242 166.018 673.793 164.049C674.355 162.068 675.258 160.551 676.5 159.496C677.742 158.43 679.383 157.896 681.422 157.896C683.355 157.896 684.949 158.424 686.203 159.479C687.457 160.521 688.389 162.033 688.998 164.014C689.607 165.982 689.912 168.35 689.912 171.115ZM675.902 171.115C675.902 173.506 676.084 175.498 676.447 177.092C676.811 178.686 677.396 179.881 678.205 180.678C679.025 181.463 680.098 181.855 681.422 181.855C682.746 181.855 683.812 181.463 684.621 180.678C685.441 179.893 686.033 178.703 686.396 177.109C686.771 175.516 686.959 173.518 686.959 171.115C686.959 168.76 686.777 166.791 686.414 165.209C686.051 163.615 685.465 162.42 684.656 161.623C683.848 160.814 682.77 160.41 681.422 160.41C680.074 160.41 678.996 160.814 678.188 161.623C677.379 162.42 676.793 163.615 676.43 165.209C676.078 166.791 675.902 168.76 675.902 171.115ZM719.865 171.115C719.865 173.201 719.707 175.064 719.391 176.705C719.074 178.346 718.576 179.734 717.896 180.871C717.217 182.008 716.338 182.875 715.26 183.473C714.182 184.059 712.887 184.352 711.375 184.352C709.465 184.352 707.883 183.83 706.629 182.787C705.387 181.744 704.455 180.238 703.834 178.27C703.225 176.289 702.92 173.904 702.92 171.115C702.92 168.373 703.195 166.018 703.746 164.049C704.309 162.068 705.211 160.551 706.453 159.496C707.695 158.43 709.336 157.896 711.375 157.896C713.309 157.896 714.902 158.424 716.156 159.479C717.41 160.521 718.342 162.033 718.951 164.014C719.561 165.982 719.865 168.35 719.865 171.115ZM705.855 171.115C705.855 173.506 706.037 175.498 706.4 177.092C706.764 178.686 707.35 179.881 708.158 180.678C708.979 181.463 710.051 181.855 711.375 181.855C712.699 181.855 713.766 181.463 714.574 180.678C715.395 179.893 715.986 178.703 716.35 177.109C716.725 175.516 716.912 173.518 716.912 171.115C716.912 168.76 716.73 166.791 716.367 165.209C716.004 163.615 715.418 162.42 714.609 161.623C713.801 160.814 712.723 160.41 711.375 160.41C710.027 160.41 708.949 160.814 708.141 161.623C707.332 162.42 706.746 163.615 706.383 165.209C706.031 166.791 705.855 168.76 705.855 171.115ZM740.467 171.115C740.467 173.201 740.309 175.064 739.992 176.705C739.676 178.346 739.178 179.734 738.498 180.871C737.818 182.008 736.939 182.875 735.861 183.473C734.783 184.059 733.488 184.352 731.977 184.352C730.066 184.352 728.484 183.83 727.23 182.787C725.988 181.744 725.057 180.238 724.436 178.27C723.826 176.289 723.521 173.904 723.521 171.115C723.521 168.373 723.797 166.018 724.348 164.049C724.91 162.068 725.812 160.551 727.055 159.496C728.297 158.43 729.938 157.896 731.977 157.896C733.91 157.896 735.504 158.424 736.758 159.479C738.012 160.521 738.943 162.033 739.553 164.014C740.162 165.982 740.467 168.35 740.467 171.115ZM726.457 171.115C726.457 173.506 726.639 175.498 727.002 177.092C727.365 178.686 727.951 179.881 728.76 180.678C729.58 181.463 730.652 181.855 731.977 181.855C733.301 181.855 734.367 181.463 735.176 180.678C735.996 179.893 736.588 178.703 736.951 177.109C737.326 175.516 737.514 173.518 737.514 171.115C737.514 168.76 737.332 166.791 736.969 165.209C736.605 163.615 736.02 162.42 735.211 161.623C734.402 160.814 733.324 160.41 731.977 160.41C730.629 160.41 729.551 160.814 728.742 161.623C727.934 162.42 727.348 163.615 726.984 165.209C726.633 166.791 726.457 168.76 726.457 171.115ZM761.068 171.115C761.068 173.201 760.91 175.064 760.594 176.705C760.277 178.346 759.779 179.734 759.1 180.871C758.42 182.008 757.541 182.875 756.463 183.473C755.385 184.059 754.09 184.352 752.578 184.352C750.668 184.352 749.086 183.83 747.832 182.787C746.59 181.744 745.658 180.238 745.037 178.27C744.428 176.289 744.123 173.904 744.123 171.115C744.123 168.373 744.398 166.018 744.949 164.049C745.512 162.068 746.414 160.551 747.656 159.496C748.898 158.43 750.539 157.896 752.578 157.896C754.512 157.896 756.105 158.424 757.359 159.479C758.613 160.521 759.545 162.033 760.154 164.014C760.764 165.982 761.068 168.35 761.068 171.115ZM747.059 171.115C747.059 173.506 747.24 175.498 747.604 177.092C747.967 178.686 748.553 179.881 749.361 180.678C750.182 181.463 751.254 181.855 752.578 181.855C753.902 181.855 754.969 181.463 755.777 180.678C756.598 179.893 757.189 178.703 757.553 177.109C757.928 175.516 758.115 173.518 758.115 171.115C758.115 168.76 757.934 166.791 757.57 165.209C757.207 163.615 756.621 162.42 755.812 161.623C755.004 160.814 753.926 160.41 752.578 160.41C751.23 160.41 750.152 160.814 749.344 161.623C748.535 162.42 747.949 163.615 747.586 165.209C747.234 166.791 747.059 168.76 747.059 171.115Z" fill="#186C31"/>
</svg>
