<svg width="512" height="512" viewBox="0 0 512 512" fill="none" xmlns="http://www.w3.org/2000/svg">
<g clip-path="url(#clip0_1072_2810)">
<path fill-rule="evenodd" clip-rule="evenodd" d="M446 268H268V446H446V268ZM345 321C345 314.373 350.373 309 357 309C363.627 309 369 314.373 369 321C369 327.627 363.627 333 357 333C350.373 333 345 327.627 345 321ZM307 357C307 350.373 312.373 345 319 345H395C401.627 345 407 350.373 407 357C407 363.627 401.627 369 395 369H319C312.373 369 307 363.627 307 357ZM357 381C350.373 381 345 386.373 345 393C345 399.627 350.373 405 357 405C363.627 405 369 399.627 369 393C369 386.373 363.627 381 357 381Z" fill="#378648"/>
</g>
<g clip-path="url(#clip1_1072_2810)">
<path fill-rule="evenodd" clip-rule="evenodd" d="M244 268H66V446H244V268ZM130.368 317.152C126.166 312.949 119.354 312.949 115.152 317.152C110.949 321.354 110.949 328.166 115.152 332.368L140.168 357.385L115.152 382.401C110.949 386.604 110.949 393.416 115.152 397.618C119.354 401.82 126.166 401.82 130.368 397.618L155.385 372.602L180.402 397.618C184.604 401.82 191.416 401.82 195.618 397.618C199.821 393.416 199.821 386.604 195.618 382.401L170.602 357.385L195.618 332.369C199.821 328.166 199.821 321.354 195.618 317.152C191.416 312.95 184.604 312.95 180.402 317.152L155.385 342.168L130.368 317.152Z" fill="#378648"/>
</g>
<g clip-path="url(#clip2_1072_2810)">
<path fill-rule="evenodd" clip-rule="evenodd" d="M446 66H268V244H446V66ZM319 143C312.373 143 307 148.373 307 155C307 161.627 312.373 167 319 167H395C401.627 167 407 161.627 407 155C407 148.373 401.627 143 395 143H319Z" fill="#378648"/>
</g>
<g clip-path="url(#clip3_1072_2810)">
<path fill-rule="evenodd" clip-rule="evenodd" d="M244 66H66V244H244V66ZM167 117C167 110.373 161.627 105 155 105C148.373 105 143 110.373 143 117V143H117C110.373 143 105 148.373 105 155C105 161.627 110.373 167 117 167H143V193C143 199.627 148.373 205 155 205C161.627 205 167 199.627 167 193V167H193C199.627 167 205 161.627 205 155C205 148.373 199.627 143 193 143H167V117Z" fill="#378648"/>
</g>
<defs>
<clipPath id="clip0_1072_2810">
<rect x="269" y="269" width="176" height="176" rx="88" fill="white"/>
</clipPath>
<clipPath id="clip1_1072_2810">
<rect x="67" y="269" width="176" height="176" rx="88" fill="white"/>
</clipPath>
<clipPath id="clip2_1072_2810">
<rect x="269" y="67" width="176" height="176" rx="88" fill="white"/>
</clipPath>
<clipPath id="clip3_1072_2810">
<rect x="67" y="67" width="176" height="176" rx="88" fill="white"/>
</clipPath>
</defs>
</svg>
