<svg viewBox="0 0 1024 147" fill="none" xmlns="http://www.w3.org/2000/svg">
        <g clip-path="url(#clip0_651_1920)">
          <path
            d="M371.195 10.6484V24.8516C371.195 25.3203 371.178 25.8945 371.143 26.5742C371.107 27.2422 371.078 27.834 371.055 28.3496H371.178C371.424 28.0449 371.781 27.5937 372.25 26.9961C372.73 26.3984 373.135 25.918 373.463 25.5547L379.861 18.7344H383.289L375.537 26.9609L383.852 38H380.336L373.533 28.877L371.195 31.0215V38H368.295V10.6484H371.195ZM390.127 18.7344V38H387.209V18.7344H390.127ZM388.703 11.5273C389.184 11.5273 389.594 11.6855 389.934 12.002C390.285 12.3066 390.461 12.7871 390.461 13.4434C390.461 14.0879 390.285 14.5684 389.934 14.8848C389.594 15.2012 389.184 15.3594 388.703 15.3594C388.199 15.3594 387.777 15.2012 387.438 14.8848C387.109 14.5684 386.945 14.0879 386.945 13.4434C386.945 12.7871 387.109 12.3066 387.438 12.002C387.777 11.6855 388.199 11.5273 388.703 11.5273ZM399.25 38H396.314V10.6484H399.25V38ZM422.031 28.332C422.031 29.9141 421.826 31.3262 421.416 32.5684C421.006 33.8105 420.414 34.8594 419.641 35.7148C418.867 36.5703 417.93 37.2266 416.828 37.6836C415.738 38.1289 414.502 38.3516 413.119 38.3516C411.83 38.3516 410.646 38.1289 409.568 37.6836C408.502 37.2266 407.576 36.5703 406.791 35.7148C406.018 34.8594 405.414 33.8105 404.98 32.5684C404.559 31.3262 404.348 29.9141 404.348 28.332C404.348 26.2227 404.705 24.4297 405.42 22.9531C406.135 21.4648 407.154 20.334 408.479 19.5605C409.814 18.7754 411.402 18.3828 413.242 18.3828C415 18.3828 416.535 18.7754 417.848 19.5605C419.172 20.3457 420.197 21.4824 420.924 22.9707C421.662 24.4473 422.031 26.2344 422.031 28.332ZM407.371 28.332C407.371 29.8789 407.576 31.2207 407.986 32.3574C408.396 33.4941 409.029 34.373 409.885 34.9941C410.74 35.6152 411.842 35.9258 413.189 35.9258C414.525 35.9258 415.621 35.6152 416.477 34.9941C417.344 34.373 417.982 33.4941 418.393 32.3574C418.803 31.2207 419.008 29.8789 419.008 28.332C419.008 26.7969 418.803 25.4727 418.393 24.3594C417.982 23.2344 417.35 22.3672 416.494 21.7578C415.639 21.1484 414.531 20.8437 413.172 20.8437C411.168 20.8437 409.697 21.5059 408.76 22.8301C407.834 24.1543 407.371 25.9883 407.371 28.332ZM370.809 59.6484V73.8516C370.809 74.3203 370.791 74.8945 370.756 75.5742C370.721 76.2422 370.691 76.834 370.668 77.3496H370.791C371.037 77.0449 371.395 76.5937 371.863 75.9961C372.344 75.3984 372.748 74.918 373.076 74.5547L379.475 67.7344H382.902L375.15 75.9609L383.465 87H379.949L373.146 77.877L370.809 80.0215V87H367.908V59.6484H370.809ZM389.74 67.7344V87H386.822V67.7344H389.74ZM388.316 60.5273C388.797 60.5273 389.207 60.6855 389.547 61.002C389.898 61.3066 390.074 61.7871 390.074 62.4434C390.074 63.0879 389.898 63.5684 389.547 63.8848C389.207 64.2012 388.797 64.3594 388.316 64.3594C387.812 64.3594 387.391 64.2012 387.051 63.8848C386.723 63.5684 386.559 63.0879 386.559 62.4434C386.559 61.7871 386.723 61.3066 387.051 61.002C387.391 60.6855 387.812 60.5273 388.316 60.5273ZM398.846 59.6484V66.4863C398.846 67.2715 398.822 68.0332 398.775 68.7715C398.74 69.5098 398.711 70.084 398.688 70.4941H398.846C399.373 69.627 400.135 68.8945 401.131 68.2969C402.127 67.6992 403.398 67.4004 404.945 67.4004C407.359 67.4004 409.281 68.2383 410.711 69.9141C412.152 71.5781 412.873 74.0566 412.873 77.3496C412.873 79.5176 412.545 81.3457 411.889 82.834C411.232 84.3223 410.307 85.4473 409.111 86.209C407.916 86.9707 406.504 87.3516 404.875 87.3516C403.352 87.3516 402.098 87.0703 401.113 86.5078C400.141 85.9336 399.391 85.2363 398.863 84.416H398.635L398.037 87H395.928V59.6484H398.846ZM404.471 69.8437C403.076 69.8437 401.969 70.1191 401.148 70.6699C400.328 71.209 399.736 72.0293 399.373 73.1309C399.021 74.2207 398.846 75.6035 398.846 77.2793V77.4375C398.846 79.8633 399.25 81.7207 400.059 83.0098C400.867 84.2871 402.338 84.9258 404.471 84.9258C406.264 84.9258 407.605 84.2695 408.496 82.957C409.398 81.6445 409.85 79.7695 409.85 77.332C409.85 74.8477 409.404 72.9785 408.514 71.7246C407.635 70.4707 406.287 69.8437 404.471 69.8437ZM420.889 67.7344V87H417.971V67.7344H420.889ZM419.465 60.5273C419.945 60.5273 420.355 60.6855 420.695 61.002C421.047 61.3066 421.223 61.7871 421.223 62.4434C421.223 63.0879 421.047 63.5684 420.695 63.8848C420.355 64.2012 419.945 64.3594 419.465 64.3594C418.961 64.3594 418.539 64.2012 418.199 63.8848C417.871 63.5684 417.707 63.0879 417.707 62.4434C417.707 61.7871 417.871 61.3066 418.199 61.002C418.539 60.6855 418.961 60.5273 419.465 60.5273ZM354.9 116.383C357.021 116.383 358.621 116.939 359.699 118.053C360.777 119.154 361.316 120.93 361.316 123.379V136H358.434V123.52C358.434 121.961 358.094 120.795 357.414 120.021C356.746 119.236 355.75 118.844 354.426 118.844C352.562 118.844 351.209 119.383 350.365 120.461C349.521 121.539 349.1 123.127 349.1 125.225V136H346.199V123.52C346.199 122.477 346.047 121.609 345.742 120.918C345.449 120.227 345.004 119.711 344.406 119.371C343.82 119.02 343.076 118.844 342.174 118.844C340.896 118.844 339.871 119.107 339.098 119.635C338.324 120.162 337.762 120.947 337.41 121.99C337.07 123.021 336.9 124.293 336.9 125.805V136H333.982V116.734H336.338L336.777 119.459H336.936C337.322 118.791 337.809 118.229 338.395 117.771C338.98 117.314 339.637 116.969 340.363 116.734C341.09 116.5 341.863 116.383 342.684 116.383C344.148 116.383 345.373 116.658 346.357 117.209C347.354 117.748 348.074 118.574 348.52 119.687H348.678C349.311 118.574 350.178 117.748 351.279 117.209C352.381 116.658 353.588 116.383 354.9 116.383ZM374.729 116.383C376.369 116.383 377.775 116.746 378.947 117.473C380.119 118.199 381.016 119.219 381.637 120.531C382.258 121.832 382.568 123.355 382.568 125.102V126.912H369.262C369.297 129.174 369.859 130.896 370.949 132.08C372.039 133.264 373.574 133.855 375.555 133.855C376.773 133.855 377.852 133.744 378.789 133.521C379.727 133.299 380.699 132.971 381.707 132.537V135.104C380.734 135.537 379.768 135.854 378.807 136.053C377.857 136.252 376.732 136.352 375.432 136.352C373.58 136.352 371.963 135.977 370.58 135.227C369.209 134.465 368.143 133.352 367.381 131.887C366.619 130.422 366.238 128.629 366.238 126.508C366.238 124.434 366.584 122.641 367.275 121.129C367.979 119.605 368.963 118.434 370.229 117.613C371.506 116.793 373.006 116.383 374.729 116.383ZM374.693 118.773C373.135 118.773 371.893 119.283 370.967 120.303C370.041 121.322 369.49 122.746 369.314 124.574H379.51C379.498 123.426 379.316 122.418 378.965 121.551C378.625 120.672 378.104 119.992 377.4 119.512C376.697 119.02 375.795 118.773 374.693 118.773ZM392.904 144.648C390.373 144.648 388.422 144.174 387.051 143.225C385.68 142.287 384.994 140.969 384.994 139.27C384.994 138.062 385.375 137.031 386.137 136.176C386.91 135.32 387.977 134.752 389.336 134.471C388.832 134.236 388.398 133.885 388.035 133.416C387.684 132.947 387.508 132.408 387.508 131.799C387.508 131.096 387.701 130.48 388.088 129.953C388.486 129.414 389.09 128.898 389.898 128.406C388.891 127.996 388.07 127.305 387.438 126.332C386.816 125.348 386.506 124.205 386.506 122.904C386.506 121.521 386.793 120.344 387.367 119.371C387.941 118.387 388.773 117.637 389.863 117.121C390.953 116.605 392.271 116.348 393.818 116.348C394.158 116.348 394.498 116.365 394.838 116.4C395.189 116.424 395.523 116.465 395.84 116.523C396.156 116.57 396.432 116.629 396.666 116.699H403.275V118.58L399.725 119.02C400.076 119.477 400.369 120.027 400.604 120.672C400.838 121.316 400.955 122.031 400.955 122.816C400.955 124.738 400.305 126.268 399.004 127.404C397.703 128.529 395.916 129.092 393.643 129.092C393.104 129.092 392.553 129.045 391.99 128.951C391.416 129.268 390.977 129.619 390.672 130.006C390.379 130.393 390.232 130.838 390.232 131.342C390.232 131.717 390.344 132.016 390.566 132.238C390.801 132.461 391.135 132.625 391.568 132.73C392.002 132.824 392.523 132.871 393.133 132.871H396.525C398.623 132.871 400.229 133.311 401.342 134.189C402.467 135.068 403.029 136.352 403.029 138.039C403.029 140.172 402.162 141.807 400.428 142.943C398.693 144.08 396.186 144.648 392.904 144.648ZM392.992 142.363C394.586 142.363 395.904 142.199 396.947 141.871C398.002 141.555 398.787 141.092 399.303 140.482C399.83 139.885 400.094 139.17 400.094 138.338C400.094 137.564 399.918 136.979 399.566 136.58C399.215 136.193 398.699 135.936 398.02 135.807C397.34 135.666 396.508 135.596 395.523 135.596H392.184C391.316 135.596 390.561 135.73 389.916 136C389.271 136.27 388.773 136.668 388.422 137.195C388.082 137.723 387.912 138.379 387.912 139.164C387.912 140.207 388.352 140.998 389.23 141.537C390.109 142.088 391.363 142.363 392.992 142.363ZM393.748 126.965C395.143 126.965 396.191 126.613 396.895 125.91C397.598 125.207 397.949 124.182 397.949 122.834C397.949 121.393 397.592 120.314 396.877 119.6C396.162 118.873 395.107 118.51 393.713 118.51C392.377 118.51 391.346 118.885 390.619 119.635C389.904 120.373 389.547 121.457 389.547 122.887C389.547 124.199 389.91 125.207 390.637 125.91C391.363 126.613 392.4 126.965 393.748 126.965ZM414.279 116.418C416.576 116.418 418.281 116.934 419.395 117.965C420.508 118.996 421.064 120.643 421.064 122.904V136H418.938L418.375 133.152H418.234C417.695 133.855 417.133 134.447 416.547 134.928C415.961 135.396 415.281 135.754 414.508 136C413.746 136.234 412.809 136.352 411.695 136.352C410.523 136.352 409.48 136.146 408.566 135.736C407.664 135.326 406.949 134.705 406.422 133.873C405.906 133.041 405.648 131.986 405.648 130.709C405.648 128.787 406.41 127.311 407.934 126.279C409.457 125.248 411.777 124.686 414.895 124.592L418.217 124.451V123.273C418.217 121.609 417.859 120.443 417.145 119.775C416.43 119.107 415.422 118.773 414.121 118.773C413.113 118.773 412.152 118.92 411.238 119.213C410.324 119.506 409.457 119.852 408.637 120.25L407.74 118.035C408.607 117.59 409.604 117.209 410.729 116.893C411.854 116.576 413.037 116.418 414.279 116.418ZM418.182 126.508L415.246 126.631C412.844 126.725 411.15 127.117 410.166 127.809C409.182 128.5 408.689 129.479 408.689 130.744C408.689 131.846 409.023 132.66 409.691 133.187C410.359 133.715 411.244 133.979 412.346 133.979C414.057 133.979 415.457 133.504 416.547 132.555C417.637 131.605 418.182 130.182 418.182 128.283V126.508Z"
            fill="#186C31" />
          <line x1="512.5" y1="22.5" x2="512.5" y2="124.5" stroke="#186C31" />
          <path
            d="M612.639 38H609.791V19.7891C609.791 19.0977 609.791 18.5059 609.791 18.0137C609.803 17.5098 609.814 17.0527 609.826 16.6426C609.85 16.2207 609.879 15.793 609.914 15.3594C609.551 15.7344 609.211 16.0566 608.895 16.3262C608.578 16.584 608.186 16.9062 607.717 17.293L604.781 19.6484L603.252 17.6621L610.213 12.3008H612.639V38ZM648.709 25.1152C648.709 27.2012 648.551 29.0645 648.234 30.7051C647.918 32.3457 647.42 33.7344 646.74 34.8711C646.061 36.0078 645.182 36.875 644.104 37.4727C643.025 38.0586 641.73 38.3516 640.219 38.3516C638.309 38.3516 636.727 37.8301 635.473 36.7871C634.23 35.7441 633.299 34.2383 632.678 32.2695C632.068 30.2891 631.764 27.9043 631.764 25.1152C631.764 22.373 632.039 20.0176 632.59 18.0488C633.152 16.0684 634.055 14.5508 635.297 13.4961C636.539 12.4297 638.18 11.8965 640.219 11.8965C642.152 11.8965 643.746 12.4238 645 13.4785C646.254 14.5215 647.186 16.0332 647.795 18.0137C648.404 19.9824 648.709 22.3496 648.709 25.1152ZM634.699 25.1152C634.699 27.5059 634.881 29.498 635.244 31.0918C635.607 32.6855 636.193 33.8809 637.002 34.6777C637.822 35.4629 638.895 35.8555 640.219 35.8555C641.543 35.8555 642.609 35.4629 643.418 34.6777C644.238 33.8926 644.83 32.7031 645.193 31.1094C645.568 29.5156 645.756 27.5176 645.756 25.1152C645.756 22.7598 645.574 20.791 645.211 19.209C644.848 17.6152 644.262 16.4199 643.453 15.623C642.645 14.8145 641.566 14.4102 640.219 14.4102C638.871 14.4102 637.793 14.8145 636.984 15.623C636.176 16.4199 635.59 17.6152 635.227 19.209C634.875 20.791 634.699 22.7598 634.699 25.1152ZM669.311 25.1152C669.311 27.2012 669.152 29.0645 668.836 30.7051C668.52 32.3457 668.021 33.7344 667.342 34.8711C666.662 36.0078 665.783 36.875 664.705 37.4727C663.627 38.0586 662.332 38.3516 660.82 38.3516C658.91 38.3516 657.328 37.8301 656.074 36.7871C654.832 35.7441 653.9 34.2383 653.279 32.2695C652.67 30.2891 652.365 27.9043 652.365 25.1152C652.365 22.373 652.641 20.0176 653.191 18.0488C653.754 16.0684 654.656 14.5508 655.898 13.4961C657.141 12.4297 658.781 11.8965 660.82 11.8965C662.754 11.8965 664.348 12.4238 665.602 13.4785C666.855 14.5215 667.787 16.0332 668.396 18.0137C669.006 19.9824 669.311 22.3496 669.311 25.1152ZM655.301 25.1152C655.301 27.5059 655.482 29.498 655.846 31.0918C656.209 32.6855 656.795 33.8809 657.604 34.6777C658.424 35.4629 659.496 35.8555 660.82 35.8555C662.145 35.8555 663.211 35.4629 664.02 34.6777C664.84 33.8926 665.432 32.7031 665.795 31.1094C666.17 29.5156 666.357 27.5176 666.357 25.1152C666.357 22.7598 666.176 20.791 665.812 19.209C665.449 17.6152 664.863 16.4199 664.055 15.623C663.246 14.8145 662.168 14.4102 660.82 14.4102C659.473 14.4102 658.395 14.8145 657.586 15.623C656.777 16.4199 656.191 17.6152 655.828 19.209C655.477 20.791 655.301 22.7598 655.301 25.1152ZM689.912 25.1152C689.912 27.2012 689.754 29.0645 689.438 30.7051C689.121 32.3457 688.623 33.7344 687.943 34.8711C687.264 36.0078 686.385 36.875 685.307 37.4727C684.229 38.0586 682.934 38.3516 681.422 38.3516C679.512 38.3516 677.93 37.8301 676.676 36.7871C675.434 35.7441 674.502 34.2383 673.881 32.2695C673.271 30.2891 672.967 27.9043 672.967 25.1152C672.967 22.373 673.242 20.0176 673.793 18.0488C674.355 16.0684 675.258 14.5508 676.5 13.4961C677.742 12.4297 679.383 11.8965 681.422 11.8965C683.355 11.8965 684.949 12.4238 686.203 13.4785C687.457 14.5215 688.389 16.0332 688.998 18.0137C689.607 19.9824 689.912 22.3496 689.912 25.1152ZM675.902 25.1152C675.902 27.5059 676.084 29.498 676.447 31.0918C676.811 32.6855 677.396 33.8809 678.205 34.6777C679.025 35.4629 680.098 35.8555 681.422 35.8555C682.746 35.8555 683.812 35.4629 684.621 34.6777C685.441 33.8926 686.033 32.7031 686.396 31.1094C686.771 29.5156 686.959 27.5176 686.959 25.1152C686.959 22.7598 686.777 20.791 686.414 19.209C686.051 17.6152 685.465 16.4199 684.656 15.623C683.848 14.8145 682.77 14.4102 681.422 14.4102C680.074 14.4102 678.996 14.8145 678.188 15.623C677.379 16.4199 676.793 17.6152 676.43 19.209C676.078 20.791 675.902 22.7598 675.902 25.1152ZM612.639 87H609.791V68.7891C609.791 68.0977 609.791 67.5059 609.791 67.0137C609.803 66.5098 609.814 66.0527 609.826 65.6426C609.85 65.2207 609.879 64.793 609.914 64.3594C609.551 64.7344 609.211 65.0566 608.895 65.3262C608.578 65.584 608.186 65.9062 607.717 66.293L604.781 68.6484L603.252 66.6621L610.213 61.3008H612.639V87ZM648.709 74.1152C648.709 76.2012 648.551 78.0645 648.234 79.7051C647.918 81.3457 647.42 82.7344 646.74 83.8711C646.061 85.0078 645.182 85.875 644.104 86.4727C643.025 87.0586 641.73 87.3516 640.219 87.3516C638.309 87.3516 636.727 86.8301 635.473 85.7871C634.23 84.7441 633.299 83.2383 632.678 81.2695C632.068 79.2891 631.764 76.9043 631.764 74.1152C631.764 71.373 632.039 69.0176 632.59 67.0488C633.152 65.0684 634.055 63.5508 635.297 62.4961C636.539 61.4297 638.18 60.8965 640.219 60.8965C642.152 60.8965 643.746 61.4238 645 62.4785C646.254 63.5215 647.186 65.0332 647.795 67.0137C648.404 68.9824 648.709 71.3496 648.709 74.1152ZM634.699 74.1152C634.699 76.5059 634.881 78.498 635.244 80.0918C635.607 81.6855 636.193 82.8809 637.002 83.6777C637.822 84.4629 638.895 84.8555 640.219 84.8555C641.543 84.8555 642.609 84.4629 643.418 83.6777C644.238 82.8926 644.83 81.7031 645.193 80.1094C645.568 78.5156 645.756 76.5176 645.756 74.1152C645.756 71.7598 645.574 69.791 645.211 68.209C644.848 66.6152 644.262 65.4199 643.453 64.623C642.645 63.8145 641.566 63.4102 640.219 63.4102C638.871 63.4102 637.793 63.8145 636.984 64.623C636.176 65.4199 635.59 66.6152 635.227 68.209C634.875 69.791 634.699 71.7598 634.699 74.1152ZM669.17 87H652.33V84.5566L659.203 77.5781C660.48 76.2891 661.553 75.1406 662.42 74.1328C663.299 73.125 663.967 72.1348 664.424 71.1621C664.881 70.1777 665.109 69.0996 665.109 67.9277C665.109 66.4746 664.676 65.3672 663.809 64.6055C662.953 63.832 661.822 63.4453 660.416 63.4453C659.186 63.4453 658.096 63.6562 657.146 64.0781C656.197 64.5 655.225 65.0977 654.229 65.8711L652.664 63.9023C653.344 63.3281 654.082 62.8184 654.879 62.373C655.688 61.9277 656.549 61.5762 657.463 61.3184C658.389 61.0605 659.373 60.9316 660.416 60.9316C661.998 60.9316 663.363 61.207 664.512 61.7578C665.66 62.3086 666.545 63.0937 667.166 64.1133C667.799 65.1328 668.115 66.3457 668.115 67.752C668.115 69.1113 667.846 70.377 667.307 71.5488C666.768 72.709 666.012 73.8633 665.039 75.0117C664.066 76.1484 662.93 77.3555 661.629 78.6328L656.039 84.2051V84.3281H669.17V87ZM691.055 81.041H687.205V87H684.357V81.041H671.93V78.5801L684.164 61.1602H687.205V78.4043H691.055V81.041ZM684.357 78.4043V70.002C684.357 69.3574 684.363 68.7773 684.375 68.2617C684.387 67.7344 684.404 67.248 684.428 66.8027C684.451 66.3457 684.469 65.9121 684.48 65.502C684.504 65.0918 684.521 64.6875 684.533 64.2891H684.393C684.17 64.7578 683.912 65.2559 683.619 65.7832C683.338 66.2988 683.051 66.7617 682.758 67.1719L674.83 78.4043H684.357ZM612.639 136H609.791V117.789C609.791 117.098 609.791 116.506 609.791 116.014C609.803 115.51 609.814 115.053 609.826 114.643C609.85 114.221 609.879 113.793 609.914 113.359C609.551 113.734 609.211 114.057 608.895 114.326C608.578 114.584 608.186 114.906 607.717 115.293L604.781 117.648L603.252 115.662L610.213 110.301H612.639V136ZM648.709 123.115C648.709 125.201 648.551 127.064 648.234 128.705C647.918 130.346 647.42 131.734 646.74 132.871C646.061 134.008 645.182 134.875 644.104 135.473C643.025 136.059 641.73 136.352 640.219 136.352C638.309 136.352 636.727 135.83 635.473 134.787C634.23 133.744 633.299 132.238 632.678 130.27C632.068 128.289 631.764 125.904 631.764 123.115C631.764 120.373 632.039 118.018 632.59 116.049C633.152 114.068 634.055 112.551 635.297 111.496C636.539 110.43 638.18 109.896 640.219 109.896C642.152 109.896 643.746 110.424 645 111.479C646.254 112.521 647.186 114.033 647.795 116.014C648.404 117.982 648.709 120.35 648.709 123.115ZM634.699 123.115C634.699 125.506 634.881 127.498 635.244 129.092C635.607 130.686 636.193 131.881 637.002 132.678C637.822 133.463 638.895 133.855 640.219 133.855C641.543 133.855 642.609 133.463 643.418 132.678C644.238 131.893 644.83 130.703 645.193 129.109C645.568 127.516 645.756 125.518 645.756 123.115C645.756 120.76 645.574 118.791 645.211 117.209C644.848 115.615 644.262 114.42 643.453 113.623C642.645 112.814 641.566 112.41 640.219 112.41C638.871 112.41 637.793 112.814 636.984 113.623C636.176 114.42 635.59 115.615 635.227 117.209C634.875 118.791 634.699 120.76 634.699 123.115ZM669.311 123.115C669.311 125.201 669.152 127.064 668.836 128.705C668.52 130.346 668.021 131.734 667.342 132.871C666.662 134.008 665.783 134.875 664.705 135.473C663.627 136.059 662.332 136.352 660.82 136.352C658.91 136.352 657.328 135.83 656.074 134.787C654.832 133.744 653.9 132.238 653.279 130.27C652.67 128.289 652.365 125.904 652.365 123.115C652.365 120.373 652.641 118.018 653.191 116.049C653.754 114.068 654.656 112.551 655.898 111.496C657.141 110.43 658.781 109.896 660.82 109.896C662.754 109.896 664.348 110.424 665.602 111.479C666.855 112.521 667.787 114.033 668.396 116.014C669.006 117.982 669.311 120.35 669.311 123.115ZM655.301 123.115C655.301 125.506 655.482 127.498 655.846 129.092C656.209 130.686 656.795 131.881 657.604 132.678C658.424 133.463 659.496 133.855 660.82 133.855C662.145 133.855 663.211 133.463 664.02 132.678C664.84 131.893 665.432 130.703 665.795 129.109C666.17 127.516 666.357 125.518 666.357 123.115C666.357 120.76 666.176 118.791 665.812 117.209C665.449 115.615 664.863 114.42 664.055 113.623C663.246 112.814 662.168 112.41 660.82 112.41C659.473 112.41 658.395 112.814 657.586 113.623C656.777 114.42 656.191 115.615 655.828 117.209C655.477 118.791 655.301 120.76 655.301 123.115ZM689.912 123.115C689.912 125.201 689.754 127.064 689.438 128.705C689.121 130.346 688.623 131.734 687.943 132.871C687.264 134.008 686.385 134.875 685.307 135.473C684.229 136.059 682.934 136.352 681.422 136.352C679.512 136.352 677.93 135.83 676.676 134.787C675.434 133.744 674.502 132.238 673.881 130.27C673.271 128.289 672.967 125.904 672.967 123.115C672.967 120.373 673.242 118.018 673.793 116.049C674.355 114.068 675.258 112.551 676.5 111.496C677.742 110.43 679.383 109.896 681.422 109.896C683.355 109.896 684.949 110.424 686.203 111.479C687.457 112.521 688.389 114.033 688.998 116.014C689.607 117.982 689.912 120.35 689.912 123.115ZM675.902 123.115C675.902 125.506 676.084 127.498 676.447 129.092C676.811 130.686 677.396 131.881 678.205 132.678C679.025 133.463 680.098 133.855 681.422 133.855C682.746 133.855 683.812 133.463 684.621 132.678C685.441 131.893 686.033 130.703 686.396 129.109C686.771 127.516 686.959 125.518 686.959 123.115C686.959 120.76 686.777 118.791 686.414 117.209C686.051 115.615 685.465 114.42 684.656 113.623C683.848 112.814 682.77 112.41 681.422 112.41C680.074 112.41 678.996 112.814 678.188 113.623C677.379 114.42 676.793 115.615 676.43 117.209C676.078 118.791 675.902 120.76 675.902 123.115ZM719.865 123.115C719.865 125.201 719.707 127.064 719.391 128.705C719.074 130.346 718.576 131.734 717.896 132.871C717.217 134.008 716.338 134.875 715.26 135.473C714.182 136.059 712.887 136.352 711.375 136.352C709.465 136.352 707.883 135.83 706.629 134.787C705.387 133.744 704.455 132.238 703.834 130.27C703.225 128.289 702.92 125.904 702.92 123.115C702.92 120.373 703.195 118.018 703.746 116.049C704.309 114.068 705.211 112.551 706.453 111.496C707.695 110.43 709.336 109.896 711.375 109.896C713.309 109.896 714.902 110.424 716.156 111.479C717.41 112.521 718.342 114.033 718.951 116.014C719.561 117.982 719.865 120.35 719.865 123.115ZM705.855 123.115C705.855 125.506 706.037 127.498 706.4 129.092C706.764 130.686 707.35 131.881 708.158 132.678C708.979 133.463 710.051 133.855 711.375 133.855C712.699 133.855 713.766 133.463 714.574 132.678C715.395 131.893 715.986 130.703 716.35 129.109C716.725 127.516 716.912 125.518 716.912 123.115C716.912 120.76 716.73 118.791 716.367 117.209C716.004 115.615 715.418 114.42 714.609 113.623C713.801 112.814 712.723 112.41 711.375 112.41C710.027 112.41 708.949 112.814 708.141 113.623C707.332 114.42 706.746 115.615 706.383 117.209C706.031 118.791 705.855 120.76 705.855 123.115ZM740.467 123.115C740.467 125.201 740.309 127.064 739.992 128.705C739.676 130.346 739.178 131.734 738.498 132.871C737.818 134.008 736.939 134.875 735.861 135.473C734.783 136.059 733.488 136.352 731.977 136.352C730.066 136.352 728.484 135.83 727.23 134.787C725.988 133.744 725.057 132.238 724.436 130.27C723.826 128.289 723.521 125.904 723.521 123.115C723.521 120.373 723.797 118.018 724.348 116.049C724.91 114.068 725.812 112.551 727.055 111.496C728.297 110.43 729.938 109.896 731.977 109.896C733.91 109.896 735.504 110.424 736.758 111.479C738.012 112.521 738.943 114.033 739.553 116.014C740.162 117.982 740.467 120.35 740.467 123.115ZM726.457 123.115C726.457 125.506 726.639 127.498 727.002 129.092C727.365 130.686 727.951 131.881 728.76 132.678C729.58 133.463 730.652 133.855 731.977 133.855C733.301 133.855 734.367 133.463 735.176 132.678C735.996 131.893 736.588 130.703 736.951 129.109C737.326 127.516 737.514 125.518 737.514 123.115C737.514 120.76 737.332 118.791 736.969 117.209C736.605 115.615 736.02 114.42 735.211 113.623C734.402 112.814 733.324 112.41 731.977 112.41C730.629 112.41 729.551 112.814 728.742 113.623C727.934 114.42 727.348 115.615 726.984 117.209C726.633 118.791 726.457 120.76 726.457 123.115ZM761.068 123.115C761.068 125.201 760.91 127.064 760.594 128.705C760.277 130.346 759.779 131.734 759.1 132.871C758.42 134.008 757.541 134.875 756.463 135.473C755.385 136.059 754.09 136.352 752.578 136.352C750.668 136.352 749.086 135.83 747.832 134.787C746.59 133.744 745.658 132.238 745.037 130.27C744.428 128.289 744.123 125.904 744.123 123.115C744.123 120.373 744.398 118.018 744.949 116.049C745.512 114.068 746.414 112.551 747.656 111.496C748.898 110.43 750.539 109.896 752.578 109.896C754.512 109.896 756.105 110.424 757.359 111.479C758.613 112.521 759.545 114.033 760.154 116.014C760.764 117.982 761.068 120.35 761.068 123.115ZM747.059 123.115C747.059 125.506 747.24 127.498 747.604 129.092C747.967 130.686 748.553 131.881 749.361 132.678C750.182 133.463 751.254 133.855 752.578 133.855C753.902 133.855 754.969 133.463 755.777 132.678C756.598 131.893 757.189 130.703 757.553 129.109C757.928 127.516 758.115 125.518 758.115 123.115C758.115 120.76 757.934 118.791 757.57 117.209C757.207 115.615 756.621 114.42 755.812 113.623C755.004 112.814 753.926 112.41 752.578 112.41C751.23 112.41 750.152 112.814 749.344 113.623C748.535 114.42 747.949 115.615 747.586 117.209C747.234 118.791 747.059 120.76 747.059 123.115Z"
            fill="#186C31" />
        </g>
        <defs>
          <clipPath id="clip0_651_1920">
            <rect width="1024" height="147" fill="white" />
          </clipPath>
        </defs>
      </svg>