<svg viewBox="0 0 996 106" fill="none" xmlns="http://www.w3.org/2000/svg">
        <g clip-path="url(#clip0_651_1932)">
          <mask id="mask0_651_1932" style="mask-type:alpha" maskUnits="userSpaceOnUse" x="0" y="0" width="996"
            height="106">
            <rect x="996" width="106" height="996" transform="rotate(90 996 0)" fill="url(#paint0_linear_651_1932)" />
          </mask>
          <g mask="url(#mask0_651_1932)">
            <rect width="207" height="106" rx="24" fill="#0048BA" />
            <path
              d="M36.8672 50L35.1914 45.2422H28.6406L26.9648 50H24L30.375 32.7969H33.4922L39.8555 50H36.8672ZM34.4648 42.8281L32.8359 38.1406C32.7734 37.9375 32.6836 37.6523 32.5664 37.2852C32.4492 36.9102 32.332 36.5312 32.2148 36.1484C32.0977 35.7578 32 35.4297 31.9219 35.1641C31.8438 35.4844 31.7461 35.8438 31.6289 36.2422C31.5195 36.6328 31.4102 37 31.3008 37.3438C31.1992 37.6875 31.1211 37.9531 31.0664 38.1406L29.4258 42.8281H34.4648ZM44.5898 31.7656V36.1602C44.5898 36.668 44.5742 37.168 44.543 37.6602C44.5195 38.1445 44.4961 38.5234 44.4727 38.7969H44.5898C44.9414 38.2344 45.4297 37.7617 46.0547 37.3789C46.6875 36.9883 47.4961 36.793 48.4805 36.793C50.0195 36.793 51.2578 37.3594 52.1953 38.4922C53.1328 39.6172 53.6016 41.2852 53.6016 43.4961C53.6016 44.9648 53.3867 46.1992 52.957 47.1992C52.5273 48.1992 51.9219 48.957 51.1406 49.4727C50.3672 49.9805 49.457 50.2344 48.4102 50.2344C47.4258 50.2344 46.6289 50.0547 46.0195 49.6953C45.418 49.3281 44.9453 48.9023 44.6016 48.418H44.4023L43.8984 50H41.8359V31.7656H44.5898ZM47.7539 39.0312C46.9727 39.0312 46.3516 39.1875 45.8906 39.5C45.4375 39.8125 45.1094 40.2812 44.9062 40.9062C44.7031 41.5234 44.5977 42.3086 44.5898 43.2617V43.5078C44.5898 44.9531 44.8164 46.0586 45.2695 46.8242C45.7305 47.5898 46.5664 47.9727 47.7773 47.9727C48.7383 47.9727 49.4766 47.5859 49.9922 46.8125C50.5078 46.0312 50.7656 44.9141 50.7656 43.4609C50.7656 41.9922 50.5078 40.8867 49.9922 40.1445C49.4844 39.4023 48.7383 39.0312 47.7539 39.0312ZM65.5078 46.2969C65.5078 47.1484 65.3008 47.8672 64.8867 48.4531C64.4727 49.0391 63.8672 49.4844 63.0703 49.7891C62.2812 50.0859 61.3125 50.2344 60.1641 50.2344C59.2578 50.2344 58.4766 50.168 57.8203 50.0352C57.1719 49.9102 56.5586 49.7148 55.9805 49.4492V47.0703C56.5977 47.3594 57.2891 47.6094 58.0547 47.8203C58.8281 48.0312 59.5586 48.1367 60.2461 48.1367C61.1523 48.1367 61.8047 47.9961 62.2031 47.7148C62.6016 47.4258 62.8008 47.043 62.8008 46.5664C62.8008 46.2852 62.7188 46.0352 62.5547 45.8164C62.3984 45.5898 62.1016 45.3594 61.6641 45.125C61.2344 44.8828 60.6016 44.5938 59.7656 44.2578C58.9453 43.9297 58.2539 43.6016 57.6914 43.2734C57.1289 42.9453 56.7031 42.5508 56.4141 42.0898C56.125 41.6211 55.9805 41.0234 55.9805 40.2969C55.9805 39.1484 56.4336 38.2773 57.3398 37.6836C58.2539 37.082 59.4609 36.7812 60.9609 36.7812C61.7578 36.7812 62.5078 36.8633 63.2109 37.0273C63.9219 37.1836 64.6172 37.4141 65.2969 37.7188L64.4297 39.793C63.8438 39.5352 63.2539 39.3242 62.6602 39.1602C62.0742 38.9883 61.4766 38.9023 60.8672 38.9023C60.1562 38.9023 59.6133 39.0117 59.2383 39.2305C58.8711 39.4492 58.6875 39.7617 58.6875 40.168C58.6875 40.4727 58.7773 40.7305 58.957 40.9414C59.1367 41.1523 59.4453 41.3633 59.8828 41.5742C60.3281 41.7852 60.9453 42.0469 61.7344 42.3594C62.5078 42.6562 63.1758 42.9688 63.7383 43.2969C64.3086 43.6172 64.7461 44.0117 65.0508 44.4805C65.3555 44.9492 65.5078 45.5547 65.5078 46.2969ZM79.9688 43.4844C79.9688 44.5625 79.8281 45.5195 79.5469 46.3555C79.2656 47.1914 78.8555 47.8984 78.3164 48.4766C77.7773 49.0469 77.1289 49.4844 76.3711 49.7891C75.6133 50.0859 74.7578 50.2344 73.8047 50.2344C72.9141 50.2344 72.0977 50.0859 71.3555 49.7891C70.6133 49.4844 69.9688 49.0469 69.4219 48.4766C68.8828 47.8984 68.4648 47.1914 68.168 46.3555C67.8711 45.5195 67.7227 44.5625 67.7227 43.4844C67.7227 42.0547 67.9688 40.8438 68.4609 39.8516C68.9609 38.8516 69.6719 38.0898 70.5938 37.5664C71.5156 37.043 72.6133 36.7812 73.8867 36.7812C75.082 36.7812 76.1367 37.043 77.0508 37.5664C77.9648 38.0898 78.6797 38.8516 79.1953 39.8516C79.7109 40.8516 79.9688 42.0625 79.9688 43.4844ZM70.5586 43.4844C70.5586 44.4297 70.6719 45.2383 70.8984 45.9102C71.1328 46.582 71.4922 47.0977 71.9766 47.457C72.4609 47.8086 73.0859 47.9844 73.8516 47.9844C74.6172 47.9844 75.2422 47.8086 75.7266 47.457C76.2109 47.0977 76.5664 46.582 76.793 45.9102C77.0195 45.2383 77.1328 44.4297 77.1328 43.4844C77.1328 42.5391 77.0195 41.7383 76.793 41.082C76.5664 40.418 76.2109 39.9141 75.7266 39.5703C75.2422 39.2188 74.6133 39.043 73.8398 39.043C72.6992 39.043 71.8672 39.4258 71.3438 40.1914C70.8203 40.957 70.5586 42.0547 70.5586 43.4844ZM85.8984 50H83.1328V31.7656H85.8984V50ZM101.145 37.0273V50H98.9766L98.6016 48.2539H98.4492C98.1758 48.6992 97.8281 49.0703 97.4062 49.3672C96.9844 49.6562 96.5156 49.8711 96 50.0117C95.4844 50.1602 94.9414 50.2344 94.3711 50.2344C93.3945 50.2344 92.5586 50.0703 91.8633 49.7422C91.1758 49.4062 90.6484 48.8906 90.2812 48.1953C89.9141 47.5 89.7305 46.6016 89.7305 45.5V37.0273H92.4961V44.9844C92.4961 45.9922 92.6992 46.7461 93.1055 47.2461C93.5195 47.7461 94.1602 47.9961 95.0273 47.9961C95.8633 47.9961 96.5273 47.8242 97.0195 47.4805C97.5117 47.1367 97.8594 46.6289 98.0625 45.957C98.2734 45.2852 98.3789 44.4609 98.3789 43.4844V37.0273H101.145ZM109.922 48.0078C110.281 48.0078 110.637 47.9766 110.988 47.9141C111.34 47.8438 111.66 47.7617 111.949 47.668V49.7539C111.645 49.8867 111.25 50 110.766 50.0938C110.281 50.1875 109.777 50.2344 109.254 50.2344C108.52 50.2344 107.859 50.1133 107.273 49.8711C106.688 49.6211 106.223 49.1953 105.879 48.5938C105.535 47.9922 105.363 47.1602 105.363 46.0977V39.125L103.594 39.125V37.8945L105.492 36.9219L106.395 34.1445H108.129V37.0273H111.844V39.125H108.129V46.0625C108.129 46.7188 108.293 47.207 108.621 47.5273C108.949 47.8477 109.383 48.0078 109.922 48.0078ZM119.754 36.7812C120.91 36.7812 121.902 37.0195 122.73 37.4961C123.559 37.9727 124.195 38.6484 124.641 39.5234C125.086 40.3984 125.309 41.4453 125.309 42.6641V44.1406L116.648 44.1406C116.68 45.3984 117.016 46.3672 117.656 47.0469C118.305 47.7266 119.211 48.0664 120.375 48.0664C121.203 48.0664 121.945 47.9883 122.602 47.832C123.266 47.668 123.949 47.4297 124.652 47.1172V49.3555C124.004 49.6602 123.344 49.8828 122.672 50.0234C122 50.1641 121.195 50.2344 120.258 50.2344C118.984 50.2344 117.863 49.9883 116.895 49.4961C115.934 48.9961 115.18 48.2539 114.633 47.2695C114.094 46.2852 113.824 45.0625 113.824 43.6016C113.824 42.1484 114.07 40.9141 114.562 39.8984C115.055 38.8828 115.746 38.1094 116.637 37.5781C117.527 37.0469 118.566 36.7812 119.754 36.7812ZM119.754 38.8555C118.887 38.8555 118.184 39.1367 117.645 39.6992C117.113 40.2617 116.801 41.0859 116.707 42.1719L122.613 42.1719C122.605 41.5234 122.496 40.9492 122.285 40.4492C122.082 39.9492 121.77 39.5586 121.348 39.2773C120.934 38.9961 120.402 38.8555 119.754 38.8555ZM143.332 50H133.477V48.3008L140.027 39.1484H133.875V37.0273H143.145V38.9023L136.723 47.8789H143.332V50ZM151.301 36.7812C152.457 36.7812 153.449 37.0195 154.277 37.4961C155.105 37.9727 155.742 38.6484 156.188 39.5234C156.633 40.3984 156.855 41.4453 156.855 42.6641V44.1406H148.195C148.227 45.3984 148.562 46.3672 149.203 47.0469C149.852 47.7266 150.758 48.0664 151.922 48.0664C152.75 48.0664 153.492 47.9883 154.148 47.832C154.812 47.668 155.496 47.4297 156.199 47.1172V49.3555C155.551 49.6602 154.891 49.8828 154.219 50.0234C153.547 50.1641 152.742 50.2344 151.805 50.2344C150.531 50.2344 149.41 49.9883 148.441 49.4961C147.48 48.9961 146.727 48.2539 146.18 47.2695C145.641 46.2852 145.371 45.0625 145.371 43.6016C145.371 42.1484 145.617 40.9141 146.109 39.8984C146.602 38.8828 147.293 38.1094 148.184 37.5781C149.074 37.0469 150.113 36.7812 151.301 36.7812ZM151.301 38.8555C150.434 38.8555 149.73 39.1367 149.191 39.6992C148.66 40.2617 148.348 41.0859 148.254 42.1719H154.16C154.152 41.5234 154.043 40.9492 153.832 40.4492C153.629 39.9492 153.316 39.5586 152.895 39.2773C152.48 38.9961 151.949 38.8555 151.301 38.8555ZM166.535 36.7812C166.754 36.7812 166.992 36.793 167.25 36.8164C167.508 36.8398 167.73 36.8711 167.918 36.9102L167.66 39.4883C167.496 39.4414 167.293 39.4062 167.051 39.3828C166.816 39.3594 166.605 39.3477 166.418 39.3477C165.926 39.3477 165.457 39.4297 165.012 39.5937C164.566 39.75 164.172 39.9922 163.828 40.3203C163.484 40.6406 163.215 41.043 163.02 41.5273C162.824 42.0117 162.727 42.5742 162.727 43.2148V50H159.961V37.0273H162.117L162.492 39.3125H162.621C162.879 38.8516 163.199 38.4297 163.582 38.0469C163.965 37.6641 164.402 37.3594 164.895 37.1328C165.395 36.8984 165.941 36.7812 166.535 36.7812ZM181.805 43.4844C181.805 44.5625 181.664 45.5195 181.383 46.3555C181.102 47.1914 180.691 47.8984 180.152 48.4766C179.613 49.0469 178.965 49.4844 178.207 49.7891C177.449 50.0859 176.594 50.2344 175.641 50.2344C174.75 50.2344 173.934 50.0859 173.191 49.7891C172.449 49.4844 171.805 49.0469 171.258 48.4766C170.719 47.8984 170.301 47.1914 170.004 46.3555C169.707 45.5195 169.559 44.5625 169.559 43.4844C169.559 42.0547 169.805 40.8437 170.297 39.8516C170.797 38.8516 171.508 38.0898 172.43 37.5664C173.352 37.043 174.449 36.7812 175.723 36.7812C176.918 36.7812 177.973 37.043 178.887 37.5664C179.801 38.0898 180.516 38.8516 181.031 39.8516C181.547 40.8516 181.805 42.0625 181.805 43.4844ZM172.395 43.4844C172.395 44.4297 172.508 45.2383 172.734 45.9102C172.969 46.582 173.328 47.0977 173.812 47.457C174.297 47.8086 174.922 47.9844 175.688 47.9844C176.453 47.9844 177.078 47.8086 177.562 47.457C178.047 47.0977 178.402 46.582 178.629 45.9102C178.855 45.2383 178.969 44.4297 178.969 43.4844C178.969 42.5391 178.855 41.7383 178.629 41.082C178.402 40.418 178.047 39.9141 177.562 39.5703C177.078 39.2187 176.449 39.043 175.676 39.043C174.535 39.043 173.703 39.4258 173.18 40.1914C172.656 40.957 172.395 42.0547 172.395 43.4844Z"
              fill="white" />
            <path
              d="M28.2197 76H26.1279V63.1504H33.3877V64.9258H28.2197V68.9336H33.0537V70.7002H28.2197V76ZM39.3906 66.0859C40.2578 66.0859 41.002 66.2646 41.623 66.6221C42.2441 66.9795 42.7217 67.4863 43.0557 68.1426C43.3896 68.7988 43.5566 69.584 43.5566 70.498V71.6055H37.0615C37.085 72.5488 37.3369 73.2754 37.8174 73.7852C38.3037 74.2949 38.9834 74.5498 39.8564 74.5498C40.4775 74.5498 41.0342 74.4912 41.5264 74.374C42.0244 74.251 42.5371 74.0723 43.0645 73.8379V75.5166C42.5781 75.7451 42.083 75.9121 41.5791 76.0176C41.0752 76.123 40.4717 76.1758 39.7686 76.1758C38.8135 76.1758 37.9727 75.9912 37.2461 75.6221C36.5254 75.2471 35.96 74.6904 35.5498 73.9521C35.1455 73.2139 34.9434 72.2969 34.9434 71.2012C34.9434 70.1113 35.1279 69.1855 35.4971 68.4238C35.8662 67.6621 36.3848 67.082 37.0527 66.6836C37.7207 66.2852 38.5 66.0859 39.3906 66.0859ZM39.3906 67.6416C38.7402 67.6416 38.2129 67.8525 37.8086 68.2744C37.4102 68.6963 37.1758 69.3145 37.1055 70.1289H41.5352C41.5293 69.6426 41.4473 69.2119 41.2891 68.8369C41.1367 68.4619 40.9023 68.1689 40.5859 67.958C40.2754 67.7471 39.877 67.6416 39.3906 67.6416ZM47.9512 62.3242V65.6201C47.9512 66.001 47.9395 66.376 47.916 66.7451C47.8984 67.1084 47.8809 67.3926 47.8633 67.5977H47.9512C48.2148 67.1758 48.5811 66.8213 49.0498 66.5342C49.5244 66.2412 50.1309 66.0947 50.8691 66.0947C52.0234 66.0947 52.9521 66.5195 53.6553 67.3691C54.3584 68.2129 54.71 69.4639 54.71 71.1221C54.71 72.2236 54.5488 73.1494 54.2266 73.8994C53.9043 74.6494 53.4502 75.2178 52.8643 75.6045C52.2842 75.9854 51.6016 76.1758 50.8164 76.1758C50.0781 76.1758 49.4805 76.041 49.0234 75.7715C48.5723 75.4961 48.2178 75.1768 47.96 74.8135H47.8105L47.4326 76H45.8857V62.3242H47.9512ZM50.3242 67.7734C49.7383 67.7734 49.2725 67.8906 48.9268 68.125C48.5869 68.3594 48.3408 68.7109 48.1885 69.1797C48.0361 69.6426 47.957 70.2314 47.9512 70.9463V71.1309C47.9512 72.2148 48.1211 73.0439 48.4609 73.6182C48.8066 74.1924 49.4336 74.4795 50.3418 74.4795C51.0625 74.4795 51.6162 74.1895 52.0029 73.6094C52.3896 73.0234 52.583 72.1855 52.583 71.0957C52.583 69.9941 52.3896 69.165 52.0029 68.6084C51.6221 68.0518 51.0625 67.7734 50.3242 67.7734ZM62.0312 66.0859C62.1953 66.0859 62.374 66.0947 62.5674 66.1123C62.7607 66.1299 62.9277 66.1533 63.0684 66.1826L62.875 68.1162C62.752 68.0811 62.5996 68.0547 62.418 68.0371C62.2422 68.0195 62.084 68.0107 61.9434 68.0107C61.5742 68.0107 61.2227 68.0723 60.8887 68.1953C60.5547 68.3125 60.2588 68.4941 60.001 68.7402C59.7432 68.9805 59.541 69.2822 59.3945 69.6455C59.248 70.0088 59.1748 70.4307 59.1748 70.9111V76H57.1006V66.2705H58.7178L58.999 67.9844H59.0957C59.2891 67.6387 59.5293 67.3223 59.8164 67.0352C60.1035 66.748 60.4316 66.5195 60.8008 66.3496C61.1758 66.1738 61.5859 66.0859 62.0312 66.0859ZM73.3516 66.2705V76H71.7256L71.4443 74.6904H71.3301C71.125 75.0244 70.8643 75.3027 70.5479 75.5254C70.2314 75.7422 69.8799 75.9033 69.4932 76.0088C69.1064 76.1201 68.6992 76.1758 68.2715 76.1758C67.5391 76.1758 66.9121 76.0527 66.3906 75.8066C65.875 75.5547 65.4795 75.168 65.2041 74.6465C64.9287 74.125 64.791 73.4512 64.791 72.625V66.2705H66.8652V72.2383C66.8652 72.9941 67.0176 73.5596 67.3223 73.9346C67.6328 74.3096 68.1133 74.4971 68.7637 74.4971C69.3906 74.4971 69.8887 74.3682 70.2578 74.1104C70.627 73.8525 70.8877 73.4717 71.04 72.9678C71.1982 72.4639 71.2773 71.8457 71.2773 71.1133V66.2705H73.3516ZM80.1279 66.0859C81.3584 66.0859 82.2871 66.3584 82.9141 66.9033C83.5469 67.4482 83.8633 68.2979 83.8633 69.4521V76H82.3955L82 74.6201H81.9297C81.6543 74.9717 81.3701 75.2617 81.0771 75.4902C80.7842 75.7188 80.4443 75.8887 80.0576 76C79.6768 76.1172 79.2109 76.1758 78.6602 76.1758C78.0801 76.1758 77.5615 76.0703 77.1045 75.8594C76.6475 75.6426 76.2871 75.3145 76.0234 74.875C75.7598 74.4355 75.6279 73.8789 75.6279 73.2051C75.6279 72.2031 76 71.4502 76.7441 70.9463C77.4941 70.4424 78.625 70.1641 80.1367 70.1113L81.8242 70.0498V69.54C81.8242 68.8662 81.666 68.3857 81.3496 68.0986C81.0391 67.8115 80.5996 67.668 80.0312 67.668C79.5449 67.668 79.0732 67.7383 78.6162 67.8789C78.1592 68.0195 77.7139 68.1924 77.2803 68.3975L76.6123 66.9385C77.0869 66.6865 77.626 66.4814 78.2295 66.3232C78.8389 66.165 79.4717 66.0859 80.1279 66.0859ZM81.8154 71.3506L80.5586 71.3945C79.5273 71.4297 78.8037 71.6055 78.3877 71.9219C77.9717 72.2383 77.7637 72.6719 77.7637 73.2227C77.7637 73.7031 77.9072 74.0547 78.1943 74.2773C78.4814 74.4941 78.8594 74.6025 79.3281 74.6025C80.043 74.6025 80.6348 74.4004 81.1035 73.9961C81.5781 73.5859 81.8154 72.9854 81.8154 72.1943V71.3506ZM91.6855 66.0859C91.8496 66.0859 92.0283 66.0947 92.2217 66.1123C92.415 66.1299 92.582 66.1533 92.7227 66.1826L92.5293 68.1162C92.4062 68.0811 92.2539 68.0547 92.0723 68.0371C91.8965 68.0195 91.7383 68.0107 91.5977 68.0107C91.2285 68.0107 90.877 68.0723 90.543 68.1953C90.209 68.3125 89.9131 68.4941 89.6553 68.7402C89.3975 68.9805 89.1953 69.2822 89.0488 69.6455C88.9023 70.0088 88.8291 70.4307 88.8291 70.9111V76H86.7549V66.2705H88.3721L88.6533 67.9844H88.75C88.9434 67.6387 89.1836 67.3223 89.4707 67.0352C89.7578 66.748 90.0859 66.5195 90.4551 66.3496C90.8301 66.1738 91.2402 66.0859 91.6855 66.0859ZM93.0566 66.2705H95.3066L97.3018 71.8252C97.3896 72.0771 97.4688 72.3262 97.5391 72.5723C97.6152 72.8125 97.6797 73.0498 97.7324 73.2842C97.791 73.5186 97.8379 73.7529 97.873 73.9873H97.9258C97.9844 73.6826 98.0664 73.3428 98.1719 72.9678C98.2832 72.5869 98.4062 72.2061 98.541 71.8252L100.457 66.2705H102.681L98.5059 77.3359C98.2656 77.9688 97.9697 78.5078 97.6182 78.9531C97.2725 79.4043 96.8623 79.7441 96.3877 79.9727C95.9131 80.207 95.3711 80.3242 94.7617 80.3242C94.4688 80.3242 94.2139 80.3066 93.9971 80.2715C93.7803 80.2422 93.5957 80.21 93.4434 80.1748V78.5225C93.5664 78.5518 93.7217 78.5781 93.9092 78.6016C94.0967 78.625 94.29 78.6367 94.4893 78.6367C94.8584 78.6367 95.1777 78.5635 95.4473 78.417C95.7168 78.2705 95.9453 78.0625 96.1328 77.793C96.3203 77.5293 96.4756 77.2275 96.5986 76.8877L96.9414 75.9736L93.0566 66.2705ZM116.866 76H108.165V74.4443L111.496 71.0693C112.141 70.4131 112.671 69.8477 113.087 69.373C113.503 68.8926 113.811 68.4385 114.01 68.0107C114.215 67.583 114.317 67.1172 114.317 66.6133C114.317 65.9922 114.139 65.5234 113.781 65.207C113.424 64.8848 112.952 64.7236 112.366 64.7236C111.81 64.7236 111.294 64.835 110.819 65.0576C110.351 65.2744 109.864 65.585 109.36 65.9893L108.227 64.627C108.584 64.3223 108.965 64.0439 109.369 63.792C109.779 63.54 110.236 63.3408 110.74 63.1943C111.244 63.042 111.818 62.9658 112.463 62.9658C113.277 62.9658 113.98 63.1123 114.572 63.4053C115.164 63.6924 115.618 64.0938 115.935 64.6094C116.257 65.125 116.418 65.7256 116.418 66.4111C116.418 67.1025 116.28 67.7412 116.005 68.3271C115.729 68.9131 115.337 69.4932 114.827 70.0674C114.317 70.6357 113.711 71.2539 113.008 71.9219L110.784 74.0928V74.1895H116.866V76ZM127.167 69.5664C127.167 70.6035 127.085 71.5322 126.921 72.3525C126.763 73.167 126.511 73.8584 126.165 74.4268C125.819 74.9951 125.368 75.4287 124.812 75.7275C124.255 76.0264 123.581 76.1758 122.79 76.1758C121.8 76.1758 120.982 75.915 120.338 75.3936C119.693 74.8662 119.216 74.1104 118.905 73.126C118.595 72.1357 118.439 70.9492 118.439 69.5664C118.439 68.1836 118.58 67 118.861 66.0156C119.148 65.0254 119.611 64.2666 120.25 63.7393C120.889 63.2119 121.735 62.9482 122.79 62.9482C123.786 62.9482 124.606 63.2119 125.251 63.7393C125.901 64.2607 126.382 65.0166 126.692 66.0068C127.009 66.9912 127.167 68.1777 127.167 69.5664ZM120.522 69.5664C120.522 70.6504 120.593 71.5557 120.733 72.2822C120.88 73.0088 121.12 73.5537 121.454 73.917C121.788 74.2744 122.233 74.4531 122.79 74.4531C123.347 74.4531 123.792 74.2744 124.126 73.917C124.46 73.5596 124.7 73.0176 124.847 72.291C124.999 71.5645 125.075 70.6562 125.075 69.5664C125.075 68.4883 125.002 67.5859 124.855 66.8594C124.709 66.1328 124.469 65.5879 124.135 65.2246C123.801 64.8555 123.353 64.6709 122.79 64.6709C122.228 64.6709 121.779 64.8555 121.445 65.2246C121.117 65.5879 120.88 66.1328 120.733 66.8594C120.593 67.5859 120.522 68.4883 120.522 69.5664ZM137.468 76H128.767V74.4443L132.098 71.0693C132.742 70.4131 133.272 69.8477 133.688 69.373C134.104 68.8926 134.412 68.4385 134.611 68.0107C134.816 67.583 134.919 67.1172 134.919 66.6133C134.919 65.9922 134.74 65.5234 134.383 65.207C134.025 64.8848 133.554 64.7236 132.968 64.7236C132.411 64.7236 131.896 64.835 131.421 65.0576C130.952 65.2744 130.466 65.585 129.962 65.9893L128.828 64.627C129.186 64.3223 129.566 64.0439 129.971 63.792C130.381 63.54 130.838 63.3408 131.342 63.1943C131.846 63.042 132.42 62.9658 133.064 62.9658C133.879 62.9658 134.582 63.1123 135.174 63.4053C135.766 63.6924 136.22 64.0938 136.536 64.6094C136.858 65.125 137.02 65.7256 137.02 66.4111C137.02 67.1025 136.882 67.7412 136.606 68.3271C136.331 68.9131 135.938 69.4932 135.429 70.0674C134.919 70.6357 134.312 71.2539 133.609 71.9219L131.386 74.0928V74.1895H137.468V76ZM147.769 76H139.067V74.4443L142.398 71.0693C143.043 70.4131 143.573 69.8477 143.989 69.373C144.405 68.8926 144.713 68.4385 144.912 68.0107C145.117 67.583 145.22 67.1172 145.22 66.6133C145.22 65.9922 145.041 65.5234 144.684 65.207C144.326 64.8848 143.854 64.7236 143.269 64.7236C142.712 64.7236 142.196 64.835 141.722 65.0576C141.253 65.2744 140.767 65.585 140.263 65.9893L139.129 64.627C139.486 64.3223 139.867 64.0439 140.271 63.792C140.682 63.54 141.139 63.3408 141.643 63.1943C142.146 63.042 142.721 62.9658 143.365 62.9658C144.18 62.9658 144.883 63.1123 145.475 63.4053C146.066 63.6924 146.521 64.0937 146.837 64.6094C147.159 65.125 147.32 65.7256 147.32 66.4111C147.32 67.1025 147.183 67.7412 146.907 68.3271C146.632 68.9131 146.239 69.4932 145.729 70.0674C145.22 70.6357 144.613 71.2539 143.91 71.9219L141.687 74.0928V74.1895H147.769V76Z"
              fill="white" />
            <rect x="231" width="160" height="106" rx="24" fill="#C0E8D5" />
            <path
              d="M268.027 50L266.352 45.2422H259.801L258.125 50H255.16L261.535 32.7969H264.652L271.016 50H268.027ZM265.625 42.8281L263.996 38.1406C263.934 37.9375 263.844 37.6523 263.727 37.2852C263.609 36.9102 263.492 36.5312 263.375 36.1484C263.258 35.7578 263.16 35.4297 263.082 35.1641C263.004 35.4844 262.906 35.8438 262.789 36.2422C262.68 36.6328 262.57 37 262.461 37.3438C262.359 37.6875 262.281 37.9531 262.227 38.1406L260.586 42.8281H265.625ZM278.164 36.7812C279.32 36.7812 280.312 37.0195 281.141 37.4961C281.969 37.9727 282.605 38.6484 283.051 39.5234C283.496 40.3984 283.719 41.4453 283.719 42.6641V44.1406H275.059C275.09 45.3984 275.426 46.3672 276.066 47.0469C276.715 47.7266 277.621 48.0664 278.785 48.0664C279.613 48.0664 280.355 47.9883 281.012 47.832C281.676 47.668 282.359 47.4297 283.062 47.1172V49.3555C282.414 49.6602 281.754 49.8828 281.082 50.0234C280.41 50.1641 279.605 50.2344 278.668 50.2344C277.395 50.2344 276.273 49.9883 275.305 49.4961C274.344 48.9961 273.59 48.2539 273.043 47.2695C272.504 46.2852 272.234 45.0625 272.234 43.6016C272.234 42.1484 272.48 40.9141 272.973 39.8984C273.465 38.8828 274.156 38.1094 275.047 37.5781C275.938 37.0469 276.977 36.7812 278.164 36.7812ZM278.164 38.8555C277.297 38.8555 276.594 39.1367 276.055 39.6992C275.523 40.2617 275.211 41.0859 275.117 42.1719H281.023C281.016 41.5234 280.906 40.9492 280.695 40.4492C280.492 39.9492 280.18 39.5586 279.758 39.2773C279.344 38.9961 278.812 38.8555 278.164 38.8555ZM293.398 36.7812C293.617 36.7812 293.855 36.793 294.113 36.8164C294.371 36.8398 294.594 36.8711 294.781 36.9102L294.523 39.4883C294.359 39.4414 294.156 39.4062 293.914 39.3828C293.68 39.3594 293.469 39.3477 293.281 39.3477C292.789 39.3477 292.32 39.4297 291.875 39.5938C291.43 39.75 291.035 39.9922 290.691 40.3203C290.348 40.6406 290.078 41.043 289.883 41.5273C289.688 42.0117 289.59 42.5742 289.59 43.2148V50H286.824V37.0273H288.98L289.355 39.3125H289.484C289.742 38.8516 290.062 38.4297 290.445 38.0469C290.828 37.6641 291.266 37.3594 291.758 37.1328C292.258 36.8984 292.805 36.7812 293.398 36.7812ZM308.668 43.4844C308.668 44.5625 308.527 45.5195 308.246 46.3555C307.965 47.1914 307.555 47.8984 307.016 48.4766C306.477 49.0469 305.828 49.4844 305.07 49.7891C304.312 50.0859 303.457 50.2344 302.504 50.2344C301.613 50.2344 300.797 50.0859 300.055 49.7891C299.312 49.4844 298.668 49.0469 298.121 48.4766C297.582 47.8984 297.164 47.1914 296.867 46.3555C296.57 45.5195 296.422 44.5625 296.422 43.4844C296.422 42.0547 296.668 40.8438 297.16 39.8516C297.66 38.8516 298.371 38.0898 299.293 37.5664C300.215 37.043 301.312 36.7812 302.586 36.7812C303.781 36.7812 304.836 37.043 305.75 37.5664C306.664 38.0898 307.379 38.8516 307.895 39.8516C308.41 40.8516 308.668 42.0625 308.668 43.4844ZM299.258 43.4844C299.258 44.4297 299.371 45.2383 299.598 45.9102C299.832 46.582 300.191 47.0977 300.676 47.457C301.16 47.8086 301.785 47.9844 302.551 47.9844C303.316 47.9844 303.941 47.8086 304.426 47.457C304.91 47.0977 305.266 46.582 305.492 45.9102C305.719 45.2383 305.832 44.4297 305.832 43.4844C305.832 42.5391 305.719 41.7383 305.492 41.082C305.266 40.418 304.91 39.9141 304.426 39.5703C303.941 39.2188 303.312 39.043 302.539 39.043C301.398 39.043 300.566 39.4258 300.043 40.1914C299.52 40.957 299.258 42.0547 299.258 43.4844ZM320.82 31.7656V36.1602C320.82 36.668 320.805 37.168 320.773 37.6602C320.75 38.1445 320.727 38.5234 320.703 38.7969H320.82C321.172 38.2344 321.66 37.7617 322.285 37.3789C322.918 36.9883 323.727 36.793 324.711 36.793C326.25 36.793 327.488 37.3594 328.426 38.4922C329.363 39.6172 329.832 41.2852 329.832 43.4961C329.832 44.9648 329.617 46.1992 329.188 47.1992C328.758 48.1992 328.152 48.957 327.371 49.4727C326.598 49.9805 325.688 50.2344 324.641 50.2344C323.656 50.2344 322.859 50.0547 322.25 49.6953C321.648 49.3281 321.176 48.9023 320.832 48.418H320.633L320.129 50H318.066V31.7656H320.82ZM323.984 39.0312C323.203 39.0312 322.582 39.1875 322.121 39.5C321.668 39.8125 321.34 40.2812 321.137 40.9062C320.934 41.5234 320.828 42.3086 320.82 43.2617V43.5078C320.82 44.9531 321.047 46.0586 321.5 46.8242C321.961 47.5898 322.797 47.9727 324.008 47.9727C324.969 47.9727 325.707 47.5859 326.223 46.8125C326.738 46.0312 326.996 44.9141 326.996 43.4609C326.996 41.9922 326.738 40.8867 326.223 40.1445C325.715 39.4023 324.969 39.0312 323.984 39.0312ZM335.785 50H333.02V31.7656H335.785V50ZM351.031 37.0273V50L348.863 50L348.488 48.2539H348.336C348.062 48.6992 347.715 49.0703 347.293 49.3672C346.871 49.6562 346.402 49.8711 345.887 50.0117C345.371 50.1602 344.828 50.2344 344.258 50.2344C343.281 50.2344 342.445 50.0703 341.75 49.7422C341.062 49.4062 340.535 48.8906 340.168 48.1953C339.801 47.5 339.617 46.6016 339.617 45.5V37.0273H342.383V44.9844C342.383 45.9922 342.586 46.7461 342.992 47.2461C343.406 47.7461 344.047 47.9961 344.914 47.9961C345.75 47.9961 346.414 47.8242 346.906 47.4805C347.398 47.1367 347.746 46.6289 347.949 45.957C348.16 45.2852 348.266 44.4609 348.266 43.4844V37.0273H351.031ZM360.148 36.7812C361.305 36.7812 362.297 37.0195 363.125 37.4961C363.953 37.9727 364.59 38.6484 365.035 39.5234C365.48 40.3984 365.703 41.4453 365.703 42.6641V44.1406H357.043C357.074 45.3984 357.41 46.3672 358.051 47.0469C358.699 47.7266 359.605 48.0664 360.77 48.0664C361.598 48.0664 362.34 47.9883 362.996 47.832C363.66 47.668 364.344 47.4297 365.047 47.1172V49.3555C364.398 49.6602 363.738 49.8828 363.066 50.0234C362.395 50.1641 361.59 50.2344 360.652 50.2344C359.379 50.2344 358.258 49.9883 357.289 49.4961C356.328 48.9961 355.574 48.2539 355.027 47.2695C354.488 46.2852 354.219 45.0625 354.219 43.6016C354.219 42.1484 354.465 40.9141 354.957 39.8984C355.449 38.8828 356.141 38.1094 357.031 37.5781C357.922 37.0469 358.961 36.7812 360.148 36.7812ZM360.148 38.8555C359.281 38.8555 358.578 39.1367 358.039 39.6992C357.508 40.2617 357.195 41.0859 357.102 42.1719H363.008C363 41.5234 362.891 40.9492 362.68 40.4492C362.477 39.9492 362.164 39.5586 361.742 39.2773C361.328 38.9961 360.797 38.8555 360.148 38.8555Z"
              fill="#38443E" />
            <path
              d="M262.696 76L258.996 65.2686H258.917C258.935 65.5088 258.955 65.8369 258.979 66.2529C259.002 66.6689 259.022 67.1143 259.04 67.5889C259.058 68.0635 259.066 68.5176 259.066 68.9512V76H257.15V63.1504H260.112L263.672 73.4072H263.725L267.407 63.1504H270.36V76H268.348V68.8457C268.348 68.4531 268.354 68.0283 268.365 67.5713C268.383 67.1143 268.4 66.6807 268.418 66.2705C268.441 65.8604 268.459 65.5322 268.471 65.2861H268.4L264.56 76H262.696ZM277.348 66.0859C278.578 66.0859 279.507 66.3584 280.134 66.9033C280.767 67.4482 281.083 68.2979 281.083 69.4521V76H279.615L279.22 74.6201H279.149C278.874 74.9717 278.59 75.2617 278.297 75.4902C278.004 75.7188 277.664 75.8887 277.277 76C276.896 76.1172 276.431 76.1758 275.88 76.1758C275.3 76.1758 274.781 76.0703 274.324 75.8594C273.867 75.6426 273.507 75.3145 273.243 74.875C272.979 74.4355 272.848 73.8789 272.848 73.2051C272.848 72.2031 273.22 71.4502 273.964 70.9463C274.714 70.4424 275.845 70.1641 277.356 70.1113L279.044 70.0498V69.54C279.044 68.8662 278.886 68.3857 278.569 68.0986C278.259 67.8115 277.819 67.668 277.251 67.668C276.765 67.668 276.293 67.7383 275.836 67.8789C275.379 68.0195 274.934 68.1924 274.5 68.3975L273.832 66.9385C274.307 66.6865 274.846 66.4814 275.449 66.3232C276.059 66.165 276.691 66.0859 277.348 66.0859ZM279.035 71.3506L277.778 71.3945C276.747 71.4297 276.023 71.6055 275.607 71.9219C275.191 72.2383 274.983 72.6719 274.983 73.2227C274.983 73.7031 275.127 74.0547 275.414 74.2773C275.701 74.4941 276.079 74.6025 276.548 74.6025C277.263 74.6025 277.854 74.4004 278.323 73.9961C278.798 73.5859 279.035 72.9854 279.035 72.1943V71.3506ZM288.905 66.0859C289.069 66.0859 289.248 66.0947 289.441 66.1123C289.635 66.1299 289.802 66.1533 289.942 66.1826L289.749 68.1162C289.626 68.0811 289.474 68.0547 289.292 68.0371C289.116 68.0195 288.958 68.0107 288.817 68.0107C288.448 68.0107 288.097 68.0723 287.763 68.1953C287.429 68.3125 287.133 68.4941 286.875 68.7402C286.617 68.9805 286.415 69.2822 286.269 69.6455C286.122 70.0088 286.049 70.4307 286.049 70.9111V76H283.975V66.2705H285.592L285.873 67.9844H285.97C286.163 67.6387 286.403 67.3223 286.69 67.0352C286.978 66.748 287.306 66.5195 287.675 66.3496C288.05 66.1738 288.46 66.0859 288.905 66.0859ZM295.664 76.1758C294.744 76.1758 293.947 75.9971 293.273 75.6396C292.6 75.2822 292.081 74.7344 291.718 73.9961C291.354 73.2578 291.173 72.3203 291.173 71.1836C291.173 70 291.372 69.0332 291.771 68.2832C292.169 67.5332 292.72 66.9795 293.423 66.6221C294.132 66.2646 294.943 66.0859 295.857 66.0859C296.438 66.0859 296.962 66.1445 297.431 66.2617C297.905 66.373 298.307 66.5107 298.635 66.6748L298.02 68.3271C297.662 68.1807 297.296 68.0576 296.921 67.958C296.546 67.8584 296.186 67.8086 295.84 67.8086C295.271 67.8086 294.797 67.9346 294.416 68.1865C294.041 68.4385 293.76 68.8135 293.572 69.3115C293.391 69.8096 293.3 70.4277 293.3 71.166C293.3 71.8809 293.394 72.4844 293.581 72.9766C293.769 73.4629 294.047 73.832 294.416 74.084C294.785 74.3301 295.239 74.4531 295.778 74.4531C296.312 74.4531 296.789 74.3887 297.211 74.2598C297.633 74.1309 298.031 73.9639 298.406 73.7588V75.5518C298.037 75.7627 297.642 75.918 297.22 76.0176C296.798 76.123 296.279 76.1758 295.664 76.1758ZM302.757 62.3242V65.7607C302.757 66.1182 302.745 66.4668 302.722 66.8066C302.704 67.1465 302.684 67.4102 302.66 67.5977H302.774C302.979 67.2578 303.231 66.9795 303.53 66.7627C303.829 66.54 304.163 66.373 304.532 66.2617C304.907 66.1504 305.306 66.0947 305.728 66.0947C306.472 66.0947 307.104 66.2207 307.626 66.4727C308.147 66.7188 308.546 67.1025 308.821 67.624C309.103 68.1455 309.243 68.8223 309.243 69.6543V76H307.178V70.041C307.178 69.2852 307.022 68.7197 306.712 68.3447C306.401 67.9639 305.921 67.7734 305.271 67.7734C304.644 67.7734 304.146 67.9053 303.776 68.1689C303.413 68.4268 303.152 68.8105 302.994 69.3203C302.836 69.8242 302.757 70.4395 302.757 71.166V76H300.691V62.3242H302.757ZM324.844 76H316.143V74.4443L319.474 71.0693C320.118 70.4131 320.648 69.8477 321.064 69.373C321.48 68.8926 321.788 68.4385 321.987 68.0107C322.192 67.583 322.295 67.1172 322.295 66.6133C322.295 65.9922 322.116 65.5234 321.759 65.207C321.401 64.8848 320.93 64.7236 320.344 64.7236C319.787 64.7236 319.271 64.835 318.797 65.0576C318.328 65.2744 317.842 65.585 317.338 65.9893L316.204 64.627C316.562 64.3223 316.942 64.0439 317.347 63.792C317.757 63.54 318.214 63.3408 318.718 63.1943C319.222 63.042 319.796 62.9658 320.44 62.9658C321.255 62.9658 321.958 63.1123 322.55 63.4053C323.142 63.6924 323.596 64.0938 323.912 64.6094C324.234 65.125 324.396 65.7256 324.396 66.4111C324.396 67.1025 324.258 67.7412 323.982 68.3271C323.707 68.9131 323.314 69.4932 322.805 70.0674C322.295 70.6357 321.688 71.2539 320.985 71.9219L318.762 74.0928V74.1895H324.844V76ZM335.145 69.5664C335.145 70.6035 335.062 71.5322 334.898 72.3525C334.74 73.167 334.488 73.8584 334.143 74.4268C333.797 74.9951 333.346 75.4287 332.789 75.7275C332.232 76.0264 331.559 76.1758 330.768 76.1758C329.777 76.1758 328.96 75.915 328.315 75.3936C327.671 74.8662 327.193 74.1104 326.883 73.126C326.572 72.1357 326.417 70.9492 326.417 69.5664C326.417 68.1836 326.558 67 326.839 66.0156C327.126 65.0254 327.589 64.2666 328.228 63.7393C328.866 63.2119 329.713 62.9482 330.768 62.9482C331.764 62.9482 332.584 63.2119 333.229 63.7393C333.879 64.2607 334.359 65.0166 334.67 66.0068C334.986 66.9912 335.145 68.1777 335.145 69.5664ZM328.5 69.5664C328.5 70.6504 328.57 71.5557 328.711 72.2822C328.857 73.0088 329.098 73.5537 329.432 73.917C329.766 74.2744 330.211 74.4531 330.768 74.4531C331.324 74.4531 331.77 74.2744 332.104 73.917C332.438 73.5596 332.678 73.0176 332.824 72.291C332.977 71.5645 333.053 70.6562 333.053 69.5664C333.053 68.4883 332.979 67.5859 332.833 66.8594C332.687 66.1328 332.446 65.5879 332.112 65.2246C331.778 64.8555 331.33 64.6709 330.768 64.6709C330.205 64.6709 329.757 64.8555 329.423 65.2246C329.095 65.5879 328.857 66.1328 328.711 66.8594C328.57 67.5859 328.5 68.4883 328.5 69.5664ZM345.445 76H336.744V74.4443L340.075 71.0693C340.72 70.4131 341.25 69.8477 341.666 69.373C342.082 68.8926 342.39 68.4385 342.589 68.0107C342.794 67.583 342.896 67.1172 342.896 66.6133C342.896 65.9922 342.718 65.5234 342.36 65.207C342.003 64.8848 341.531 64.7236 340.945 64.7236C340.389 64.7236 339.873 64.835 339.398 65.0576C338.93 65.2744 338.443 65.585 337.939 65.9893L336.806 64.627C337.163 64.3223 337.544 64.0439 337.948 63.792C338.358 63.54 338.815 63.3408 339.319 63.1943C339.823 63.042 340.397 62.9658 341.042 62.9658C341.856 62.9658 342.56 63.1123 343.151 63.4053C343.743 63.6924 344.197 64.0938 344.514 64.6094C344.836 65.125 344.997 65.7256 344.997 66.4111C344.997 67.1025 344.859 67.7412 344.584 68.3271C344.309 68.9131 343.916 69.4932 343.406 70.0674C342.896 70.6357 342.29 71.2539 341.587 71.9219L339.363 74.0928V74.1895H345.445V76ZM355.746 76H347.045V74.4443L350.376 71.0693C351.021 70.4131 351.551 69.8477 351.967 69.373C352.383 68.8926 352.69 68.4385 352.89 68.0107C353.095 67.583 353.197 67.1172 353.197 66.6133C353.197 65.9922 353.019 65.5234 352.661 65.207C352.304 64.8848 351.832 64.7236 351.246 64.7236C350.689 64.7236 350.174 64.835 349.699 65.0576C349.23 65.2744 348.744 65.585 348.24 65.9893L347.106 64.627C347.464 64.3223 347.845 64.0439 348.249 63.792C348.659 63.54 349.116 63.3408 349.62 63.1943C350.124 63.042 350.698 62.9658 351.343 62.9658C352.157 62.9658 352.86 63.1123 353.452 63.4053C354.044 63.6924 354.498 64.0938 354.814 64.6094C355.137 65.125 355.298 65.7256 355.298 66.4111C355.298 67.1025 355.16 67.7412 354.885 68.3271C354.609 68.9131 354.217 69.4932 353.707 70.0674C353.197 70.6357 352.591 71.2539 351.888 71.9219L349.664 74.0928V74.1895H355.746V76Z"
              fill="#38443E" />
            <rect x="415" width="227" height="106" rx="24" fill="#665D1E" />
            <path
              d="M452.305 50L450.629 45.2422H444.078L442.402 50H439.438L445.812 32.7969H448.93L455.293 50H452.305ZM449.902 42.8281L448.273 38.1406C448.211 37.9375 448.121 37.6523 448.004 37.2852C447.887 36.9102 447.77 36.5312 447.652 36.1484C447.535 35.7578 447.438 35.4297 447.359 35.1641C447.281 35.4844 447.184 35.8438 447.066 36.2422C446.957 36.6328 446.848 37 446.738 37.3438C446.637 37.6875 446.559 37.9531 446.504 38.1406L444.863 42.8281H449.902ZM464.035 36.7812C465.496 36.7812 466.633 37.1602 467.445 37.918C468.266 38.668 468.676 39.875 468.676 41.5391V50H465.922V42.0547C465.922 41.0469 465.715 40.293 465.301 39.793C464.887 39.2852 464.246 39.0312 463.379 39.0312C462.121 39.0312 461.246 39.418 460.754 40.1914C460.27 40.9648 460.027 42.0859 460.027 43.5547V50H457.273V37.0273H459.418L459.805 38.7852H459.957C460.238 38.332 460.586 37.9609 461 37.6719C461.422 37.375 461.891 37.1523 462.406 37.0039C462.93 36.8555 463.473 36.7812 464.035 36.7812ZM477.359 48.0078C477.719 48.0078 478.074 47.9766 478.426 47.9141C478.777 47.8438 479.098 47.7617 479.387 47.668V49.7539C479.082 49.8867 478.688 50 478.203 50.0938C477.719 50.1875 477.215 50.2344 476.691 50.2344C475.957 50.2344 475.297 50.1133 474.711 49.8711C474.125 49.6211 473.66 49.1953 473.316 48.5938C472.973 47.9922 472.801 47.1602 472.801 46.0977V39.125H471.031V37.8945L472.93 36.9219L473.832 34.1445H475.566V37.0273H479.281V39.125H475.566V46.0625C475.566 46.7188 475.73 47.207 476.059 47.5273C476.387 47.8477 476.82 48.0078 477.359 48.0078ZM484.777 37.0273V50H482.023V37.0273H484.777ZM483.418 32.0586C483.84 32.0586 484.203 32.1719 484.508 32.3984C484.82 32.625 484.977 33.0156 484.977 33.5703C484.977 34.1172 484.82 34.5078 484.508 34.7422C484.203 34.9688 483.84 35.082 483.418 35.082C482.98 35.082 482.609 34.9688 482.305 34.7422C482.008 34.5078 481.859 34.1172 481.859 33.5703C481.859 33.0156 482.008 32.625 482.305 32.3984C482.609 32.1719 482.98 32.0586 483.418 32.0586ZM496.965 55.7539V50.2461C496.965 49.9336 496.973 49.5938 496.988 49.2266C497.012 48.8594 497.047 48.5234 497.094 48.2188H496.953C496.602 48.7891 496.113 49.2695 495.488 49.6602C494.863 50.043 494.047 50.2344 493.039 50.2344C491.516 50.2344 490.289 49.6719 489.359 48.5469C488.43 47.4141 487.965 45.7422 487.965 43.5312C487.965 42.0625 488.18 40.8281 488.609 39.8281C489.039 38.8281 489.641 38.0703 490.414 37.5547C491.195 37.0391 492.102 36.7812 493.133 36.7812C494.125 36.7812 494.93 36.9766 495.547 37.3672C496.172 37.75 496.672 38.2227 497.047 38.7852H497.141L497.445 37.0273H499.73V55.7539H496.965ZM493.859 48.0195C494.641 48.0195 495.266 47.8711 495.734 47.5742C496.203 47.2773 496.543 46.8281 496.754 46.2266C496.965 45.6172 497.078 44.8633 497.094 43.9648V43.543C497.094 42.0742 496.855 40.957 496.379 40.1914C495.902 39.4258 495.055 39.043 493.836 39.043C492.805 39.043 492.039 39.4453 491.539 40.25C491.039 41.0469 490.789 42.1562 490.789 43.5781C490.789 45.0156 491.039 46.1172 491.539 46.8828C492.047 47.6406 492.82 48.0195 493.859 48.0195ZM514.988 37.0273V50H512.82L512.445 48.2539H512.293C512.02 48.6992 511.672 49.0703 511.25 49.3672C510.828 49.6562 510.359 49.8711 509.844 50.0117C509.328 50.1602 508.785 50.2344 508.215 50.2344C507.238 50.2344 506.402 50.0703 505.707 49.7422C505.02 49.4062 504.492 48.8906 504.125 48.1953C503.758 47.5 503.574 46.6016 503.574 45.5V37.0273H506.34V44.9844C506.34 45.9922 506.543 46.7461 506.949 47.2461C507.363 47.7461 508.004 47.9961 508.871 47.9961C509.707 47.9961 510.371 47.8242 510.863 47.4805C511.355 47.1367 511.703 46.6289 511.906 45.957C512.117 45.2852 512.223 44.4609 512.223 43.4844V37.0273H514.988ZM524.105 36.7812C525.262 36.7812 526.254 37.0195 527.082 37.4961C527.91 37.9727 528.547 38.6484 528.992 39.5234C529.438 40.3984 529.66 41.4453 529.66 42.6641V44.1406H521C521.031 45.3984 521.367 46.3672 522.008 47.0469C522.656 47.7266 523.562 48.0664 524.727 48.0664C525.555 48.0664 526.297 47.9883 526.953 47.832C527.617 47.668 528.301 47.4297 529.004 47.1172V49.3555C528.355 49.6602 527.695 49.8828 527.023 50.0234C526.352 50.1641 525.547 50.2344 524.609 50.2344C523.336 50.2344 522.215 49.9883 521.246 49.4961C520.285 48.9961 519.531 48.2539 518.984 47.2695C518.445 46.2852 518.176 45.0625 518.176 43.6016C518.176 42.1484 518.422 40.9141 518.914 39.8984C519.406 38.8828 520.098 38.1094 520.988 37.5781C521.879 37.0469 522.918 36.7812 524.105 36.7812ZM524.105 38.8555C523.238 38.8555 522.535 39.1367 521.996 39.6992C521.465 40.2617 521.152 41.0859 521.059 42.1719H526.965C526.957 41.5234 526.848 40.9492 526.637 40.4492C526.434 39.9492 526.121 39.5586 525.699 39.2773C525.285 38.9961 524.754 38.8555 524.105 38.8555ZM541.754 31.7656V36.1602C541.754 36.668 541.738 37.168 541.707 37.6602C541.684 38.1445 541.66 38.5234 541.637 38.7969H541.754C542.105 38.2344 542.594 37.7617 543.219 37.3789C543.852 36.9883 544.66 36.793 545.645 36.793C547.184 36.793 548.422 37.3594 549.359 38.4922C550.297 39.6172 550.766 41.2852 550.766 43.4961C550.766 44.9648 550.551 46.1992 550.121 47.1992C549.691 48.1992 549.086 48.957 548.305 49.4727C547.531 49.9805 546.621 50.2344 545.574 50.2344C544.59 50.2344 543.793 50.0547 543.184 49.6953C542.582 49.3281 542.109 48.9023 541.766 48.418H541.566L541.062 50H539V31.7656H541.754ZM544.918 39.0312C544.137 39.0312 543.516 39.1875 543.055 39.5C542.602 39.8125 542.273 40.2812 542.07 40.9062C541.867 41.5234 541.762 42.3086 541.754 43.2617V43.5078C541.754 44.9531 541.98 46.0586 542.434 46.8242C542.895 47.5898 543.73 47.9727 544.941 47.9727C545.902 47.9727 546.641 47.5859 547.156 46.8125C547.672 46.0312 547.93 44.9141 547.93 43.4609C547.93 41.9922 547.672 40.8867 547.156 40.1445C546.648 39.4023 545.902 39.0312 544.918 39.0312ZM560.527 36.7812C560.746 36.7812 560.984 36.793 561.242 36.8164C561.5 36.8398 561.723 36.8711 561.91 36.9102L561.652 39.4883C561.488 39.4414 561.285 39.4062 561.043 39.3828C560.809 39.3594 560.598 39.3477 560.41 39.3477C559.918 39.3477 559.449 39.4297 559.004 39.5937C558.559 39.75 558.164 39.9922 557.82 40.3203C557.477 40.6406 557.207 41.043 557.012 41.5273C556.816 42.0117 556.719 42.5742 556.719 43.2148V50H553.953V37.0273H556.109L556.484 39.3125H556.613C556.871 38.8516 557.191 38.4297 557.574 38.0469C557.957 37.6641 558.395 37.3594 558.887 37.1328C559.387 36.8984 559.934 36.7812 560.527 36.7812ZM575.797 43.4844C575.797 44.5625 575.656 45.5195 575.375 46.3555C575.094 47.1914 574.684 47.8984 574.145 48.4766C573.605 49.0469 572.957 49.4844 572.199 49.7891C571.441 50.0859 570.586 50.2344 569.633 50.2344C568.742 50.2344 567.926 50.0859 567.184 49.7891C566.441 49.4844 565.797 49.0469 565.25 48.4766C564.711 47.8984 564.293 47.1914 563.996 46.3555C563.699 45.5195 563.551 44.5625 563.551 43.4844C563.551 42.0547 563.797 40.8437 564.289 39.8516C564.789 38.8516 565.5 38.0898 566.422 37.5664C567.344 37.043 568.441 36.7812 569.715 36.7812C570.91 36.7812 571.965 37.043 572.879 37.5664C573.793 38.0898 574.508 38.8516 575.023 39.8516C575.539 40.8516 575.797 42.0625 575.797 43.4844ZM566.387 43.4844C566.387 44.4297 566.5 45.2383 566.727 45.9102C566.961 46.582 567.32 47.0977 567.805 47.457C568.289 47.8086 568.914 47.9844 569.68 47.9844C570.445 47.9844 571.07 47.8086 571.555 47.457C572.039 47.0977 572.395 46.582 572.621 45.9102C572.848 45.2383 572.961 44.4297 572.961 43.4844C572.961 42.5391 572.848 41.7383 572.621 41.082C572.395 40.418 572.039 39.9141 571.555 39.5703C571.07 39.2187 570.441 39.043 569.668 39.043C568.527 39.043 567.695 39.4258 567.172 40.1914C566.648 40.957 566.387 42.0547 566.387 43.4844ZM585.723 36.7812C587.184 36.7812 588.32 37.1602 589.133 37.918C589.953 38.668 590.363 39.875 590.363 41.5391V50H587.609V42.0547C587.609 41.0469 587.402 40.293 586.988 39.793C586.574 39.2852 585.934 39.0312 585.066 39.0312C583.809 39.0312 582.934 39.418 582.441 40.1914C581.957 40.9648 581.715 42.0859 581.715 43.5547V50H578.961V37.0273H581.105L581.492 38.7852H581.645C581.926 38.332 582.273 37.9609 582.688 37.6719C583.109 37.375 583.578 37.1523 584.094 37.0039C584.617 36.8555 585.16 36.7812 585.723 36.7812ZM602.902 50L593.047 50V48.3008L599.598 39.1484H593.445V37.0273H602.715V38.9023L596.293 47.8789L602.902 47.8789V50ZM610.871 36.7812C612.027 36.7812 613.02 37.0195 613.848 37.4961C614.676 37.9727 615.312 38.6484 615.758 39.5234C616.203 40.3984 616.426 41.4453 616.426 42.6641V44.1406H607.766C607.797 45.3984 608.133 46.3672 608.773 47.0469C609.422 47.7266 610.328 48.0664 611.492 48.0664C612.32 48.0664 613.062 47.9883 613.719 47.832C614.383 47.668 615.066 47.4297 615.77 47.1172V49.3555C615.121 49.6602 614.461 49.8828 613.789 50.0234C613.117 50.1641 612.312 50.2344 611.375 50.2344C610.102 50.2344 608.98 49.9883 608.012 49.4961C607.051 48.9961 606.297 48.2539 605.75 47.2695C605.211 46.2852 604.941 45.0625 604.941 43.6016C604.941 42.1484 605.188 40.9141 605.68 39.8984C606.172 38.8828 606.863 38.1094 607.754 37.5781C608.645 37.0469 609.684 36.7812 610.871 36.7812ZM610.871 38.8555C610.004 38.8555 609.301 39.1367 608.762 39.6992C608.23 40.2617 607.918 41.0859 607.824 42.1719H613.73C613.723 41.5234 613.613 40.9492 613.402 40.4492C613.199 39.9492 612.887 39.5586 612.465 39.2773C612.051 38.9961 611.52 38.8555 610.871 38.8555Z"
              fill="#FFE73E" />
            <path
              d="M448.741 76L447.484 72.4316H442.571L441.314 76H439.091L443.872 63.0977H446.21L450.982 76H448.741ZM446.939 70.6211L445.718 67.1055C445.671 66.9531 445.604 66.7393 445.516 66.4639C445.428 66.1826 445.34 65.8984 445.252 65.6113C445.164 65.3184 445.091 65.0723 445.032 64.873C444.974 65.1133 444.9 65.3828 444.812 65.6816C444.73 65.9746 444.648 66.25 444.566 66.5078C444.49 66.7656 444.432 66.9648 444.391 67.1055L443.16 70.6211H446.939ZM457.46 66.0859C458.614 66.0859 459.54 66.5078 460.237 67.3516C460.94 68.1953 461.292 69.4492 461.292 71.1133C461.292 72.2148 461.128 73.1436 460.8 73.8994C460.478 74.6494 460.023 75.2178 459.438 75.6045C458.857 75.9854 458.181 76.1758 457.407 76.1758C456.915 76.1758 456.487 76.1113 456.124 75.9824C455.761 75.8535 455.45 75.6865 455.192 75.4814C454.935 75.2705 454.718 75.042 454.542 74.7959H454.419C454.448 75.0303 454.475 75.291 454.498 75.5781C454.527 75.8594 454.542 76.1172 454.542 76.3516V80.3154H452.468V66.2705H454.155L454.445 67.6152H454.542C454.724 67.3398 454.943 67.085 455.201 66.8506C455.465 66.6162 455.781 66.4316 456.15 66.2969C456.525 66.1562 456.962 66.0859 457.46 66.0859ZM456.906 67.7734C456.338 67.7734 455.881 67.8877 455.535 68.1162C455.195 68.3389 454.946 68.6758 454.788 69.127C454.636 69.5781 454.554 70.1436 454.542 70.8232V71.1133C454.542 71.834 454.615 72.4463 454.762 72.9502C454.914 73.4482 455.163 73.8291 455.509 74.0928C455.86 74.3506 456.335 74.4795 456.933 74.4795C457.437 74.4795 457.853 74.3418 458.181 74.0664C458.515 73.791 458.764 73.3984 458.928 72.8887C459.092 72.3789 459.174 71.7783 459.174 71.0869C459.174 70.0381 458.986 69.2236 458.611 68.6436C458.242 68.0635 457.674 67.7734 456.906 67.7734ZM468.613 66.0859C468.777 66.0859 468.956 66.0947 469.149 66.1123C469.343 66.1299 469.51 66.1533 469.65 66.1826L469.457 68.1162C469.334 68.0811 469.182 68.0547 469 68.0371C468.824 68.0195 468.666 68.0107 468.525 68.0107C468.156 68.0107 467.805 68.0723 467.471 68.1953C467.137 68.3125 466.841 68.4941 466.583 68.7402C466.325 68.9805 466.123 69.2822 465.977 69.6455C465.83 70.0088 465.757 70.4307 465.757 70.9111V76H463.683V66.2705H465.3L465.581 67.9844H465.678C465.871 67.6387 466.111 67.3223 466.398 67.0352C466.686 66.748 467.014 66.5195 467.383 66.3496C467.758 66.1738 468.168 66.0859 468.613 66.0859ZM473.518 66.2705V76H471.452V66.2705H473.518ZM472.498 62.5439C472.814 62.5439 473.087 62.6289 473.315 62.7988C473.55 62.9688 473.667 63.2617 473.667 63.6777C473.667 64.0879 473.55 64.3809 473.315 64.5566C473.087 64.7266 472.814 64.8115 472.498 64.8115C472.17 64.8115 471.892 64.7266 471.663 64.5566C471.44 64.3809 471.329 64.0879 471.329 63.6777C471.329 63.2617 471.44 62.9688 471.663 62.7988C471.892 62.6289 472.17 62.5439 472.498 62.5439ZM478.554 76H476.479V62.3242H478.554V76ZM494.216 76H485.515V74.4443L488.846 71.0693C489.49 70.4131 490.021 69.8477 490.437 69.373C490.853 68.8926 491.16 68.4385 491.359 68.0107C491.564 67.583 491.667 67.1172 491.667 66.6133C491.667 65.9922 491.488 65.5234 491.131 65.207C490.773 64.8848 490.302 64.7236 489.716 64.7236C489.159 64.7236 488.644 64.835 488.169 65.0576C487.7 65.2744 487.214 65.585 486.71 65.9893L485.576 64.627C485.934 64.3223 486.314 64.0439 486.719 63.792C487.129 63.54 487.586 63.3408 488.09 63.1943C488.594 63.042 489.168 62.9658 489.812 62.9658C490.627 62.9658 491.33 63.1123 491.922 63.4053C492.514 63.6924 492.968 64.0938 493.284 64.6094C493.606 65.125 493.768 65.7256 493.768 66.4111C493.768 67.1025 493.63 67.7412 493.354 68.3271C493.079 68.9131 492.687 69.4932 492.177 70.0674C491.667 70.6357 491.061 71.2539 490.357 71.9219L488.134 74.0928V74.1895H494.216V76ZM504.517 69.5664C504.517 70.6035 504.435 71.5322 504.271 72.3525C504.112 73.167 503.86 73.8584 503.515 74.4268C503.169 74.9951 502.718 75.4287 502.161 75.7275C501.604 76.0264 500.931 76.1758 500.14 76.1758C499.149 76.1758 498.332 75.915 497.688 75.3936C497.043 74.8662 496.565 74.1104 496.255 73.126C495.944 72.1357 495.789 70.9492 495.789 69.5664C495.789 68.1836 495.93 67 496.211 66.0156C496.498 65.0254 496.961 64.2666 497.6 63.7393C498.238 63.2119 499.085 62.9482 500.14 62.9482C501.136 62.9482 501.956 63.2119 502.601 63.7393C503.251 64.2607 503.731 65.0166 504.042 66.0068C504.358 66.9912 504.517 68.1777 504.517 69.5664ZM497.872 69.5664C497.872 70.6504 497.942 71.5557 498.083 72.2822C498.229 73.0088 498.47 73.5537 498.804 73.917C499.138 74.2744 499.583 74.4531 500.14 74.4531C500.696 74.4531 501.142 74.2744 501.476 73.917C501.81 73.5596 502.05 73.0176 502.196 72.291C502.349 71.5645 502.425 70.6562 502.425 69.5664C502.425 68.4883 502.352 67.5859 502.205 66.8594C502.059 66.1328 501.818 65.5879 501.484 65.2246C501.15 64.8555 500.702 64.6709 500.14 64.6709C499.577 64.6709 499.129 64.8555 498.795 65.2246C498.467 65.5879 498.229 66.1328 498.083 66.8594C497.942 67.5859 497.872 68.4883 497.872 69.5664ZM514.817 76H506.116V74.4443L509.447 71.0693C510.092 70.4131 510.622 69.8477 511.038 69.373C511.454 68.8926 511.762 68.4385 511.961 68.0107C512.166 67.583 512.269 67.1172 512.269 66.6133C512.269 65.9922 512.09 65.5234 511.732 65.207C511.375 64.8848 510.903 64.7236 510.317 64.7236C509.761 64.7236 509.245 64.835 508.771 65.0576C508.302 65.2744 507.815 65.585 507.312 65.9893L506.178 64.627C506.535 64.3223 506.916 64.0439 507.32 63.792C507.73 63.54 508.188 63.3408 508.691 63.1943C509.195 63.042 509.77 62.9658 510.414 62.9658C511.229 62.9658 511.932 63.1123 512.523 63.4053C513.115 63.6924 513.569 64.0938 513.886 64.6094C514.208 65.125 514.369 65.7256 514.369 66.4111C514.369 67.1025 514.231 67.7412 513.956 68.3271C513.681 68.9131 513.288 69.4932 512.778 70.0674C512.269 70.6357 511.662 71.2539 510.959 71.9219L508.735 74.0928V74.1895H514.817V76ZM525.118 76H516.417V74.4443L519.748 71.0693C520.393 70.4131 520.923 69.8477 521.339 69.373C521.755 68.8926 522.062 68.4385 522.262 68.0107C522.467 67.583 522.569 67.1172 522.569 66.6133C522.569 65.9922 522.391 65.5234 522.033 65.207C521.676 64.8848 521.204 64.7236 520.618 64.7236C520.062 64.7236 519.546 64.835 519.071 65.0576C518.603 65.2744 518.116 65.585 517.612 65.9893L516.479 64.627C516.836 64.3223 517.217 64.0439 517.621 63.792C518.031 63.54 518.488 63.3408 518.992 63.1943C519.496 63.042 520.07 62.9658 520.715 62.9658C521.529 62.9658 522.232 63.1123 522.824 63.4053C523.416 63.6924 523.87 64.0938 524.187 64.6094C524.509 65.125 524.67 65.7256 524.67 66.4111C524.67 67.1025 524.532 67.7412 524.257 68.3271C523.981 68.9131 523.589 69.4932 523.079 70.0674C522.569 70.6357 521.963 71.2539 521.26 71.9219L519.036 74.0928V74.1895H525.118V76Z"
              fill="#FFE73E" />
            <rect x="666" width="163" height="106" rx="24" fill="#F4C2C2" />
            <path
              d="M692.527 32.8672H697.625C699.836 32.8672 701.504 33.1875 702.629 33.8281C703.754 34.4688 704.316 35.5742 704.316 37.1445C704.316 37.8008 704.199 38.3945 703.965 38.9258C703.738 39.4492 703.406 39.8828 702.969 40.2266C702.531 40.5625 701.992 40.7891 701.352 40.9062V41.0234C702.016 41.1406 702.605 41.3477 703.121 41.6445C703.645 41.9414 704.055 42.3672 704.352 42.9219C704.656 43.4766 704.809 44.1953 704.809 45.0781C704.809 46.125 704.559 47.0156 704.059 47.75C703.566 48.4844 702.859 49.043 701.938 49.4258C701.023 49.8086 699.938 50 698.68 50H692.527V32.8672ZM695.34 39.9336H698.035C699.309 39.9336 700.191 39.7266 700.684 39.3125C701.176 38.8984 701.422 38.293 701.422 37.4961C701.422 36.6836 701.129 36.0977 700.543 35.7383C699.965 35.3789 699.043 35.1992 697.777 35.1992H695.34V39.9336ZM695.34 42.207V47.6445H698.305C699.617 47.6445 700.539 47.3906 701.07 46.8828C701.602 46.375 701.867 45.6875 701.867 44.8203C701.867 44.2891 701.746 43.8281 701.504 43.4375C701.27 43.0469 700.883 42.7461 700.344 42.5352C699.805 42.3164 699.078 42.207 698.164 42.207H695.34ZM713.152 36.7812C714.793 36.7812 716.031 37.1445 716.867 37.8711C717.711 38.5977 718.133 39.7305 718.133 41.2695V50H716.176L715.648 48.1602H715.555C715.188 48.6289 714.809 49.0156 714.418 49.3203C714.027 49.625 713.574 49.8516 713.059 50C712.551 50.1562 711.93 50.2344 711.195 50.2344C710.422 50.2344 709.73 50.0938 709.121 49.8125C708.512 49.5234 708.031 49.0859 707.68 48.5C707.328 47.9141 707.152 47.1719 707.152 46.2734C707.152 44.9375 707.648 43.9336 708.641 43.2617C709.641 42.5898 711.148 42.2188 713.164 42.1484L715.414 42.0664V41.3867C715.414 40.4883 715.203 39.8477 714.781 39.4648C714.367 39.082 713.781 38.8906 713.023 38.8906C712.375 38.8906 711.746 38.9844 711.137 39.1719C710.527 39.3594 709.934 39.5898 709.355 39.8633L708.465 37.918C709.098 37.582 709.816 37.3086 710.621 37.0977C711.434 36.8867 712.277 36.7812 713.152 36.7812ZM715.402 43.8008L713.727 43.8594C712.352 43.9062 711.387 44.1406 710.832 44.5625C710.277 44.9844 710 45.5625 710 46.2969C710 46.9375 710.191 47.4062 710.574 47.7031C710.957 47.9922 711.461 48.1367 712.086 48.1367C713.039 48.1367 713.828 47.8672 714.453 47.3281C715.086 46.7812 715.402 45.9805 715.402 44.9258V43.8008ZM724.742 31.7656V36.1602C724.742 36.668 724.727 37.168 724.695 37.6602C724.672 38.1445 724.648 38.5234 724.625 38.7969H724.742C725.094 38.2344 725.582 37.7617 726.207 37.3789C726.84 36.9883 727.648 36.793 728.633 36.793C730.172 36.793 731.41 37.3594 732.348 38.4922C733.285 39.6172 733.754 41.2852 733.754 43.4961C733.754 44.9648 733.539 46.1992 733.109 47.1992C732.68 48.1992 732.074 48.957 731.293 49.4727C730.52 49.9805 729.609 50.2344 728.562 50.2344C727.578 50.2344 726.781 50.0547 726.172 49.6953C725.57 49.3281 725.098 48.9023 724.754 48.418H724.555L724.051 50H721.988V31.7656H724.742ZM727.906 39.0312C727.125 39.0312 726.504 39.1875 726.043 39.5C725.59 39.8125 725.262 40.2812 725.059 40.9062C724.855 41.5234 724.75 42.3086 724.742 43.2617V43.5078C724.742 44.9531 724.969 46.0586 725.422 46.8242C725.883 47.5898 726.719 47.9727 727.93 47.9727C728.891 47.9727 729.629 47.5859 730.145 46.8125C730.66 46.0312 730.918 44.9141 730.918 43.4609C730.918 41.9922 730.66 40.8867 730.145 40.1445C729.637 39.4023 728.891 39.0312 727.906 39.0312ZM734.984 37.0273H737.984L740.645 44.4336C740.762 44.7695 740.867 45.1016 740.961 45.4297C741.062 45.75 741.148 46.0664 741.219 46.3789C741.297 46.6914 741.359 47.0039 741.406 47.3164H741.477C741.555 46.9102 741.664 46.457 741.805 45.957C741.953 45.4492 742.117 44.9414 742.297 44.4336L744.852 37.0273H747.816L742.25 51.7812C741.93 52.625 741.535 53.3438 741.066 53.9375C740.605 54.5391 740.059 54.9922 739.426 55.2969C738.793 55.6094 738.07 55.7656 737.258 55.7656C736.867 55.7656 736.527 55.7422 736.238 55.6953C735.949 55.6562 735.703 55.6133 735.5 55.5664V53.3633C735.664 53.4023 735.871 53.4375 736.121 53.4688C736.371 53.5 736.629 53.5156 736.895 53.5156C737.387 53.5156 737.812 53.418 738.172 53.2227C738.531 53.0273 738.836 52.75 739.086 52.3906C739.336 52.0391 739.543 51.6367 739.707 51.1836L740.164 49.9648L734.984 37.0273ZM762.676 36.7812C764.215 36.7812 765.449 37.3438 766.379 38.4688C767.316 39.5938 767.785 41.2656 767.785 43.4844C767.785 44.9531 767.566 46.1914 767.129 47.1992C766.699 48.1992 766.094 48.957 765.312 49.4727C764.539 49.9805 763.637 50.2344 762.605 50.2344C761.949 50.2344 761.379 50.1484 760.895 49.9766C760.41 49.8047 759.996 49.582 759.652 49.3086C759.309 49.0273 759.02 48.7227 758.785 48.3945H758.621C758.66 48.707 758.695 49.0547 758.727 49.4375C758.766 49.8125 758.785 50.1562 758.785 50.4688V55.7539H756.02V37.0273H758.27L758.656 38.8203H758.785C759.027 38.4531 759.32 38.1133 759.664 37.8008C760.016 37.4883 760.438 37.2422 760.93 37.0625C761.43 36.875 762.012 36.7812 762.676 36.7812ZM761.938 39.0312C761.18 39.0312 760.57 39.1836 760.109 39.4883C759.656 39.7852 759.324 40.2344 759.113 40.8359C758.91 41.4375 758.801 42.1914 758.785 43.0977V43.4844C758.785 44.4453 758.883 45.2617 759.078 45.9336C759.281 46.5977 759.613 47.1055 760.074 47.457C760.543 47.8008 761.176 47.9727 761.973 47.9727C762.645 47.9727 763.199 47.7891 763.637 47.4219C764.082 47.0547 764.414 46.5312 764.633 45.8516C764.852 45.1719 764.961 44.3711 764.961 43.4492C764.961 42.0508 764.711 40.9648 764.211 40.1914C763.719 39.418 762.961 39.0312 761.938 39.0312ZM773.727 37.0273V50H770.973V37.0273H773.727ZM772.367 32.0586C772.789 32.0586 773.152 32.1719 773.457 32.3984C773.77 32.625 773.926 33.0156 773.926 33.5703C773.926 34.1172 773.77 34.5078 773.457 34.7422C773.152 34.9687 772.789 35.082 772.367 35.082C771.93 35.082 771.559 34.9687 771.254 34.7422C770.957 34.5078 770.809 34.1172 770.809 33.5703C770.809 33.0156 770.957 32.625 771.254 32.3984C771.559 32.1719 771.93 32.0586 772.367 32.0586ZM784.438 36.7812C785.898 36.7812 787.035 37.1602 787.848 37.918C788.668 38.668 789.078 39.875 789.078 41.5391V50H786.324V42.0547C786.324 41.0469 786.117 40.293 785.703 39.793C785.289 39.2852 784.648 39.0312 783.781 39.0312C782.523 39.0312 781.648 39.418 781.156 40.1914C780.672 40.9648 780.43 42.0859 780.43 43.5547V50H777.676V37.0273H779.82L780.207 38.7852H780.359C780.641 38.332 780.988 37.9609 781.402 37.6719C781.824 37.375 782.293 37.1523 782.809 37.0039C783.332 36.8555 783.875 36.7812 784.438 36.7812ZM795.688 31.7656V40.5781C795.688 40.9766 795.672 41.4141 795.641 41.8906C795.609 42.3594 795.578 42.8008 795.547 43.2148H795.605C795.809 42.9414 796.051 42.6211 796.332 42.2539C796.621 41.8867 796.895 41.5664 797.152 41.293L801.113 37.0273H804.277L799.086 42.6055L804.617 50H801.383L797.234 44.3047L795.688 45.6289V50H792.934V31.7656H795.688Z"
              fill="#403333" />
            <path
              d="M690.321 79.5771C689.999 79.5771 689.718 79.5566 689.478 79.5156C689.231 79.4805 689.021 79.4307 688.845 79.3662V77.5996C689.032 77.6465 689.234 77.6875 689.451 77.7227C689.668 77.7578 689.899 77.7754 690.146 77.7754C690.468 77.7754 690.761 77.7139 691.024 77.5908C691.288 77.4678 691.496 77.2451 691.648 76.9229C691.807 76.6006 691.886 76.1465 691.886 75.5605V63.1504H693.995V75.4902C693.995 76.4453 693.843 77.2217 693.538 77.8193C693.233 78.4229 692.806 78.8652 692.255 79.1465C691.704 79.4336 691.06 79.5771 690.321 79.5771ZM705.588 66.2705V76H703.962L703.681 74.6904H703.566C703.361 75.0244 703.101 75.3027 702.784 75.5254C702.468 75.7422 702.116 75.9033 701.729 76.0088C701.343 76.1201 700.936 76.1758 700.508 76.1758C699.775 76.1758 699.148 76.0527 698.627 75.8066C698.111 75.5547 697.716 75.168 697.44 74.6465C697.165 74.125 697.027 73.4512 697.027 72.625V66.2705H699.102V72.2383C699.102 72.9941 699.254 73.5596 699.559 73.9346C699.869 74.3096 700.35 74.4971 701 74.4971C701.627 74.4971 702.125 74.3682 702.494 74.1104C702.863 73.8525 703.124 73.4717 703.276 72.9678C703.435 72.4639 703.514 71.8457 703.514 71.1133V66.2705H705.588ZM713.621 66.0859C714.717 66.0859 715.569 66.3701 716.179 66.9385C716.794 67.501 717.102 68.4062 717.102 69.6543V76H715.036V70.041C715.036 69.2852 714.881 68.7197 714.57 68.3447C714.26 67.9639 713.779 67.7734 713.129 67.7734C712.186 67.7734 711.529 68.0635 711.16 68.6436C710.797 69.2236 710.615 70.0645 710.615 71.166V76H708.55V66.2705H710.158L710.448 67.5889H710.562C710.773 67.249 711.034 66.9707 711.345 66.7539C711.661 66.5312 712.013 66.3643 712.399 66.2529C712.792 66.1416 713.199 66.0859 713.621 66.0859ZM723.869 66.0859C724.736 66.0859 725.48 66.2646 726.102 66.6221C726.723 66.9795 727.2 67.4863 727.534 68.1426C727.868 68.7988 728.035 69.584 728.035 70.498V71.6055H721.54C721.563 72.5488 721.815 73.2754 722.296 73.7852C722.782 74.2949 723.462 74.5498 724.335 74.5498C724.956 74.5498 725.513 74.4912 726.005 74.374C726.503 74.251 727.016 74.0723 727.543 73.8379V75.5166C727.057 75.7451 726.562 75.9121 726.058 76.0176C725.554 76.123 724.95 76.1758 724.247 76.1758C723.292 76.1758 722.451 75.9912 721.725 75.6221C721.004 75.2471 720.438 74.6904 720.028 73.9521C719.624 73.2139 719.422 72.2969 719.422 71.2012C719.422 70.1113 719.606 69.1855 719.976 68.4238C720.345 67.6621 720.863 67.082 721.531 66.6836C722.199 66.2852 722.979 66.0859 723.869 66.0859ZM723.869 67.6416C723.219 67.6416 722.691 67.8525 722.287 68.2744C721.889 68.6963 721.654 69.3145 721.584 70.1289H726.014C726.008 69.6426 725.926 69.2119 725.768 68.8369C725.615 68.4619 725.381 68.1689 725.064 67.958C724.754 67.7471 724.355 67.6416 723.869 67.6416ZM743.073 76H734.372V74.4443L737.703 71.0693C738.348 70.4131 738.878 69.8477 739.294 69.373C739.71 68.8926 740.018 68.4385 740.217 68.0107C740.422 67.583 740.524 67.1172 740.524 66.6133C740.524 65.9922 740.346 65.5234 739.988 65.207C739.631 64.8848 739.159 64.7236 738.573 64.7236C738.017 64.7236 737.501 64.835 737.026 65.0576C736.558 65.2744 736.071 65.585 735.567 65.9893L734.434 64.627C734.791 64.3223 735.172 64.0439 735.576 63.792C735.986 63.54 736.443 63.3408 736.947 63.1943C737.451 63.042 738.025 62.9658 738.67 62.9658C739.484 62.9658 740.188 63.1123 740.779 63.4053C741.371 63.6924 741.825 64.0938 742.142 64.6094C742.464 65.125 742.625 65.7256 742.625 66.4111C742.625 67.1025 742.487 67.7412 742.212 68.3271C741.937 68.9131 741.544 69.4932 741.034 70.0674C740.524 70.6357 739.918 71.2539 739.215 71.9219L736.991 74.0928V74.1895H743.073V76ZM753.374 69.5664C753.374 70.6035 753.292 71.5322 753.128 72.3525C752.97 73.167 752.718 73.8584 752.372 74.4268C752.026 74.9951 751.575 75.4287 751.019 75.7275C750.462 76.0264 749.788 76.1758 748.997 76.1758C748.007 76.1758 747.189 75.915 746.545 75.3936C745.9 74.8662 745.423 74.1104 745.112 73.126C744.802 72.1357 744.646 70.9492 744.646 69.5664C744.646 68.1836 744.787 67 745.068 66.0156C745.355 65.0254 745.818 64.2666 746.457 63.7393C747.096 63.2119 747.942 62.9482 748.997 62.9482C749.993 62.9482 750.813 63.2119 751.458 63.7393C752.108 64.2607 752.589 65.0166 752.899 66.0068C753.216 66.9912 753.374 68.1777 753.374 69.5664ZM746.729 69.5664C746.729 70.6504 746.8 71.5557 746.94 72.2822C747.087 73.0088 747.327 73.5537 747.661 73.917C747.995 74.2744 748.44 74.4531 748.997 74.4531C749.554 74.4531 749.999 74.2744 750.333 73.917C750.667 73.5596 750.907 73.0176 751.054 72.291C751.206 71.5645 751.282 70.6562 751.282 69.5664C751.282 68.4883 751.209 67.5859 751.062 66.8594C750.916 66.1328 750.676 65.5879 750.342 65.2246C750.008 64.8555 749.56 64.6709 748.997 64.6709C748.435 64.6709 747.986 64.8555 747.652 65.2246C747.324 65.5879 747.087 66.1328 746.94 66.8594C746.8 67.5859 746.729 68.4883 746.729 69.5664ZM763.675 76H754.974V74.4443L758.305 71.0693C758.949 70.4131 759.479 69.8477 759.896 69.373C760.312 68.8926 760.619 68.4385 760.818 68.0107C761.023 67.583 761.126 67.1172 761.126 66.6133C761.126 65.9922 760.947 65.5234 760.59 65.207C760.232 64.8848 759.761 64.7236 759.175 64.7236C758.618 64.7236 758.103 64.835 757.628 65.0576C757.159 65.2744 756.673 65.585 756.169 65.9893L755.035 64.627C755.393 64.3223 755.773 64.0439 756.178 63.792C756.588 63.54 757.045 63.3408 757.549 63.1943C758.053 63.042 758.627 62.9658 759.271 62.9658C760.086 62.9658 760.789 63.1123 761.381 63.4053C761.973 63.6924 762.427 64.0938 762.743 64.6094C763.065 65.125 763.227 65.7256 763.227 66.4111C763.227 67.1025 763.089 67.7412 762.813 68.3271C762.538 68.9131 762.146 69.4932 761.636 70.0674C761.126 70.6357 760.52 71.2539 759.816 71.9219L757.593 74.0928V74.1895H763.675V76ZM773.976 76H765.274V74.4443L768.605 71.0693C769.25 70.4131 769.78 69.8477 770.196 69.373C770.612 68.8926 770.92 68.4385 771.119 68.0107C771.324 67.583 771.427 67.1172 771.427 66.6133C771.427 65.9922 771.248 65.5234 770.891 65.207C770.533 64.8848 770.062 64.7236 769.476 64.7236C768.919 64.7236 768.403 64.835 767.929 65.0576C767.46 65.2744 766.974 65.585 766.47 65.9893L765.336 64.627C765.693 64.3223 766.074 64.0439 766.479 63.792C766.889 63.54 767.346 63.3408 767.85 63.1943C768.354 63.042 768.928 62.9658 769.572 62.9658C770.387 62.9658 771.09 63.1123 771.682 63.4053C772.273 63.6924 772.728 64.0938 773.044 64.6094C773.366 65.125 773.527 65.7256 773.527 66.4111C773.527 67.1025 773.39 67.7412 773.114 68.3271C772.839 68.9131 772.446 69.4932 771.937 70.0674C771.427 70.6357 770.82 71.2539 770.117 71.9219L767.894 74.0928V74.1895H773.976V76Z"
              fill="#403333" />
            <rect x="853" width="143" height="106" rx="24" fill="#FFF8DC" />
            <path
              d="M886.883 35.0117C886.062 35.0117 885.328 35.1602 884.68 35.457C884.039 35.7539 883.496 36.1836 883.051 36.7461C882.605 37.3008 882.266 37.9766 882.031 38.7734C881.797 39.5625 881.68 40.4531 881.68 41.4453C881.68 42.7734 881.867 43.918 882.242 44.8789C882.617 45.832 883.188 46.5664 883.953 47.082C884.719 47.5898 885.688 47.8438 886.859 47.8438C887.586 47.8438 888.293 47.7734 888.98 47.6328C889.668 47.4922 890.379 47.3008 891.113 47.0586V49.4492C890.418 49.7227 889.715 49.9219 889.004 50.0469C888.293 50.1719 887.473 50.2344 886.543 50.2344C884.793 50.2344 883.34 49.8711 882.184 49.1445C881.035 48.418 880.176 47.3945 879.605 46.0742C879.043 44.7539 878.762 43.207 878.762 41.4336C878.762 40.1367 878.941 38.9492 879.301 37.8711C879.66 36.793 880.184 35.8633 880.871 35.082C881.559 34.293 882.406 33.6875 883.414 33.2656C884.43 32.8359 885.59 32.6211 886.895 32.6211C887.754 32.6211 888.598 32.7188 889.426 32.9141C890.262 33.1016 891.035 33.3711 891.746 33.7227L890.762 36.043C890.168 35.7617 889.547 35.5195 888.898 35.3164C888.25 35.1133 887.578 35.0117 886.883 35.0117ZM905.996 43.4844C905.996 44.5625 905.855 45.5195 905.574 46.3555C905.293 47.1914 904.883 47.8984 904.344 48.4766C903.805 49.0469 903.156 49.4844 902.398 49.7891C901.641 50.0859 900.785 50.2344 899.832 50.2344C898.941 50.2344 898.125 50.0859 897.383 49.7891C896.641 49.4844 895.996 49.0469 895.449 48.4766C894.91 47.8984 894.492 47.1914 894.195 46.3555C893.898 45.5195 893.75 44.5625 893.75 43.4844C893.75 42.0547 893.996 40.8438 894.488 39.8516C894.988 38.8516 895.699 38.0898 896.621 37.5664C897.543 37.043 898.641 36.7812 899.914 36.7812C901.109 36.7812 902.164 37.043 903.078 37.5664C903.992 38.0898 904.707 38.8516 905.223 39.8516C905.738 40.8516 905.996 42.0625 905.996 43.4844ZM896.586 43.4844C896.586 44.4297 896.699 45.2383 896.926 45.9102C897.16 46.582 897.52 47.0977 898.004 47.457C898.488 47.8086 899.113 47.9844 899.879 47.9844C900.645 47.9844 901.27 47.8086 901.754 47.457C902.238 47.0977 902.594 46.582 902.82 45.9102C903.047 45.2383 903.16 44.4297 903.16 43.4844C903.16 42.5391 903.047 41.7383 902.82 41.082C902.594 40.418 902.238 39.9141 901.754 39.5703C901.27 39.2188 900.641 39.043 899.867 39.043C898.727 39.043 897.895 39.4258 897.371 40.1914C896.848 40.957 896.586 42.0547 896.586 43.4844ZM915.734 36.7812C915.953 36.7812 916.191 36.793 916.449 36.8164C916.707 36.8398 916.93 36.8711 917.117 36.9102L916.859 39.4883C916.695 39.4414 916.492 39.4062 916.25 39.3828C916.016 39.3594 915.805 39.3477 915.617 39.3477C915.125 39.3477 914.656 39.4297 914.211 39.5938C913.766 39.75 913.371 39.9922 913.027 40.3203C912.684 40.6406 912.414 41.043 912.219 41.5273C912.023 42.0117 911.926 42.5742 911.926 43.2148V50H909.16V37.0273H911.316L911.691 39.3125H911.82C912.078 38.8516 912.398 38.4297 912.781 38.0469C913.164 37.6641 913.602 37.3594 914.094 37.1328C914.594 36.8984 915.141 36.7812 915.734 36.7812ZM926.281 36.7812C927.742 36.7812 928.879 37.1602 929.691 37.918C930.512 38.668 930.922 39.875 930.922 41.5391V50H928.168V42.0547C928.168 41.0469 927.961 40.293 927.547 39.793C927.133 39.2852 926.492 39.0312 925.625 39.0312C924.367 39.0312 923.492 39.418 923 40.1914C922.516 40.9648 922.273 42.0859 922.273 43.5547V50H919.52V37.0273H921.664L922.051 38.7852H922.203C922.484 38.332 922.832 37.9609 923.246 37.6719C923.668 37.375 924.137 37.1523 924.652 37.0039C925.176 36.8555 925.719 36.7812 926.281 36.7812ZM943.496 46.2969C943.496 47.1484 943.289 47.8672 942.875 48.4531C942.461 49.0391 941.855 49.4844 941.059 49.7891C940.27 50.0859 939.301 50.2344 938.152 50.2344C937.246 50.2344 936.465 50.168 935.809 50.0352C935.16 49.9102 934.547 49.7148 933.969 49.4492V47.0703C934.586 47.3594 935.277 47.6094 936.043 47.8203C936.816 48.0312 937.547 48.1367 938.234 48.1367C939.141 48.1367 939.793 47.9961 940.191 47.7148C940.59 47.4258 940.789 47.043 940.789 46.5664C940.789 46.2852 940.707 46.0352 940.543 45.8164C940.387 45.5898 940.09 45.3594 939.652 45.125C939.223 44.8828 938.59 44.5938 937.754 44.2578C936.934 43.9297 936.242 43.6016 935.68 43.2734C935.117 42.9453 934.691 42.5508 934.402 42.0898C934.113 41.6211 933.969 41.0234 933.969 40.2969C933.969 39.1484 934.422 38.2773 935.328 37.6836C936.242 37.082 937.449 36.7812 938.949 36.7812C939.746 36.7812 940.496 36.8633 941.199 37.0273C941.91 37.1836 942.605 37.4141 943.285 37.7188L942.418 39.793C941.832 39.5352 941.242 39.3242 940.648 39.1602C940.062 38.9883 939.465 38.9023 938.855 38.9023C938.145 38.9023 937.602 39.0117 937.227 39.2305C936.859 39.4492 936.676 39.7617 936.676 40.168C936.676 40.4727 936.766 40.7305 936.945 40.9414C937.125 41.1523 937.434 41.3633 937.871 41.5742C938.316 41.7852 938.934 42.0469 939.723 42.3594C940.496 42.6562 941.164 42.9688 941.727 43.2969C942.297 43.6172 942.734 44.0117 943.039 44.4805C943.344 44.9492 943.496 45.5547 943.496 46.2969ZM949.227 37.0273V50H946.473V37.0273H949.227ZM947.867 32.0586C948.289 32.0586 948.652 32.1719 948.957 32.3984C949.27 32.625 949.426 33.0156 949.426 33.5703C949.426 34.1172 949.27 34.5078 948.957 34.7422C948.652 34.9688 948.289 35.082 947.867 35.082C947.43 35.082 947.059 34.9688 946.754 34.7422C946.457 34.5078 946.309 34.1172 946.309 33.5703C946.309 33.0156 946.457 32.625 946.754 32.3984C947.059 32.1719 947.43 32.0586 947.867 32.0586ZM955.941 50H953.176V31.7656H955.941V50ZM962.633 31.7656V40.5781C962.633 40.9766 962.617 41.4141 962.586 41.8906C962.555 42.3594 962.523 42.8008 962.492 43.2148H962.551C962.754 42.9414 962.996 42.6211 963.277 42.2539C963.566 41.8867 963.84 41.5664 964.098 41.293L968.059 37.0273H971.223L966.031 42.6055L971.562 50H968.328L964.18 44.3047L962.633 45.6289V50H959.879V31.7656H962.633Z"
              fill="#423F35" />
            <path
              d="M877.398 79.5771C877.076 79.5771 876.795 79.5566 876.555 79.5156C876.309 79.4805 876.098 79.4307 875.922 79.3662V77.5996C876.109 77.6465 876.312 77.6875 876.528 77.7227C876.745 77.7578 876.977 77.7754 877.223 77.7754C877.545 77.7754 877.838 77.7139 878.102 77.5908C878.365 77.4678 878.573 77.2451 878.726 76.9229C878.884 76.6006 878.963 76.1465 878.963 75.5605V63.1504H881.072V75.4902C881.072 76.4453 880.92 77.2217 880.615 77.8193C880.311 78.4229 879.883 78.8652 879.332 79.1465C878.781 79.4336 878.137 79.5771 877.398 79.5771ZM892.665 66.2705V76H891.039L890.758 74.6904H890.644C890.438 75.0244 890.178 75.3027 889.861 75.5254C889.545 75.7422 889.193 75.9033 888.807 76.0088C888.42 76.1201 888.013 76.1758 887.585 76.1758C886.853 76.1758 886.226 76.0527 885.704 75.8066C885.188 75.5547 884.793 75.168 884.518 74.6465C884.242 74.125 884.104 73.4512 884.104 72.625V66.2705H886.179V72.2383C886.179 72.9941 886.331 73.5596 886.636 73.9346C886.946 74.3096 887.427 74.4971 888.077 74.4971C888.704 74.4971 889.202 74.3682 889.571 74.1104C889.94 73.8525 890.201 73.4717 890.354 72.9678C890.512 72.4639 890.591 71.8457 890.591 71.1133V66.2705H892.665ZM897.701 76H895.627V62.3242H897.701V76ZM899.187 66.2705H901.437L903.432 71.8252C903.52 72.0771 903.599 72.3262 903.669 72.5723C903.745 72.8125 903.81 73.0498 903.862 73.2842C903.921 73.5186 903.968 73.7529 904.003 73.9873H904.056C904.114 73.6826 904.196 73.3428 904.302 72.9678C904.413 72.5869 904.536 72.2061 904.671 71.8252L906.587 66.2705H908.811L904.636 77.3359C904.396 77.9688 904.1 78.5078 903.748 78.9531C903.402 79.4043 902.992 79.7441 902.518 79.9727C902.043 80.207 901.501 80.3242 900.892 80.3242C900.599 80.3242 900.344 80.3066 900.127 80.2715C899.91 80.2422 899.726 80.21 899.573 80.1748V78.5225C899.696 78.5518 899.852 78.5781 900.039 78.6016C900.227 78.625 900.42 78.6367 900.619 78.6367C900.988 78.6367 901.308 78.5635 901.577 78.417C901.847 78.2705 902.075 78.0625 902.263 77.793C902.45 77.5293 902.605 77.2275 902.729 76.8877L903.071 75.9736L899.187 66.2705ZM922.996 76H914.295V74.4443L917.626 71.0693C918.271 70.4131 918.801 69.8477 919.217 69.373C919.633 68.8926 919.94 68.4385 920.14 68.0107C920.345 67.583 920.447 67.1172 920.447 66.6133C920.447 65.9922 920.269 65.5234 919.911 65.207C919.554 64.8848 919.082 64.7236 918.496 64.7236C917.939 64.7236 917.424 64.835 916.949 65.0576C916.48 65.2744 915.994 65.585 915.49 65.9893L914.356 64.627C914.714 64.3223 915.095 64.0439 915.499 63.792C915.909 63.54 916.366 63.3408 916.87 63.1943C917.374 63.042 917.948 62.9658 918.593 62.9658C919.407 62.9658 920.11 63.1123 920.702 63.4053C921.294 63.6924 921.748 64.0938 922.064 64.6094C922.387 65.125 922.548 65.7256 922.548 66.4111C922.548 67.1025 922.41 67.7412 922.135 68.3271C921.859 68.9131 921.467 69.4932 920.957 70.0674C920.447 70.6357 919.841 71.2539 919.138 71.9219L916.914 74.0928V74.1895H922.996V76ZM933.297 69.5664C933.297 70.6035 933.215 71.5322 933.051 72.3525C932.893 73.167 932.641 73.8584 932.295 74.4268C931.949 74.9951 931.498 75.4287 930.941 75.7275C930.385 76.0264 929.711 76.1758 928.92 76.1758C927.93 76.1758 927.112 75.915 926.468 75.3936C925.823 74.8662 925.346 74.1104 925.035 73.126C924.725 72.1357 924.569 70.9492 924.569 69.5664C924.569 68.1836 924.71 67 924.991 66.0156C925.278 65.0254 925.741 64.2666 926.38 63.7393C927.019 63.2119 927.865 62.9482 928.92 62.9482C929.916 62.9482 930.736 63.2119 931.381 63.7393C932.031 64.2607 932.512 65.0166 932.822 66.0068C933.139 66.9912 933.297 68.1777 933.297 69.5664ZM926.652 69.5664C926.652 70.6504 926.723 71.5557 926.863 72.2822C927.01 73.0088 927.25 73.5537 927.584 73.917C927.918 74.2744 928.363 74.4531 928.92 74.4531C929.477 74.4531 929.922 74.2744 930.256 73.917C930.59 73.5596 930.83 73.0176 930.977 72.291C931.129 71.5645 931.205 70.6562 931.205 69.5664C931.205 68.4883 931.132 67.5859 930.985 66.8594C930.839 66.1328 930.599 65.5879 930.265 65.2246C929.931 64.8555 929.482 64.6709 928.92 64.6709C928.357 64.6709 927.909 64.8555 927.575 65.2246C927.247 65.5879 927.01 66.1328 926.863 66.8594C926.723 67.5859 926.652 68.4883 926.652 69.5664ZM943.598 76H934.896V74.4443L938.228 71.0693C938.872 70.4131 939.402 69.8477 939.818 69.373C940.234 68.8926 940.542 68.4385 940.741 68.0107C940.946 67.583 941.049 67.1172 941.049 66.6133C941.049 65.9922 940.87 65.5234 940.513 65.207C940.155 64.8848 939.684 64.7236 939.098 64.7236C938.541 64.7236 938.025 64.835 937.551 65.0576C937.082 65.2744 936.596 65.585 936.092 65.9893L934.958 64.627C935.315 64.3223 935.696 64.0439 936.101 63.792C936.511 63.54 936.968 63.3408 937.472 63.1943C937.976 63.042 938.55 62.9658 939.194 62.9658C940.009 62.9658 940.712 63.1123 941.304 63.4053C941.896 63.6924 942.35 64.0938 942.666 64.6094C942.988 65.125 943.149 65.7256 943.149 66.4111C943.149 67.1025 943.012 67.7412 942.736 68.3271C942.461 68.9131 942.068 69.4932 941.559 70.0674C941.049 70.6357 940.442 71.2539 939.739 71.9219L937.516 74.0928V74.1895H943.598V76ZM953.898 76H945.197V74.4443L948.528 71.0693C949.173 70.4131 949.703 69.8477 950.119 69.373C950.535 68.8926 950.843 68.4385 951.042 68.0107C951.247 67.583 951.35 67.1172 951.35 66.6133C951.35 65.9922 951.171 65.5234 950.813 65.207C950.456 64.8848 949.984 64.7236 949.398 64.7236C948.842 64.7236 948.326 64.835 947.852 65.0576C947.383 65.2744 946.896 65.585 946.393 65.9893L945.259 64.627C945.616 64.3223 945.997 64.0439 946.401 63.792C946.812 63.54 947.269 63.3408 947.772 63.1943C948.276 63.042 948.851 62.9658 949.495 62.9658C950.31 62.9658 951.013 63.1123 951.604 63.4053C952.196 63.6924 952.65 64.0938 952.967 64.6094C953.289 65.125 953.45 65.7256 953.45 66.4111C953.45 67.1025 953.312 67.7412 953.037 68.3271C952.762 68.9131 952.369 69.4932 951.859 70.0674C951.35 70.6357 950.743 71.2539 950.04 71.9219L947.816 74.0928V74.1895H953.898V76Z"
              fill="#423F35" />
          </g>
        </g>
        <defs>
          <linearGradient id="paint0_linear_651_1932" x1="1049" y1="0" x2="1049" y2="996"
            gradientUnits="userSpaceOnUse">
            <stop offset="0.0104167" stop-color="#FCFCF7" stop-opacity="0" />
            <stop offset="0.140625" stop-color="#FCFCF7" />
          </linearGradient>
          <clipPath id="clip0_651_1932">
            <rect width="996" height="106" fill="white" />
          </clipPath>
        </defs>
      </svg>