<svg viewBox="0 0 457 74" fill="none" xmlns="http://www.w3.org/2000/svg">
        <g clip-path="url(#clip0_651_1930)">
          <path
            d="M18.457 10.1875L6.46875 30.5605C6.28125 30.8652 5.98242 31.0176 5.57227 31.0176C5.18555 31.0176 4.82227 30.8887 4.48242 30.6309C4.1543 30.3613 3.99023 30.0215 3.99023 29.6113C3.99023 29.248 4.10742 28.8613 4.3418 28.4512L16.3301 8.0957C16.5293 7.7793 16.8398 7.62109 17.2617 7.62109C17.6367 7.62109 17.9883 7.75 18.3164 8.00781C18.6562 8.25391 18.8262 8.58203 18.8262 8.99219C18.8262 9.37891 18.7031 9.77734 18.457 10.1875ZM40.2188 10.1875L28.2305 30.5605C28.043 30.8652 27.7441 31.0176 27.334 31.0176C26.9473 31.0176 26.584 30.8887 26.2441 30.6309C25.916 30.3613 25.752 30.0215 25.752 29.6113C25.752 29.248 25.8691 28.8613 26.1035 28.4512L38.0918 8.0957C38.291 7.7793 38.6016 7.62109 39.0234 7.62109C39.3984 7.62109 39.75 7.75 40.0781 8.00781C40.418 8.25391 40.5879 8.58203 40.5879 8.99219C40.5879 9.37891 40.4648 9.77734 40.2188 10.1875ZM68.8887 26.5703V9.15039C68.8887 8.74023 69.0352 8.38867 69.3281 8.0957C69.6211 7.79102 69.9668 7.63867 70.3652 7.63867C70.7637 7.63867 71.1094 7.78516 71.4023 8.07812C71.6953 8.37109 71.8418 8.7168 71.8418 9.11523V26.5703C71.8418 26.957 71.9883 27.2969 72.2812 27.5898C72.5742 27.8711 72.9199 28.0117 73.3184 28.0117H79.3652C79.7754 28.0117 80.1211 27.8711 80.4023 27.5898C80.6953 27.3086 80.8418 26.9687 80.8418 26.5703V9.15039C80.8418 8.72852 80.9824 8.37109 81.2637 8.07812C81.5566 7.78516 81.9082 7.63867 82.3184 7.63867C82.7285 7.63867 83.0742 7.78516 83.3555 8.07812C83.6484 8.37109 83.7949 8.72852 83.7949 9.15039V26.5352C83.7949 27.7539 83.3555 28.8027 82.4766 29.6816C81.6094 30.5605 80.5723 31 79.3652 31H73.3184C72.0996 31 71.0566 30.5664 70.1895 29.6992C69.3223 28.832 68.8887 27.7891 68.8887 26.5703ZM97.6641 17.4648L93.6387 20.084V29.5234C93.6387 29.9219 93.4922 30.2676 93.1992 30.5605C92.9062 30.8535 92.5605 31 92.1621 31C91.7637 31 91.418 30.8535 91.125 30.5605C90.832 30.2676 90.6855 29.9219 90.6855 29.5234V15.5137C90.6855 15.1035 90.8262 14.752 91.1074 14.459C91.4004 14.1543 91.752 14.002 92.1621 14.002C92.5605 14.002 92.9062 14.1543 93.1992 14.459C93.4922 14.752 93.6387 15.1035 93.6387 15.5137V16.498L96.3281 14.8633C97.2305 14.2891 98.25 14.002 99.3867 14.002H100.758C101.93 14.002 102.943 14.418 103.799 15.25C104.654 16.082 105.105 17.1074 105.152 18.3262L105.557 29.5234C105.568 29.9219 105.428 30.2676 105.135 30.5605C104.842 30.8535 104.49 31 104.08 31C103.693 31 103.354 30.8711 103.061 30.6133C102.768 30.3437 102.615 29.9805 102.604 29.5234L102.164 18.502C102.129 17.4707 101.59 16.9551 100.547 16.9551H99.1055C98.6602 16.9551 98.1797 17.125 97.6641 17.4648ZM118.354 6.33789H119.9C120.311 6.33789 120.656 6.48437 120.938 6.77734C121.23 7.05859 121.377 7.4043 121.377 7.81445V9.08008C121.377 9.49023 121.23 9.84766 120.938 10.1523C120.656 10.4453 120.311 10.5918 119.9 10.5918H118.318C117.896 10.5918 117.539 10.4395 117.246 10.1348C116.965 9.83008 116.83 9.49023 116.842 9.11523L116.877 7.81445C116.877 7.4043 117.018 7.05859 117.299 6.77734C117.592 6.48437 117.943 6.33789 118.354 6.33789ZM124.365 30.9648H115.365C114.955 30.9648 114.604 30.8242 114.311 30.543C114.029 30.25 113.889 29.8984 113.889 29.4883C113.889 29.0898 114.029 28.7441 114.311 28.4512C114.604 28.1582 114.955 28.0117 115.365 28.0117H118.389V16.9902H115.4C114.99 16.9902 114.639 16.8437 114.346 16.5508C114.064 16.2578 113.924 15.9121 113.924 15.5137C113.924 15.1035 114.064 14.752 114.346 14.459C114.639 14.1543 114.99 14.002 115.4 14.002H119.9C120.311 14.002 120.656 14.1543 120.938 14.459C121.23 14.752 121.377 15.1035 121.377 15.5137V28.0117H124.33C124.74 28.0117 125.092 28.1582 125.385 28.4512C125.689 28.7324 125.842 29.0781 125.842 29.4883C125.842 29.8984 125.695 30.25 125.402 30.543C125.109 30.8242 124.764 30.9648 124.365 30.9648ZM144.58 31H141.627C140.408 31 139.359 30.5664 138.48 29.6992C137.602 28.832 137.162 27.7891 137.162 26.5703V16.9902H135.65C135.24 16.9902 134.889 16.8496 134.596 16.5684C134.314 16.2871 134.174 15.9355 134.174 15.5137C134.174 15.1035 134.314 14.7578 134.596 14.4766C134.889 14.1836 135.24 14.0371 135.65 14.0371H137.197V10.416C137.197 10.0059 137.338 9.66016 137.619 9.37891C137.912 9.08594 138.264 8.93945 138.674 8.93945C139.061 8.93945 139.4 9.08594 139.693 9.37891C139.998 9.67187 140.15 10.0176 140.15 10.416V14.0371L146.092 14.0371C146.49 14.0371 146.836 14.1836 147.129 14.4766C147.422 14.7695 147.568 15.1152 147.568 15.5137C147.568 15.9238 147.422 16.2754 147.129 16.5684C146.836 16.8496 146.49 16.9902 146.092 16.9902H140.115V26.5703C140.115 26.9687 140.262 27.3145 140.555 27.6074C140.859 27.9004 141.217 28.0469 141.627 28.0469H144.51C145.295 28.0469 145.816 27.625 146.074 26.7812C146.332 25.9258 146.83 25.498 147.568 25.498C148.002 25.498 148.354 25.6445 148.623 25.9375C148.904 26.2187 149.045 26.5762 149.045 27.0098C149.045 27.9004 148.623 28.791 147.779 29.6816C146.947 30.5605 145.881 31 144.58 31ZM188.104 31H185.15C183.932 31 182.883 30.5664 182.004 29.6992C181.125 28.832 180.686 27.7891 180.686 26.5703V16.9902H179.174C178.764 16.9902 178.412 16.8496 178.119 16.5684C177.838 16.2871 177.697 15.9355 177.697 15.5137C177.697 15.1035 177.838 14.7578 178.119 14.4766C178.412 14.1836 178.764 14.0371 179.174 14.0371H180.721V10.416C180.721 10.0059 180.861 9.66016 181.143 9.37891C181.436 9.08594 181.787 8.93945 182.197 8.93945C182.584 8.93945 182.924 9.08594 183.217 9.37891C183.521 9.67187 183.674 10.0176 183.674 10.416V14.0371H189.615C190.014 14.0371 190.359 14.1836 190.652 14.4766C190.945 14.7695 191.092 15.1152 191.092 15.5137C191.092 15.9238 190.945 16.2754 190.652 16.5684C190.359 16.8496 190.014 16.9902 189.615 16.9902H183.639V26.5703C183.639 26.9687 183.785 27.3145 184.078 27.6074C184.383 27.9004 184.74 28.0469 185.15 28.0469H188.033C188.818 28.0469 189.34 27.625 189.598 26.7812C189.855 25.9258 190.354 25.498 191.092 25.498C191.525 25.498 191.877 25.6445 192.146 25.9375C192.428 26.2187 192.568 26.5762 192.568 27.0098C192.568 27.9004 192.146 28.791 191.303 29.6816C190.471 30.5605 189.404 31 188.104 31ZM214.365 19.3633V25.6035C214.365 26.9277 213.738 28.1523 212.484 29.2773C211.242 30.4023 209.959 30.9648 208.635 30.9648H205.172C203.824 30.9648 202.535 30.3965 201.305 29.2598C200.074 28.1113 199.459 26.8926 199.459 25.6035V19.3633C199.459 18.0742 200.057 16.8613 201.252 15.7246C202.459 14.5762 203.766 14.002 205.172 14.002L208.635 14.002C209.959 13.9785 211.242 14.5293 212.484 15.6543C213.738 16.7793 214.365 18.0156 214.365 19.3633ZM202.447 19.4863V25.4629C202.447 26.002 202.641 26.4297 203.027 26.7461L204.135 27.6953C204.381 27.9062 204.727 28.0117 205.172 28.0117H208.6C209.104 28.0117 209.561 27.8301 209.971 27.4668L210.867 26.6758C211.23 26.3945 211.412 26.002 211.412 25.498V19.5215C211.412 18.9355 211.23 18.502 210.867 18.2207L209.83 17.3945C209.479 17.1016 209.068 16.9551 208.6 16.9551H205.541C204.873 16.9551 204.357 17.1133 203.994 17.4297L202.992 18.291C202.629 18.5957 202.447 18.9941 202.447 19.4863ZM256.447 31H250.137C249.023 31 248.074 30.666 247.289 29.998L244.424 27.502C243.51 26.7402 243.053 25.709 243.053 24.4082V20.5586C243.006 19.3047 243.521 18.2148 244.6 17.2891L247.184 15.0566C248.016 14.377 248.906 14.0371 249.855 14.0371H256.482C256.893 14.0371 257.238 14.1836 257.52 14.4766C257.812 14.7578 257.959 15.1035 257.959 15.5137C257.959 15.9355 257.812 16.2871 257.52 16.5684C257.238 16.8496 256.893 16.9902 256.482 16.9902H250.137C249.738 16.9902 249.357 17.1484 248.994 17.4648L246.621 19.4863C246.234 19.8145 246.041 20.2539 246.041 20.8047V24.4082C246.041 24.7949 246.193 25.123 246.498 25.3926L249.1 27.6074C249.428 27.9004 249.861 28.0469 250.4 28.0469H256.447C256.846 28.0469 257.191 28.1934 257.484 28.4863C257.777 28.7676 257.924 29.1133 257.924 29.5234C257.924 29.9336 257.777 30.2852 257.484 30.5781C257.203 30.8594 256.857 31 256.447 31ZM279.65 19.3633V25.6035C279.65 26.9277 279.023 28.1523 277.77 29.2773C276.527 30.4023 275.244 30.9648 273.92 30.9648H270.457C269.109 30.9648 267.82 30.3965 266.59 29.2598C265.359 28.1113 264.744 26.8926 264.744 25.6035V19.3633C264.744 18.0742 265.342 16.8613 266.537 15.7246C267.744 14.5762 269.051 14.002 270.457 14.002L273.92 14.002C275.244 13.9785 276.527 14.5293 277.77 15.6543C279.023 16.7793 279.65 18.0156 279.65 19.3633ZM267.732 19.4863V25.4629C267.732 26.002 267.926 26.4297 268.312 26.7461L269.42 27.6953C269.666 27.9062 270.012 28.0117 270.457 28.0117H273.885C274.389 28.0117 274.846 27.8301 275.256 27.4668L276.152 26.6758C276.516 26.3945 276.697 26.002 276.697 25.498V19.5215C276.697 18.9355 276.516 18.502 276.152 18.2207L275.115 17.3945C274.764 17.1016 274.354 16.9551 273.885 16.9551H270.826C270.158 16.9551 269.643 17.1133 269.279 17.4297L268.277 18.291C267.914 18.5957 267.732 18.9941 267.732 19.4863ZM293.52 17.4648L289.494 20.084V29.5234C289.494 29.9219 289.348 30.2676 289.055 30.5605C288.762 30.8535 288.416 31 288.018 31C287.619 31 287.273 30.8535 286.98 30.5605C286.688 30.2676 286.541 29.9219 286.541 29.5234V15.5137C286.541 15.1035 286.682 14.752 286.963 14.459C287.256 14.1543 287.607 14.002 288.018 14.002C288.416 14.002 288.762 14.1543 289.055 14.459C289.348 14.752 289.494 15.1035 289.494 15.5137V16.498L292.184 14.8633C293.086 14.2891 294.105 14.002 295.242 14.002H296.613C297.785 14.002 298.799 14.418 299.654 15.25C300.51 16.082 300.961 17.1074 301.008 18.3262L301.412 29.5234C301.424 29.9219 301.283 30.2676 300.99 30.5605C300.697 30.8535 300.346 31 299.936 31C299.549 31 299.209 30.8711 298.916 30.6133C298.623 30.3437 298.471 29.9805 298.459 29.5234L298.02 18.502C297.984 17.4707 297.445 16.9551 296.402 16.9551H294.961C294.516 16.9551 294.035 17.125 293.52 17.4648ZM323.174 15.5137V18.3262L318.059 29.9629C317.73 30.6543 317.297 31 316.758 31H314.859C314.168 31 313.664 30.6426 313.348 29.9277L308.268 18.3613V15.5137C308.268 15.1035 308.408 14.7578 308.689 14.4766C308.982 14.1836 309.334 14.0371 309.744 14.0371C310.154 14.0371 310.5 14.1836 310.781 14.4766C311.074 14.7578 311.221 15.1035 311.221 15.5137V17.7812L315.721 27.9062L320.186 17.7461V15.5137C320.186 15.1035 320.332 14.7578 320.625 14.4766C320.918 14.1836 321.275 14.0371 321.697 14.0371C322.107 14.0371 322.453 14.1836 322.734 14.4766C323.027 14.7578 323.174 15.1035 323.174 15.5137ZM344.936 19.5918V23.1602C344.936 23.5586 344.789 23.9043 344.496 24.1973C344.203 24.4902 343.857 24.6367 343.459 24.6367H333.018V25.498C333.018 26.002 333.234 26.4297 333.668 26.7812L334.529 27.502C334.998 27.8652 335.443 28.0469 335.865 28.0469H343.459C343.857 28.0469 344.203 28.1934 344.496 28.4863C344.789 28.7676 344.936 29.1133 344.936 29.5234C344.936 29.9219 344.783 30.2676 344.479 30.5605C344.186 30.8535 343.846 31 343.459 31H335.672C335.156 31 334.611 30.8945 334.037 30.6836C333.475 30.4609 333.059 30.2324 332.789 29.998L331.471 28.8379C331.061 28.5098 330.715 28.0527 330.434 27.4668C330.164 26.8809 330.029 26.3418 330.029 25.8496V19.082C330.029 18.6953 330.176 18.1738 330.469 17.5176C330.773 16.8613 331.154 16.3516 331.611 15.9883L332.842 15.0215C333.65 14.3652 334.547 14.0371 335.531 14.0371L339.68 14.0371C340.723 14.0371 341.707 14.4707 342.633 15.3379L343.74 16.3926C344.537 17.1074 344.936 18.1738 344.936 19.5918ZM333.053 19.3633V21.6484H342.018V19.5918C342.018 19.041 341.848 18.6191 341.508 18.3262L340.646 17.5703C340.201 17.207 339.803 17.0254 339.451 17.0254H335.742C335.285 17.0254 334.869 17.1836 334.494 17.5L333.633 18.2207C333.246 18.5137 333.053 18.8945 333.053 19.3633ZM351.826 29.5234V15.5137C351.826 15.1035 351.967 14.752 352.248 14.459C352.541 14.1543 352.893 14.002 353.303 14.002C353.713 14.002 354.059 14.1484 354.34 14.4414C354.633 14.7344 354.779 15.0918 354.779 15.5137V17.3594L357.188 15.3027C358.184 14.459 359.156 14.0371 360.105 14.0371H362.268C363.486 14.0371 364.529 14.4707 365.396 15.3379C366.264 16.2051 366.697 17.248 366.697 18.4668V19.2578C366.697 19.6797 366.551 20.0371 366.258 20.3301C365.977 20.623 365.631 20.7695 365.221 20.7695C364.811 20.7695 364.459 20.6289 364.166 20.3477C363.885 20.0547 363.744 19.7031 363.744 19.293V18.4668C363.744 18.0566 363.598 17.7109 363.305 17.4297C363.023 17.1367 362.678 16.9902 362.268 16.9902H360.352C359.941 16.9902 359.484 17.207 358.98 17.6406L354.779 21.2793V29.5234C354.779 29.9336 354.633 30.2852 354.34 30.5781C354.047 30.8594 353.701 31 353.303 31C352.893 31 352.541 30.8594 352.248 30.5781C351.967 30.2852 351.826 29.9336 351.826 29.5234ZM383.959 31H381.006C379.787 31 378.738 30.5664 377.859 29.6992C376.98 28.832 376.541 27.7891 376.541 26.5703V16.9902H375.029C374.619 16.9902 374.268 16.8496 373.975 16.5684C373.693 16.2871 373.553 15.9355 373.553 15.5137C373.553 15.1035 373.693 14.7578 373.975 14.4766C374.268 14.1836 374.619 14.0371 375.029 14.0371H376.576V10.416C376.576 10.0059 376.717 9.66016 376.998 9.37891C377.291 9.08594 377.643 8.93945 378.053 8.93945C378.439 8.93945 378.779 9.08594 379.072 9.37891C379.377 9.67187 379.529 10.0176 379.529 10.416V14.0371H385.471C385.869 14.0371 386.215 14.1836 386.508 14.4766C386.801 14.7695 386.947 15.1152 386.947 15.5137C386.947 15.9238 386.801 16.2754 386.508 16.5684C386.215 16.8496 385.869 16.9902 385.471 16.9902H379.494V26.5703C379.494 26.9687 379.641 27.3145 379.934 27.6074C380.238 27.9004 380.596 28.0469 381.006 28.0469H383.889C384.674 28.0469 385.195 27.625 385.453 26.7812C385.711 25.9258 386.209 25.498 386.947 25.498C387.381 25.498 387.732 25.6445 388.002 25.9375C388.283 26.2187 388.424 26.5762 388.424 27.0098C388.424 27.9004 388.002 28.791 387.158 29.6816C386.326 30.5605 385.26 31 383.959 31ZM427.482 31H424.529C423.311 31 422.262 30.5664 421.383 29.6992C420.504 28.832 420.064 27.7891 420.064 26.5703V16.9902H418.553C418.143 16.9902 417.791 16.8496 417.498 16.5684C417.217 16.2871 417.076 15.9355 417.076 15.5137C417.076 15.1035 417.217 14.7578 417.498 14.4766C417.791 14.1836 418.143 14.0371 418.553 14.0371H420.1V10.416C420.1 10.0059 420.24 9.66016 420.521 9.37891C420.814 9.08594 421.166 8.93945 421.576 8.93945C421.963 8.93945 422.303 9.08594 422.596 9.37891C422.9 9.67187 423.053 10.0176 423.053 10.416V14.0371H428.994C429.393 14.0371 429.738 14.1836 430.031 14.4766C430.324 14.7695 430.471 15.1152 430.471 15.5137C430.471 15.9238 430.324 16.2754 430.031 16.5684C429.738 16.8496 429.393 16.9902 428.994 16.9902H423.018V26.5703C423.018 26.9687 423.164 27.3145 423.457 27.6074C423.762 27.9004 424.119 28.0469 424.529 28.0469H427.412C428.197 28.0469 428.719 27.625 428.977 26.7812C429.234 25.9258 429.732 25.498 430.471 25.498C430.904 25.498 431.256 25.6445 431.525 25.9375C431.807 26.2187 431.947 26.5762 431.947 27.0098C431.947 27.9004 431.525 28.791 430.682 29.6816C429.85 30.5605 428.783 31 427.482 31ZM453.744 19.3633V25.6035C453.744 26.9277 453.117 28.1523 451.863 29.2773C450.621 30.4023 449.338 30.9648 448.014 30.9648H444.551C443.203 30.9648 441.914 30.3965 440.684 29.2598C439.453 28.1113 438.838 26.8926 438.838 25.6035V19.3633C438.838 18.0742 439.436 16.8613 440.631 15.7246C441.838 14.5762 443.145 14.002 444.551 14.002H448.014C449.338 13.9785 450.621 14.5293 451.863 15.6543C453.117 16.7793 453.744 18.0156 453.744 19.3633ZM441.826 19.4863V25.4629C441.826 26.002 442.02 26.4297 442.406 26.7461L443.514 27.6953C443.76 27.9062 444.105 28.0117 444.551 28.0117H447.979C448.482 28.0117 448.939 27.8301 449.35 27.4668L450.246 26.6758C450.609 26.3945 450.791 26.002 450.791 25.498V19.5215C450.791 18.9355 450.609 18.502 450.246 18.2207L449.209 17.3945C448.857 17.1016 448.447 16.9551 447.979 16.9551H444.92C444.252 16.9551 443.736 17.1133 443.373 17.4297L442.371 18.291C442.008 18.5957 441.826 18.9941 441.826 19.4863ZM18.5098 52.5137V55.3262L13.3945 66.9629C13.0664 67.6543 12.6328 68 12.0938 68H10.1953C9.50391 68 9 67.6426 8.68359 66.9277L3.60352 55.3613V52.5137C3.60352 52.1035 3.74414 51.7578 4.02539 51.4766C4.31836 51.1836 4.66992 51.0371 5.08008 51.0371C5.49023 51.0371 5.83594 51.1836 6.11719 51.4766C6.41016 51.7578 6.55664 52.1035 6.55664 52.5137V54.7812L11.0566 64.9062L15.5215 54.7461V52.5137C15.5215 52.1035 15.668 51.7578 15.9609 51.4766C16.2539 51.1836 16.6113 51.0371 17.0332 51.0371C17.4434 51.0371 17.7891 51.1836 18.0703 51.4766C18.3633 51.7578 18.5098 52.1035 18.5098 52.5137ZM29.7949 57.3477H35.5781C35.8945 57.3477 36.3516 57.418 36.9492 57.5586L36.9141 55.4668C36.9141 55.0566 36.7676 54.7109 36.4746 54.4297C36.1934 54.1367 35.8477 53.9902 35.4375 53.9902H29.8301C29.4316 53.9902 29.0859 53.8438 28.793 53.5508C28.5 53.2578 28.3535 52.9121 28.3535 52.5137C28.3535 52.1035 28.4941 51.7578 28.7754 51.4766C29.0684 51.1836 29.4199 51.0371 29.8301 51.0371H35.4375C36.6562 51.0371 37.6934 51.4648 38.5488 52.3203C39.416 53.1758 39.8672 54.2246 39.9023 55.4668L40.2715 66.5234C40.2715 66.9336 40.125 67.2852 39.832 67.5781C39.5391 67.8594 39.1934 68 38.7949 68C38.373 68 38.0156 67.8594 37.7227 67.5781C37.4297 67.2852 37.2832 66.9336 37.2832 66.5234L34.7871 68H29.7949C28.5527 68 27.498 67.5664 26.6309 66.6992C25.7637 65.832 25.3301 64.7773 25.3301 63.5352V61.8125C25.3301 60.582 25.7637 59.5332 26.6309 58.666C27.5098 57.7871 28.5645 57.3477 29.7949 57.3477ZM37.1777 63.0957L37.0898 61.8477C37.0781 61.4258 36.9316 61.0742 36.6504 60.793C36.3691 60.5117 36.0234 60.3711 35.6133 60.3711H29.7949C29.3848 60.3711 29.0332 60.5176 28.7402 60.8105C28.459 61.0918 28.3184 61.4375 28.3184 61.8477V63.5C28.3184 63.8984 28.4648 64.2441 28.7578 64.5371C29.0508 64.8301 29.3965 64.9766 29.7949 64.9766H33.9609L37.1777 63.0957ZM59.0801 68H50.1504C49.7402 68 49.3887 67.8535 49.0957 67.5605C48.8145 67.2559 48.6738 66.8984 48.6738 66.4883C48.6738 66.0898 48.8145 65.7441 49.0957 65.4512C49.3887 65.1582 49.7402 65.0117 50.1504 65.0117H53.1035L53.1035 47.5918H50.1152C49.7051 47.5918 49.3535 47.4512 49.0605 47.1699C48.7793 46.877 48.6387 46.5254 48.6387 46.1152C48.6387 45.7051 48.7793 45.3594 49.0605 45.0781C49.3535 44.7852 49.7051 44.6387 50.1152 44.6387H54.6152C55.0137 44.6387 55.3594 44.7852 55.6523 45.0781C55.9453 45.3711 56.0918 45.7168 56.0918 46.1152L56.0918 65.0117H59.0801C59.4785 65.0117 59.8242 65.1582 60.1172 65.4512C60.4102 65.7441 60.5566 66.0898 60.5566 66.4883C60.5566 66.8984 60.4102 67.2559 60.1172 67.5605C59.8359 67.8535 59.4902 68 59.0801 68ZM97.6992 65.0117L102.674 61.8477V52.5137C102.674 52.1035 102.814 51.752 103.096 51.459C103.389 51.1543 103.74 51.002 104.15 51.002C104.561 51.002 104.906 51.1543 105.188 51.459C105.48 51.752 105.627 52.1035 105.627 52.5137V66.5234C105.627 66.9219 105.48 67.2676 105.188 67.5605C104.895 67.8535 104.549 68 104.15 68C103.752 68 103.406 67.8535 103.113 67.5605C102.82 67.2676 102.674 66.9219 102.674 66.5234V65.3633L100.107 67.0332C99.0996 67.6777 98.0801 68 97.0488 68H95.6777C94.4707 68 93.4336 67.5781 92.5664 66.7344C91.6992 65.8906 91.2363 64.8594 91.1777 63.6406L90.7559 52.5137C90.7324 52.127 90.8672 51.7871 91.1602 51.4941C91.4648 51.1895 91.8223 51.0371 92.2324 51.0371C92.6309 51.0371 92.9707 51.1836 93.252 51.4766C93.5449 51.7695 93.6973 52.1152 93.709 52.5137L94.0957 63.4297C94.1309 64.4844 94.7344 65.0117 95.9062 65.0117H97.6992ZM119.426 54.4648L115.4 57.084V66.5234C115.4 66.9219 115.254 67.2676 114.961 67.5605C114.668 67.8535 114.322 68 113.924 68C113.525 68 113.18 67.8535 112.887 67.5605C112.594 67.2676 112.447 66.9219 112.447 66.5234V52.5137C112.447 52.1035 112.588 51.752 112.869 51.459C113.162 51.1543 113.514 51.002 113.924 51.002C114.322 51.002 114.668 51.1543 114.961 51.459C115.254 51.752 115.4 52.1035 115.4 52.5137V53.498L118.09 51.8633C118.992 51.2891 120.012 51.002 121.148 51.002H122.52C123.691 51.002 124.705 51.418 125.561 52.25C126.416 53.082 126.867 54.1074 126.914 55.3262L127.318 66.5234C127.33 66.9219 127.189 67.2676 126.896 67.5605C126.604 67.8535 126.252 68 125.842 68C125.455 68 125.115 67.8711 124.822 67.6133C124.529 67.3438 124.377 66.9805 124.365 66.5234L123.926 55.502C123.891 54.4707 123.352 53.9551 122.309 53.9551H120.867C120.422 53.9551 119.941 54.125 119.426 54.4648ZM140.115 43.3379H141.662C142.072 43.3379 142.418 43.4844 142.699 43.7773C142.992 44.0586 143.139 44.4043 143.139 44.8145V46.0801C143.139 46.4902 142.992 46.8477 142.699 47.1523C142.418 47.4453 142.072 47.5918 141.662 47.5918H140.08C139.658 47.5918 139.301 47.4395 139.008 47.1348C138.727 46.8301 138.592 46.4902 138.604 46.1152L138.639 44.8145C138.639 44.4043 138.779 44.0586 139.061 43.7773C139.354 43.4844 139.705 43.3379 140.115 43.3379ZM146.127 67.9648H137.127C136.717 67.9648 136.365 67.8242 136.072 67.543C135.791 67.25 135.65 66.8984 135.65 66.4883C135.65 66.0898 135.791 65.7441 136.072 65.4512C136.365 65.1582 136.717 65.0117 137.127 65.0117H140.15V53.9902H137.162C136.752 53.9902 136.4 53.8437 136.107 53.5508C135.826 53.2578 135.686 52.9121 135.686 52.5137C135.686 52.1035 135.826 51.752 136.107 51.459C136.4 51.1543 136.752 51.002 137.162 51.002H141.662C142.072 51.002 142.418 51.1543 142.699 51.459C142.992 51.752 143.139 52.1035 143.139 52.5137V65.0117H146.092C146.502 65.0117 146.854 65.1582 147.146 65.4512C147.451 65.7324 147.604 66.0781 147.604 66.4883C147.604 66.8984 147.457 67.25 147.164 67.543C146.871 67.8242 146.525 67.9648 146.127 67.9648ZM166.342 68H163.389C162.17 68 161.121 67.5664 160.242 66.6992C159.363 65.832 158.924 64.7891 158.924 63.5703V53.9902H157.412C157.002 53.9902 156.65 53.8496 156.357 53.5684C156.076 53.2871 155.936 52.9355 155.936 52.5137C155.936 52.1035 156.076 51.7578 156.357 51.4766C156.65 51.1836 157.002 51.0371 157.412 51.0371H158.959V47.416C158.959 47.0059 159.1 46.6602 159.381 46.3789C159.674 46.0859 160.025 45.9395 160.436 45.9395C160.822 45.9395 161.162 46.0859 161.455 46.3789C161.76 46.6719 161.912 47.0176 161.912 47.416V51.0371H167.854C168.252 51.0371 168.598 51.1836 168.891 51.4766C169.184 51.7695 169.33 52.1152 169.33 52.5137C169.33 52.9238 169.184 53.2754 168.891 53.5684C168.598 53.8496 168.252 53.9902 167.854 53.9902H161.877V63.5703C161.877 63.9687 162.023 64.3145 162.316 64.6074C162.621 64.9004 162.979 65.0469 163.389 65.0469H166.271C167.057 65.0469 167.578 64.625 167.836 63.7812C168.094 62.9258 168.592 62.498 169.33 62.498C169.764 62.498 170.115 62.6445 170.385 62.9375C170.666 63.2187 170.807 63.5762 170.807 64.0098C170.807 64.9004 170.385 65.791 169.541 66.6816C168.709 67.5605 167.643 68 166.342 68ZM177.697 48.6641V44.6738L192.604 44.6738V48.6992C192.604 49.1094 192.457 49.4609 192.164 49.7539C191.871 50.0352 191.525 50.1758 191.127 50.1758C190.717 50.1758 190.359 50.0293 190.055 49.7363C189.762 49.4434 189.615 49.0977 189.615 48.6992V47.627H186.627V66.5234C186.627 66.9336 186.48 67.2852 186.188 67.5781C185.895 67.8594 185.549 68 185.15 68C184.729 68 184.371 67.8594 184.078 67.5781C183.785 67.2852 183.639 66.9336 183.639 66.5234V47.627H180.65V48.6641C180.65 49.0742 180.504 49.4258 180.211 49.7187C179.93 50 179.584 50.1406 179.174 50.1406C178.764 50.1406 178.412 50 178.119 49.7187C177.838 49.4258 177.697 49.0742 177.697 48.6641ZM214.365 56.3633V62.6035C214.365 63.9277 213.738 65.1523 212.484 66.2773C211.242 67.4023 209.959 67.9648 208.635 67.9648H205.172C203.824 67.9648 202.535 67.3965 201.305 66.2598C200.074 65.1113 199.459 63.8926 199.459 62.6035V56.3633C199.459 55.0742 200.057 53.8613 201.252 52.7246C202.459 51.5762 203.766 51.002 205.172 51.002H208.635C209.959 50.9785 211.242 51.5293 212.484 52.6543C213.738 53.7793 214.365 55.0156 214.365 56.3633ZM202.447 56.4863V62.4629C202.447 63.002 202.641 63.4297 203.027 63.7461L204.135 64.6953C204.381 64.9062 204.727 65.0117 205.172 65.0117H208.6C209.104 65.0117 209.561 64.8301 209.971 64.4668L210.867 63.6758C211.23 63.3945 211.412 63.002 211.412 62.498V56.5215C211.412 55.9355 211.23 55.502 210.867 55.2207L209.83 54.3945C209.479 54.1016 209.068 53.9551 208.6 53.9551H205.541C204.873 53.9551 204.357 54.1133 203.994 54.4297L202.992 55.291C202.629 55.5957 202.447 55.9941 202.447 56.4863ZM256.377 53.9551H244.424C244.025 53.9551 243.68 53.8086 243.387 53.5156C243.094 53.2227 242.947 52.877 242.947 52.4785C242.947 52.0801 243.094 51.7344 243.387 51.4414C243.68 51.1484 244.025 51.002 244.424 51.002H256.377C256.787 51.002 257.133 51.1484 257.414 51.4414C257.707 51.7227 257.854 52.0684 257.854 52.4785C257.854 52.8887 257.707 53.2402 257.414 53.5332C257.133 53.8145 256.787 53.9551 256.377 53.9551ZM256.377 60.3359H244.424C244.025 60.3359 243.68 60.1895 243.387 59.8965C243.094 59.5918 242.947 59.2344 242.947 58.8242C242.947 58.4141 243.094 58.0684 243.387 57.7871C243.68 57.4941 244.025 57.3477 244.424 57.3477H256.377C256.775 57.3477 257.121 57.4941 257.414 57.7871C257.707 58.0801 257.854 58.4258 257.854 58.8242C257.854 59.2344 257.707 59.5918 257.414 59.8965C257.133 60.1895 256.787 60.3359 256.377 60.3359ZM292.447 58.6836H295.436C295.834 58.6836 296.18 58.8301 296.473 59.123C296.766 59.4043 296.912 59.75 296.912 60.1602V62.6738C296.912 63.084 296.766 63.4414 296.473 63.7461C296.191 64.0391 295.846 64.1855 295.436 64.1855H292.412C292.002 64.1855 291.65 64.0391 291.357 63.7461C291.076 63.4531 290.936 63.1074 290.936 62.709V60.1602C290.936 59.75 291.082 59.4043 291.375 59.123C291.668 58.8301 292.025 58.6836 292.447 58.6836ZM314.209 58.6836H317.197C317.596 58.6836 317.941 58.8301 318.234 59.123C318.527 59.4043 318.674 59.75 318.674 60.1602V62.6738C318.674 63.084 318.527 63.4414 318.234 63.7461C317.953 64.0391 317.607 64.1855 317.197 64.1855H314.174C313.764 64.1855 313.412 64.0391 313.119 63.7461C312.838 63.4531 312.697 63.1074 312.697 62.709V60.1602C312.697 59.75 312.844 59.4043 313.137 59.123C313.43 58.8301 313.787 58.6836 314.209 58.6836ZM335.971 58.6836H338.959C339.357 58.6836 339.703 58.8301 339.996 59.123C340.289 59.4043 340.436 59.75 340.436 60.1602V62.6738C340.436 63.084 340.289 63.4414 339.996 63.7461C339.715 64.0391 339.369 64.1855 338.959 64.1855H335.936C335.525 64.1855 335.174 64.0391 334.881 63.7461C334.6 63.4531 334.459 63.1074 334.459 62.709V60.1602C334.459 59.75 334.605 59.4043 334.898 59.123C335.191 58.8301 335.549 58.6836 335.971 58.6836Z"
            fill="#186C31" />
        </g>
        <defs>
          <clipPath id="clip0_651_1930">
            <rect width="457" height="74" fill="white" />
          </clipPath>
        </defs>
      </svg>