<svg width="625" height="373" viewBox="0 0 625 373" fill="none" xmlns="http://www.w3.org/2000/svg">
    <rect width="625" height="373" fill="#FFF7FF" />
    <path
      d="M439.5 73C439.5 60.0213 450.021 49.5 463 49.5H549C561.979 49.5 572.5 60.0213 572.5 73V109.5H463C450.021 109.5 439.5 98.9787 439.5 86V73Z"
      fill="#B100AF" />
    <path
      d="M477.84 71.24H480.672L472.896 92.432H470.064L477.84 71.24ZM489.661 88.592C489.245 88.784 488.765 88.936 488.221 89.048C487.677 89.176 487.125 89.24 486.565 89.24C485.637 89.24 484.893 89.048 484.333 88.664C483.773 88.28 483.365 87.744 483.109 87.056C482.869 86.368 482.749 85.584 482.749 84.704V79.232H480.781V76.832H482.749V73.664H485.509V76.832H489.301V79.232H485.509V84.704C485.509 85.44 485.645 85.952 485.917 86.24C486.205 86.512 486.613 86.648 487.141 86.648C487.397 86.648 487.669 86.624 487.957 86.576C488.261 86.512 488.597 86.408 488.965 86.264L489.661 88.592ZM501.84 82.184V83.624C501.84 85.32 501.376 86.68 500.448 87.704C499.52 88.728 498.208 89.24 496.512 89.24C494.816 89.24 493.504 88.728 492.576 87.704C491.648 86.68 491.184 85.32 491.184 83.624V82.184C491.184 80.488 491.64 79.136 492.552 78.128C493.48 77.104 494.8 76.592 496.512 76.592C498.224 76.592 499.536 77.104 500.448 78.128C501.376 79.136 501.84 80.488 501.84 82.184ZM499.008 82.184C499.008 81.208 498.792 80.448 498.36 79.904C497.928 79.344 497.312 79.064 496.512 79.064C495.712 79.064 495.096 79.344 494.664 79.904C494.232 80.448 494.016 81.208 494.016 82.184V83.624C494.016 84.6 494.232 85.368 494.664 85.928C495.096 86.488 495.712 86.768 496.512 86.768C497.312 86.768 497.928 86.488 498.36 85.928C498.792 85.368 499.008 84.6 499.008 83.624V82.184ZM512.063 89V87.344C511.327 88.08 510.687 88.584 510.143 88.856C509.615 89.112 509.063 89.24 508.487 89.24C507.175 89.24 506.151 88.744 505.415 87.752C504.695 86.76 504.335 85.368 504.335 83.576V82.28C504.335 80.536 504.775 79.152 505.655 78.128C506.535 77.104 507.807 76.592 509.471 76.592C509.887 76.592 510.295 76.632 510.695 76.712C511.111 76.792 511.519 76.904 511.919 77.048V71.24H514.679V89H512.063ZM507.167 83.576C507.167 84.648 507.343 85.432 507.695 85.928C508.063 86.424 508.575 86.672 509.231 86.672C509.599 86.672 509.991 86.568 510.407 86.36C510.823 86.136 511.327 85.72 511.919 85.112V79.544C511.135 79.224 510.415 79.064 509.759 79.064C508.831 79.064 508.167 79.352 507.767 79.928C507.367 80.504 507.167 81.288 507.167 82.28V83.576ZM527.698 89.12C526.882 89.12 526.226 88.952 525.73 88.616C525.25 88.28 524.898 87.864 524.674 87.368C523.986 88.008 523.322 88.48 522.682 88.784C522.042 89.088 521.354 89.24 520.618 89.24C519.546 89.24 518.754 88.896 518.242 88.208C517.746 87.52 517.498 86.648 517.498 85.592C517.498 84.888 517.626 84.272 517.882 83.744C518.154 83.2 518.594 82.776 519.202 82.472C519.81 82.168 520.642 82.016 521.698 82.016C522.114 82.016 522.546 82.048 522.994 82.112C523.442 82.16 523.89 82.224 524.338 82.304V80.888C524.338 80.216 524.154 79.76 523.786 79.52C523.418 79.264 522.922 79.136 522.298 79.136C521.818 79.136 521.29 79.2 520.714 79.328C520.154 79.456 519.546 79.656 518.89 79.928L518.098 77.576C519.714 76.92 521.178 76.592 522.49 76.592C523.674 76.592 524.586 76.792 525.226 77.192C525.882 77.592 526.338 78.12 526.594 78.776C526.85 79.432 526.978 80.136 526.978 80.888V85.568C526.978 85.808 527.042 86.04 527.17 86.264C527.314 86.472 527.586 86.576 527.986 86.576H528.25V89.12H527.698ZM520.162 85.544C520.162 85.976 520.258 86.32 520.45 86.576C520.642 86.816 520.922 86.936 521.29 86.936C521.658 86.936 522.074 86.84 522.538 86.648C523.002 86.456 523.602 86.008 524.338 85.304V84.272C523.506 84.128 522.69 84.056 521.89 84.056C521.266 84.056 520.818 84.184 520.546 84.44C520.29 84.696 520.162 85.064 520.162 85.544ZM535.214 90.2C534.686 91.672 534.014 92.728 533.198 93.368C532.382 94.024 531.262 94.352 529.838 94.352V91.592C530.686 91.56 531.35 91.368 531.83 91.016C532.326 90.68 532.694 90.208 532.934 89.6L533.15 89.048L528.806 76.832H531.542L533.63 82.904L534.446 85.472L535.238 82.904L537.23 76.832H539.966L535.214 90.2Z"
      fill="#FFF7FF" />
    <path
      d="M439.5 73C439.5 60.0213 450.021 49.5 463 49.5H549C561.979 49.5 572.5 60.0213 572.5 73V109.5H463C450.021 109.5 439.5 98.9787 439.5 86V73Z"
      stroke="#777777" />
    <path
      d="M51.5 141C51.5 128.021 62.0213 117.5 75 117.5H302C314.979 117.5 325.5 128.021 325.5 141V299C325.5 311.979 314.979 322.5 302 322.5H51.5V141Z"
      fill="#FFF7FF" />
    <path
      d="M112.14 143.44V140.68H124.14V143.44H119.58V157H116.7V143.44H112.14ZM134.887 150.184V151.624C134.887 153.32 134.423 154.68 133.495 155.704C132.567 156.728 131.255 157.24 129.559 157.24C127.863 157.24 126.551 156.728 125.623 155.704C124.695 154.68 124.231 153.32 124.231 151.624V150.184C124.231 148.488 124.687 147.136 125.599 146.128C126.527 145.104 127.847 144.592 129.559 144.592C131.271 144.592 132.583 145.104 133.495 146.128C134.423 147.136 134.887 148.488 134.887 150.184ZM132.055 150.184C132.055 149.208 131.839 148.448 131.407 147.904C130.975 147.344 130.359 147.064 129.559 147.064C128.759 147.064 128.143 147.344 127.711 147.904C127.279 148.448 127.063 149.208 127.063 150.184V151.624C127.063 152.6 127.279 153.368 127.711 153.928C128.143 154.488 128.759 154.768 129.559 154.768C130.359 154.768 130.975 154.488 131.407 153.928C131.839 153.368 132.055 152.6 132.055 151.624V150.184ZM145.11 157V155.344C144.374 156.08 143.734 156.584 143.19 156.856C142.662 157.112 142.11 157.24 141.534 157.24C140.222 157.24 139.198 156.744 138.462 155.752C137.742 154.76 137.382 153.368 137.382 151.576V150.28C137.382 148.536 137.822 147.152 138.702 146.128C139.582 145.104 140.854 144.592 142.518 144.592C142.934 144.592 143.342 144.632 143.742 144.712C144.158 144.792 144.566 144.904 144.966 145.048V139.24H147.726V157H145.11ZM140.214 151.576C140.214 152.648 140.39 153.432 140.742 153.928C141.11 154.424 141.622 154.672 142.278 154.672C142.646 154.672 143.038 154.568 143.454 154.36C143.87 154.136 144.374 153.72 144.966 153.112V147.544C144.182 147.224 143.462 147.064 142.806 147.064C141.878 147.064 141.214 147.352 140.814 147.928C140.414 148.504 140.214 149.288 140.214 150.28V151.576ZM160.745 157.12C159.929 157.12 159.273 156.952 158.777 156.616C158.297 156.28 157.945 155.864 157.721 155.368C157.033 156.008 156.369 156.48 155.729 156.784C155.089 157.088 154.401 157.24 153.665 157.24C152.593 157.24 151.801 156.896 151.289 156.208C150.793 155.52 150.545 154.648 150.545 153.592C150.545 152.888 150.673 152.272 150.929 151.744C151.201 151.2 151.641 150.776 152.249 150.472C152.857 150.168 153.689 150.016 154.745 150.016C155.161 150.016 155.593 150.048 156.041 150.112C156.489 150.16 156.937 150.224 157.385 150.304V148.888C157.385 148.216 157.201 147.76 156.833 147.52C156.465 147.264 155.969 147.136 155.345 147.136C154.865 147.136 154.337 147.2 153.761 147.328C153.201 147.456 152.593 147.656 151.937 147.928L151.145 145.576C152.761 144.92 154.225 144.592 155.537 144.592C156.721 144.592 157.633 144.792 158.273 145.192C158.929 145.592 159.385 146.12 159.641 146.776C159.897 147.432 160.025 148.136 160.025 148.888V153.568C160.025 153.808 160.089 154.04 160.217 154.264C160.361 154.472 160.633 154.576 161.033 154.576H161.297V157.12H160.745ZM153.209 153.544C153.209 153.976 153.305 154.32 153.497 154.576C153.689 154.816 153.969 154.936 154.337 154.936C154.705 154.936 155.121 154.84 155.585 154.648C156.049 154.456 156.649 154.008 157.385 153.304V152.272C156.553 152.128 155.737 152.056 154.937 152.056C154.313 152.056 153.865 152.184 153.593 152.44C153.337 152.696 153.209 153.064 153.209 153.544ZM168.261 158.2C167.733 159.672 167.061 160.728 166.245 161.368C165.429 162.024 164.309 162.352 162.885 162.352V159.592C163.733 159.56 164.397 159.368 164.877 159.016C165.373 158.68 165.741 158.208 165.981 157.6L166.197 157.048L161.853 144.832H164.589L166.677 150.904L167.493 153.472L168.285 150.904L170.277 144.832H173.013L168.261 158.2ZM177.742 140.68V141.136C177.742 142.304 177.574 143.416 177.238 144.472C176.902 145.528 176.334 146.68 175.534 147.928L173.806 146.992C174.19 146.208 174.47 145.512 174.646 144.904C174.822 144.296 174.934 143.664 174.982 143.008C175.03 142.352 175.054 141.576 175.054 140.68H177.742ZM183.179 154.84C183.771 154.84 184.259 154.744 184.643 154.552C185.027 154.344 185.219 154.04 185.219 153.64C185.219 153.288 185.091 153.016 184.835 152.824C184.595 152.616 184.155 152.432 183.515 152.272L182.147 151.912C181.091 151.64 180.307 151.184 179.795 150.544C179.299 149.904 179.051 149.144 179.051 148.264C179.051 147.224 179.411 146.352 180.131 145.648C180.851 144.944 181.963 144.592 183.467 144.592C184.075 144.592 184.715 144.664 185.387 144.808C186.059 144.952 186.763 145.184 187.499 145.504L186.707 147.856C186.035 147.536 185.427 147.312 184.883 147.184C184.339 147.056 183.859 146.992 183.443 146.992C182.307 146.992 181.739 147.376 181.739 148.144C181.739 148.448 181.835 148.688 182.027 148.864C182.235 149.04 182.611 149.2 183.155 149.344L184.523 149.704C185.691 150.008 186.539 150.472 187.067 151.096C187.611 151.72 187.883 152.504 187.883 153.448C187.883 154.568 187.499 155.48 186.731 156.184C185.979 156.888 184.787 157.24 183.155 157.24C181.763 157.24 180.299 156.92 178.763 156.28L179.507 154C180.259 154.304 180.939 154.52 181.547 154.648C182.155 154.776 182.699 154.84 183.179 154.84ZM198.929 154.84C199.521 154.84 200.009 154.744 200.393 154.552C200.777 154.344 200.969 154.04 200.969 153.64C200.969 153.288 200.841 153.016 200.585 152.824C200.345 152.616 199.905 152.432 199.265 152.272L197.897 151.912C196.841 151.64 196.057 151.184 195.545 150.544C195.049 149.904 194.801 149.144 194.801 148.264C194.801 147.224 195.161 146.352 195.881 145.648C196.601 144.944 197.713 144.592 199.217 144.592C199.825 144.592 200.465 144.664 201.137 144.808C201.809 144.952 202.513 145.184 203.249 145.504L202.457 147.856C201.785 147.536 201.177 147.312 200.633 147.184C200.089 147.056 199.609 146.992 199.193 146.992C198.057 146.992 197.489 147.376 197.489 148.144C197.489 148.448 197.585 148.688 197.777 148.864C197.985 149.04 198.361 149.2 198.905 149.344L200.273 149.704C201.441 150.008 202.289 150.472 202.817 151.096C203.361 151.72 203.633 152.504 203.633 153.448C203.633 154.568 203.249 155.48 202.481 156.184C201.729 156.888 200.537 157.24 198.905 157.24C197.513 157.24 196.049 156.92 194.513 156.28L195.257 154C196.009 154.304 196.689 154.52 197.297 154.648C197.905 154.776 198.449 154.84 198.929 154.84ZM208.578 150.208V151.624C208.578 152.648 208.762 153.416 209.13 153.928C209.498 154.44 210.09 154.696 210.906 154.696C211.306 154.696 211.754 154.648 212.25 154.552C212.762 154.44 213.314 154.272 213.906 154.048L214.698 156.376C213.978 156.664 213.298 156.88 212.658 157.024C212.018 157.168 211.386 157.24 210.762 157.24C209.162 157.24 207.938 156.728 207.09 155.704C206.242 154.68 205.818 153.32 205.818 151.624V150.208C205.818 148.496 206.242 147.136 207.09 146.128C207.938 145.104 209.162 144.592 210.762 144.592C211.37 144.592 211.986 144.664 212.61 144.808C213.234 144.952 213.89 145.16 214.578 145.432L213.786 147.808C212.634 147.36 211.674 147.136 210.906 147.136C210.09 147.136 209.498 147.392 209.13 147.904C208.762 148.4 208.578 149.168 208.578 150.208ZM223.176 147.16C222.776 147.16 222.32 147.256 221.808 147.448C221.296 147.64 220.688 148.016 219.984 148.576V157H217.224V139.24H219.984V146.344C220.72 145.72 221.408 145.272 222.048 145C222.688 144.728 223.344 144.592 224.016 144.592C225.184 144.592 226.072 144.968 226.68 145.72C227.288 146.456 227.592 147.496 227.592 148.84V157H224.832V149.176C224.832 147.832 224.28 147.16 223.176 147.16ZM240.48 156.304C239.648 156.64 238.864 156.88 238.128 157.024C237.392 157.168 236.696 157.24 236.04 157.24C234.232 157.24 232.864 156.728 231.936 155.704C231.008 154.68 230.544 153.32 230.544 151.624V150.184C230.544 149.048 230.752 148.064 231.168 147.232C231.584 146.4 232.176 145.752 232.944 145.288C233.712 144.824 234.616 144.592 235.656 144.592C236.504 144.592 237.296 144.768 238.032 145.12C238.784 145.456 239.392 145.992 239.856 146.728C240.336 147.448 240.576 148.376 240.576 149.512C240.576 149.848 240.552 150.208 240.504 150.592C240.456 150.96 240.376 151.352 240.264 151.768H233.208C233.24 152.76 233.488 153.504 233.952 154C234.416 154.496 235.16 154.744 236.184 154.744C236.728 154.744 237.288 154.68 237.864 154.552C238.456 154.424 239.064 154.232 239.688 153.976L240.48 156.304ZM235.656 146.92C234.92 146.92 234.344 147.16 233.928 147.64C233.528 148.104 233.296 148.776 233.232 149.656H237.84C237.856 149.576 237.864 149.504 237.864 149.44C237.864 149.36 237.864 149.288 237.864 149.224C237.864 148.456 237.648 147.88 237.216 147.496C236.784 147.112 236.264 146.92 235.656 146.92ZM250.883 157V155.344C250.147 156.08 249.507 156.584 248.963 156.856C248.435 157.112 247.883 157.24 247.307 157.24C245.995 157.24 244.971 156.744 244.235 155.752C243.515 154.76 243.155 153.368 243.155 151.576V150.28C243.155 148.536 243.595 147.152 244.475 146.128C245.355 145.104 246.627 144.592 248.291 144.592C248.707 144.592 249.115 144.632 249.515 144.712C249.931 144.792 250.339 144.904 250.739 145.048V139.24H253.499V157H250.883ZM245.987 151.576C245.987 152.648 246.163 153.432 246.515 153.928C246.883 154.424 247.395 154.672 248.051 154.672C248.419 154.672 248.811 154.568 249.227 154.36C249.643 154.136 250.147 153.72 250.739 153.112V147.544C249.955 147.224 249.235 147.064 248.579 147.064C247.651 147.064 246.987 147.352 246.587 147.928C246.187 148.504 245.987 149.288 245.987 150.28V151.576ZM264.55 157V155.392C263.814 156.032 263.126 156.504 262.486 156.808C261.846 157.096 261.198 157.24 260.542 157.24C259.454 157.24 258.614 156.872 258.022 156.136C257.43 155.384 257.134 154.336 257.134 152.992V144.832H259.894V152.656C259.894 154 260.39 154.672 261.382 154.672C261.782 154.672 262.214 154.576 262.678 154.384C263.158 154.192 263.734 153.824 264.406 153.28V144.832H267.166V157H264.55ZM270.894 153.568V139.24H273.654V153.568C273.654 153.808 273.71 154.04 273.822 154.264C273.95 154.472 274.19 154.576 274.542 154.576H274.926V157.12H274.254C273.342 157.12 272.646 156.944 272.166 156.592C271.686 156.24 271.35 155.792 271.158 155.248C270.982 154.704 270.894 154.144 270.894 153.568ZM286.839 156.304C286.007 156.64 285.223 156.88 284.487 157.024C283.751 157.168 283.055 157.24 282.399 157.24C280.591 157.24 279.223 156.728 278.295 155.704C277.367 154.68 276.903 153.32 276.903 151.624V150.184C276.903 149.048 277.111 148.064 277.527 147.232C277.943 146.4 278.535 145.752 279.303 145.288C280.071 144.824 280.975 144.592 282.015 144.592C282.863 144.592 283.655 144.768 284.391 145.12C285.143 145.456 285.751 145.992 286.215 146.728C286.695 147.448 286.935 148.376 286.935 149.512C286.935 149.848 286.911 150.208 286.863 150.592C286.815 150.96 286.735 151.352 286.623 151.768H279.567C279.599 152.76 279.847 153.504 280.311 154C280.775 154.496 281.519 154.744 282.543 154.744C283.087 154.744 283.647 154.68 284.223 154.552C284.815 154.424 285.423 154.232 286.047 153.976L286.839 156.304ZM282.015 146.92C281.279 146.92 280.703 147.16 280.287 147.64C279.887 148.104 279.655 148.776 279.591 149.656H284.199C284.215 149.576 284.223 149.504 284.223 149.44C284.223 149.36 284.223 149.288 284.223 149.224C284.223 148.456 284.007 147.88 283.575 147.496C283.143 147.112 282.623 146.92 282.015 146.92ZM292.203 147.688H289.299V144.832H292.203V147.688ZM292.203 157H289.299V154.144H292.203V157ZM94.1823 172.368L98.9343 169.68H101.334V183.288H104.262V186H94.9743V183.288H98.5023V173.016L95.5023 174.696L94.1823 172.368ZM109.922 186H107.018V183.144H109.922V186ZM129.944 186L128.936 182.808H123.344L122.336 186H119.48L124.928 169.68H127.472L132.944 186H129.944ZM124.904 177.816L124.16 180.168H128.096L127.352 177.816L126.152 173.688L124.904 177.816ZM135.238 182.568V168.24H137.998V182.568C137.998 182.808 138.054 183.04 138.166 183.264C138.294 183.472 138.534 183.576 138.886 183.576H139.27V186.12H138.598C137.686 186.12 136.99 185.944 136.51 185.592C136.03 185.24 135.694 184.792 135.502 184.248C135.326 183.704 135.238 183.144 135.238 182.568ZM152.047 187.224C152.047 188.52 151.535 189.528 150.511 190.248C149.503 190.984 148.095 191.352 146.287 191.352C145.439 191.352 144.543 191.256 143.599 191.064C142.655 190.872 141.783 190.552 140.983 190.104L141.775 187.92C142.543 188.304 143.303 188.576 144.055 188.736C144.807 188.912 145.543 189 146.263 189C147.271 189 148.039 188.864 148.567 188.592C149.095 188.32 149.359 187.96 149.359 187.512C149.359 186.824 148.951 186.48 148.135 186.48H145.255C144.471 186.48 143.839 186.352 143.359 186.096C142.879 185.84 142.527 185.512 142.303 185.112C142.079 184.696 141.967 184.264 141.967 183.816C141.967 183.352 142.063 182.92 142.255 182.52C142.463 182.104 142.743 181.72 143.095 181.368C142.519 181.016 142.055 180.544 141.703 179.952C141.367 179.36 141.199 178.648 141.199 177.816C141.199 176.872 141.399 176.088 141.799 175.464C142.199 174.84 142.743 174.376 143.431 174.072C144.135 173.752 144.911 173.592 145.759 173.592H146.167C146.487 173.592 146.799 173.616 147.103 173.664C147.407 173.696 147.695 173.752 147.967 173.832H152.311V176.184L149.911 175.8C150.151 176.056 150.335 176.376 150.463 176.76C150.607 177.128 150.679 177.584 150.679 178.128C150.679 178.944 150.471 179.648 150.055 180.24C149.655 180.816 149.111 181.264 148.423 181.584C147.751 181.888 146.999 182.04 146.167 182.04H145.759C145.439 182.04 145.135 182.016 144.847 181.968C144.671 182.16 144.543 182.36 144.463 182.568C144.383 182.76 144.343 182.944 144.343 183.12C144.343 183.68 144.703 183.96 145.423 183.96H148.351C149.455 183.96 150.343 184.248 151.015 184.824C151.703 185.384 152.047 186.184 152.047 187.224ZM146.167 179.784C146.663 179.784 147.095 179.616 147.463 179.28C147.847 178.944 148.039 178.456 148.039 177.816C148.039 177.176 147.847 176.688 147.463 176.352C147.095 176.016 146.663 175.848 146.167 175.848H145.759C145.247 175.848 144.799 176.016 144.415 176.352C144.047 176.688 143.863 177.176 143.863 177.816C143.863 178.456 144.047 178.944 144.415 179.28C144.799 179.616 145.247 179.784 145.759 179.784H146.167ZM163.933 185.304C163.101 185.64 162.317 185.88 161.581 186.024C160.845 186.168 160.149 186.24 159.493 186.24C157.685 186.24 156.317 185.728 155.389 184.704C154.461 183.68 153.997 182.32 153.997 180.624V179.184C153.997 178.048 154.205 177.064 154.621 176.232C155.037 175.4 155.629 174.752 156.397 174.288C157.165 173.824 158.069 173.592 159.109 173.592C159.957 173.592 160.749 173.768 161.485 174.12C162.237 174.456 162.845 174.992 163.309 175.728C163.789 176.448 164.029 177.376 164.029 178.512C164.029 178.848 164.005 179.208 163.957 179.592C163.909 179.96 163.829 180.352 163.717 180.768H156.661C156.693 181.76 156.941 182.504 157.405 183C157.869 183.496 158.613 183.744 159.637 183.744C160.181 183.744 160.741 183.68 161.317 183.552C161.909 183.424 162.517 183.232 163.141 182.976L163.933 185.304ZM159.109 175.92C158.373 175.92 157.797 176.16 157.381 176.64C156.981 177.104 156.749 177.776 156.685 178.656H161.293C161.309 178.576 161.317 178.504 161.317 178.44C161.317 178.36 161.317 178.288 161.317 178.224C161.317 177.456 161.101 176.88 160.669 176.496C160.237 176.112 159.717 175.92 159.109 175.92ZM177.457 180.552C177.457 182.296 177.025 183.68 176.161 184.704C175.297 185.728 174.033 186.24 172.368 186.24C170.641 186.24 168.889 185.76 167.113 184.8V168.24H169.873V175.44C170.609 174.704 171.241 174.216 171.769 173.976C172.297 173.72 172.841 173.592 173.401 173.592C174.681 173.592 175.673 174.088 176.377 175.08C177.097 176.072 177.457 177.464 177.457 179.256V180.552ZM172.657 176.16C172.273 176.16 171.865 176.272 171.433 176.496C171.017 176.72 170.497 177.16 169.873 177.816V183.264C170.305 183.44 170.697 183.568 171.049 183.648C171.417 183.728 171.777 183.768 172.129 183.768C173.025 183.768 173.665 183.48 174.049 182.904C174.433 182.328 174.625 181.544 174.625 180.552V179.256C174.625 178.184 174.449 177.4 174.097 176.904C173.761 176.408 173.281 176.16 172.657 176.16ZM187.502 176.352C186.75 176.352 186.03 176.472 185.342 176.712C184.67 176.936 184.022 177.304 183.398 177.816V186H180.638V173.832H183.254V175.704C184.07 174.936 184.798 174.392 185.438 174.072C186.078 173.752 186.766 173.592 187.502 173.592V176.352ZM199.135 186.12C198.319 186.12 197.663 185.952 197.167 185.616C196.687 185.28 196.335 184.864 196.111 184.368C195.423 185.008 194.759 185.48 194.119 185.784C193.479 186.088 192.791 186.24 192.055 186.24C190.983 186.24 190.191 185.896 189.679 185.208C189.183 184.52 188.935 183.648 188.935 182.592C188.935 181.888 189.063 181.272 189.319 180.744C189.591 180.2 190.031 179.776 190.639 179.472C191.247 179.168 192.079 179.016 193.135 179.016C193.551 179.016 193.983 179.048 194.431 179.112C194.879 179.16 195.327 179.224 195.775 179.304V177.888C195.775 177.216 195.591 176.76 195.223 176.52C194.855 176.264 194.359 176.136 193.735 176.136C193.255 176.136 192.727 176.2 192.151 176.328C191.591 176.456 190.983 176.656 190.327 176.928L189.535 174.576C191.151 173.92 192.615 173.592 193.927 173.592C195.111 173.592 196.023 173.792 196.663 174.192C197.319 174.592 197.775 175.12 198.031 175.776C198.287 176.432 198.415 177.136 198.415 177.888V182.568C198.415 182.808 198.479 183.04 198.607 183.264C198.751 183.472 199.023 183.576 199.423 183.576H199.687V186.12H199.135ZM191.599 182.544C191.599 182.976 191.695 183.32 191.887 183.576C192.079 183.816 192.359 183.936 192.727 183.936C193.095 183.936 193.511 183.84 193.975 183.648C194.439 183.456 195.039 183.008 195.775 182.304V181.272C194.943 181.128 194.127 181.056 193.327 181.056C192.703 181.056 192.255 181.184 191.983 181.44C191.727 181.696 191.599 182.064 191.599 182.544ZM104.214 215H94.3263V212.72C94.3263 211.568 94.4783 210.608 94.7823 209.84C95.0863 209.056 95.4943 208.416 96.0063 207.92C96.5183 207.408 97.0783 207 97.6863 206.696L99.3183 205.88C99.9423 205.56 100.446 205.224 100.83 204.872C101.23 204.504 101.43 204.032 101.43 203.456V203.024C101.43 202.432 101.222 201.968 100.806 201.632C100.406 201.28 99.7583 201.104 98.8623 201.104C98.3183 201.104 97.7663 201.184 97.2063 201.344C96.6623 201.504 95.9983 201.728 95.2143 202.016L94.3263 199.544C95.2223 199.144 96.0383 198.864 96.7743 198.704C97.5263 198.528 98.2543 198.44 98.9583 198.44C100.254 198.44 101.286 198.648 102.054 199.064C102.838 199.48 103.398 200.04 103.734 200.744C104.086 201.432 104.262 202.192 104.262 203.024V203.456C104.262 204.32 104.086 205.056 103.734 205.664C103.398 206.272 102.95 206.784 102.39 207.2C101.83 207.616 101.222 207.984 100.566 208.304L98.9343 209.12C98.3423 209.408 97.9023 209.808 97.6143 210.32C97.3423 210.832 97.1903 211.488 97.1583 212.288H104.214V215ZM109.922 215H107.018V212.144H109.922V215ZM132.056 213.944C131.656 214.184 130.992 214.464 130.064 214.784C129.152 215.088 128.08 215.24 126.848 215.24C125.456 215.24 124.288 214.952 123.344 214.376C122.416 213.8 121.712 213.008 121.232 212C120.752 210.992 120.512 209.84 120.512 208.544V205.112C120.512 203.784 120.752 202.624 121.232 201.632C121.712 200.624 122.424 199.84 123.368 199.28C124.328 198.72 125.528 198.44 126.968 198.44C127.672 198.44 128.4 198.52 129.152 198.68C129.904 198.824 130.728 199.096 131.624 199.496L130.736 202.016C129.952 201.712 129.272 201.496 128.696 201.368C128.136 201.224 127.576 201.152 127.016 201.152C125.768 201.152 124.864 201.512 124.304 202.232C123.744 202.936 123.464 203.896 123.464 205.112V208.544C123.464 209.696 123.744 210.64 124.304 211.376C124.88 212.112 125.776 212.48 126.992 212.48C127.36 212.48 127.76 212.448 128.192 212.384C128.624 212.32 129.04 212.232 129.44 212.12V208.544H126.8V206.024H132.056V213.944ZM144.597 214.304C143.765 214.64 142.981 214.88 142.245 215.024C141.509 215.168 140.813 215.24 140.157 215.24C138.349 215.24 136.981 214.728 136.053 213.704C135.125 212.68 134.661 211.32 134.661 209.624V208.184C134.661 207.048 134.869 206.064 135.285 205.232C135.701 204.4 136.293 203.752 137.061 203.288C137.829 202.824 138.733 202.592 139.773 202.592C140.621 202.592 141.413 202.768 142.149 203.12C142.901 203.456 143.509 203.992 143.973 204.728C144.453 205.448 144.693 206.376 144.693 207.512C144.693 207.848 144.669 208.208 144.621 208.592C144.573 208.96 144.493 209.352 144.381 209.768H137.325C137.357 210.76 137.605 211.504 138.069 212C138.533 212.496 139.277 212.744 140.301 212.744C140.845 212.744 141.405 212.68 141.981 212.552C142.573 212.424 143.181 212.232 143.805 211.976L144.597 214.304ZM139.773 204.92C139.037 204.92 138.461 205.16 138.045 205.64C137.645 206.104 137.413 206.776 137.349 207.656H141.957C141.973 207.576 141.981 207.504 141.981 207.44C141.981 207.36 141.981 207.288 141.981 207.224C141.981 206.456 141.765 205.88 141.333 205.496C140.901 205.112 140.381 204.92 139.773 204.92ZM157.833 208.184V209.624C157.833 211.32 157.369 212.68 156.441 213.704C155.513 214.728 154.201 215.24 152.505 215.24C150.809 215.24 149.497 214.728 148.569 213.704C147.641 212.68 147.177 211.32 147.177 209.624V208.184C147.177 206.488 147.633 205.136 148.545 204.128C149.473 203.104 150.793 202.592 152.505 202.592C154.217 202.592 155.529 203.104 156.441 204.128C157.369 205.136 157.833 206.488 157.833 208.184ZM155.001 208.184C155.001 207.208 154.785 206.448 154.353 205.904C153.921 205.344 153.305 205.064 152.505 205.064C151.705 205.064 151.089 205.344 150.657 205.904C150.225 206.448 150.009 207.208 150.009 208.184V209.624C150.009 210.6 150.225 211.368 150.657 211.928C151.089 212.488 151.705 212.768 152.505 212.768C153.305 212.768 153.921 212.488 154.353 211.928C154.785 211.368 155.001 210.6 155.001 209.624V208.184ZM163.687 206.576V215H160.927V202.832H163.543V204.44C164.295 203.784 164.991 203.312 165.631 203.024C166.271 202.736 166.927 202.592 167.599 202.592C169.087 202.592 170.103 203.248 170.647 204.56C171.447 203.856 172.191 203.352 172.879 203.048C173.567 202.744 174.263 202.592 174.967 202.592C176.087 202.592 176.943 202.968 177.535 203.72C178.127 204.456 178.423 205.496 178.423 206.84V215H175.663V207.176C175.663 205.832 175.151 205.16 174.127 205.16C173.727 205.16 173.287 205.256 172.807 205.448C172.327 205.64 171.743 206.016 171.055 206.576V215H168.295V207.176C168.295 205.832 167.783 205.16 166.759 205.16C166.359 205.16 165.919 205.256 165.439 205.448C164.959 205.64 164.375 206.016 163.687 206.576ZM191.308 214.304C190.476 214.64 189.692 214.88 188.956 215.024C188.22 215.168 187.524 215.24 186.868 215.24C185.06 215.24 183.692 214.728 182.764 213.704C181.836 212.68 181.372 211.32 181.372 209.624V208.184C181.372 207.048 181.58 206.064 181.996 205.232C182.412 204.4 183.004 203.752 183.772 203.288C184.54 202.824 185.444 202.592 186.484 202.592C187.332 202.592 188.124 202.768 188.86 203.12C189.612 203.456 190.22 203.992 190.684 204.728C191.164 205.448 191.404 206.376 191.404 207.512C191.404 207.848 191.38 208.208 191.332 208.592C191.284 208.96 191.204 209.352 191.092 209.768H184.036C184.068 210.76 184.316 211.504 184.78 212C185.244 212.496 185.988 212.744 187.012 212.744C187.556 212.744 188.116 212.68 188.692 212.552C189.284 212.424 189.892 212.232 190.516 211.976L191.308 214.304ZM186.484 204.92C185.748 204.92 185.172 205.16 184.756 205.64C184.356 206.104 184.124 206.776 184.06 207.656H188.668C188.684 207.576 188.692 207.504 188.692 207.44C188.692 207.36 188.692 207.288 188.692 207.224C188.692 206.456 188.476 205.88 188.044 205.496C187.612 205.112 187.092 204.92 186.484 204.92ZM201.904 214.592C201.488 214.784 201.008 214.936 200.464 215.048C199.92 215.176 199.368 215.24 198.808 215.24C197.88 215.24 197.136 215.048 196.576 214.664C196.016 214.28 195.608 213.744 195.352 213.056C195.112 212.368 194.992 211.584 194.992 210.704V205.232H193.024V202.832H194.992V199.664H197.752V202.832H201.544V205.232H197.752V210.704C197.752 211.44 197.888 211.952 198.16 212.24C198.448 212.512 198.856 212.648 199.384 212.648C199.64 212.648 199.912 212.624 200.2 212.576C200.504 212.512 200.84 212.408 201.208 212.264L201.904 214.592ZM210.987 205.352C210.235 205.352 209.515 205.472 208.827 205.712C208.155 205.936 207.507 206.304 206.883 206.816V215H204.123V202.832H206.739V204.704C207.555 203.936 208.283 203.392 208.923 203.072C209.563 202.752 210.251 202.592 210.987 202.592V205.352ZM218.324 216.2C217.796 217.672 217.124 218.728 216.308 219.368C215.492 220.024 214.372 220.352 212.948 220.352V217.592C213.796 217.56 214.46 217.368 214.94 217.016C215.436 216.68 215.804 216.208 216.044 215.6L216.26 215.048L211.916 202.832H214.652L216.74 208.904L217.556 211.472L218.348 208.904L220.34 202.832H223.076L218.324 216.2ZM104.07 239.56C104.07 240.408 103.894 241.192 103.542 241.912C103.19 242.616 102.622 243.184 101.838 243.616C101.07 244.032 100.038 244.24 98.7423 244.24C98.0063 244.24 97.2383 244.152 96.4383 243.976C95.6543 243.8 94.7903 243.504 93.8463 243.088L94.7343 240.616C95.5823 240.92 96.2943 241.16 96.8703 241.336C97.4623 241.496 98.0543 241.576 98.6463 241.576C99.4943 241.576 100.134 241.408 100.566 241.072C101.014 240.72 101.238 240.176 101.238 239.44V239.104C101.238 238.496 101.046 238.008 100.662 237.64C100.294 237.256 99.7183 237.064 98.9343 237.064H96.3903V234.472H98.9343C99.6863 234.472 100.238 234.296 100.59 233.944C100.942 233.576 101.118 233.104 101.118 232.528V232.192C101.118 231.456 100.91 230.928 100.494 230.608C100.094 230.272 99.5023 230.104 98.7183 230.104C98.1583 230.104 97.5903 230.184 97.0143 230.344C96.4543 230.488 95.7743 230.712 94.9743 231.016L94.0863 228.544C94.9823 228.128 95.8143 227.84 96.5823 227.68C97.3503 227.52 98.0943 227.44 98.8143 227.44C100.046 227.44 101.038 227.648 101.79 228.064C102.542 228.48 103.086 229.04 103.422 229.744C103.774 230.448 103.95 231.224 103.95 232.072V232.408C103.95 233.16 103.758 233.824 103.374 234.4C103.006 234.96 102.518 235.408 101.91 235.744C102.566 236.096 103.086 236.568 103.47 237.16C103.87 237.736 104.07 238.424 104.07 239.224V239.56ZM109.922 244H107.018V241.144H109.922V244ZM129.944 244L128.936 240.808H123.344L122.336 244H119.48L124.928 227.68H127.472L132.944 244H129.944ZM124.904 235.816L124.16 238.168H128.096L127.352 235.816L126.152 231.688L124.904 235.816ZM141.94 234.352C141.188 234.352 140.468 234.472 139.78 234.712C139.108 234.936 138.46 235.304 137.836 235.816V244H135.076V231.832H137.692V233.704C138.508 232.936 139.236 232.392 139.876 232.072C140.516 231.752 141.204 231.592 141.94 231.592V234.352ZM151.677 243.592C151.261 243.784 150.781 243.936 150.237 244.048C149.693 244.176 149.141 244.24 148.581 244.24C147.653 244.24 146.909 244.048 146.349 243.664C145.789 243.28 145.381 242.744 145.125 242.056C144.885 241.368 144.765 240.584 144.765 239.704V234.232H142.797V231.832H144.765V228.664H147.525V231.832H151.317V234.232H147.525V239.704C147.525 240.44 147.661 240.952 147.933 241.24C148.221 241.512 148.629 241.648 149.157 241.648C149.413 241.648 149.685 241.624 149.973 241.576C150.277 241.512 150.613 241.408 150.981 241.264L151.677 243.592ZM105.414 269.304H103.71V273H100.926V269.304H93.9183V266.976C94.6383 265.856 95.3503 264.72 96.0543 263.568C96.7743 262.4 97.4463 261.24 98.0703 260.088C98.6943 258.92 99.2063 257.784 99.6063 256.68H102.75C102.158 258.312 101.358 259.992 100.35 261.72C99.3423 263.432 98.3023 265.104 97.2303 266.736H100.926V264.264H103.71V266.736H105.414V269.304ZM109.922 273H107.018V270.144H109.922V273ZM121.256 273V256.68H126.224C127.44 256.68 128.4 256.856 129.104 257.208C129.824 257.56 130.336 258.056 130.64 258.696C130.96 259.336 131.12 260.088 131.12 260.952V261.624C131.12 262.888 130.576 263.856 129.488 264.528C130.256 264.832 130.84 265.272 131.24 265.848C131.64 266.424 131.84 267.112 131.84 267.912V268.584C131.84 269.464 131.68 270.24 131.36 270.912C131.04 271.568 130.512 272.08 129.776 272.448C129.04 272.816 128.056 273 126.824 273H121.256ZM126.224 259.32H124.136V263.4H126.224C126.864 263.4 127.344 263.256 127.664 262.968C128 262.664 128.168 262.256 128.168 261.744V260.952C128.168 260.44 128 260.04 127.664 259.752C127.344 259.464 126.864 259.32 126.224 259.32ZM126.824 266.04H124.136V270.36H126.824C127.496 270.36 128.008 270.2 128.36 269.88C128.712 269.56 128.888 269.128 128.888 268.584V267.792C128.888 267.248 128.712 266.824 128.36 266.52C128.008 266.2 127.496 266.04 126.824 266.04ZM137.767 258.528H134.863V255.672H137.767V258.528ZM137.695 273H134.935V260.832H137.695V273ZM151.458 266.184V267.624C151.458 269.32 150.994 270.68 150.066 271.704C149.138 272.728 147.826 273.24 146.13 273.24C144.434 273.24 143.122 272.728 142.194 271.704C141.266 270.68 140.802 269.32 140.802 267.624V266.184C140.802 264.488 141.258 263.136 142.17 262.128C143.098 261.104 144.418 260.592 146.13 260.592C147.842 260.592 149.154 261.104 150.066 262.128C150.994 263.136 151.458 264.488 151.458 266.184ZM148.626 266.184C148.626 265.208 148.41 264.448 147.978 263.904C147.546 263.344 146.93 263.064 146.13 263.064C145.33 263.064 144.714 263.344 144.282 263.904C143.85 264.448 143.634 265.208 143.634 266.184V267.624C143.634 268.6 143.85 269.368 144.282 269.928C144.714 270.488 145.33 270.768 146.13 270.768C146.93 270.768 147.546 270.488 147.978 269.928C148.41 269.368 148.626 268.6 148.626 267.624V266.184ZM154.48 269.568V255.24H157.24V269.568C157.24 269.808 157.296 270.04 157.408 270.264C157.536 270.472 157.776 270.576 158.128 270.576H158.512V273.12H157.84C156.928 273.12 156.232 272.944 155.752 272.592C155.272 272.24 154.936 271.792 154.744 271.248C154.568 270.704 154.48 270.144 154.48 269.568ZM171.145 266.184V267.624C171.145 269.32 170.681 270.68 169.753 271.704C168.825 272.728 167.513 273.24 165.817 273.24C164.121 273.24 162.809 272.728 161.881 271.704C160.953 270.68 160.489 269.32 160.489 267.624V266.184C160.489 264.488 160.945 263.136 161.857 262.128C162.785 261.104 164.105 260.592 165.817 260.592C167.529 260.592 168.841 261.104 169.753 262.128C170.681 263.136 171.145 264.488 171.145 266.184ZM168.313 266.184C168.313 265.208 168.097 264.448 167.665 263.904C167.233 263.344 166.617 263.064 165.817 263.064C165.017 263.064 164.401 263.344 163.969 263.904C163.537 264.448 163.321 265.208 163.321 266.184V267.624C163.321 268.6 163.537 269.368 163.969 269.928C164.401 270.488 165.017 270.768 165.817 270.768C166.617 270.768 167.233 270.488 167.665 269.928C168.097 269.368 168.313 268.6 168.313 267.624V266.184ZM184.344 274.224C184.344 275.52 183.832 276.528 182.808 277.248C181.8 277.984 180.392 278.352 178.584 278.352C177.736 278.352 176.84 278.256 175.896 278.064C174.952 277.872 174.08 277.552 173.28 277.104L174.072 274.92C174.84 275.304 175.6 275.576 176.352 275.736C177.104 275.912 177.84 276 178.56 276C179.568 276 180.336 275.864 180.864 275.592C181.392 275.32 181.656 274.96 181.656 274.512C181.656 273.824 181.248 273.48 180.432 273.48H177.552C176.768 273.48 176.136 273.352 175.656 273.096C175.176 272.84 174.824 272.512 174.6 272.112C174.376 271.696 174.264 271.264 174.264 270.816C174.264 270.352 174.36 269.92 174.552 269.52C174.76 269.104 175.04 268.72 175.392 268.368C174.816 268.016 174.352 267.544 174 266.952C173.664 266.36 173.496 265.648 173.496 264.816C173.496 263.872 173.696 263.088 174.096 262.464C174.496 261.84 175.04 261.376 175.728 261.072C176.432 260.752 177.208 260.592 178.056 260.592H178.464C178.784 260.592 179.096 260.616 179.4 260.664C179.704 260.696 179.992 260.752 180.264 260.832H184.608V263.184L182.208 262.8C182.448 263.056 182.632 263.376 182.76 263.76C182.904 264.128 182.976 264.584 182.976 265.128C182.976 265.944 182.768 266.648 182.352 267.24C181.952 267.816 181.408 268.264 180.72 268.584C180.048 268.888 179.296 269.04 178.464 269.04H178.056C177.736 269.04 177.432 269.016 177.144 268.968C176.968 269.16 176.84 269.36 176.76 269.568C176.68 269.76 176.64 269.944 176.64 270.12C176.64 270.68 177 270.96 177.72 270.96H180.648C181.752 270.96 182.64 271.248 183.312 271.824C184 272.384 184.344 273.184 184.344 274.224ZM178.464 266.784C178.96 266.784 179.392 266.616 179.76 266.28C180.144 265.944 180.336 265.456 180.336 264.816C180.336 264.176 180.144 263.688 179.76 263.352C179.392 263.016 178.96 262.848 178.464 262.848H178.056C177.544 262.848 177.096 263.016 176.712 263.352C176.344 263.688 176.16 264.176 176.16 264.816C176.16 265.456 176.344 265.944 176.712 266.28C177.096 266.616 177.544 266.784 178.056 266.784H178.464ZM191.91 274.2C191.382 275.672 190.71 276.728 189.894 277.368C189.078 278.024 187.958 278.352 186.534 278.352V275.592C187.382 275.56 188.046 275.368 188.526 275.016C189.022 274.68 189.39 274.208 189.63 273.6L189.846 273.048L185.502 260.832H188.238L190.326 266.904L191.142 269.472L191.934 266.904L193.926 260.832H196.662L191.91 274.2ZM94.7103 293.576L95.1903 285.68H103.542V288.392H97.7343L97.5183 291.992C98.0783 291.848 98.6783 291.776 99.3183 291.776C100.902 291.776 102.142 292.192 103.038 293.024C103.934 293.84 104.382 295.048 104.382 296.648V297.296C104.382 298.192 104.198 299.016 103.83 299.768C103.462 300.52 102.87 301.12 102.054 301.568C101.254 302.016 100.19 302.24 98.8623 302.24C98.1263 302.24 97.3583 302.152 96.5583 301.976C95.7743 301.8 94.9103 301.504 93.9663 301.088L94.8543 298.616C95.7023 298.952 96.4143 299.2 96.9903 299.36C97.5823 299.504 98.1743 299.576 98.7663 299.576C99.6623 299.576 100.334 299.392 100.782 299.024C101.246 298.656 101.478 298.08 101.478 297.296V296.648C101.478 295.944 101.27 295.384 100.854 294.968C100.454 294.552 99.8063 294.344 98.9103 294.344C98.5103 294.344 98.0943 294.4 97.6623 294.512C97.2303 294.608 96.7663 294.752 96.2703 294.944L94.7103 293.576ZM109.922 302H107.018V299.144H109.922V302ZM124.808 299.576C126.664 299.576 127.592 298.888 127.592 297.512C127.592 296.952 127.448 296.512 127.16 296.192C126.888 295.872 126.376 295.592 125.624 295.352L123.656 294.704C121.304 293.936 120.128 292.392 120.128 290.072C120.128 288.728 120.544 287.624 121.376 286.76C122.224 285.88 123.544 285.44 125.336 285.44C126.088 285.44 126.832 285.528 127.568 285.704C128.304 285.864 129.088 286.128 129.92 286.496L129.032 288.968C128.264 288.664 127.608 288.448 127.064 288.32C126.536 288.176 125.992 288.104 125.432 288.104C124.696 288.104 124.112 288.24 123.68 288.512C123.264 288.768 123.056 289.24 123.056 289.928C123.056 290.44 123.2 290.864 123.488 291.2C123.792 291.52 124.288 291.792 124.976 292.016L126.944 292.664C128.128 293.064 129.016 293.648 129.608 294.416C130.216 295.168 130.52 296.168 130.52 297.416C130.52 298.856 130.064 300.024 129.152 300.92C128.24 301.8 126.808 302.24 124.856 302.24C124.088 302.24 123.288 302.152 122.456 301.976C121.64 301.784 120.744 301.464 119.768 301.016L120.656 298.544C121.552 298.928 122.312 299.2 122.936 299.36C123.576 299.504 124.2 299.576 124.808 299.576ZM138.526 302.24C138.126 302.24 137.718 302.2 137.302 302.12C136.902 302.04 136.494 301.928 136.078 301.784V307.112H133.318V289.832H135.934V291.488C136.686 290.736 137.326 290.232 137.854 289.976C138.382 289.72 138.934 289.592 139.51 289.592C140.838 289.592 141.862 290.088 142.582 291.08C143.302 292.072 143.662 293.464 143.662 295.256V296.552C143.662 298.296 143.222 299.68 142.342 300.704C141.462 301.728 140.19 302.24 138.526 302.24ZM138.766 292.16C138.398 292.16 138.006 292.272 137.59 292.496C137.19 292.704 136.686 293.112 136.078 293.72V299.288C136.862 299.608 137.582 299.768 138.238 299.768C139.166 299.768 139.83 299.48 140.23 298.904C140.63 298.328 140.83 297.544 140.83 296.552V295.256C140.83 294.184 140.646 293.4 140.278 292.904C139.926 292.408 139.422 292.16 138.766 292.16ZM156.081 302.12C155.265 302.12 154.609 301.952 154.113 301.616C153.633 301.28 153.281 300.864 153.057 300.368C152.369 301.008 151.705 301.48 151.065 301.784C150.425 302.088 149.737 302.24 149.001 302.24C147.929 302.24 147.137 301.896 146.625 301.208C146.129 300.52 145.881 299.648 145.881 298.592C145.881 297.888 146.009 297.272 146.265 296.744C146.537 296.2 146.977 295.776 147.585 295.472C148.193 295.168 149.025 295.016 150.081 295.016C150.497 295.016 150.929 295.048 151.377 295.112C151.825 295.16 152.273 295.224 152.721 295.304V293.888C152.721 293.216 152.537 292.76 152.169 292.52C151.801 292.264 151.305 292.136 150.681 292.136C150.201 292.136 149.673 292.2 149.097 292.328C148.537 292.456 147.929 292.656 147.273 292.928L146.481 290.576C148.097 289.92 149.561 289.592 150.873 289.592C152.057 289.592 152.969 289.792 153.609 290.192C154.265 290.592 154.721 291.12 154.977 291.776C155.233 292.432 155.361 293.136 155.361 293.888V298.568C155.361 298.808 155.425 299.04 155.553 299.264C155.697 299.472 155.969 299.576 156.369 299.576H156.633V302.12H156.081ZM148.545 298.544C148.545 298.976 148.641 299.32 148.833 299.576C149.025 299.816 149.305 299.936 149.673 299.936C150.041 299.936 150.457 299.84 150.921 299.648C151.385 299.456 151.985 299.008 152.721 298.304V297.272C151.889 297.128 151.073 297.056 150.273 297.056C149.649 297.056 149.201 297.184 148.929 297.44C148.673 297.696 148.545 298.064 148.545 298.544ZM164.981 292.16C164.581 292.16 164.125 292.256 163.613 292.448C163.101 292.64 162.493 293.016 161.789 293.576V302H159.029V289.832H161.645V291.464C162.397 290.808 163.109 290.336 163.781 290.048C164.453 289.744 165.133 289.592 165.821 289.592C166.989 289.592 167.877 289.968 168.485 290.72C169.093 291.456 169.397 292.496 169.397 293.84V302H166.637V294.176C166.637 292.832 166.085 292.16 164.981 292.16ZM175.876 287.528H172.972V284.672H175.876V287.528ZM175.804 302H173.044V289.832H175.804V302ZM183.015 299.84C183.607 299.84 184.095 299.744 184.479 299.552C184.863 299.344 185.055 299.04 185.055 298.64C185.055 298.288 184.927 298.016 184.671 297.824C184.431 297.616 183.991 297.432 183.351 297.272L181.983 296.912C180.927 296.64 180.143 296.184 179.631 295.544C179.135 294.904 178.887 294.144 178.887 293.264C178.887 292.224 179.247 291.352 179.967 290.648C180.687 289.944 181.799 289.592 183.303 289.592C183.911 289.592 184.551 289.664 185.223 289.808C185.895 289.952 186.599 290.184 187.335 290.504L186.543 292.856C185.871 292.536 185.263 292.312 184.719 292.184C184.175 292.056 183.695 291.992 183.279 291.992C182.143 291.992 181.575 292.376 181.575 293.144C181.575 293.448 181.671 293.688 181.863 293.864C182.071 294.04 182.447 294.2 182.991 294.344L184.359 294.704C185.527 295.008 186.375 295.472 186.903 296.096C187.447 296.72 187.719 297.504 187.719 298.448C187.719 299.568 187.335 300.48 186.567 301.184C185.815 301.888 184.623 302.24 182.991 302.24C181.599 302.24 180.135 301.92 178.599 301.28L179.343 299C180.095 299.304 180.775 299.52 181.383 299.648C181.991 299.776 182.535 299.84 183.015 299.84ZM196.504 292.16C196.104 292.16 195.648 292.256 195.136 292.448C194.624 292.64 194.016 293.016 193.312 293.576V302H190.552V284.24H193.312V291.344C194.048 290.72 194.736 290.272 195.376 290C196.016 289.728 196.672 289.592 197.344 289.592C198.512 289.592 199.4 289.968 200.008 290.72C200.616 291.456 200.92 292.496 200.92 293.84V302H198.16V294.176C198.16 292.832 197.608 292.16 196.504 292.16Z"
      fill="#B100AF" />
    <path
      d="M51.5 141C51.5 128.021 62.0213 117.5 75 117.5H302C314.979 117.5 325.5 128.021 325.5 141V299C325.5 311.979 314.979 322.5 302 322.5H51.5V141Z"
      stroke="#777777" />
    <rect x="83" y="134" width="24" height="24" fill="#FFE2FF" />
    <rect x="83" y="134" width="24" height="8" fill="#880086" />
    <path
      d="M85.156 141.06V140.37C85.48 140.37 85.714 140.31 85.858 140.19C86.006 140.066 86.08 139.848 86.08 139.536V136.92H86.8V139.536C86.8 139.848 86.752 140.118 86.656 140.346C86.56 140.574 86.392 140.75 86.152 140.874C85.916 140.998 85.584 141.06 85.156 141.06ZM87.7239 136.92H88.4619V139.536C88.4619 139.8 88.5199 140.008 88.6359 140.16C88.7519 140.308 88.9379 140.382 89.1939 140.382C89.4499 140.382 89.6359 140.308 89.7519 140.16C89.8679 140.008 89.9259 139.8 89.9259 139.536V136.92H90.6639V139.536C90.6639 139.996 90.5419 140.366 90.2979 140.646C90.0539 140.922 89.6859 141.06 89.1939 141.06C88.6979 141.06 88.3279 140.922 88.0839 140.646C87.8439 140.366 87.7239 139.996 87.7239 139.536V136.92ZM94.0508 140.31V141H91.6988V136.92H92.4188V140.31H94.0508Z"
      fill="#FFF7FF" />
    <path
      d="M88.16 145.672L90.928 144.12H92.528V155H90.64V146.232L89.008 147.128L88.16 145.672ZM101.087 145.768C100.362 147.304 99.7433 148.845 99.2313 150.392C98.7299 151.928 98.3299 153.464 98.0312 155H96.0153C96.3139 153.485 96.7086 151.971 97.1993 150.456C97.6899 148.941 98.2926 147.432 99.0073 145.928H94.3353V144.12H101.087V145.768Z"
      fill="black" />
    <rect x="97" y="136" width="1" height="1" fill="#FFF7FF" />
    <rect x="95" y="136" width="1" height="1" fill="#FFF7FF" />
    <rect x="97" y="138" width="1" height="1" fill="#FFF7FF" />
    <rect x="95" y="138" width="1" height="1" fill="#FFF7FF" />
    <rect x="97" y="140" width="1" height="1" fill="#FFF7FF" />
    <rect x="95" y="140" width="1" height="1" fill="#FFF7FF" />
    <rect x="99" y="136" width="1" height="1" fill="#FFF7FF" />
    <rect x="99" y="138" width="1" height="1" fill="#FFF7FF" />
    <rect x="99" y="140" width="1" height="1" fill="#FFF7FF" />
    <rect x="101" y="136" width="1" height="1" fill="#FFF7FF" />
    <rect x="101" y="138" width="1" height="1" fill="#FFF7FF" />
    <rect x="101" y="140" width="1" height="1" fill="#FFF7FF" />
    <rect x="103" y="136" width="1" height="1" fill="#FFF7FF" />
    <rect x="103" y="138" width="1" height="1" fill="#FFF7FF" />
    <rect x="103" y="140" width="1" height="1" fill="#FFF7FF" />
    <rect x="83.5" y="134.5" width="23" height="23" rx="5.5" stroke="black" />
  </svg>
  