<svg viewBox="0 0 924 447" fill="none" xmlns="http://www.w3.org/2000/svg">
        <rect x="623.417" y="224.806" width="343" height="49" rx="15.5" transform="rotate(-40 623.417 224.806)"
          fill="#FCFCF7" />
        <path
          d="M752.082 140.073L758.614 147.857C759.328 148.708 759.79 149.61 760.002 150.563C760.218 151.513 760.142 152.469 759.773 153.433C759.4 154.392 758.692 155.309 757.649 156.183C756.163 157.431 754.691 157.978 753.236 157.825C751.786 157.668 750.494 156.914 749.362 155.565L742.857 147.813L744.265 146.632L750.804 154.425C751.66 155.446 752.589 156.007 753.592 156.11C754.6 156.209 755.641 155.807 756.717 154.904C757.452 154.288 757.942 153.652 758.187 152.997C758.434 152.333 758.469 151.667 758.293 151.001C758.119 150.325 757.767 149.672 757.237 149.041L750.691 141.24L752.082 140.073ZM761.729 136.83C762.799 135.932 763.829 135.516 764.82 135.583C765.806 135.644 766.784 136.253 767.755 137.41L772.686 143.286L771.336 144.418L766.482 138.633C765.851 137.882 765.207 137.464 764.548 137.381C763.895 137.294 763.214 137.547 762.507 138.141C761.508 138.978 761.043 139.85 761.111 140.756C761.179 141.662 761.665 142.652 762.567 143.727L766.53 148.451L765.164 149.597L757.596 140.578L758.699 139.653L759.996 140.78L760.07 140.718C759.995 140.239 760.016 139.768 760.132 139.305C760.245 138.837 760.438 138.394 760.714 137.976C760.985 137.553 761.323 137.17 761.729 136.83ZM769.298 130.759L776.866 139.778L775.5 140.924L767.932 131.905L769.298 130.759ZM765.8 127.945C766.025 127.756 766.28 127.669 766.563 127.683C766.847 127.688 767.118 127.844 767.376 128.151C767.629 128.453 767.736 128.747 767.695 129.033C767.661 129.315 767.531 129.55 767.306 129.738C767.07 129.936 766.81 130.028 766.527 130.013C766.249 129.994 765.983 129.834 765.73 129.532C765.472 129.225 765.361 128.935 765.394 128.664C765.429 128.382 765.565 128.142 765.8 127.945ZM781.875 133.949C782.1 133.76 782.314 133.547 782.517 133.311C782.721 133.075 782.874 132.867 782.976 132.688L783.867 133.749C783.768 133.954 783.596 134.201 783.352 134.49C783.114 134.774 782.86 135.029 782.591 135.254C782.114 135.655 781.612 135.936 781.084 136.098C780.552 136.255 780 136.232 779.428 136.03C778.861 135.823 778.281 135.365 777.688 134.657L773.199 129.309L771.916 130.386L771.356 129.719L772.199 128.1L771.099 125.686L771.922 124.996L773.676 127.086L776.317 124.869L777.215 125.939L774.574 128.155L779.027 133.463C779.501 134.028 779.985 134.342 780.477 134.406C780.975 134.465 781.441 134.312 781.875 133.949ZM787.882 128.908C788.107 128.719 788.321 128.507 788.525 128.27C788.728 128.034 788.881 127.826 788.983 127.647L789.874 128.709C789.775 128.914 789.603 129.16 789.359 129.449C789.121 129.733 788.867 129.988 788.599 130.214C788.121 130.614 787.619 130.895 787.091 131.058C786.559 131.215 786.007 131.192 785.435 130.989C784.869 130.782 784.289 130.325 783.695 129.617L779.206 124.268L777.923 125.345L777.363 124.679L778.207 123.06L777.106 120.645L777.929 119.955L779.683 122.045L782.325 119.829L783.222 120.898L780.581 123.115L785.034 128.423C785.509 128.988 785.992 129.302 786.485 129.365C786.983 129.424 787.448 129.272 787.882 128.908ZM795.756 116.215C796.377 116.956 796.836 117.697 797.132 118.44C797.428 119.183 797.562 119.906 797.536 120.61C797.51 121.315 797.329 121.99 796.993 122.637C796.658 123.274 796.167 123.863 795.519 124.407C794.916 124.913 794.274 125.274 793.595 125.489C792.916 125.694 792.225 125.75 791.521 125.658C790.823 125.561 790.128 125.307 789.437 124.896C788.752 124.48 788.099 123.902 787.477 123.162C786.649 122.174 786.112 121.194 785.866 120.222C785.616 119.245 785.649 118.315 785.965 117.433C786.282 116.54 786.872 115.733 787.733 115.01C788.556 114.32 789.429 113.9 790.351 113.752C791.28 113.6 792.206 113.729 793.131 114.14C794.057 114.542 794.932 115.233 795.756 116.215ZM788.893 121.974C789.5 122.698 790.123 123.246 790.762 123.617C791.4 123.988 792.042 124.151 792.686 124.105C793.331 124.06 793.968 123.773 794.599 123.243C795.225 122.719 795.616 122.143 795.772 121.516C795.934 120.885 795.888 120.222 795.633 119.529C795.379 118.836 794.948 118.127 794.34 117.403C793.737 116.684 793.121 116.145 792.492 115.785C791.858 115.419 791.221 115.262 790.581 115.313C789.941 115.363 789.303 115.656 788.667 116.19C787.728 116.977 787.3 117.865 787.381 118.853C787.468 119.836 787.972 120.877 788.893 121.974Z"
          fill="#1A1C19" />
        <path
          d="M882.877 33.854C883.72 33.1469 883.831 31.879 883.123 31.0363C882.416 30.1937 881.148 30.0828 880.306 30.7898C879.463 31.4969 879.352 32.7648 880.059 33.6075C880.766 34.4501 882.034 34.5611 882.877 33.854ZM884.162 35.3861C883.32 36.0932 883.209 37.3611 883.916 38.2037C884.623 39.0464 885.891 39.1573 886.734 38.4503C887.576 37.7432 887.687 36.4752 886.98 35.6326C886.273 34.79 885.005 34.679 884.162 35.3861ZM888.019 39.9824C887.177 40.6894 887.066 41.9574 887.773 42.8C888.48 43.6427 889.748 43.7536 890.59 43.0465C891.433 42.3395 891.544 41.0715 890.837 40.2289C890.13 39.3862 888.862 39.2753 888.019 39.9824Z"
          fill="#1A1C19" />
        <rect x="623.417" y="224.806" width="343" height="49" rx="15.5" transform="rotate(-40 623.417 224.806)"
          stroke="#727970" />
        <rect x="415.483" y="280.211" width="359" height="43" rx="15.5" transform="rotate(-40 415.483 280.211)"
          fill="white" />
        <path
          d="M433.98 275.847L440.378 283.472L439.367 284.32L432.969 276.695L433.98 275.847ZM438.583 271.985L438.398 278.199L438.169 281.542L437.096 280.603L437.198 278.002L437.368 273.004L438.583 271.985ZM444.007 280.427L438.064 279.077L437.994 277.771L445.211 279.416L444.007 280.427ZM442.445 272.082L447.199 277.748L446.225 278.566L441.471 272.9L442.445 272.082ZM440.136 271.458C440.004 271.301 439.94 271.129 439.944 270.942C439.95 270.751 440.048 270.577 440.237 270.419C440.422 270.264 440.609 270.199 440.797 270.225C440.989 270.249 441.151 270.339 441.283 270.496C441.409 270.646 441.467 270.818 441.456 271.011C441.446 271.198 441.349 271.369 441.164 271.524C440.975 271.682 440.788 271.75 440.603 271.727C440.418 271.698 440.262 271.608 440.136 271.458ZM443.249 267.356L449.998 275.399L449.024 276.217L442.275 268.173L443.249 267.356ZM449.164 271.379L449.063 271.258C448.72 270.85 448.462 270.421 448.287 269.973C448.11 269.52 448.025 269.071 448.032 268.626C448.035 268.176 448.136 267.747 448.334 267.337C448.528 266.924 448.823 266.552 449.217 266.221C449.615 265.887 450.035 265.66 450.475 265.54C450.917 265.413 451.359 265.387 451.802 265.462C452.246 265.53 452.675 265.69 453.089 265.943C453.501 266.193 453.878 266.522 454.221 266.93L454.322 267.051C454.665 267.459 454.923 267.888 455.098 268.336C455.272 268.785 455.355 269.236 455.348 269.688C455.341 270.134 455.241 270.563 455.046 270.976C454.852 271.383 454.556 271.753 454.158 272.087C453.76 272.421 453.342 272.65 452.904 272.773C452.464 272.893 452.021 272.919 451.578 272.851C451.135 272.777 450.707 272.615 450.296 272.366C449.884 272.116 449.507 271.787 449.164 271.379ZM450.032 270.445L450.133 270.566C450.37 270.849 450.627 271.088 450.905 271.284C451.179 271.476 451.463 271.612 451.757 271.693C452.054 271.771 452.351 271.78 452.647 271.722C452.94 271.661 453.221 271.517 453.49 271.291C453.755 271.069 453.942 270.82 454.05 270.545C454.159 270.263 454.199 269.971 454.171 269.667C454.142 269.364 454.057 269.061 453.916 268.757C453.775 268.447 453.585 268.151 453.348 267.868L453.247 267.747C453.013 267.468 452.757 267.234 452.479 267.045C452.202 266.849 451.914 266.712 451.617 266.634C451.32 266.55 451.024 266.537 450.728 266.595C450.435 266.651 450.154 266.791 449.885 267.017C449.62 267.239 449.433 267.491 449.324 267.773C449.219 268.052 449.18 268.346 449.208 268.656C449.237 268.959 449.323 269.264 449.468 269.571C449.609 269.875 449.797 270.166 450.032 270.445ZM455.207 263.292L459.016 267.832L458.042 268.649L453.288 262.983L454.21 262.21L455.207 263.292ZM456.26 264.951L455.797 265.314C455.475 264.923 455.225 264.523 455.048 264.113C454.867 263.699 454.77 263.289 454.757 262.884C454.744 262.478 454.825 262.089 455 261.716C455.172 261.34 455.447 260.994 455.824 260.677C456.089 260.455 456.366 260.288 456.654 260.177C456.939 260.063 457.23 260.018 457.529 260.04C457.828 260.063 458.128 260.162 458.43 260.338C458.732 260.513 459.032 260.778 459.331 261.134L462.499 264.91L461.53 265.723L458.401 261.995C458.152 261.698 457.903 261.503 457.652 261.41C457.405 261.314 457.157 261.302 456.908 261.374C456.656 261.442 456.408 261.579 456.164 261.784C455.877 262.024 455.681 262.276 455.574 262.538C455.467 262.8 455.43 263.069 455.464 263.344C455.499 263.618 455.586 263.893 455.727 264.167C455.869 264.435 456.046 264.697 456.26 264.951ZM459.483 261.337L459 262.081C458.743 261.767 458.543 261.426 458.401 261.058C458.262 260.687 458.193 260.31 458.194 259.929C458.199 259.544 458.286 259.17 458.457 258.807C458.625 258.44 458.889 258.105 459.249 257.804C459.552 257.549 459.855 257.363 460.156 257.247C460.461 257.128 460.764 257.085 461.065 257.118C461.367 257.145 461.668 257.252 461.968 257.44C462.269 257.628 462.569 257.9 462.867 258.256L465.992 261.979L465.018 262.797L461.885 259.063C461.618 258.745 461.361 258.542 461.113 258.452C460.866 258.356 460.622 258.349 460.382 258.432C460.143 258.508 459.899 258.65 459.651 258.858C459.438 259.036 459.281 259.231 459.178 259.442C459.075 259.653 459.022 259.87 459.019 260.093C459.013 260.313 459.049 260.529 459.127 260.743C459.209 260.954 459.328 261.152 459.483 261.337ZM470.089 258.72C469.694 259.051 469.281 259.285 468.848 259.422C468.416 259.552 467.982 259.592 467.547 259.541C467.115 259.487 466.697 259.344 466.294 259.111C465.89 258.878 465.522 258.563 465.188 258.165L465.003 257.945C464.617 257.484 464.341 257.017 464.175 256.543C464.006 256.066 463.934 255.603 463.957 255.156C463.98 254.708 464.085 254.295 464.274 253.917C464.462 253.539 464.715 253.217 465.033 252.95C465.438 252.61 465.845 252.387 466.256 252.281C466.67 252.171 467.076 252.163 467.476 252.256C467.872 252.346 468.258 252.522 468.633 252.785C469.005 253.044 469.358 253.372 469.692 253.77L470.057 254.205L465.825 257.755L465.162 256.964L468.424 254.227L468.363 254.154C468.138 253.914 467.881 253.713 467.591 253.552C467.304 253.388 467 253.31 466.679 253.317C466.359 253.325 466.032 253.468 465.701 253.746C465.481 253.931 465.318 254.148 465.212 254.397C465.103 254.643 465.058 254.913 465.078 255.205C465.098 255.498 465.181 255.806 465.327 256.13C465.474 256.453 465.69 256.786 465.977 257.128L466.162 257.348C466.387 257.617 466.636 257.839 466.909 258.015C467.182 258.184 467.465 258.298 467.757 258.356C468.053 258.411 468.347 258.403 468.638 258.331C468.932 258.257 469.212 258.108 469.477 257.885C469.82 257.598 470.051 257.285 470.171 256.946C470.291 256.608 470.342 256.247 470.324 255.863L471.302 255.837C471.335 256.125 471.327 256.431 471.279 256.757C471.231 257.083 471.113 257.414 470.926 257.75C470.741 258.083 470.462 258.407 470.089 258.72ZM471.146 247.999L471.77 248.743L468.706 251.313L468.082 250.57L471.146 247.999ZM467.964 248.322L468.932 247.509L473.665 253.149C473.826 253.341 473.977 253.461 474.118 253.509C474.26 253.557 474.391 253.557 474.511 253.51C474.632 253.462 474.746 253.393 474.855 253.302C474.935 253.235 475.013 253.157 475.088 253.07C475.165 252.976 475.221 252.905 475.258 252.857L475.926 253.643C475.87 253.732 475.788 253.84 475.68 253.966C475.578 254.093 475.44 254.23 475.265 254.376C475.028 254.575 474.77 254.711 474.492 254.784C474.214 254.857 473.923 254.833 473.62 254.713C473.317 254.586 473.008 254.334 472.692 253.957L467.964 248.322ZM479.667 250.683C479.273 251.014 478.859 251.248 478.427 251.384C477.995 251.515 477.561 251.555 477.126 251.504C476.694 251.45 476.276 251.306 475.872 251.074C475.469 250.841 475.1 250.526 474.766 250.128L474.582 249.908C474.195 249.447 473.919 248.98 473.753 248.506C473.585 248.029 473.512 247.566 473.535 247.118C473.558 246.671 473.664 246.258 473.852 245.88C474.041 245.502 474.294 245.179 474.611 244.913C475.016 244.573 475.424 244.35 475.834 244.243C476.248 244.134 476.655 244.126 477.054 244.219C477.451 244.309 477.837 244.485 478.212 244.747C478.584 245.006 478.937 245.335 479.27 245.733L479.635 246.167L475.404 249.718L474.74 248.927L478.003 246.19L477.941 246.116C477.716 245.877 477.459 245.676 477.169 245.515C476.883 245.351 476.579 245.272 476.258 245.28C475.937 245.287 475.611 245.43 475.279 245.709C475.059 245.893 474.896 246.11 474.79 246.36C474.682 246.606 474.637 246.875 474.657 247.168C474.676 247.461 474.759 247.769 474.906 248.092C475.052 248.416 475.269 248.748 475.556 249.091L475.74 249.31C475.966 249.579 476.215 249.802 476.488 249.978C476.761 250.147 477.043 250.261 477.336 250.319C477.632 250.374 477.925 250.365 478.216 250.294C478.511 250.219 478.791 250.071 479.056 249.848C479.398 249.561 479.629 249.248 479.749 248.909C479.87 248.57 479.921 248.209 479.902 247.826L480.88 247.8C480.913 248.087 480.906 248.394 480.858 248.72C480.81 249.046 480.692 249.377 480.504 249.713C480.32 250.046 480.041 250.369 479.667 250.683ZM480.068 242.03L484.075 246.805L483.106 247.618L478.352 241.952L479.295 241.161L480.068 242.03ZM481.065 239.623L481.815 240.528C481.72 240.578 481.635 240.632 481.558 240.69C481.483 240.741 481.399 240.805 481.309 240.881C481.085 241.069 480.917 241.269 480.805 241.483C480.692 241.696 480.629 241.915 480.616 242.141C480.603 242.366 480.635 242.595 480.711 242.828C480.788 243.055 480.903 243.28 481.055 243.504L480.914 243.889C480.627 243.547 480.391 243.198 480.205 242.842C480.023 242.483 479.907 242.129 479.857 241.778C479.804 241.424 479.833 241.09 479.945 240.777C480.057 240.456 480.266 240.167 480.574 239.91C480.643 239.851 480.731 239.792 480.836 239.734C480.939 239.672 481.015 239.635 481.065 239.623Z"
          fill="#1A1C19" />
        <path
          d="M445.092 289.959L450.877 296.854L450.042 297.554L444.257 290.66L445.092 289.959ZM449.769 289.508L449.552 293.552L449.399 295.776L448.59 294.948L448.587 293.222L448.755 290.359L449.769 289.508ZM453.086 295.001L449.41 294.138L449.219 293.036L454.064 294.18L453.086 295.001ZM452.568 288.803L455.834 292.695L454.999 293.395L450.924 288.539L451.714 287.876L452.568 288.803ZM453.471 290.225L453.074 290.536C452.798 290.201 452.584 289.858 452.432 289.506C452.277 289.152 452.194 288.801 452.183 288.453C452.172 288.106 452.241 287.772 452.391 287.453C452.539 287.13 452.774 286.833 453.097 286.562C453.325 286.371 453.562 286.228 453.808 286.133C454.053 286.035 454.303 285.996 454.559 286.016C454.815 286.036 455.073 286.121 455.331 286.271C455.59 286.421 455.847 286.649 456.103 286.954L458.819 290.19L457.988 290.887L455.307 287.691C455.093 287.437 454.879 287.27 454.664 287.19C454.452 287.107 454.24 287.097 454.026 287.159C453.811 287.218 453.598 287.335 453.388 287.511C453.143 287.717 452.975 287.932 452.883 288.157C452.791 288.382 452.76 288.612 452.789 288.847C452.818 289.083 452.893 289.318 453.014 289.553C453.136 289.783 453.288 290.007 453.471 290.225ZM456.234 287.127L455.82 287.765C455.6 287.496 455.428 287.204 455.306 286.888C455.187 286.57 455.128 286.247 455.129 285.92C455.133 285.591 455.208 285.27 455.354 284.958C455.498 284.644 455.724 284.357 456.033 284.099C456.293 283.88 456.552 283.721 456.811 283.622C457.072 283.52 457.331 283.483 457.59 283.511C457.848 283.534 458.106 283.626 458.364 283.787C458.622 283.948 458.879 284.181 459.135 284.487L461.813 287.678L460.978 288.378L458.292 285.178C458.064 284.906 457.843 284.731 457.631 284.654C457.419 284.572 457.21 284.566 457.005 284.637C456.799 284.702 456.59 284.824 456.378 285.002C456.195 285.155 456.06 285.322 455.972 285.503C455.884 285.684 455.839 285.87 455.836 286.061C455.831 286.249 455.862 286.435 455.929 286.618C455.999 286.799 456.1 286.969 456.234 287.127Z"
          fill="#414940" />
        <path
          d="M681.675 73.1673C680.342 74.2857 679.583 75.9797 679.571 77.6608C677.913 77.3809 676.113 77.8339 674.78 78.9523C672.421 80.9321 672.123 84.3415 674.102 86.7009C676.532 89.5966 681.117 89.7705 688.07 90.0452L690.023 90.1167L690.285 88.1735C691.228 81.2857 691.853 76.7408 689.423 73.8452C687.444 71.4857 684.034 71.1875 681.675 73.1673ZM688.3 87.9075L688.287 88.0484L688.146 88.0361C681.73 87.7941 677.492 87.6292 675.635 85.4153C674.349 83.8833 674.534 81.77 676.066 80.4844C677.246 79.4945 679.031 79.2887 680.318 79.9975L681.75 78.7955C681.268 77.4118 681.781 75.6892 682.96 74.6993C684.492 73.4138 686.606 73.5987 687.891 75.1307C689.749 77.3446 689.175 81.5462 688.3 87.9075Z"
          fill="#1A1C19" />
        <rect x="415.483" y="280.211" width="359" height="43" rx="15.5" transform="rotate(-40 415.483 280.211)"
          stroke="#727970" />
        <rect x="316.217" y="363.275" width="78.5" height="81.4" rx="39.25" transform="rotate(-45 316.217 363.275)"
          fill="#A3F6AB" />
        <path
          d="M378.482 362.273L375.464 365.291L378.669 368.496L377.105 370.059L373.901 366.855L370.898 369.857L369.475 368.434L372.477 365.431L369.288 362.242L370.852 360.679L374.041 363.868L377.059 360.85L378.482 362.273Z"
          fill="#0F1F11" />
        <rect x="321.042" y="61.4717" width="95" height="32" rx="8" transform="rotate(-40 321.042 61.4717)"
          fill="#A3F6AB" />
        <path
          d="M343.839 66.8589L339.922 66.5163L339.801 67.8448L345.051 68.3042L346.037 57.0335L344.713 56.9177L343.839 66.8589Z"
          fill="#1A1C19" />
        <path
          d="M360.553 55.7315L354.129 48.0755L355.203 47.1748L360.845 53.8986L364.17 51.1084L364.952 52.0405L360.553 55.7315ZM363.55 43.205C364.052 42.7832 364.574 42.5296 365.115 42.4444C365.654 42.3556 366.183 42.4262 366.703 42.656C367.223 42.8859 367.706 43.2662 368.151 43.7968L368.652 44.3938L364.735 47.6806C365.264 48.2897 365.821 48.6312 366.407 48.7051C366.989 48.7754 367.558 48.5778 368.113 48.112C368.48 47.8044 368.777 47.4956 369.005 47.1856C369.232 46.8755 369.443 46.5235 369.635 46.1296L370.378 47.0146C370.2 47.3904 369.989 47.731 369.745 48.0364C369.508 48.3424 369.187 48.6653 368.782 49.0051C368.224 49.4738 367.639 49.7737 367.03 49.9047C366.423 50.0328 365.82 49.9768 365.22 49.7366C364.617 49.493 364.046 49.0501 363.507 48.4077C362.974 47.7723 362.625 47.1401 362.46 46.5111C362.292 45.8785 362.301 45.2792 362.486 44.7132C362.671 44.1472 363.026 43.6444 363.55 43.205ZM364.23 44.0263C363.804 44.3837 363.579 44.8104 363.555 45.3065C363.528 45.7991 363.709 46.3227 364.097 46.8775L366.935 44.4959C366.665 44.1812 366.38 43.9443 366.08 43.7855C365.78 43.6266 365.474 43.5626 365.16 43.5934C364.851 43.6213 364.54 43.7656 364.23 44.0263ZM370.339 37.5076C371.006 36.9481 371.658 36.6865 372.296 36.7228C372.936 36.7562 373.567 37.143 374.188 37.8831L377.343 41.643L376.301 42.5174L373.265 38.8989C372.878 38.4381 372.487 38.1774 372.091 38.1169C371.692 38.0529 371.284 38.1967 370.865 38.5482C370.268 39.0491 369.997 39.577 370.052 40.1317C370.11 40.6835 370.421 41.2945 370.983 41.9648L373.453 44.9078L372.4 45.791L367.558 40.0202L368.39 39.3216L369.223 40.0058L369.281 39.9575C369.233 39.6525 369.246 39.3528 369.321 39.0585C369.395 38.7641 369.519 38.4871 369.694 38.2275C369.87 37.9614 370.085 37.7214 370.339 37.5076ZM382.975 41.3078C382.204 41.9552 381.491 42.3118 380.839 42.3776C380.19 42.4405 379.653 42.2189 379.228 41.7126C378.926 41.3531 378.783 40.9524 378.799 40.5106C378.818 40.0723 378.995 39.6382 379.33 39.2082C379.118 39.2673 378.896 39.2721 378.664 39.2227C378.433 39.1669 378.241 39.0482 378.089 38.8667C377.91 38.6537 377.816 38.4206 377.806 38.1674C377.796 37.9078 377.85 37.6036 377.968 37.2549C377.559 37.384 377.14 37.3814 376.712 37.2469C376.281 37.1089 375.901 36.8444 375.573 36.4534C375.225 36.0379 375.015 35.6104 374.943 35.1706C374.875 34.728 374.942 34.2907 375.145 33.8588C375.348 33.4269 375.687 33.0118 376.162 32.6134C376.266 32.5255 376.379 32.4399 376.499 32.3567C376.617 32.2699 376.734 32.1928 376.85 32.1253C376.965 32.0578 377.062 32.0064 377.14 31.9711L379.13 30.3014L379.652 30.9245L378.758 31.9429C378.97 31.9906 379.184 32.0788 379.399 32.2076C379.615 32.3365 379.813 32.5091 379.995 32.7255C380.487 33.312 380.676 33.9448 380.561 34.6238C380.447 35.2964 380.038 35.9285 379.333 36.5203C379.166 36.6545 378.988 36.7796 378.8 36.8958C378.723 37.109 378.69 37.3003 378.701 37.4694C378.71 37.6351 378.769 37.7843 378.881 37.917C378.966 38.0182 379.068 38.0724 379.187 38.0796C379.309 38.0838 379.448 38.0475 379.604 37.9705C379.756 37.8901 379.925 37.7722 380.11 37.6169L381.116 36.7733C381.744 36.246 382.337 35.9744 382.895 35.9585C383.453 35.9426 383.945 36.1895 384.373 36.6992C384.915 37.3451 385.067 38.0652 384.829 38.8596C384.592 39.6539 383.974 40.47 382.975 41.3078ZM382.366 40.5073C382.816 40.1294 383.153 39.7691 383.378 39.4264C383.605 39.0808 383.725 38.7597 383.738 38.4633C383.751 38.1668 383.661 37.9034 383.468 37.673C383.292 37.4635 383.107 37.3454 382.912 37.3186C382.723 37.2924 382.515 37.3421 382.287 37.4678C382.06 37.5934 381.803 37.7763 381.516 38.0165L380.563 38.8163C380.319 39.0213 380.138 39.2384 380.021 39.4675C379.904 39.6967 379.855 39.9253 379.874 40.1534C379.895 40.3849 379.996 40.6072 380.174 40.8202C380.418 41.1099 380.728 41.2276 381.104 41.1732C381.485 41.1159 381.905 40.8939 382.366 40.5073ZM378.778 35.7633C379.165 35.4381 379.37 35.0938 379.392 34.7302C379.411 34.3631 379.261 33.9893 378.942 33.6087C378.599 33.2003 378.244 32.9751 377.875 32.9332C377.507 32.8912 377.131 33.0314 376.747 33.3536C376.373 33.667 376.176 34.0137 376.156 34.3937C376.136 34.7672 376.296 35.1564 376.636 35.5614C376.95 35.9349 377.292 36.1412 377.664 36.1802C378.033 36.2157 378.404 36.0767 378.778 35.7633ZM386.525 32.663C386.675 32.537 386.816 32.3974 386.949 32.244C387.08 32.0872 387.183 31.941 387.259 31.8054L387.936 32.6118C387.861 32.7638 387.739 32.9407 387.569 33.1426C387.406 33.345 387.222 33.5327 387.016 33.7055C386.701 33.9691 386.371 34.1538 386.026 34.2594C385.68 34.365 385.321 34.3514 384.947 34.2184C384.578 34.0825 384.198 33.7825 383.808 33.3181L381.075 30.061L380.274 30.7332L379.865 30.2462L380.378 29.1557L379.704 27.5974L380.353 27.0525L381.452 28.3617L383.122 26.96L383.803 27.7717L382.133 29.1734L384.853 32.4148C385.125 32.7395 385.406 32.9177 385.694 32.9494C385.986 32.9782 386.263 32.8827 386.525 32.663ZM383.466 22.62L385.347 24.8613C385.496 25.0394 385.638 25.2183 385.771 25.3982C385.904 25.578 386.012 25.7314 386.094 25.8583L386.157 25.8056C386.109 25.5006 386.119 25.207 386.186 24.925C386.253 24.6365 386.372 24.3639 386.543 24.1072C386.715 23.844 386.929 23.6055 387.183 23.3916C387.634 23.0138 388.076 22.7678 388.51 22.6537C388.943 22.5396 389.371 22.5705 389.792 22.7465C390.211 22.9189 390.626 23.2513 391.039 23.7435L394.194 27.5034L393.152 28.3779L390.116 24.7594C389.729 24.2985 389.338 24.0379 388.942 23.9774C388.543 23.9134 388.134 24.0571 387.716 24.4086C387.318 24.7426 387.067 25.0895 386.965 25.4492C386.859 25.8055 386.885 26.1798 387.041 26.5719C387.198 26.9641 387.463 27.3836 387.838 27.8305L390.303 30.7682L389.251 31.6514L382.414 23.5032L383.466 22.62Z"
          fill="#0F1F11" />
        <rect x="470.996" y="348.836" width="150" height="49" rx="16" transform="rotate(-40 470.996 348.836)"
          fill="#A3F6AB" />
        <path
          d="M523.367 336.698L523.759 336.369C523.895 336.255 523.99 336.148 524.046 336.046C524.098 335.942 524.123 335.82 524.122 335.681L524.25 330.639C524.244 330.486 524.265 330.358 524.314 330.257C524.362 330.155 524.444 330.056 524.558 329.96L525.438 329.222L525.286 334.987C525.286 335.133 525.277 335.263 525.257 335.377C525.237 335.485 525.205 335.588 525.16 335.687C525.284 335.638 525.412 335.613 525.544 335.611C525.674 335.606 525.818 335.622 525.977 335.659L532.089 336.735L531.188 337.491C531.12 337.548 531.058 337.594 531.002 337.629C530.947 337.657 530.894 337.677 530.843 337.69C530.789 337.698 530.738 337.702 530.688 337.701C530.639 337.693 530.587 337.682 530.532 337.667L525.323 336.839C525.176 336.81 525.047 336.811 524.935 336.845C524.819 336.874 524.678 336.96 524.51 337.101L524.038 337.497L526.99 341.014L525.955 341.883L519.507 334.199L520.542 333.33L523.367 336.698ZM529.28 329.835L533.838 335.267L532.884 336.068L528.326 330.636L529.28 329.835ZM528.053 327.959C528.131 328.052 528.185 328.156 528.215 328.271C528.245 328.38 528.255 328.494 528.245 328.612C528.235 328.724 528.202 328.833 528.146 328.941C528.094 329.046 528.021 329.137 527.929 329.215C527.836 329.293 527.733 329.349 527.621 329.382C527.512 329.412 527.402 329.423 527.29 329.413C527.175 329.4 527.067 329.369 526.965 329.32C526.861 329.268 526.769 329.195 526.691 329.102C526.613 329.009 526.558 328.907 526.524 328.794C526.488 328.679 526.475 328.565 526.485 328.453C526.492 328.338 526.519 328.229 526.568 328.127C526.62 328.023 526.693 327.931 526.786 327.853C526.879 327.775 526.981 327.72 527.093 327.686C527.209 327.65 527.324 327.639 527.439 327.652C527.555 327.659 527.666 327.69 527.774 327.746C527.882 327.795 527.975 327.866 528.053 327.959ZM529.766 325.225L536.393 333.124L535.439 333.925L528.811 326.026L529.766 325.225ZM535.601 324.386C535.998 324.053 536.411 323.819 536.84 323.684C537.269 323.549 537.698 323.509 538.127 323.563C538.557 323.617 538.976 323.768 539.385 324.016C539.794 324.257 540.177 324.591 540.534 325.016C540.894 325.445 541.158 325.882 541.324 326.327C541.494 326.769 541.568 327.207 541.547 327.639C541.526 328.071 541.412 328.486 541.204 328.886C540.994 329.281 540.691 329.646 540.294 329.979C539.894 330.315 539.479 330.553 539.049 330.694C538.62 330.829 538.19 330.869 537.761 330.815C537.332 330.761 536.913 330.614 536.503 330.372C536.097 330.128 535.714 329.792 535.354 329.363C534.997 328.937 534.734 328.503 534.564 328.061C534.395 327.612 534.32 327.172 534.342 326.74C534.363 326.308 534.477 325.892 534.684 325.493C534.895 325.091 535.201 324.722 535.601 324.386ZM539.669 329.233C540.205 328.783 540.455 328.269 540.42 327.689C540.381 327.106 540.092 326.493 539.552 325.849C539.009 325.202 538.454 324.809 537.887 324.67C537.319 324.531 536.767 324.686 536.231 325.136C535.959 325.364 535.76 325.61 535.635 325.874C535.513 326.135 535.457 326.41 535.468 326.699C535.483 326.986 535.564 327.286 535.712 327.6C535.861 327.908 536.07 328.223 536.34 328.545C536.88 329.188 537.434 329.579 538.001 329.718C538.569 329.851 539.125 329.689 539.669 329.233ZM544.026 326.719L539.468 321.287L540.042 320.805C540.178 320.691 540.317 320.687 540.461 320.792L540.998 321.292C540.991 320.877 541.047 320.486 541.165 320.119C541.284 319.751 541.507 319.43 541.836 319.154C542.201 318.848 542.581 318.702 542.977 318.717C543.377 318.729 543.773 318.866 544.164 319.129C544.077 318.866 544.035 318.612 544.036 318.367C544.042 318.119 544.082 317.885 544.158 317.663C544.233 317.441 544.339 317.236 544.475 317.049C544.614 316.859 544.773 316.69 544.952 316.54C545.238 316.3 545.53 316.133 545.83 316.04C546.13 315.94 546.431 315.914 546.731 315.96C547.036 316.003 547.337 316.119 547.635 316.307C547.93 316.492 548.216 316.749 548.492 317.078L551.394 320.537L550.434 321.342L547.532 317.883C547.175 317.458 546.812 317.214 546.443 317.152C546.071 317.086 545.71 317.201 545.36 317.494C545.203 317.626 545.076 317.781 544.981 317.958C544.887 318.129 544.831 318.313 544.814 318.51C544.797 318.707 544.825 318.915 544.899 319.134C544.973 319.345 545.1 319.559 545.28 319.773L548.182 323.232L547.222 324.037L544.32 320.578C543.954 320.142 543.593 319.891 543.238 319.823C542.883 319.756 542.538 319.863 542.202 320.145C541.966 320.343 541.802 320.59 541.709 320.887C541.614 321.18 541.574 321.506 541.589 321.865L544.986 325.913L544.026 326.719ZM553.704 312.96C553.518 312.738 553.317 312.563 553.099 312.435C552.882 312.3 552.658 312.218 552.425 312.187C552.193 312.151 551.962 312.168 551.73 312.241C551.495 312.31 551.269 312.436 551.051 312.619C550.593 313.003 550.343 313.441 550.3 313.934C550.257 314.421 550.402 314.927 550.733 315.453L553.704 312.96ZM556.614 314.859C556.616 315.101 556.579 315.345 556.505 315.59C556.428 315.832 556.323 316.066 556.19 316.293C556.061 316.517 555.91 316.729 555.737 316.929C555.567 317.133 555.383 317.317 555.187 317.482C554.811 317.797 554.412 318.025 553.989 318.167C553.566 318.303 553.137 318.346 552.701 318.298C552.265 318.243 551.831 318.089 551.399 317.836C550.968 317.583 550.555 317.223 550.162 316.754C549.844 316.375 549.605 315.973 549.443 315.549C549.285 315.121 549.215 314.696 549.232 314.273C549.246 313.847 549.353 313.434 549.554 313.034C549.751 312.631 550.047 312.264 550.44 311.934C550.765 311.661 551.112 311.465 551.48 311.344C551.849 311.218 552.221 311.174 552.595 311.213C552.97 311.246 553.342 311.367 553.711 311.574C554.077 311.779 554.423 312.074 554.747 312.46C554.873 312.61 554.941 312.724 554.95 312.801C554.96 312.878 554.92 312.954 554.831 313.029L551.201 316.075C551.499 316.409 551.796 316.669 552.092 316.854C552.39 317.035 552.687 317.149 552.981 317.195C553.272 317.237 553.557 317.214 553.837 317.125C554.113 317.034 554.38 316.88 554.637 316.664C554.877 316.463 555.06 316.264 555.186 316.066C555.314 315.862 555.413 315.675 555.484 315.506C555.555 315.336 555.609 315.19 555.646 315.068C555.684 314.939 555.733 314.848 555.794 314.797C555.873 314.732 555.959 314.711 556.053 314.736L556.614 314.859ZM560.209 313.287C559.78 313.646 559.348 313.804 558.915 313.76C558.485 313.712 558.081 313.463 557.703 313.013L554.914 309.688L554.26 310.237C554.202 310.285 554.141 310.309 554.074 310.31C554.005 310.307 553.94 310.27 553.88 310.199L553.561 309.818L554.356 308.959L553.168 307.096C553.134 307.033 553.121 306.971 553.13 306.909C553.139 306.84 553.174 306.78 553.235 306.729L553.717 306.324L555.288 308.195L556.859 306.877L557.439 307.569L555.868 308.887L558.604 312.147C558.796 312.376 558.994 312.5 559.198 312.517C559.401 312.535 559.591 312.471 559.766 312.324C559.866 312.24 559.941 312.155 559.992 312.07C560.043 311.979 560.082 311.894 560.109 311.817C560.135 311.74 560.156 311.674 560.171 311.619C560.186 311.557 560.208 311.514 560.236 311.49C560.287 311.448 560.357 311.441 560.447 311.469L561.108 311.691C561.073 311.983 560.976 312.271 560.819 312.555C560.659 312.836 560.455 313.08 560.209 313.287ZM563.141 305.042C562.955 304.82 562.753 304.645 562.536 304.517C562.319 304.382 562.094 304.3 561.862 304.269C561.63 304.232 561.398 304.25 561.166 304.323C560.932 304.392 560.705 304.518 560.487 304.701C560.03 305.085 559.779 305.523 559.736 306.016C559.694 306.503 559.838 307.009 560.17 307.535L563.141 305.042ZM566.05 306.941C566.052 307.183 566.016 307.427 565.941 307.672C565.864 307.914 565.759 308.148 565.626 308.375C565.498 308.599 565.347 308.811 565.173 309.011C565.003 309.215 564.82 309.399 564.623 309.564C564.248 309.879 563.848 310.107 563.425 310.249C563.003 310.384 562.573 310.428 562.137 310.38C561.701 310.325 561.267 310.171 560.836 309.918C560.404 309.665 559.992 309.305 559.599 308.836C559.281 308.457 559.041 308.055 558.88 307.631C558.722 307.203 558.651 306.777 558.668 306.355C558.682 305.929 558.79 305.516 558.99 305.116C559.188 304.713 559.483 304.346 559.876 304.016C560.202 303.743 560.549 303.547 560.917 303.426C561.286 303.3 561.657 303.256 562.031 303.295C562.406 303.328 562.778 303.448 563.148 303.656C563.514 303.861 563.859 304.156 564.183 304.542C564.309 304.692 564.377 304.806 564.387 304.883C564.397 304.96 564.357 305.036 564.267 305.111L560.637 308.157C560.936 308.491 561.233 308.751 561.528 308.935C561.827 309.117 562.123 309.231 562.417 309.277C562.708 309.319 562.994 309.296 563.273 309.207C563.549 309.116 563.816 308.962 564.074 308.746C564.313 308.545 564.496 308.345 564.623 308.148C564.75 307.944 564.849 307.757 564.92 307.588C564.991 307.418 565.046 307.272 565.083 307.15C565.121 307.02 565.17 306.93 565.231 306.879C565.309 306.813 565.396 306.793 565.489 306.818L566.05 306.941ZM565.209 301.543C565.068 301.027 565.036 300.561 565.113 300.143C565.186 299.722 565.403 299.36 565.764 299.058C565.879 298.962 565.998 298.883 566.123 298.821C566.251 298.756 566.379 298.715 566.506 298.7L567.035 299.472C567.088 299.579 567.072 299.669 566.986 299.741C566.936 299.783 566.854 299.834 566.739 299.893C566.625 299.953 566.507 300.033 566.385 300.135C566.214 300.279 566.081 300.433 565.987 300.597C565.897 300.758 565.84 300.934 565.817 301.124C565.794 301.308 565.801 301.509 565.839 301.727C565.876 301.939 565.939 302.167 566.027 302.41L568.907 305.841L567.947 306.647L563.389 301.215L563.936 300.756C564.04 300.669 564.128 300.629 564.2 300.635C564.272 300.641 564.356 300.687 564.452 300.771L565.209 301.543Z"
          fill="#0F1F11" />
        <rect x="531.666" y="421.947" width="66" height="31" rx="7.5" transform="rotate(-40 531.666 421.947)"
          fill="#FCFCF7" />
        <path
          d="M561.456 423.71L553.545 419.132L553.503 419.167C553.634 419.301 553.8 419.477 554 419.695C554.202 419.907 554.417 420.143 554.647 420.402C554.877 420.655 555.099 420.909 555.313 421.164L559.105 425.683L558.121 426.509L551.697 418.853L553.241 417.557L560.742 421.891L560.779 421.861L557.871 413.673L559.405 412.385L565.829 420.041L564.792 420.911L560.947 416.329C560.754 416.099 560.557 415.857 560.356 415.603C560.152 415.346 559.961 415.101 559.784 414.869C559.608 414.63 559.463 414.433 559.351 414.278L559.304 414.317L562.373 422.941L561.456 423.71ZM565.112 410.64C565.824 410.042 566.489 409.754 567.109 409.776C567.725 409.794 568.319 410.144 568.89 410.825L572.163 414.726L571.409 415.359L570.502 414.692L570.46 414.727C570.475 415.072 570.454 415.387 570.397 415.673C570.339 415.959 570.225 416.234 570.053 416.497C569.885 416.757 569.636 417.025 569.308 417.3C568.959 417.593 568.596 417.791 568.218 417.894C567.84 417.997 567.467 417.988 567.099 417.869C566.732 417.743 566.384 417.484 566.056 417.093C565.564 416.507 565.416 415.873 565.611 415.191C565.807 414.51 566.35 413.771 567.241 412.976L568.201 412.099L567.928 411.774C567.551 411.324 567.183 411.091 566.825 411.076C566.471 411.058 566.114 411.2 565.754 411.501C565.458 411.75 565.21 412.033 565.011 412.349C564.809 412.661 564.632 412.982 564.48 413.311L563.503 412.828C563.658 412.46 563.869 412.084 564.136 411.7C564.406 411.312 564.731 410.959 565.112 410.64ZM568.77 412.799L567.995 413.512C567.348 414.096 566.973 414.602 566.867 415.029C566.763 415.45 566.858 415.837 567.154 416.19C567.412 416.497 567.693 416.645 567.998 416.633C568.303 416.62 568.608 416.487 568.912 416.232C569.379 415.84 569.654 415.386 569.734 414.873C569.815 414.352 569.639 413.834 569.205 413.317L568.77 412.799ZM576.453 408.378C576.767 408.752 576.939 409.145 576.971 409.559C577.003 409.966 576.899 410.381 576.658 410.803C576.418 411.225 576.053 411.641 575.564 412.051C575.159 412.391 574.784 412.652 574.438 412.836C574.095 413.022 573.756 413.158 573.422 413.242L572.64 412.309C572.997 412.218 573.383 412.079 573.797 411.892C574.212 411.705 574.579 411.476 574.9 411.207C575.351 410.829 575.615 410.485 575.694 410.175C575.777 409.862 575.715 409.583 575.51 409.339C575.39 409.196 575.245 409.104 575.073 409.063C574.899 409.018 574.666 409.027 574.372 409.089C574.08 409.144 573.687 409.257 573.193 409.427C572.706 409.592 572.272 409.712 571.89 409.789C571.512 409.862 571.169 409.855 570.863 409.767C570.557 409.679 570.269 409.474 570 409.153C569.581 408.653 569.461 408.106 569.639 407.51C569.818 406.908 570.235 406.331 570.892 405.781C571.241 405.488 571.598 405.247 571.964 405.059C572.333 404.869 572.712 404.717 573.1 404.606L573.441 405.703C573.099 405.806 572.766 405.933 572.442 406.086C572.115 406.236 571.814 406.426 571.538 406.657C571.178 406.959 570.951 407.248 570.856 407.524C570.764 407.798 570.803 408.036 570.973 408.238C571.104 408.395 571.258 408.49 571.433 408.521C571.612 408.55 571.848 408.527 572.143 408.452C572.434 408.374 572.815 408.254 573.285 408.091C573.749 407.928 574.169 407.811 574.544 407.74C574.922 407.667 575.268 407.674 575.58 407.763C575.893 407.852 576.184 408.057 576.453 408.378ZM581.704 403.972C582.017 404.346 582.19 404.74 582.221 405.153C582.254 405.56 582.149 405.975 581.909 406.397C581.668 406.819 581.303 407.235 580.814 407.645C580.41 407.985 580.034 408.247 579.688 408.43C579.345 408.617 579.006 408.752 578.672 408.836L577.89 407.904C578.248 407.812 578.633 407.673 579.048 407.486C579.462 407.299 579.83 407.071 580.151 406.801C580.601 406.423 580.866 406.079 580.945 405.769C581.027 405.456 580.966 405.178 580.761 404.933C580.641 404.79 580.495 404.698 580.324 404.657C580.15 404.613 579.916 404.622 579.623 404.683C579.33 404.738 578.937 404.851 578.443 405.022C577.957 405.186 577.522 405.306 577.14 405.383C576.762 405.457 576.42 405.449 576.114 405.361C575.808 405.273 575.52 405.068 575.25 404.747C574.831 404.248 574.711 403.7 574.889 403.105C575.068 402.502 575.486 401.926 576.142 401.375C576.491 401.082 576.849 400.842 577.214 400.654C577.584 400.463 577.963 400.312 578.351 400.2L578.691 401.297C578.349 401.4 578.016 401.528 577.692 401.681C577.365 401.83 577.064 402.02 576.788 402.252C576.429 402.553 576.201 402.842 576.106 403.119C576.014 403.392 576.053 403.63 576.223 403.833C576.355 403.99 576.508 404.084 576.684 404.115C576.862 404.144 577.099 404.121 577.393 404.047C577.685 403.969 578.066 403.848 578.536 403.686C579 403.522 579.419 403.405 579.794 403.335C580.173 403.261 580.518 403.269 580.831 403.357C581.143 403.446 581.434 403.651 581.704 403.972Z"
          fill="#0F1F11" />
        <rect x="531.666" y="421.947" width="66" height="31" rx="7.5" transform="rotate(-40 531.666 421.947)"
          stroke="#727970" />
        <rect x="229.529" y="250.15" width="343" height="94" rx="15.5" transform="rotate(-40 229.529 250.15)"
          fill="#FCFCF7" />
        <path
          d="M532.363 102.392L538.811 110.076L537.9 110.841L533.162 105.194C533.099 105.119 533.033 105.037 532.965 104.948C532.9 104.857 532.833 104.763 532.766 104.668L534.159 111.686C534.212 111.916 534.154 112.101 533.986 112.242L533.836 112.368C533.668 112.509 533.475 112.534 533.258 112.442L526.517 109.875C526.697 110.046 526.855 110.212 526.99 110.373L531.728 116.02L530.816 116.785L524.368 109.1L525.135 108.457C525.228 108.379 525.307 108.328 525.372 108.304C525.437 108.28 525.527 108.289 525.643 108.332L532.266 110.835C532.381 110.885 532.497 110.939 532.614 110.999C532.735 111.056 532.854 111.118 532.97 111.185C532.925 111.058 532.883 110.932 532.845 110.806C532.803 110.676 532.769 110.549 532.744 110.424L531.386 103.513C531.36 103.395 531.364 103.306 531.399 103.246C531.438 103.183 531.504 103.113 531.597 103.035L532.363 102.392ZM536.917 102.408L541.475 107.84L540.521 108.641L535.963 103.209L536.917 102.408ZM535.69 100.532C535.768 100.625 535.822 100.729 535.852 100.844C535.882 100.953 535.892 101.067 535.881 101.185C535.872 101.297 535.839 101.406 535.783 101.514C535.731 101.619 535.658 101.71 535.565 101.788C535.472 101.866 535.37 101.922 535.258 101.955C535.149 101.985 535.039 101.996 534.927 101.986C534.812 101.973 534.704 101.942 534.602 101.893C534.497 101.841 534.406 101.768 534.328 101.675C534.25 101.582 534.194 101.48 534.161 101.367C534.125 101.252 534.112 101.138 534.122 101.026C534.128 100.911 534.156 100.802 534.205 100.7C534.257 100.596 534.33 100.504 534.422 100.426C534.515 100.348 534.618 100.293 534.73 100.259C534.846 100.223 534.961 100.212 535.076 100.225C535.191 100.232 535.303 100.263 535.411 100.319C535.519 100.368 535.612 100.439 535.69 100.532Z"
          fill="#1A1C19" />
        <path
          d="M392.384 181.037C393.432 180.157 394.238 179.196 394.801 178.153C395.379 177.098 395.716 176.021 395.812 174.924C395.923 173.814 395.796 172.717 395.432 171.634C395.083 170.538 394.506 169.509 393.7 168.549C392.845 167.53 391.915 166.747 390.911 166.201C389.895 165.64 388.85 165.326 387.777 165.259C386.706 165.165 385.635 165.308 384.564 165.686C383.492 166.064 382.469 166.663 381.493 167.481C380.445 168.36 379.652 169.336 379.113 170.408C378.562 171.466 378.245 172.551 378.161 173.663C378.079 174.748 378.214 175.825 378.566 176.894C378.92 177.937 379.457 178.887 380.178 179.746C381.02 180.75 381.935 181.545 382.923 182.131C383.91 182.716 384.93 183.075 385.984 183.208C387.052 183.328 388.127 183.22 389.209 182.883C390.293 182.519 391.351 181.904 392.384 181.037ZM376.118 166.262C376.134 166.843 376.152 167.411 376.171 167.966C376.192 168.494 376.221 169.016 376.257 169.531C376.572 168.399 377.057 167.322 377.713 166.3C378.368 165.279 379.22 164.328 380.268 163.449C381.535 162.387 382.905 161.596 384.38 161.078C385.843 160.545 387.325 160.331 388.826 160.435C390.33 160.513 391.818 160.926 393.289 161.675C394.749 162.41 396.102 163.519 397.348 165.004C398.557 166.445 399.418 168.004 399.932 169.681C400.447 171.358 400.615 173.051 400.439 174.762C400.276 176.461 399.753 178.128 398.868 179.763C397.998 181.386 396.77 182.863 395.183 184.195C393.611 185.514 391.977 186.463 390.281 187.043C388.573 187.608 386.883 187.811 385.211 187.651C383.541 187.465 381.91 186.924 380.316 186.029C378.724 185.108 377.244 183.832 375.876 182.202C374.728 180.834 373.805 179.128 373.108 177.084C372.412 175.014 371.988 172.543 371.834 169.67L370.823 152.326C370.807 151.893 370.9 151.443 371.103 150.975C371.308 150.48 371.644 150.038 372.11 149.647L375.559 146.752L376.118 166.262ZM425.965 151.483C426.387 151.129 426.826 150.971 427.281 151.011C427.736 151.051 428.128 151.267 428.458 151.66L430.436 154.018L409.565 171.532L408.447 170.2C408.215 169.923 408.035 169.591 407.907 169.202C407.78 168.813 407.736 168.391 407.775 167.936L409.351 149.463C409.472 147.923 409.551 146.48 409.588 145.134C409.613 143.774 409.535 142.5 409.356 141.311C409.177 140.122 408.883 139.017 408.473 137.997C408.051 136.962 407.455 135.986 406.686 135.069C405.916 134.152 405.099 133.474 404.234 133.034C403.357 132.58 402.474 132.34 401.586 132.317C400.713 132.281 399.842 132.441 398.975 132.796C398.096 133.137 397.263 133.638 396.477 134.297C395.676 134.969 395.039 135.702 394.565 136.497C394.091 137.291 393.769 138.12 393.599 138.981C393.432 139.816 393.411 140.664 393.538 141.525C393.665 142.386 393.943 143.219 394.371 144.026C394.624 144.681 394.671 145.225 394.512 145.656C394.355 146.061 393.977 146.452 393.378 146.831L391.054 148.186C390.061 146.588 389.397 145 389.064 143.42C388.732 141.813 388.699 140.266 388.964 138.778C389.244 137.279 389.799 135.857 390.632 134.514C391.452 133.156 392.531 131.916 393.87 130.792C395.195 129.681 396.597 128.839 398.077 128.267C399.556 127.695 401.036 127.434 402.515 127.482C403.982 127.516 405.407 127.87 406.791 128.544C408.176 129.218 409.442 130.239 410.59 131.607C411.567 132.772 412.302 134.003 412.795 135.3C413.276 136.583 413.597 137.926 413.758 139.329C413.918 140.732 413.966 142.193 413.9 143.711C413.849 145.217 413.754 146.773 413.613 148.379L412.432 163.731C412.88 163.083 413.365 162.464 413.889 161.876C414.4 161.274 414.932 160.74 415.485 160.276L425.965 151.483ZM433.25 147.565C432.932 147.187 432.698 146.775 432.548 146.331C432.413 145.874 432.358 145.424 432.383 144.981C432.423 144.526 432.549 144.085 432.762 143.659C432.975 143.232 433.27 142.86 433.648 142.543C434.027 142.225 434.445 141.999 434.901 141.864C435.358 141.728 435.814 141.68 436.269 141.72C436.724 141.76 437.165 141.886 437.592 142.099C438.018 142.312 438.39 142.607 438.708 142.985C439.037 143.378 439.27 143.803 439.405 144.26C439.528 144.703 439.57 145.151 439.53 145.606C439.49 146.061 439.358 146.495 439.133 146.907C438.921 147.333 438.625 147.705 438.247 148.023C437.868 148.34 437.451 148.567 436.994 148.702C436.549 148.852 436.099 148.907 435.644 148.867C435.204 148.815 434.776 148.69 434.362 148.492C433.95 148.267 433.579 147.958 433.25 147.565ZM462.894 121.723L465.386 124.692L448.619 138.762L446.127 135.793L452.83 130.168L434.931 108.838C434.394 108.198 433.872 107.532 433.367 106.84L431.811 116.293C431.756 116.612 431.653 116.873 431.5 117.075C431.335 117.263 431.161 117.409 430.976 117.515C430.792 117.62 430.59 117.69 430.371 117.725C430.167 117.747 429.986 117.738 429.827 117.697L427.194 117.042L429.757 101.164L432.922 98.5073L456.738 126.889L462.894 121.723ZM452.184 96.8919C451.191 95.2945 450.527 93.7058 450.193 92.1257C449.847 90.531 449.807 88.99 450.072 87.5027C450.351 86.0032 450.907 84.5818 451.74 83.2386C452.574 81.8686 453.661 80.6217 455 79.4982C456.325 78.3868 457.706 77.5501 459.144 76.9881C460.582 76.4262 461.995 76.1586 463.382 76.1855C464.783 76.2003 466.125 76.5132 467.406 77.1243C468.688 77.7354 469.836 78.645 470.849 79.8531C471.68 80.8428 472.294 81.8406 472.691 82.8464C473.091 83.8254 473.295 84.8075 473.303 85.7927C473.326 86.7657 473.174 87.7369 472.846 88.7062C472.519 89.6756 472.05 90.6393 471.44 91.5974C473.917 90.4116 476.203 90.0316 478.296 90.4575C480.392 90.8567 482.24 92.0096 483.84 93.9163C485.049 95.3572 485.86 96.8847 486.271 98.4986C486.698 100.1 486.78 101.706 486.518 103.315C486.243 104.909 485.656 106.456 484.756 107.955C483.859 109.427 482.69 110.768 481.249 111.977C479.589 113.369 477.999 114.356 476.478 114.938C474.945 115.505 473.466 115.767 472.04 115.723C470.614 115.679 469.224 115.382 467.87 114.832C466.503 114.268 465.149 113.556 463.808 112.697L464.903 110.587C465.181 110.032 465.561 109.627 466.041 109.372C466.537 109.105 467.044 109.089 467.563 109.323C468.094 109.572 468.736 109.864 469.489 110.2C470.256 110.523 471.107 110.739 472.042 110.848C472.976 110.957 473.975 110.875 475.037 110.604C476.114 110.321 477.241 109.684 478.42 108.695C479.512 107.779 480.319 106.805 480.841 105.771C481.365 104.711 481.658 103.672 481.721 102.652C481.797 101.62 481.681 100.639 481.371 99.7085C481.062 98.7778 480.62 97.9704 480.046 97.2863C479.337 96.4421 478.581 95.7623 477.776 95.2469C476.972 94.7315 476.057 94.4694 475.033 94.4607C474.009 94.452 472.851 94.7418 471.559 95.33C470.281 95.9061 468.827 96.878 467.197 98.2458L464.834 95.4295C466.161 94.2913 467.174 93.1932 467.873 92.135C468.587 91.0646 469.034 90.045 469.213 89.0762C469.407 88.0951 469.354 87.1599 469.054 86.2706C468.769 85.369 468.284 84.5107 467.6 83.6956C466.843 82.7932 466.038 82.1294 465.185 81.7041C464.347 81.2666 463.497 81.0372 462.635 81.0158C461.774 80.9944 460.91 81.1615 460.043 81.5172C459.19 81.8607 458.371 82.3622 457.585 83.0217C456.799 83.6812 456.161 84.4144 455.673 85.2213C455.199 86.0159 454.877 86.8442 454.707 87.7059C454.539 88.5409 454.519 89.3888 454.646 90.2495C454.773 91.1103 455.051 91.9438 455.479 92.75C455.718 93.4181 455.764 93.9617 455.62 94.3806C455.478 94.7728 455.107 95.1584 454.507 95.5375L452.184 96.8919ZM491.167 49.7458L492.633 51.4923C493.048 51.9872 493.332 52.4436 493.484 52.8615C493.651 53.2672 493.775 53.622 493.856 53.9258L502.816 90.9407C502.944 91.4779 502.957 92.0253 502.854 92.5827C502.739 93.1256 502.405 93.6291 501.852 94.0932L499.058 96.4381L490.547 59.604C490.431 59.0814 490.347 58.5817 490.294 58.1051C490.241 57.6285 490.215 57.1542 490.216 56.6822L473.886 70.3852C473.638 70.5928 473.341 70.6814 472.993 70.6509C472.632 70.6059 472.349 70.4597 472.141 70.2123L469.924 67.5706L491.167 49.7458Z"
          fill="#002107" />
        <rect x="229.529" y="250.15" width="343" height="94" rx="15.5" transform="rotate(-40 229.529 250.15)"
          stroke="#727970" />
        <rect x="0.704416" y="313.617" width="359" height="49" rx="15.5" transform="rotate(-40 0.704416 313.617)"
          fill="#FCFCF7" />
        <path
          d="M38.4081 312.657L29.0853 320.48L29.7743 312.604L27.7802 312.437L26.7942 323.708L38.0648 324.694L38.2386 322.707L30.3709 322.012L39.6937 314.189L38.4081 312.657Z"
          fill="#1A1C19" />
        <path
          d="M57.7415 290.796C57.0777 291.353 56.5764 291.97 56.2376 292.647C55.8997 293.313 55.726 294.02 55.7166 294.767C55.7081 295.503 55.8606 296.258 56.1741 297.033C56.4876 297.808 56.9642 298.576 57.6041 299.339C58.4511 300.348 59.344 301.095 60.2827 301.579C61.2223 302.052 62.1752 302.23 63.1412 302.111C64.1128 301.987 65.0703 301.53 66.0139 300.738C66.5515 300.287 67.0194 299.819 67.4176 299.336C67.8166 298.842 68.1835 298.338 68.5183 297.823L69.5402 299.041C69.2394 299.574 68.8799 300.081 68.4615 300.563C68.0478 301.051 67.5091 301.573 66.8453 302.13C65.6219 303.156 64.387 303.762 63.1406 303.948C61.8951 304.124 60.6776 303.921 59.4882 303.339C58.3043 302.752 57.1829 301.828 56.1242 300.567C55.36 299.656 54.7888 298.719 54.4105 297.756C54.0331 296.782 53.8584 295.816 53.8863 294.858C53.9197 293.895 54.1687 292.966 54.6333 292.072C55.0988 291.167 55.7951 290.326 56.7222 289.548C57.3312 289.037 57.9688 288.604 58.6351 288.251C59.3015 287.897 59.9567 287.642 60.6007 287.485L61.0355 289.14C60.5042 289.286 59.9551 289.49 59.3884 289.75C58.8226 290.001 58.2737 290.349 57.7415 290.796ZM76.191 286.295C76.8125 287.035 77.2712 287.777 77.5671 288.52C77.8631 289.262 77.998 289.986 77.972 290.69C77.9459 291.394 77.7648 292.07 77.4287 292.716C77.0934 293.353 76.6021 293.943 75.9548 294.486C75.3513 294.992 74.7097 295.353 74.0301 295.568C73.3514 295.773 72.6602 295.83 71.9566 295.737C71.2585 295.641 70.5639 295.387 69.873 294.976C69.1876 294.56 68.5341 293.982 67.9127 293.241C67.0841 292.254 66.5471 291.274 66.3017 290.302C66.0518 289.324 66.0848 288.394 66.4009 287.512C66.7179 286.62 67.307 285.812 68.1683 285.09C68.9912 284.399 69.8641 283.98 70.787 283.832C71.7153 283.679 72.6419 283.809 73.5666 284.22C74.4922 284.621 75.367 285.313 76.191 286.295ZM69.3281 292.053C69.9357 292.778 70.5588 293.325 71.1973 293.696C71.8358 294.067 72.4773 294.23 73.1218 294.185C73.7662 294.14 74.4039 293.852 75.0348 293.323C75.6602 292.798 76.0511 292.222 76.2076 291.595C76.3696 290.964 76.3234 290.302 76.0689 289.608C75.8144 288.915 75.3833 288.206 74.7756 287.482C74.1726 286.764 73.5564 286.224 72.9271 285.864C72.2932 285.499 71.6563 285.341 71.0165 285.392C70.3766 285.443 69.7385 285.735 69.1021 286.269C68.164 287.056 67.7356 287.944 67.8169 288.932C67.9037 289.916 68.4074 290.956 69.3281 292.053ZM78.9154 276.072C79.9852 275.174 81.0153 274.758 82.0058 274.825C82.9917 274.886 83.9703 275.495 84.9416 276.652L89.8718 282.528L88.5222 283.66L83.668 277.875C83.0374 277.124 82.3927 276.706 81.7341 276.623C81.0809 276.536 80.4005 276.789 79.6928 277.383C78.6944 278.22 78.2292 279.092 78.2974 279.998C78.3656 280.904 78.8508 281.894 79.7531 282.969L83.7165 287.693L82.3505 288.839L74.7827 279.82L75.8853 278.895L77.182 280.022L77.2561 279.96C77.1811 279.481 77.202 279.01 77.3187 278.547C77.4308 278.079 77.6246 277.636 77.9001 277.218C78.171 276.794 78.5094 276.412 78.9154 276.072ZM94.6693 278.502L83.6782 272.356L85.143 271.127L91.7041 274.918C92.1543 275.176 92.6394 275.47 93.1595 275.801C93.6797 276.131 94.0822 276.41 94.3672 276.638L94.4248 276.59C94.2605 276.26 94.0664 275.806 93.8426 275.227C93.6141 274.643 93.4087 274.114 93.2265 273.641L90.6317 266.521L92.0965 265.292L96.2328 277.19L94.6693 278.502ZM96.8793 260.998C97.6473 260.354 98.4484 259.971 99.2824 259.851C100.116 259.731 100.937 259.856 101.743 260.227C102.545 260.592 103.288 261.183 103.974 262L104.685 262.848L98.4561 268.075C99.361 269.12 100.301 269.705 101.276 269.831C102.251 269.957 103.202 269.631 104.13 268.853C104.7 268.375 105.161 267.899 105.513 267.426C105.864 266.954 106.19 266.418 106.492 265.819L107.5 267.021C107.215 267.606 106.887 268.134 106.515 268.604C106.149 269.071 105.661 269.559 105.052 270.07C104.186 270.797 103.281 271.257 102.339 271.449C101.398 271.631 100.462 271.529 99.5297 271.142C98.5977 270.756 97.7151 270.066 96.8819 269.073C96.0672 268.102 95.5247 267.127 95.2545 266.148C94.9853 265.158 94.9858 264.223 95.256 263.342C95.5318 262.456 96.0729 261.675 96.8793 260.998ZM97.8019 262.131C97.0723 262.743 96.691 263.47 96.6581 264.311C96.6252 265.152 96.9266 266.035 97.5625 266.96L102.335 262.955C101.879 262.422 101.398 262.021 100.893 261.753C100.388 261.475 99.8771 261.362 99.3592 261.413C98.8367 261.459 98.3176 261.698 97.8019 262.131ZM106.968 252.533C107.149 252.381 107.348 252.233 107.563 252.089C107.775 251.94 107.971 251.817 108.152 251.721L109.043 253.134C108.862 253.22 108.673 253.327 108.473 253.457C108.274 253.587 108.094 253.719 107.935 253.853C107.573 254.156 107.292 254.518 107.093 254.938C106.895 255.348 106.79 255.791 106.779 256.268C106.763 256.739 106.847 257.224 107.032 257.723C107.213 258.217 107.499 258.697 107.89 259.163L111.95 264.002L110.576 265.155L103.008 256.136L104.144 255.183L105.687 256.721L105.744 256.673C105.65 256.182 105.619 255.688 105.653 255.193C105.681 254.692 105.799 254.215 106.007 253.76C106.22 253.301 106.54 252.892 106.968 252.533ZM119.584 255.97C119.809 255.781 120.023 255.568 120.227 255.332C120.43 255.096 120.583 254.888 120.685 254.709L121.576 255.77C121.477 255.975 121.305 256.222 121.062 256.511C120.823 256.795 120.57 257.05 120.301 257.275C119.824 257.676 119.321 257.957 118.793 258.119C118.261 258.276 117.709 258.253 117.137 258.051C116.571 257.844 115.991 257.386 115.397 256.678L110.909 251.33L109.625 252.407L109.066 251.74L109.909 250.121L108.808 247.707L109.631 247.017L111.385 249.107L114.027 246.89L114.924 247.96L112.283 250.177L116.737 255.484C117.211 256.049 117.694 256.364 118.187 256.427C118.685 256.486 119.151 256.333 119.584 255.97ZM125.202 239.336L122.956 241.221L129.626 249.17L128.26 250.316L121.59 242.367L119.993 243.707L119.441 243.048L120.658 241.256L120.154 240.655C119.518 239.898 119.115 239.19 118.944 238.529C118.769 237.863 118.801 237.238 119.04 236.654C119.279 236.07 119.706 235.52 120.32 235.005C120.666 234.715 121.007 234.48 121.342 234.301C121.684 234.117 121.996 233.972 122.28 233.865L122.831 235.24C122.594 235.336 122.337 235.458 122.059 235.607C121.783 235.745 121.524 235.916 121.283 236.118C120.761 236.556 120.517 237.05 120.55 237.602C120.584 238.144 120.903 238.774 121.506 239.493L122.058 240.151L124.305 238.266L125.202 239.336ZM129.927 233.268C130.108 233.116 130.306 232.968 130.522 232.824C130.734 232.675 130.93 232.553 131.111 232.457L132.002 233.869C131.821 233.955 131.631 234.063 131.432 234.193C131.233 234.323 131.053 234.454 130.894 234.588C130.532 234.892 130.251 235.253 130.052 235.673C129.854 236.083 129.749 236.526 129.737 237.003C129.722 237.474 129.806 237.959 129.991 238.458C130.172 238.952 130.458 239.432 130.849 239.898L134.909 244.737L133.535 245.89L125.967 236.871L127.103 235.918L128.646 237.456L128.703 237.408C128.609 236.917 128.578 236.424 128.611 235.928C128.64 235.428 128.758 234.95 128.966 234.495C129.179 234.036 129.499 233.627 129.927 233.268ZM144.409 229.053C145.031 229.793 145.49 230.535 145.785 231.278C146.081 232.02 146.216 232.744 146.19 233.448C146.164 234.152 145.983 234.828 145.647 235.474C145.312 236.111 144.82 236.701 144.173 237.244C143.57 237.75 142.928 238.111 142.248 238.326C141.57 238.531 140.879 238.588 140.175 238.495C139.477 238.399 138.782 238.145 138.091 237.734C137.406 237.318 136.752 236.74 136.131 235.999C135.302 235.012 134.765 234.032 134.52 233.06C134.27 232.082 134.303 231.152 134.619 230.27C134.936 229.378 135.525 228.57 136.387 227.848C137.21 227.157 138.082 226.738 139.005 226.59C139.934 226.437 140.86 226.567 141.785 226.978C142.711 227.379 143.585 228.071 144.409 229.053ZM137.546 234.811C138.154 235.536 138.777 236.083 139.416 236.454C140.054 236.825 140.696 236.988 141.34 236.943C141.985 236.898 142.622 236.61 143.253 236.081C143.879 235.556 144.269 234.98 144.426 234.353C144.588 233.722 144.542 233.06 144.287 232.366C144.033 231.673 143.602 230.964 142.994 230.24C142.391 229.522 141.775 228.982 141.145 228.622C140.512 228.257 139.875 228.099 139.235 228.15C138.595 228.201 137.957 228.493 137.32 229.027C136.382 229.814 135.954 230.702 136.035 231.69C136.122 232.674 136.626 233.714 137.546 234.811ZM152.655 214.196C153.648 213.363 154.616 212.996 155.558 213.093C156.495 213.185 157.445 213.805 158.407 214.951L163.365 220.86L162.015 221.992L157.113 216.15C156.501 215.42 155.883 215.008 155.261 214.912C154.64 214.807 154.02 215.015 153.4 215.535C152.528 216.267 152.106 217.051 152.134 217.887C152.163 218.723 152.589 219.632 153.413 220.614L157.646 225.659L156.288 226.798L151.385 220.955C150.976 220.467 150.564 220.121 150.15 219.917C149.741 219.708 149.33 219.642 148.917 219.718C148.504 219.783 148.087 219.993 147.664 220.348C147.066 220.849 146.69 221.376 146.535 221.926C146.38 222.477 146.425 223.066 146.67 223.692C146.916 224.308 147.336 224.97 147.93 225.678L151.935 230.451L150.569 231.597L143.001 222.578L144.104 221.653L145.38 222.756L145.454 222.693C145.372 222.229 145.379 221.774 145.474 221.33C145.569 220.886 145.74 220.467 145.988 220.071C146.236 219.676 146.552 219.318 146.936 218.995C147.622 218.42 148.303 218.068 148.981 217.939C149.659 217.8 150.321 217.904 150.966 218.25L151.04 218.188C150.899 217.418 150.981 216.691 151.285 216.006C151.584 215.315 152.041 214.712 152.655 214.196Z"
          fill="#1A1C19" />
        <path
          d="M248.318 140.438L247.713 140.946L247.325 140.919C247.343 139.416 246.843 137.903 245.808 136.67C243.501 133.919 239.401 133.561 236.651 135.868C233.901 138.176 233.542 142.276 235.85 145.026C238.157 147.776 242.257 148.135 245.007 145.827C246.24 144.792 246.995 143.389 247.238 141.905L247.625 141.946L248.133 142.551L255.171 143.16L255.354 141.061L248.318 140.438ZM243.722 144.295C241.814 145.895 238.982 145.648 237.382 143.74C235.781 141.833 236.029 139.001 237.936 137.4C239.844 135.8 242.676 136.048 244.276 137.955C245.877 139.863 245.629 142.694 243.722 144.295Z"
          fill="#1A1C19" />
        <path
          d="M272.655 105.657C271.322 106.776 270.563 108.47 270.551 110.151C268.893 109.871 267.093 110.324 265.76 111.442C263.401 113.422 263.103 116.832 265.082 119.191C267.512 122.087 272.097 122.261 279.05 122.535L281.003 122.607L281.265 120.664C282.208 113.776 282.833 109.231 280.403 106.335C278.424 103.976 275.014 103.678 272.655 105.657ZM279.28 120.398L279.267 120.539L279.126 120.526C272.71 120.284 268.472 120.119 266.615 117.905C265.329 116.373 265.514 114.26 267.046 112.975C268.226 111.985 270.011 111.779 271.298 112.488L272.73 111.286C272.248 109.902 272.761 108.179 273.94 107.189C275.472 105.904 277.586 106.089 278.871 107.621C280.729 109.835 280.155 114.036 279.28 120.398Z"
          fill="#1A1C19" />
        <rect x="0.704416" y="313.617" width="359" height="49" rx="15.5" transform="rotate(-40 0.704416 313.617)"
          stroke="#727970" />
        <rect x="619.427" y="351.655" width="360" height="44" rx="22" transform="rotate(-40 619.427 351.655)"
          fill="#A3F6AB" />
        <path
          d="M637.937 347.933L638.916 347.112L646.63 351.232L643.907 342.924L644.891 342.098L648.189 352.324L647.424 352.965L637.937 347.933ZM637.618 348.201L638.482 347.476L642.525 352.008L645.021 354.982L644.015 355.826L637.618 348.201ZM644.341 342.559L645.205 341.834L651.603 349.459L650.598 350.303L648.102 347.328L644.341 342.559ZM649.722 341.382L654.476 347.048L653.502 347.866L648.747 342.2L649.722 341.382ZM647.413 340.758C647.281 340.601 647.217 340.429 647.221 340.242C647.227 340.051 647.325 339.877 647.514 339.719C647.699 339.564 647.886 339.499 648.074 339.525C648.266 339.549 648.428 339.639 648.56 339.796C648.686 339.946 648.744 340.118 648.733 340.311C648.723 340.498 648.626 340.669 648.441 340.824C648.252 340.982 648.065 341.05 647.88 341.027C647.695 340.998 647.539 340.908 647.413 340.758ZM657.91 342.989C658.141 342.796 658.314 342.57 658.43 342.311C658.547 342.053 658.599 341.789 658.587 341.52C658.572 341.247 658.484 340.996 658.323 340.769L659.244 339.995C659.508 340.345 659.657 340.753 659.691 341.218C659.725 341.677 659.649 342.137 659.463 342.596C659.275 343.052 658.979 343.448 658.578 343.785C658.152 344.142 657.717 344.379 657.274 344.496C656.834 344.609 656.399 344.623 655.97 344.537C655.544 344.448 655.137 344.278 654.748 344.027C654.36 343.77 654.006 343.451 653.686 343.071L653.502 342.851C653.183 342.47 652.931 342.068 652.749 341.644C652.566 341.214 652.468 340.782 652.454 340.347C652.444 339.91 652.533 339.484 652.721 339.07C652.913 338.654 653.222 338.267 653.648 337.909C654.091 337.537 654.555 337.303 655.039 337.206C655.52 337.106 655.985 337.132 656.434 337.285C656.884 337.431 657.282 337.692 657.627 338.068L656.706 338.842C656.492 338.622 656.248 338.467 655.975 338.375C655.705 338.28 655.426 338.259 655.136 338.311C654.848 338.357 654.574 338.489 654.316 338.705C654.019 338.954 653.819 339.223 653.716 339.512C653.614 339.794 653.587 340.084 653.635 340.383C653.684 340.675 653.783 340.964 653.933 341.248C654.083 341.527 654.263 341.79 654.471 342.038L654.655 342.258C654.863 342.506 655.093 342.729 655.344 342.929C655.595 343.129 655.86 343.279 656.139 343.377C656.422 343.473 656.712 343.497 657.011 343.449C657.31 343.394 657.61 343.241 657.91 342.989ZM658.989 335.123L662.997 339.899L662.028 340.712L657.273 335.046L658.216 334.255L658.989 335.123ZM659.986 332.716L660.736 333.621C660.641 333.671 660.556 333.725 660.48 333.783C660.404 333.835 660.321 333.899 660.23 333.975C660.007 334.162 659.839 334.363 659.726 334.576C659.614 334.789 659.551 335.009 659.538 335.234C659.524 335.459 659.556 335.688 659.633 335.922C659.71 336.148 659.824 336.373 659.976 336.597L659.836 336.983C659.549 336.64 659.312 336.291 659.127 335.936C658.945 335.577 658.829 335.222 658.778 334.872C658.725 334.518 658.754 334.184 658.866 333.87C658.978 333.55 659.188 333.261 659.495 333.003C659.565 332.944 659.652 332.886 659.758 332.827C659.86 332.765 659.936 332.728 659.986 332.716ZM663.168 335.034L663.067 334.914C662.724 334.506 662.466 334.077 662.291 333.628C662.114 333.176 662.029 332.727 662.036 332.281C662.039 331.832 662.14 331.402 662.337 330.993C662.532 330.579 662.827 330.207 663.221 329.876C663.619 329.542 664.039 329.315 664.479 329.196C664.921 329.069 665.363 329.043 665.806 329.117C666.25 329.185 666.679 329.346 667.093 329.599C667.505 329.848 667.882 330.177 668.225 330.586L668.326 330.706C668.669 331.115 668.927 331.543 669.101 331.992C669.276 332.441 669.359 332.891 669.352 333.343C669.345 333.789 669.245 334.219 669.05 334.632C668.856 335.039 668.56 335.409 668.162 335.743C667.764 336.077 667.346 336.306 666.908 336.429C666.467 336.549 666.025 336.575 665.582 336.507C665.138 336.433 664.711 336.271 664.299 336.021C663.888 335.772 663.511 335.443 663.168 335.034ZM664.036 334.101L664.137 334.222C664.374 334.504 664.631 334.744 664.908 334.939C665.183 335.131 665.467 335.268 665.761 335.349C666.058 335.426 666.355 335.436 666.651 335.378C666.944 335.316 667.225 335.173 667.494 334.947C667.759 334.724 667.946 334.476 668.054 334.2C668.163 333.919 668.203 333.626 668.175 333.323C668.146 333.02 668.061 332.716 667.919 332.413C667.778 332.103 667.589 331.806 667.352 331.524L667.251 331.403C667.016 331.124 666.76 330.89 666.483 330.7C666.205 330.505 665.918 330.368 665.621 330.29C665.324 330.206 665.028 330.193 664.731 330.251C664.439 330.306 664.158 330.447 663.889 330.672C663.624 330.895 663.437 331.147 663.328 331.429C663.223 331.707 663.184 332.002 663.212 332.311C663.24 332.615 663.327 332.92 663.472 333.227C663.613 333.53 663.801 333.822 664.036 334.101ZM669.211 326.948L673.02 331.488L672.046 332.305L667.292 326.639L668.214 325.866L669.211 326.948ZM670.264 328.607L669.8 328.969C669.479 328.579 669.229 328.179 669.052 327.768C668.871 327.355 668.774 326.945 668.761 326.54C668.748 326.134 668.829 325.745 669.004 325.372C669.176 324.996 669.451 324.649 669.828 324.333C670.093 324.11 670.369 323.944 670.657 323.833C670.942 323.719 671.234 323.673 671.533 323.696C671.832 323.719 672.132 323.818 672.434 323.993C672.735 324.168 673.036 324.434 673.335 324.79L676.503 328.566L675.534 329.379L672.405 325.65C672.156 325.353 671.906 325.159 671.656 325.065C671.409 324.969 671.161 324.957 670.912 325.029C670.66 325.098 670.412 325.235 670.167 325.44C669.881 325.68 669.684 325.931 669.577 326.194C669.47 326.456 669.434 326.725 669.468 326.999C669.502 327.274 669.59 327.549 669.731 327.823C669.872 328.091 670.05 328.352 670.264 328.607ZM673.487 324.993L673.004 325.737C672.747 325.423 672.547 325.082 672.405 324.714C672.266 324.342 672.197 323.966 672.198 323.584C672.202 323.2 672.29 322.826 672.461 322.462C672.629 322.095 672.893 321.761 673.252 321.459C673.556 321.204 673.859 321.019 674.16 320.903C674.465 320.784 674.768 320.741 675.069 320.774C675.371 320.8 675.672 320.907 675.972 321.096C676.273 321.284 676.573 321.556 676.871 321.912L679.995 325.635L679.021 326.452L675.889 322.719C675.622 322.401 675.365 322.197 675.117 322.108C674.87 322.012 674.626 322.005 674.386 322.087C674.147 322.163 673.903 322.305 673.655 322.513C673.442 322.692 673.284 322.887 673.182 323.098C673.079 323.309 673.026 323.526 673.023 323.749C673.017 323.968 673.053 324.185 673.131 324.399C673.213 324.61 673.331 324.808 673.487 324.993ZM684.092 322.376C683.698 322.707 683.284 322.941 682.852 323.078C682.42 323.208 681.986 323.248 681.551 323.197C681.119 323.143 680.701 322.999 680.298 322.767C679.894 322.534 679.526 322.219 679.192 321.821L679.007 321.601C678.62 321.14 678.344 320.673 678.179 320.199C678.01 319.722 677.937 319.259 677.96 318.811C677.983 318.364 678.089 317.951 678.277 317.573C678.466 317.195 678.719 316.872 679.037 316.606C679.442 316.266 679.849 316.043 680.26 315.936C680.674 315.827 681.08 315.819 681.48 315.912C681.876 316.002 682.262 316.178 682.637 316.44C683.009 316.699 683.362 317.028 683.696 317.426L684.06 317.86L679.829 321.411L679.166 320.62L682.428 317.883L682.367 317.809C682.142 317.57 681.884 317.369 681.594 317.208C681.308 317.044 681.004 316.965 680.683 316.973C680.362 316.98 680.036 317.123 679.704 317.402C679.485 317.586 679.322 317.803 679.216 318.053C679.107 318.299 679.062 318.568 679.082 318.861C679.102 319.154 679.185 319.462 679.331 319.785C679.477 320.109 679.694 320.441 679.981 320.784L680.166 321.004C680.391 321.272 680.64 321.495 680.913 321.671C681.186 321.84 681.469 321.954 681.761 322.012C682.057 322.067 682.351 322.058 682.642 321.987C682.936 321.912 683.216 321.764 683.481 321.541C683.823 321.254 684.055 320.941 684.175 320.602C684.295 320.263 684.346 319.902 684.328 319.519L685.305 319.493C685.338 319.78 685.331 320.087 685.283 320.413C685.235 320.739 685.117 321.07 684.929 321.406C684.745 321.739 684.466 322.062 684.092 322.376ZM685.15 311.655L685.774 312.398L682.71 314.969L682.086 314.225L685.15 311.655ZM681.967 311.978L682.936 311.165L687.669 316.805C687.83 316.997 687.981 317.117 688.122 317.165C688.264 317.213 688.395 317.213 688.515 317.165C688.636 317.118 688.75 317.048 688.859 316.958C688.939 316.89 689.017 316.813 689.092 316.726C689.168 316.632 689.225 316.561 689.261 316.512L689.93 317.299C689.874 317.388 689.792 317.495 689.684 317.622C689.582 317.749 689.444 317.885 689.269 318.032C689.032 318.231 688.774 318.367 688.496 318.44C688.218 318.512 687.927 318.489 687.624 318.368C687.321 318.242 687.012 317.99 686.695 317.613L681.967 311.978ZM693.671 314.338C693.276 314.669 692.863 314.903 692.43 315.04C691.999 315.171 691.565 315.21 691.129 315.159C690.697 315.105 690.28 314.962 689.876 314.729C689.473 314.497 689.104 314.181 688.77 313.783L688.586 313.564C688.199 313.103 687.923 312.635 687.757 312.162C687.589 311.684 687.516 311.222 687.539 310.774C687.562 310.327 687.668 309.914 687.856 309.535C688.044 309.157 688.297 308.835 688.615 308.568C689.02 308.229 689.428 308.005 689.838 307.899C690.252 307.79 690.659 307.782 691.058 307.875C691.455 307.964 691.84 308.14 692.215 308.403C692.587 308.662 692.94 308.99 693.274 309.388L693.639 309.823L689.408 313.373L688.744 312.583L692.007 309.845L691.945 309.772C691.72 309.532 691.463 309.332 691.173 309.171C690.886 309.006 690.583 308.928 690.262 308.936C689.941 308.943 689.615 309.086 689.283 309.364C689.063 309.549 688.9 309.766 688.794 310.015C688.685 310.261 688.641 310.531 688.66 310.824C688.68 311.117 688.763 311.425 688.909 311.748C689.056 312.071 689.273 312.404 689.56 312.746L689.744 312.966C689.97 313.235 690.219 313.457 690.491 313.633C690.764 313.803 691.047 313.916 691.34 313.974C691.636 314.029 691.929 314.021 692.22 313.949C692.515 313.875 692.794 313.726 693.06 313.504C693.402 313.217 693.633 312.904 693.753 312.565C693.874 312.226 693.925 311.865 693.906 311.482L694.884 311.456C694.917 311.743 694.91 312.05 694.862 312.376C694.814 312.701 694.696 313.032 694.508 313.368C694.323 313.702 694.044 314.025 693.671 314.338ZM694.072 305.685L698.079 310.461L697.11 311.274L692.356 305.608L693.299 304.817L694.072 305.685ZM695.068 303.278L695.819 304.183C695.724 304.233 695.638 304.287 695.562 304.345C695.486 304.397 695.403 304.461 695.312 304.537C695.089 304.725 694.921 304.925 694.809 305.138C694.696 305.352 694.633 305.571 694.62 305.796C694.607 306.022 694.638 306.251 694.715 306.484C694.792 306.711 694.907 306.936 695.059 307.159L694.918 307.545C694.631 307.203 694.395 306.854 694.209 306.498C694.027 306.139 693.911 305.784 693.861 305.434C693.808 305.08 693.837 304.746 693.948 304.432C694.061 304.112 694.27 303.823 694.577 303.565C694.647 303.507 694.735 303.448 694.84 303.389C694.943 303.327 695.019 303.29 695.068 303.278Z"
          fill="#1A1C19" />
        <path
          d="M653.668 361.642L654.498 360.946L658.573 365.802L657.824 366.431L656.801 365.377L653.668 361.642ZM655.996 364.117L656.299 363.848C656.585 364.189 656.817 364.53 656.995 364.87C657.176 365.207 657.292 365.536 657.341 365.857C657.391 366.177 657.365 366.48 657.262 366.765C657.159 367.05 656.968 367.31 656.686 367.546C656.459 367.737 656.23 367.878 656.001 367.969C655.776 368.06 655.547 368.097 655.313 368.079C655.079 368.056 654.835 367.978 654.581 367.844L653.326 366.687L653.847 366.25C654.105 366.558 654.342 366.788 654.556 366.94C654.77 367.092 654.966 367.182 655.143 367.212C655.324 367.239 655.491 367.221 655.643 367.16C655.795 367.098 655.94 367.01 656.078 366.894C656.344 366.671 656.529 366.447 656.632 366.223C656.735 365.994 656.772 365.764 656.742 365.534C656.712 365.304 656.631 365.071 656.499 364.835C656.367 364.599 656.2 364.359 655.996 364.117ZM650.678 364.151L651.504 363.458L657.146 370.182L656.32 370.875L650.678 364.151ZM657.773 359.842L661.039 363.734L660.204 364.434L656.129 359.578L656.919 358.915L657.773 359.842ZM658.676 361.264L658.279 361.575C658.003 361.24 657.789 360.897 657.637 360.545C657.482 360.191 657.399 359.84 657.388 359.492C657.377 359.145 657.446 358.811 657.596 358.491C657.743 358.169 657.979 357.872 658.302 357.601C658.529 357.41 658.766 357.267 659.013 357.172C659.257 357.074 659.508 357.035 659.764 357.055C660.02 357.075 660.277 357.159 660.536 357.31C660.794 357.46 661.052 357.688 661.308 357.993L664.023 361.229L663.193 361.926L660.511 358.73C660.298 358.476 660.084 358.308 659.869 358.229C659.657 358.146 659.445 358.136 659.231 358.198C659.015 358.257 658.803 358.374 658.593 358.55C658.348 358.756 658.179 358.971 658.088 359.196C657.996 359.421 657.965 359.651 657.994 359.886C658.023 360.122 658.098 360.357 658.219 360.592C658.34 360.822 658.493 361.046 658.676 361.264ZM661.438 358.166L661.025 358.804C660.804 358.535 660.633 358.243 660.511 357.927C660.392 357.609 660.333 357.286 660.334 356.959C660.338 356.63 660.413 356.309 660.559 355.997C660.703 355.683 660.929 355.396 661.237 355.138C661.498 354.919 661.757 354.76 662.015 354.661C662.277 354.559 662.536 354.522 662.794 354.55C663.053 354.573 663.311 354.665 663.569 354.826C663.826 354.987 664.083 355.22 664.339 355.525L667.017 358.717L666.182 359.417L663.497 356.217C663.269 355.945 663.048 355.77 662.836 355.693C662.624 355.611 662.415 355.605 662.209 355.676C662.004 355.741 661.795 355.863 661.583 356.041C661.4 356.194 661.265 356.361 661.177 356.542C661.089 356.723 661.044 356.909 661.041 357.1C661.035 357.288 661.066 357.474 661.133 357.657C661.204 357.838 661.305 358.008 661.438 358.166Z"
          fill="#414940" />
        <path
          d="M886.323 144.673C884.99 145.792 884.231 147.486 884.219 149.167C882.561 148.887 880.761 149.34 879.429 150.458C877.069 152.438 876.771 155.847 878.751 158.207C881.18 161.103 885.765 161.276 892.718 161.551L894.671 161.623L894.933 159.679C895.877 152.792 896.501 148.247 894.072 145.351C892.092 142.992 888.682 142.693 886.323 144.673ZM892.948 159.413L892.935 159.554L892.795 159.542C886.378 159.3 882.14 159.135 880.283 156.921C878.997 155.389 879.182 153.276 880.714 151.99C881.894 151.001 883.679 150.795 884.966 151.504L886.398 150.302C885.916 148.918 886.429 147.195 887.609 146.205C889.141 144.92 891.254 145.105 892.539 146.637C894.397 148.851 893.824 153.052 892.948 159.413Z"
          fill="#1A1C19" />
        <rect x="130.717" y="332.675" width="78.5" height="81.4" rx="39.25" transform="rotate(-45 130.717 332.675)"
          fill="#F0F1EB" />
        <path
          d="M186.433 324.751L187.265 325.583C187.514 325.832 187.69 326.06 187.794 326.267C187.892 326.47 187.968 326.649 188.02 326.804L192.531 339.84C192.624 340.11 192.655 340.39 192.624 340.68C192.588 340.966 192.435 341.243 192.165 341.513L190.773 342.905L186.526 329.962C186.448 329.687 186.384 329.431 186.332 329.192C186.28 328.943 186.246 328.692 186.231 328.437L180.848 333.82C180.729 333.939 180.581 333.999 180.405 333.999C180.228 333.999 180.081 333.939 179.961 333.82L178.662 332.521L186.433 324.751Z"
          fill="#0F1F11" />
      </svg>